<svg width="1440" height="2572" viewBox="0 0 1440 2572" fill="none" xmlns="http://www.w3.org/2000/svg">
<rect width="1440" height="2572" fill="white"/>
<rect width="1440" height="2572" fill="#FF9F66"/>
<rect width="1440" height="65" fill="#B1E7FE"/>
<rect x="54" y="142" width="335" height="675" rx="40" fill="white"/>
<rect x="437" y="142" width="935" height="554" rx="40" fill="white"/>
<rect x="437" y="142" width="935" height="554" rx="40" fill="white"/>
<rect x="434" y="880" width="917" height="307" rx="40" fill="white"/>
<rect x="944" y="424" width="320" height="73" rx="36.5" fill="#FF9F66"/>
<rect x="547" y="338" width="320" height="73" rx="36.5" fill="#7FA3FF"/>
<rect x="944" y="279" width="320" height="73" rx="36.5" fill="#FF9F66"/>
<rect x="54" y="142" width="335" height="123" rx="40" fill="#B1E7FE"/>
<rect x="547" y="193" width="320" height="73" rx="36.5" fill="#7FA3FF"/>
<rect x="436" y="744" width="730" height="86" rx="28" fill="white" stroke="white" stroke-width="4"/>
<path d="M475.36 780.48H479.92V795H482.32V780.48H486.88V778.2H475.36V780.48ZM490.479 800.76L497.895 783.72H495.495L492.255 791.16L488.727 783.72H486.279L491.103 793.824L488.055 800.76H490.479ZM502.57 794.016C503.482 794.808 504.634 795.24 505.978 795.24C506.986 795.24 508.042 794.952 508.81 794.496C510.514 793.488 511.69 791.616 511.69 789.36C511.69 787.104 510.49 785.208 508.786 784.2C508.018 783.744 507.082 783.48 506.026 783.48C504.754 783.48 503.53 783.864 502.498 784.752V783.72H500.29V800.76H502.57V794.016ZM502.57 787.248C503.266 786.336 504.418 785.64 505.786 785.64C507.97 785.64 509.41 787.392 509.41 789.36C509.41 791.376 507.85 793.08 505.666 793.08C504.514 793.08 503.338 792.504 502.57 791.472V787.248ZM524.757 789.84C524.781 789.624 524.781 789.456 524.781 789.36C524.781 786.024 522.501 783.48 519.357 783.48C516.165 783.48 513.861 785.976 513.861 789.36C513.861 792.744 516.405 795.24 519.693 795.24C521.997 795.24 523.605 794.208 524.445 793.128L522.957 791.712C522.309 792.432 521.397 793.248 519.717 793.248C517.749 793.248 516.189 791.736 516.069 789.84H524.757ZM519.429 785.472C520.773 785.472 522.069 786.48 522.405 787.92H516.261C516.645 786.456 517.965 785.472 519.429 785.472ZM536.534 800.76L543.95 783.72H541.55L538.31 791.16L534.782 783.72H532.334L537.158 793.824L534.11 800.76H536.534ZM545.268 789.36C545.268 792.72 547.764 795.24 551.1 795.24C554.436 795.24 556.932 792.72 556.932 789.36C556.932 786 554.436 783.48 551.1 783.48C547.764 783.48 545.268 786 545.268 789.36ZM547.548 789.36C547.548 787.296 549.012 785.64 551.1 785.64C553.188 785.64 554.652 787.296 554.652 789.36C554.652 791.424 553.188 793.08 551.1 793.08C549.012 793.08 547.548 791.424 547.548 789.36ZM564.856 795.24C566.416 795.24 567.664 794.448 568.168 793.968V795H570.376V783.72H568.096V791.472C567.448 792.24 566.32 793.08 564.928 793.08C564.064 793.08 563.248 792.696 562.744 792.096C562.336 791.616 562.096 790.992 562.096 789.84V783.72H559.816V789.48C559.816 791.376 560.152 792.48 560.848 793.344C561.784 794.52 563.248 795.24 564.856 795.24ZM580.926 783.552C580.662 783.504 580.278 783.48 580.038 783.48C578.382 783.48 577.206 784.248 576.654 785.016V783.72H574.446V795H576.726V787.536C577.35 786.456 578.598 785.64 579.774 785.64C580.134 785.64 580.398 785.664 580.662 785.736L580.926 783.552ZM589.915 783.72V795H592.195V787.248C592.843 786.48 593.971 785.64 595.363 785.64C596.227 785.64 597.043 786.024 597.547 786.624C597.955 787.104 598.195 787.728 598.195 788.88V795H600.475V789.24C600.475 788.448 600.403 787.8 600.283 787.248C601.027 786.48 602.083 785.64 603.715 785.64C604.555 785.64 605.323 786.024 605.827 786.624C606.235 787.104 606.475 787.728 606.475 788.88V795H608.755V789.24C608.755 787.344 608.419 786.24 607.723 785.376C606.787 784.2 605.323 783.48 603.715 783.48C601.675 783.48 600.451 784.32 599.419 785.352C598.483 784.224 597.091 783.48 595.435 783.48C593.899 783.48 592.579 784.296 592.123 784.8V783.72H589.915ZM622.539 789.84C622.562 789.624 622.562 789.456 622.562 789.36C622.562 786.024 620.283 783.48 617.139 783.48C613.947 783.48 611.643 785.976 611.643 789.36C611.643 792.744 614.187 795.24 617.475 795.24C619.779 795.24 621.387 794.208 622.227 793.128L620.739 791.712C620.091 792.432 619.179 793.248 617.499 793.248C615.531 793.248 613.971 791.736 613.851 789.84H622.539ZM617.211 785.472C618.555 785.472 619.851 786.48 620.187 787.92H614.043C614.427 786.456 615.747 785.472 617.211 785.472ZM624.601 793.68C625.849 794.688 627.361 795.24 629.161 795.24C631.369 795.24 633.361 793.92 633.361 791.784C633.361 789.456 631.033 788.664 629.257 788.208C628.129 787.92 627.241 787.656 627.241 786.888C627.241 786 628.177 785.472 629.281 785.472C630.193 785.472 631.009 785.832 631.705 786.36L632.881 784.728C631.993 784.008 630.793 783.48 629.137 783.48C627.121 783.48 624.961 784.584 624.961 787.008C624.961 788.592 626.185 789.456 627.553 789.912C629.209 790.464 631.081 790.536 631.081 791.832C631.081 792.72 630.097 793.248 629.113 793.248C627.985 793.248 626.833 792.816 625.777 792L624.601 793.68ZM635.523 793.68C636.771 794.688 638.283 795.24 640.083 795.24C642.291 795.24 644.283 793.92 644.283 791.784C644.283 789.456 641.955 788.664 640.179 788.208C639.051 787.92 638.163 787.656 638.163 786.888C638.163 786 639.099 785.472 640.203 785.472C641.115 785.472 641.931 785.832 642.627 786.36L643.803 784.728C642.915 784.008 641.715 783.48 640.059 783.48C638.043 783.48 635.883 784.584 635.883 787.008C635.883 788.592 637.107 789.456 638.475 789.912C640.131 790.464 642.003 790.536 642.003 791.832C642.003 792.72 641.019 793.248 640.035 793.248C638.907 793.248 637.755 792.816 636.699 792L635.523 793.68ZM655.756 795H657.964V783.72H655.756V784.752C654.724 783.864 653.5 783.48 652.228 783.48C651.172 783.48 650.236 783.744 649.468 784.2C647.764 785.208 646.564 787.104 646.564 789.36C646.564 791.616 647.74 793.488 649.444 794.496C650.212 794.952 651.268 795.24 652.276 795.24C653.62 795.24 654.844 794.784 655.756 793.968V795ZM655.684 791.472C654.916 792.504 653.74 793.08 652.588 793.08C650.404 793.08 648.844 791.376 648.844 789.36C648.844 787.392 650.284 785.64 652.468 785.64C653.836 785.64 654.988 786.336 655.684 787.248V791.472ZM670.216 794.016V794.64C670.216 796.056 670 796.92 669.592 797.544C669.04 798.384 668.08 798.84 666.856 798.84C665.008 798.84 663.952 797.904 663.136 796.824L661.456 798.384C662.176 799.512 664.024 801 666.952 801C669.184 801 670.912 799.968 671.824 798.216C672.28 797.328 672.496 796.2 672.496 794.52V783.72H670.288V784.752C669.256 783.864 668.032 783.48 666.76 783.48C665.704 783.48 664.768 783.744 664 784.2C662.296 785.208 661.096 787.104 661.096 789.36C661.096 791.616 662.272 793.488 663.976 794.496C664.744 794.952 665.8 795.24 666.808 795.24C668.152 795.24 669.304 794.808 670.216 794.016ZM670.216 791.472C669.448 792.504 668.272 793.08 667.12 793.08C664.936 793.08 663.376 791.376 663.376 789.36C663.376 787.392 664.816 785.64 667 785.64C668.368 785.64 669.52 786.336 670.216 787.248V791.472ZM686.523 789.84C686.547 789.624 686.547 789.456 686.547 789.36C686.547 786.024 684.267 783.48 681.123 783.48C677.931 783.48 675.627 785.976 675.627 789.36C675.627 792.744 678.171 795.24 681.459 795.24C683.763 795.24 685.371 794.208 686.211 793.128L684.723 791.712C684.075 792.432 683.163 793.248 681.483 793.248C679.515 793.248 677.955 791.736 677.835 789.84H686.523ZM681.195 785.472C682.539 785.472 683.835 786.48 684.171 787.92H678.027C678.411 786.456 679.731 785.472 681.195 785.472ZM698.414 777.96H696.134V795H698.414V787.248C699.086 786.432 700.166 785.64 701.654 785.64C702.59 785.64 703.454 786.072 703.982 786.744C704.39 787.248 704.654 787.92 704.654 789.36V795H706.934V789.48C706.934 787.536 706.55 786.384 705.83 785.472C704.87 784.248 703.382 783.48 701.726 783.48C700.166 783.48 699.038 784.176 698.414 784.704V777.96ZM720.718 789.84C720.742 789.624 720.742 789.456 720.742 789.36C720.742 786.024 718.462 783.48 715.318 783.48C712.126 783.48 709.822 785.976 709.822 789.36C709.822 792.744 712.366 795.24 715.654 795.24C717.958 795.24 719.566 794.208 720.406 793.128L718.918 791.712C718.27 792.432 717.358 793.248 715.678 793.248C713.71 793.248 712.15 791.736 712.03 789.84H720.718ZM715.39 785.472C716.734 785.472 718.03 786.48 718.366 787.92H712.222C712.606 786.456 713.926 785.472 715.39 785.472ZM730.34 783.552C730.076 783.504 729.692 783.48 729.452 783.48C727.796 783.48 726.62 784.248 726.068 785.016V783.72H723.86V795H726.14V787.536C726.764 786.456 728.012 785.64 729.188 785.64C729.548 785.64 729.812 785.664 730.076 785.736L730.34 783.552ZM742.562 789.84C742.586 789.624 742.586 789.456 742.586 789.36C742.586 786.024 740.306 783.48 737.162 783.48C733.97 783.48 731.666 785.976 731.666 789.36C731.666 792.744 734.21 795.24 737.498 795.24C739.802 795.24 741.41 794.208 742.25 793.128L740.762 791.712C740.114 792.432 739.202 793.248 737.522 793.248C735.554 793.248 733.994 791.736 733.874 789.84H742.562ZM737.234 785.472C738.578 785.472 739.874 786.48 740.21 787.92H734.066C734.45 786.456 735.77 785.472 737.234 785.472ZM746.976 789.72H748.536L748.896 783.72V778.2H746.616V783.72L746.976 789.72ZM746.064 793.56C746.064 794.496 746.808 795.24 747.744 795.24C748.68 795.24 749.424 794.496 749.424 793.56C749.424 792.624 748.68 791.88 747.744 791.88C746.808 791.88 746.064 792.624 746.064 793.56Z" fill="black"/>
<path d="M189.65 177.825V170.825H195.25C196.93 170.825 197.84 171.245 198.47 171.91C199.065 172.54 199.45 173.38 199.45 174.325C199.45 175.27 199.065 176.11 198.47 176.74C197.84 177.405 196.93 177.825 195.25 177.825H189.65ZM195.425 181.15C197.805 181.15 199.345 180.555 200.535 179.54C202.005 178.28 202.95 176.425 202.95 174.325C202.95 172.225 202.005 170.37 200.535 169.11C199.345 168.095 197.805 167.5 195.425 167.5H186.15V192H189.65V181.15H195.425ZM217.223 192H220.443V175.55H217.223V177.055C215.718 175.76 213.933 175.2 212.078 175.2C210.538 175.2 209.173 175.585 208.053 176.25C205.568 177.72 203.818 180.485 203.818 183.775C203.818 187.065 205.533 189.795 208.018 191.265C209.138 191.93 210.678 192.35 212.148 192.35C214.108 192.35 215.893 191.685 217.223 190.495V192ZM217.118 186.855C215.998 188.36 214.283 189.2 212.603 189.2C209.418 189.2 207.143 186.715 207.143 183.775C207.143 180.905 209.243 178.35 212.428 178.35C214.423 178.35 216.103 179.365 217.118 180.695V186.855ZM226.41 192H229.735V167.15H226.41V192ZM234.097 190.075C235.917 191.545 238.122 192.35 240.747 192.35C243.967 192.35 246.872 190.425 246.872 187.31C246.872 183.915 243.477 182.76 240.887 182.095C239.242 181.675 237.947 181.29 237.947 180.17C237.947 178.875 239.312 178.105 240.922 178.105C242.252 178.105 243.442 178.63 244.457 179.4L246.172 177.02C244.877 175.97 243.127 175.2 240.712 175.2C237.772 175.2 234.622 176.81 234.622 180.345C234.622 182.655 236.407 183.915 238.402 184.58C240.817 185.385 243.547 185.49 243.547 187.38C243.547 188.675 242.112 189.445 240.677 189.445C239.032 189.445 237.352 188.815 235.812 187.625L234.097 190.075Z" fill="black"/>
<rect x="1203" y="745" width="148" height="84" rx="15" fill="#B1E7FE"/>
<path d="M1236.05 795.255C1238.22 797.88 1241.27 799.35 1244.63 799.35C1248.9 799.35 1252.22 796.55 1252.22 792.245C1252.22 789.445 1250.68 787.73 1249.04 786.645C1245.89 784.545 1240.67 783.88 1240.67 780.765C1240.67 778.63 1242.7 777.475 1244.73 777.475C1246.27 777.475 1247.78 778.035 1249.11 779.155L1251.17 776.6C1249.88 775.515 1247.71 774.15 1244.59 774.15C1240.32 774.15 1237.17 777.09 1237.17 780.66C1237.17 783.215 1238.54 784.895 1240.29 786.05C1243.54 788.185 1248.72 788.605 1248.72 792.35C1248.72 794.555 1246.73 796.025 1244.45 796.025C1241.93 796.025 1239.9 794.625 1238.47 792.875L1236.05 795.255ZM1272.49 791.475C1272.53 791.16 1272.53 790.915 1272.53 790.775C1272.53 785.91 1269.2 782.2 1264.62 782.2C1259.96 782.2 1256.6 785.84 1256.6 790.775C1256.6 795.71 1260.31 799.35 1265.11 799.35C1268.47 799.35 1270.81 797.845 1272.04 796.27L1269.87 794.205C1268.92 795.255 1267.59 796.445 1265.14 796.445C1262.27 796.445 1260 794.24 1259.82 791.475H1272.49ZM1264.72 785.105C1266.68 785.105 1268.57 786.575 1269.06 788.675H1260.1C1260.66 786.54 1262.59 785.105 1264.72 785.105ZM1281.7 782.55H1278.48V799H1281.8V787.695C1282.78 786.505 1284.36 785.35 1286.53 785.35C1287.89 785.35 1289.15 785.98 1289.92 786.96C1290.52 787.695 1290.9 788.675 1290.9 790.775V799H1294.23V790.95C1294.23 788.115 1293.67 786.435 1292.62 785.105C1291.22 783.32 1289.05 782.2 1286.63 782.2C1284.25 782.2 1282.57 783.285 1281.7 784.125V782.55ZM1313.24 799H1316.46V774.15H1313.14V783.985C1311.67 782.76 1309.88 782.2 1308.1 782.2C1306.56 782.2 1305.19 782.585 1304.07 783.25C1301.59 784.72 1299.84 787.485 1299.84 790.775C1299.84 794.065 1301.55 796.795 1304.04 798.265C1305.16 798.93 1306.7 799.35 1308.17 799.35C1310.13 799.35 1311.91 798.685 1313.24 797.495V799ZM1313.14 793.855C1312.02 795.36 1310.3 796.2 1308.62 796.2C1305.44 796.2 1303.16 793.715 1303.16 790.775C1303.16 787.905 1305.26 785.35 1308.45 785.35C1310.44 785.35 1312.12 786.365 1313.14 787.695V793.855Z" fill="black"/>
<rect x="54" y="212" width="335" height="53" fill="white"/>
<rect x="84" y="278" width="275" height="93" rx="40" fill="#C9DDFF"/>
<rect x="84" y="404" width="275" height="93" rx="40" fill="#FFF574"/>
<rect x="84" y="530" width="275" height="93" rx="40" fill="#FF9F66"/>
<rect x="84" y="656" width="275" height="93" rx="40" fill="#7FA3FF"/>
<circle cx="149" cy="702" r="27.5" stroke="white" stroke-width="3"/>
<circle cx="141.17" cy="697.65" r="2.03" fill="white"/>
<circle cx="156.83" cy="697.65" r="2.03" fill="white"/>
<path d="M143.78 708.96C145.445 711.148 149.863 714.212 154.22 708.96" stroke="white" stroke-width="2" stroke-linecap="round"/>
<circle cx="504" cy="226" r="27.5" stroke="#7FA3FF" stroke-width="3"/>
<circle cx="496.17" cy="221.65" r="2.03" fill="#7FA3FF"/>
<circle cx="511.83" cy="221.65" r="2.03" fill="#7FA3FF"/>
<path d="M498.78 232.96C500.445 235.148 504.863 238.212 509.22 232.96" stroke="#7FA3FF" stroke-width="2" stroke-linecap="round"/>
<circle cx="504" cy="371" r="27.5" stroke="#7FA3FF" stroke-width="3"/>
<circle cx="496.17" cy="366.65" r="2.03" fill="#7FA3FF"/>
<circle cx="511.83" cy="366.65" r="2.03" fill="#7FA3FF"/>
<path d="M498.78 377.96C500.445 380.148 504.863 383.212 509.22 377.96" stroke="#7FA3FF" stroke-width="2" stroke-linecap="round"/>
<circle cx="1311" cy="315" r="27.5" stroke="#FF9F66" stroke-width="3"/>
<circle cx="1303.17" cy="310.65" r="2.03" fill="#FF9F66"/>
<circle cx="1318.83" cy="310.65" r="2.03" fill="#FF9F66"/>
<path d="M1305.78 321.96C1307.44 324.148 1311.86 327.212 1316.22 321.96" stroke="#FF9F66" stroke-width="2" stroke-linecap="round"/>
<circle cx="1311" cy="460" r="27.5" stroke="#FF9F66" stroke-width="3"/>
<circle cx="1303.17" cy="455.65" r="2.03" fill="#FF9F66"/>
<circle cx="1318.83" cy="455.65" r="2.03" fill="#FF9F66"/>
<path d="M1305.78 466.96C1307.44 469.148 1311.86 472.212 1316.22 466.96" stroke="#FF9F66" stroke-width="2" stroke-linecap="round"/>
<circle cx="149" cy="577" r="27.5" stroke="white" stroke-width="3"/>
<circle cx="141.17" cy="572.65" r="2.03" fill="white"/>
<circle cx="156.83" cy="572.65" r="2.03" fill="white"/>
<path d="M143.78 583.96C145.445 586.148 149.863 589.212 154.22 583.96" stroke="white" stroke-width="2" stroke-linecap="round"/>
<circle cx="149" cy="325" r="27.5" stroke="white" stroke-width="3"/>
<circle cx="141.17" cy="320.65" r="2.03" fill="white"/>
<circle cx="156.83" cy="320.65" r="2.03" fill="white"/>
<path d="M143.78 331.96C145.445 334.148 149.863 337.212 154.22 331.96" stroke="white" stroke-width="2" stroke-linecap="round"/>
<circle cx="149" cy="451" r="27.5" stroke="#957FFF" stroke-width="3"/>
<circle cx="141.17" cy="446.65" r="2.03" fill="#957FFF"/>
<circle cx="156.83" cy="446.65" r="2.03" fill="#957FFF"/>
<path d="M143.78 457.96C145.445 460.148 149.863 463.212 154.22 457.96" stroke="#957FFF" stroke-width="2" stroke-linecap="round"/>
<rect x="434" y="880" width="917" height="129" rx="40" fill="#B1E7FE"/>
<rect x="434" y="954" width="917" height="105" fill="white"/>
<path d="M495.64 926H497.32V909.2H494.92V921.536L484.84 909.2H483.16V926H485.56V913.664L495.64 926ZM500.549 920.36C500.549 923.72 503.045 926.24 506.381 926.24C509.717 926.24 512.213 923.72 512.213 920.36C512.213 917 509.717 914.48 506.381 914.48C503.045 914.48 500.549 917 500.549 920.36ZM502.829 920.36C502.829 918.296 504.293 916.64 506.381 916.64C508.469 916.64 509.933 918.296 509.933 920.36C509.933 922.424 508.469 924.08 506.381 924.08C504.293 924.08 502.829 922.424 502.829 920.36ZM521.724 923.936C521.388 924.032 520.812 924.08 520.476 924.08C519.876 924.08 519.228 923.864 518.916 923.48C518.628 923.144 518.58 922.64 518.58 922.04V916.76H522.18V914.72H518.58V911.6H516.3V914.72H513.42V916.76H516.3V921.92C516.3 923.144 516.54 924.176 517.212 924.92C517.932 925.736 518.988 926.24 520.404 926.24C521.052 926.24 521.748 926.144 522.18 926L521.724 923.936ZM530.452 924.68C531.7 925.688 533.212 926.24 535.012 926.24C537.22 926.24 539.212 924.92 539.212 922.784C539.212 920.456 536.884 919.664 535.108 919.208C533.98 918.92 533.092 918.656 533.092 917.888C533.092 917 534.028 916.472 535.132 916.472C536.044 916.472 536.86 916.832 537.556 917.36L538.732 915.728C537.844 915.008 536.644 914.48 534.988 914.48C532.972 914.48 530.812 915.584 530.812 918.008C530.812 919.592 532.036 920.456 533.404 920.912C535.06 921.464 536.932 921.536 536.932 922.832C536.932 923.72 535.948 924.248 534.964 924.248C533.836 924.248 532.684 923.816 531.628 923L530.452 924.68ZM547.254 926.24C548.814 926.24 550.062 925.448 550.566 924.968V926H552.774V914.72H550.494V922.472C549.846 923.24 548.718 924.08 547.326 924.08C546.462 924.08 545.646 923.696 545.142 923.096C544.734 922.616 544.494 921.992 544.494 920.84V914.72H542.214V920.48C542.214 922.376 542.55 923.48 543.246 924.344C544.182 925.52 545.646 926.24 547.254 926.24ZM563.325 914.552C563.061 914.504 562.677 914.48 562.437 914.48C560.781 914.48 559.605 915.248 559.053 916.016V914.72H556.845V926H559.125V918.536C559.749 917.456 560.997 916.64 562.173 916.64C562.533 916.64 562.797 916.664 563.061 916.736L563.325 914.552ZM575.546 920.84C575.57 920.624 575.57 920.456 575.57 920.36C575.57 917.024 573.29 914.48 570.146 914.48C566.954 914.48 564.65 916.976 564.65 920.36C564.65 923.744 567.194 926.24 570.482 926.24C572.786 926.24 574.394 925.208 575.234 924.128L573.746 922.712C573.098 923.432 572.186 924.248 570.506 924.248C568.538 924.248 566.978 922.736 566.858 920.84H575.546ZM570.218 916.472C571.562 916.472 572.858 917.48 573.194 918.92H567.05C567.434 917.456 568.754 916.472 570.218 916.472ZM591.667 914.72L588.571 922.424L585.475 914.72H583.123L587.707 926H589.291L592.459 918.08L595.627 926H597.211L601.795 914.72H599.443L596.347 922.424L593.251 914.72H591.667ZM606.351 908.96H604.071V926H606.351V918.248C607.023 917.432 608.103 916.64 609.591 916.64C610.527 916.64 611.391 917.072 611.919 917.744C612.327 918.248 612.591 918.92 612.591 920.36V926H614.871V920.48C614.871 918.536 614.487 917.384 613.767 916.472C612.807 915.248 611.319 914.48 609.663 914.48C608.103 914.48 606.975 915.176 606.351 915.704V908.96ZM626.952 926H629.16V914.72H626.952V915.752C625.92 914.864 624.696 914.48 623.424 914.48C622.368 914.48 621.432 914.744 620.664 915.2C618.96 916.208 617.76 918.104 617.76 920.36C617.76 922.616 618.936 924.488 620.64 925.496C621.408 925.952 622.464 926.24 623.472 926.24C624.816 926.24 626.04 925.784 626.952 924.968V926ZM626.88 922.472C626.112 923.504 624.936 924.08 623.784 924.08C621.6 924.08 620.04 922.376 620.04 920.36C620.04 918.392 621.48 916.64 623.664 916.64C625.032 916.64 626.184 917.336 626.88 918.248V922.472ZM639.755 923.936C639.419 924.032 638.843 924.08 638.507 924.08C637.907 924.08 637.259 923.864 636.947 923.48C636.659 923.144 636.611 922.64 636.611 922.04V916.76H640.211V914.72H636.611V911.6H634.331V914.72H631.451V916.76H634.331V921.92C634.331 923.144 634.571 924.176 635.243 924.92C635.963 925.736 637.019 926.24 638.435 926.24C639.083 926.24 639.779 926.144 640.211 926L639.755 923.936ZM655.833 923.936C655.497 924.032 654.921 924.08 654.585 924.08C653.985 924.08 653.337 923.864 653.025 923.48C652.737 923.144 652.689 922.64 652.689 922.04V916.76H656.289V914.72H652.689V911.6H650.409V914.72H647.529V916.76H650.409V921.92C650.409 923.144 650.649 924.176 651.321 924.92C652.041 925.736 653.097 926.24 654.513 926.24C655.161 926.24 655.857 926.144 656.289 926L655.833 923.936ZM658.096 920.36C658.096 923.72 660.592 926.24 663.928 926.24C667.264 926.24 669.76 923.72 669.76 920.36C669.76 917 667.264 914.48 663.928 914.48C660.592 914.48 658.096 917 658.096 920.36ZM660.376 920.36C660.376 918.296 661.84 916.64 663.928 916.64C666.016 916.64 667.48 918.296 667.48 920.36C667.48 922.424 666.016 924.08 663.928 924.08C661.84 924.08 660.376 922.424 660.376 920.36ZM685.862 914.72L682.766 922.424L679.67 914.72H677.318L681.902 926H683.486L686.654 918.08L689.822 926H691.406L695.99 914.72H693.638L690.542 922.424L687.446 914.72H685.862ZM704.747 914.552C704.483 914.504 704.099 914.48 703.859 914.48C702.203 914.48 701.027 915.248 700.475 916.016V914.72H698.267V926H700.547V918.536C701.171 917.456 702.419 916.64 703.595 916.64C703.955 916.64 704.219 916.664 704.483 916.736L704.747 914.552ZM707.501 926H709.781V914.72H707.501V926ZM707.141 910.712C707.141 911.552 707.789 912.2 708.629 912.2C709.469 912.2 710.141 911.552 710.141 910.712C710.141 909.872 709.469 909.2 708.629 909.2C707.789 909.2 707.141 909.872 707.141 910.712ZM720.357 923.936C720.021 924.032 719.445 924.08 719.109 924.08C718.509 924.08 717.861 923.864 717.549 923.48C717.261 923.144 717.213 922.64 717.213 922.04V916.76H720.813V914.72H717.213V911.6H714.933V914.72H712.053V916.76H714.933V921.92C714.933 923.144 715.173 924.176 715.845 924.92C716.565 925.736 717.621 926.24 719.037 926.24C719.685 926.24 720.381 926.144 720.813 926L720.357 923.936ZM733.515 920.84C733.539 920.624 733.539 920.456 733.539 920.36C733.539 917.024 731.259 914.48 728.115 914.48C724.923 914.48 722.619 916.976 722.619 920.36C722.619 923.744 725.163 926.24 728.451 926.24C730.755 926.24 732.363 925.208 733.203 924.128L731.715 922.712C731.067 923.432 730.155 924.248 728.475 924.248C726.507 924.248 724.947 922.736 724.827 920.84H733.515ZM728.187 916.472C729.531 916.472 730.827 917.48 731.163 918.92H725.019C725.403 917.456 726.723 916.472 728.187 916.472ZM738.337 912.944C738.577 911.936 739.681 911.12 740.953 911.12C742.393 911.12 743.377 912.104 743.377 913.328C743.377 915.92 739.201 916.4 739.201 919.376C739.201 920.264 739.609 921.2 740.593 921.944L742.105 920.36C741.697 920 741.481 919.664 741.481 919.352C741.481 918.104 745.657 917.024 745.657 913.328C745.657 910.928 743.665 908.96 740.953 908.96C738.625 908.96 736.657 910.376 736.177 912.32L738.337 912.944ZM739.177 924.56C739.177 925.496 739.921 926.24 740.857 926.24C741.793 926.24 742.537 925.496 742.537 924.56C742.537 923.624 741.793 922.88 740.857 922.88C739.921 922.88 739.177 923.624 739.177 924.56Z" fill="black"/>
<rect x="437" y="1979" width="917" height="307" rx="40" fill="white"/>
<rect x="437" y="1979" width="917" height="129" rx="40" fill="#FFC9E3"/>
<rect x="437" y="2053" width="917" height="105" fill="white"/>
<path d="M495.4 2012.57L499.6 2025H501.28L506.56 2008.2H504.112L500.344 2020.37L496.24 2008.2H494.56L490.456 2020.37L486.688 2008.2H484.24L489.52 2025H491.2L495.4 2012.57ZM516.116 2025H518.324V2013.72H516.116V2014.75C515.084 2013.86 513.86 2013.48 512.588 2013.48C511.532 2013.48 510.596 2013.74 509.828 2014.2C508.124 2015.21 506.924 2017.1 506.924 2019.36C506.924 2021.62 508.1 2023.49 509.804 2024.5C510.572 2024.95 511.628 2025.24 512.636 2025.24C513.98 2025.24 515.204 2024.78 516.116 2023.97V2025ZM516.044 2021.47C515.276 2022.5 514.1 2023.08 512.948 2023.08C510.764 2023.08 509.204 2021.38 509.204 2019.36C509.204 2017.39 510.644 2015.64 512.828 2015.64C514.196 2015.64 515.348 2016.34 516.044 2017.25V2021.47ZM524.623 2013.72H522.415V2025H524.695V2017.25C525.367 2016.43 526.447 2015.64 527.935 2015.64C528.871 2015.64 529.735 2016.07 530.263 2016.74C530.671 2017.25 530.935 2017.92 530.935 2019.36V2025H533.215V2019.48C533.215 2017.54 532.831 2016.38 532.111 2015.47C531.151 2014.25 529.663 2013.48 528.007 2013.48C526.375 2013.48 525.223 2014.22 524.623 2014.8V2013.72ZM543.45 2022.94C543.114 2023.03 542.538 2023.08 542.202 2023.08C541.602 2023.08 540.954 2022.86 540.642 2022.48C540.354 2022.14 540.306 2021.64 540.306 2021.04V2015.76H543.906V2013.72H540.306V2010.6H538.026V2013.72H535.146V2015.76H538.026V2020.92C538.026 2022.14 538.266 2023.18 538.938 2023.92C539.658 2024.74 540.714 2025.24 542.13 2025.24C542.778 2025.24 543.474 2025.14 543.906 2025L543.45 2022.94ZM559.528 2022.94C559.192 2023.03 558.616 2023.08 558.28 2023.08C557.68 2023.08 557.032 2022.86 556.72 2022.48C556.432 2022.14 556.384 2021.64 556.384 2021.04V2015.76H559.984V2013.72H556.384V2010.6H554.104V2013.72H551.224V2015.76H554.104V2020.92C554.104 2022.14 554.344 2023.18 555.016 2023.92C555.736 2024.74 556.792 2025.24 558.208 2025.24C558.856 2025.24 559.552 2025.14 559.984 2025L559.528 2022.94ZM561.791 2019.36C561.791 2022.72 564.287 2025.24 567.623 2025.24C570.959 2025.24 573.455 2022.72 573.455 2019.36C573.455 2016 570.959 2013.48 567.623 2013.48C564.287 2013.48 561.791 2016 561.791 2019.36ZM564.071 2019.36C564.071 2017.3 565.535 2015.64 567.623 2015.64C569.711 2015.64 571.175 2017.3 571.175 2019.36C571.175 2021.42 569.711 2023.08 567.623 2023.08C565.535 2023.08 564.071 2021.42 564.071 2019.36ZM585.328 2024.02C586.24 2024.81 587.392 2025.24 588.736 2025.24C589.744 2025.24 590.8 2024.95 591.568 2024.5C593.272 2023.49 594.448 2021.62 594.448 2019.36C594.448 2017.1 593.248 2015.21 591.544 2014.2C590.776 2013.74 589.84 2013.48 588.784 2013.48C587.512 2013.48 586.288 2013.86 585.256 2014.75V2013.72H583.048V2030.76H585.328V2024.02ZM585.328 2017.25C586.024 2016.34 587.176 2015.64 588.544 2015.64C590.728 2015.64 592.168 2017.39 592.168 2019.36C592.168 2021.38 590.608 2023.08 588.424 2023.08C587.272 2023.08 586.096 2022.5 585.328 2021.47V2017.25ZM597.579 2025H599.859V2007.96H597.579V2025ZM612.163 2025H614.371V2013.72H612.163V2014.75C611.131 2013.86 609.907 2013.48 608.635 2013.48C607.579 2013.48 606.643 2013.74 605.875 2014.2C604.171 2015.21 602.971 2017.1 602.971 2019.36C602.971 2021.62 604.147 2023.49 605.851 2024.5C606.619 2024.95 607.675 2025.24 608.683 2025.24C610.027 2025.24 611.251 2024.78 612.163 2023.97V2025ZM612.091 2021.47C611.323 2022.5 610.147 2023.08 608.995 2023.08C606.811 2023.08 605.251 2021.38 605.251 2019.36C605.251 2017.39 606.691 2015.64 608.875 2015.64C610.243 2015.64 611.395 2016.34 612.091 2017.25V2021.47ZM620.862 2030.76L628.278 2013.72H625.878L622.638 2021.16L619.11 2013.72H616.662L621.486 2023.82L618.438 2030.76H620.862ZM645.139 2025H647.347V2013.72H645.139V2014.75C644.107 2013.86 642.883 2013.48 641.611 2013.48C640.555 2013.48 639.619 2013.74 638.851 2014.2C637.147 2015.21 635.947 2017.1 635.947 2019.36C635.947 2021.62 637.123 2023.49 638.827 2024.5C639.595 2024.95 640.651 2025.24 641.659 2025.24C643.003 2025.24 644.227 2024.78 645.139 2023.97V2025ZM645.067 2021.47C644.299 2022.5 643.123 2023.08 641.971 2023.08C639.787 2023.08 638.227 2021.38 638.227 2019.36C638.227 2017.39 639.667 2015.64 641.851 2015.64C643.219 2015.64 644.371 2016.34 645.067 2017.25V2021.47ZM666.067 2024.02V2024.64C666.067 2026.06 665.851 2026.92 665.443 2027.54C664.891 2028.38 663.931 2028.84 662.707 2028.84C660.859 2028.84 659.803 2027.9 658.987 2026.82L657.307 2028.38C658.027 2029.51 659.875 2031 662.803 2031C665.035 2031 666.763 2029.97 667.675 2028.22C668.131 2027.33 668.347 2026.2 668.347 2024.52V2013.72H666.139V2014.75C665.107 2013.86 663.883 2013.48 662.611 2013.48C661.555 2013.48 660.619 2013.74 659.851 2014.2C658.147 2015.21 656.947 2017.1 656.947 2019.36C656.947 2021.62 658.123 2023.49 659.827 2024.5C660.595 2024.95 661.651 2025.24 662.659 2025.24C664.003 2025.24 665.155 2024.81 666.067 2024.02ZM666.067 2021.47C665.299 2022.5 664.123 2023.08 662.971 2023.08C660.787 2023.08 659.227 2021.38 659.227 2019.36C659.227 2017.39 660.667 2015.64 662.851 2015.64C664.219 2015.64 665.371 2016.34 666.067 2017.25V2021.47ZM680.67 2025H682.878V2013.72H680.67V2014.75C679.638 2013.86 678.414 2013.48 677.142 2013.48C676.086 2013.48 675.15 2013.74 674.382 2014.2C672.678 2015.21 671.478 2017.1 671.478 2019.36C671.478 2021.62 672.654 2023.49 674.358 2024.5C675.126 2024.95 676.182 2025.24 677.19 2025.24C678.534 2025.24 679.758 2024.78 680.67 2023.97V2025ZM680.598 2021.47C679.83 2022.5 678.654 2023.08 677.502 2023.08C675.318 2023.08 673.758 2021.38 673.758 2019.36C673.758 2017.39 675.198 2015.64 677.382 2015.64C678.75 2015.64 679.902 2016.34 680.598 2017.25V2021.47ZM686.97 2013.72V2025H689.25V2017.25C689.898 2016.48 691.026 2015.64 692.418 2015.64C693.282 2015.64 694.098 2016.02 694.602 2016.62C695.01 2017.1 695.25 2017.73 695.25 2018.88V2025H697.53V2019.24C697.53 2018.45 697.458 2017.8 697.338 2017.25C698.082 2016.48 699.138 2015.64 700.77 2015.64C701.61 2015.64 702.378 2016.02 702.882 2016.62C703.29 2017.1 703.53 2017.73 703.53 2018.88V2025H705.81V2019.24C705.81 2017.34 705.474 2016.24 704.778 2015.38C703.842 2014.2 702.378 2013.48 700.77 2013.48C698.73 2013.48 697.506 2014.32 696.474 2015.35C695.538 2014.22 694.146 2013.48 692.49 2013.48C690.954 2013.48 689.634 2014.3 689.178 2014.8V2013.72H686.97ZM719.593 2019.84C719.617 2019.62 719.617 2019.46 719.617 2019.36C719.617 2016.02 717.337 2013.48 714.193 2013.48C711.001 2013.48 708.697 2015.98 708.697 2019.36C708.697 2022.74 711.241 2025.24 714.529 2025.24C716.833 2025.24 718.441 2024.21 719.281 2023.13L717.793 2021.71C717.145 2022.43 716.233 2023.25 714.553 2023.25C712.585 2023.25 711.025 2021.74 710.905 2019.84H719.593ZM714.265 2015.47C715.609 2015.47 716.905 2016.48 717.241 2017.92H711.097C711.481 2016.46 712.801 2015.47 714.265 2015.47ZM724.415 2011.94C724.655 2010.94 725.759 2010.12 727.031 2010.12C728.471 2010.12 729.455 2011.1 729.455 2012.33C729.455 2014.92 725.279 2015.4 725.279 2018.38C725.279 2019.26 725.687 2020.2 726.671 2020.94L728.183 2019.36C727.775 2019 727.559 2018.66 727.559 2018.35C727.559 2017.1 731.735 2016.02 731.735 2012.33C731.735 2009.93 729.743 2007.96 727.031 2007.96C724.703 2007.96 722.735 2009.38 722.255 2011.32L724.415 2011.94ZM725.255 2023.56C725.255 2024.5 725.999 2025.24 726.935 2025.24C727.871 2025.24 728.615 2024.5 728.615 2023.56C728.615 2022.62 727.871 2021.88 726.935 2021.88C725.999 2021.88 725.255 2022.62 725.255 2023.56Z" fill="black"/>
<rect x="481" y="994" width="189" height="59" rx="15" fill="#BF7FFF"/>
<rect x="694" y="994" width="188" height="59" rx="15" fill="#BF7FFF"/>
<rect x="906" y="994" width="189" height="59" rx="15" fill="#BF7FFF"/>
<path d="M560.92 1032H563.32V1015.2H560.92V1021.8H551.56V1015.2H549.16V1032H551.56V1024.08H560.92V1032ZM577.445 1026.84C577.469 1026.62 577.469 1026.46 577.469 1026.36C577.469 1023.02 575.189 1020.48 572.045 1020.48C568.853 1020.48 566.549 1022.98 566.549 1026.36C566.549 1029.74 569.093 1032.24 572.381 1032.24C574.685 1032.24 576.293 1031.21 577.133 1030.13L575.645 1028.71C574.997 1029.43 574.085 1030.25 572.405 1030.25C570.437 1030.25 568.877 1028.74 568.757 1026.84H577.445ZM572.117 1022.47C573.461 1022.47 574.757 1023.48 575.093 1024.92H568.949C569.333 1023.46 570.653 1022.47 572.117 1022.47ZM580.587 1032H582.867V1014.96H580.587V1032ZM586.938 1032H589.218V1014.96H586.938V1032ZM592.33 1026.36C592.33 1029.72 594.826 1032.24 598.162 1032.24C601.498 1032.24 603.994 1029.72 603.994 1026.36C603.994 1023 601.498 1020.48 598.162 1020.48C594.826 1020.48 592.33 1023 592.33 1026.36ZM594.61 1026.36C594.61 1024.3 596.074 1022.64 598.162 1022.64C600.25 1022.64 601.714 1024.3 601.714 1026.36C601.714 1028.42 600.25 1030.08 598.162 1030.08C596.074 1030.08 594.61 1028.42 594.61 1026.36Z" fill="black"/>
<path d="M727.92 1032H730.32V1015.2H727.92V1021.8H718.56V1015.2H716.16V1032H718.56V1024.08H727.92V1032ZM733.549 1026.36C733.549 1029.72 736.045 1032.24 739.381 1032.24C742.717 1032.24 745.213 1029.72 745.213 1026.36C745.213 1023 742.717 1020.48 739.381 1020.48C736.045 1020.48 733.549 1023 733.549 1026.36ZM735.829 1026.36C735.829 1024.3 737.293 1022.64 739.381 1022.64C741.469 1022.64 742.933 1024.3 742.933 1026.36C742.933 1028.42 741.469 1030.08 739.381 1030.08C737.293 1030.08 735.829 1028.42 735.829 1026.36ZM754.964 1020.72L751.868 1028.42L748.772 1020.72H746.42L751.004 1032H752.588L755.756 1024.08L758.924 1032H760.508L765.092 1020.72H762.74L759.644 1028.42L756.548 1020.72H754.964ZM781.835 1032H784.043V1020.72H781.835V1021.75C780.803 1020.86 779.579 1020.48 778.307 1020.48C777.251 1020.48 776.315 1020.74 775.547 1021.2C773.843 1022.21 772.643 1024.1 772.643 1026.36C772.643 1028.62 773.819 1030.49 775.523 1031.5C776.291 1031.95 777.347 1032.24 778.355 1032.24C779.699 1032.24 780.923 1031.78 781.835 1030.97V1032ZM781.763 1028.47C780.995 1029.5 779.819 1030.08 778.667 1030.08C776.483 1030.08 774.923 1028.38 774.923 1026.36C774.923 1024.39 776.363 1022.64 778.547 1022.64C779.915 1022.64 781.067 1023.34 781.763 1024.25V1028.47ZM794.614 1020.55C794.35 1020.5 793.966 1020.48 793.726 1020.48C792.07 1020.48 790.894 1021.25 790.342 1022.02V1020.72H788.134V1032H790.414V1024.54C791.038 1023.46 792.286 1022.64 793.462 1022.64C793.822 1022.64 794.086 1022.66 794.35 1022.74L794.614 1020.55ZM806.835 1026.84C806.859 1026.62 806.859 1026.46 806.859 1026.36C806.859 1023.02 804.579 1020.48 801.435 1020.48C798.243 1020.48 795.939 1022.98 795.939 1026.36C795.939 1029.74 798.483 1032.24 801.771 1032.24C804.075 1032.24 805.683 1031.21 806.523 1030.13L805.035 1028.71C804.387 1029.43 803.475 1030.25 801.795 1030.25C799.827 1030.25 798.267 1028.74 798.147 1026.84H806.835ZM801.507 1022.47C802.851 1022.47 804.147 1023.48 804.483 1024.92H798.339C798.723 1023.46 800.043 1022.47 801.507 1022.47ZM818.612 1037.76L826.028 1020.72H823.628L820.388 1028.16L816.86 1020.72H814.412L819.236 1030.82L816.188 1037.76H818.612ZM827.346 1026.36C827.346 1029.72 829.842 1032.24 833.178 1032.24C836.514 1032.24 839.01 1029.72 839.01 1026.36C839.01 1023 836.514 1020.48 833.178 1020.48C829.842 1020.48 827.346 1023 827.346 1026.36ZM829.626 1026.36C829.626 1024.3 831.09 1022.64 833.178 1022.64C835.266 1022.64 836.73 1024.3 836.73 1026.36C836.73 1028.42 835.266 1030.08 833.178 1030.08C831.09 1030.08 829.626 1028.42 829.626 1026.36ZM846.934 1032.24C848.494 1032.24 849.742 1031.45 850.246 1030.97V1032H852.454V1020.72H850.174V1028.47C849.526 1029.24 848.398 1030.08 847.006 1030.08C846.142 1030.08 845.326 1029.7 844.822 1029.1C844.414 1028.62 844.174 1027.99 844.174 1026.84V1020.72H841.894V1026.48C841.894 1028.38 842.23 1029.48 842.926 1030.34C843.862 1031.52 845.326 1032.24 846.934 1032.24ZM858.204 1018.94C858.444 1017.94 859.548 1017.12 860.82 1017.12C862.26 1017.12 863.244 1018.1 863.244 1019.33C863.244 1021.92 859.068 1022.4 859.068 1025.38C859.068 1026.26 859.476 1027.2 860.46 1027.94L861.972 1026.36C861.564 1026 861.348 1025.66 861.348 1025.35C861.348 1024.1 865.524 1023.02 865.524 1019.33C865.524 1016.93 863.532 1014.96 860.82 1014.96C858.492 1014.96 856.524 1016.38 856.044 1018.32L858.204 1018.94ZM859.044 1030.56C859.044 1031.5 859.788 1032.24 860.724 1032.24C861.66 1032.24 862.404 1031.5 862.404 1030.56C862.404 1029.62 861.66 1028.88 860.724 1028.88C859.788 1028.88 859.044 1029.62 859.044 1030.56Z" fill="black"/>
<path d="M954.16 1032H956.56V1015.2H954.16V1032ZM961.727 1014.96L959.927 1021.2H961.487L964.367 1014.96H961.727ZM966.415 1020.72V1032H968.695V1024.25C969.343 1023.48 970.471 1022.64 971.863 1022.64C972.727 1022.64 973.543 1023.02 974.047 1023.62C974.455 1024.1 974.695 1024.73 974.695 1025.88V1032H976.975V1026.24C976.975 1025.45 976.903 1024.8 976.783 1024.25C977.527 1023.48 978.583 1022.64 980.215 1022.64C981.055 1022.64 981.823 1023.02 982.327 1023.62C982.735 1024.1 982.975 1024.73 982.975 1025.88V1032H985.255V1026.24C985.255 1024.34 984.919 1023.24 984.223 1022.38C983.287 1021.2 981.823 1020.48 980.215 1020.48C978.175 1020.48 976.951 1021.32 975.919 1022.35C974.983 1021.22 973.591 1020.48 971.935 1020.48C970.399 1020.48 969.079 1021.3 968.623 1021.8V1020.72H966.415ZM1003.73 1031.02V1031.64C1003.73 1033.06 1003.52 1033.92 1003.11 1034.54C1002.56 1035.38 1001.6 1035.84 1000.37 1035.84C998.523 1035.84 997.467 1034.9 996.651 1033.82L994.971 1035.38C995.691 1036.51 997.539 1038 1000.47 1038C1002.7 1038 1004.43 1036.97 1005.34 1035.22C1005.8 1034.33 1006.01 1033.2 1006.01 1031.52V1020.72H1003.8V1021.75C1002.77 1020.86 1001.55 1020.48 1000.28 1020.48C999.219 1020.48 998.283 1020.74 997.515 1021.2C995.811 1022.21 994.611 1024.1 994.611 1026.36C994.611 1028.62 995.787 1030.49 997.491 1031.5C998.259 1031.95 999.315 1032.24 1000.32 1032.24C1001.67 1032.24 1002.82 1031.81 1003.73 1031.02ZM1003.73 1028.47C1002.96 1029.5 1001.79 1030.08 1000.64 1030.08C998.451 1030.08 996.891 1028.38 996.891 1026.36C996.891 1024.39 998.331 1022.64 1000.52 1022.64C1001.88 1022.64 1003.04 1023.34 1003.73 1024.25V1028.47ZM1009.14 1026.36C1009.14 1029.72 1011.64 1032.24 1014.97 1032.24C1018.31 1032.24 1020.81 1029.72 1020.81 1026.36C1020.81 1023 1018.31 1020.48 1014.97 1020.48C1011.64 1020.48 1009.14 1023 1009.14 1026.36ZM1011.42 1026.36C1011.42 1024.3 1012.89 1022.64 1014.97 1022.64C1017.06 1022.64 1018.53 1024.3 1018.53 1026.36C1018.53 1028.42 1017.06 1030.08 1014.97 1030.08C1012.89 1030.08 1011.42 1028.42 1011.42 1026.36ZM1022.97 1026.36C1022.97 1029.72 1025.47 1032.24 1028.8 1032.24C1032.14 1032.24 1034.63 1029.72 1034.63 1026.36C1034.63 1023 1032.14 1020.48 1028.8 1020.48C1025.47 1020.48 1022.97 1023 1022.97 1026.36ZM1025.25 1026.36C1025.25 1024.3 1026.71 1022.64 1028.8 1022.64C1030.89 1022.64 1032.35 1024.3 1032.35 1026.36C1032.35 1028.42 1030.89 1030.08 1028.8 1030.08C1026.71 1030.08 1025.25 1028.42 1025.25 1026.36ZM1045.99 1032H1048.2V1014.96H1045.92V1021.7C1044.91 1020.86 1043.69 1020.48 1042.46 1020.48C1041.41 1020.48 1040.47 1020.74 1039.7 1021.2C1038 1022.21 1036.8 1024.1 1036.8 1026.36C1036.8 1028.62 1037.97 1030.49 1039.68 1031.5C1040.45 1031.95 1041.5 1032.24 1042.51 1032.24C1043.85 1032.24 1045.08 1031.78 1045.99 1030.97V1032ZM1045.92 1028.47C1045.15 1029.5 1043.97 1030.08 1042.82 1030.08C1040.64 1030.08 1039.08 1028.38 1039.08 1026.36C1039.08 1024.39 1040.52 1022.64 1042.7 1022.64C1044.07 1022.64 1045.22 1023.34 1045.92 1024.25V1028.47Z" fill="black"/>
<rect x="1119" y="994" width="189" height="59" rx="15" fill="#BF7FFF"/>
<path d="M1170.16 1032H1172.56V1015.2H1170.16V1032ZM1183.24 1032H1185.52V1014.96H1183.24V1032ZM1189.59 1032H1191.87V1020.72H1189.59V1032ZM1189.23 1016.71C1189.23 1017.55 1189.87 1018.2 1190.71 1018.2C1191.55 1018.2 1192.23 1017.55 1192.23 1016.71C1192.23 1015.87 1191.55 1015.2 1190.71 1015.2C1189.87 1015.2 1189.23 1015.87 1189.23 1016.71ZM1200.5 1025.81L1206.14 1020.72H1202.92L1198.22 1025.04V1014.96H1195.94V1032H1198.22V1026.48L1203.81 1032H1206.86L1200.5 1025.81ZM1218.34 1026.84C1218.37 1026.62 1218.37 1026.46 1218.37 1026.36C1218.37 1023.02 1216.09 1020.48 1212.94 1020.48C1209.75 1020.48 1207.45 1022.98 1207.45 1026.36C1207.45 1029.74 1209.99 1032.24 1213.28 1032.24C1215.58 1032.24 1217.19 1031.21 1218.03 1030.13L1216.54 1028.71C1215.9 1029.43 1214.98 1030.25 1213.3 1030.25C1211.34 1030.25 1209.78 1028.74 1209.66 1026.84H1218.34ZM1213.02 1022.47C1214.36 1022.47 1215.66 1023.48 1215.99 1024.92H1209.85C1210.23 1023.46 1211.55 1022.47 1213.02 1022.47ZM1222.09 1030.56C1222.09 1031.5 1222.83 1032.24 1223.77 1032.24C1224.7 1032.24 1225.45 1031.5 1225.45 1030.56C1225.45 1029.62 1224.7 1028.88 1223.77 1028.88C1222.83 1028.88 1222.09 1029.62 1222.09 1030.56ZM1230.24 1030.56C1230.24 1031.5 1230.99 1032.24 1231.92 1032.24C1232.86 1032.24 1233.6 1031.5 1233.6 1030.56C1233.6 1029.62 1232.86 1028.88 1231.92 1028.88C1230.99 1028.88 1230.24 1029.62 1230.24 1030.56ZM1238.4 1030.56C1238.4 1031.5 1239.14 1032.24 1240.08 1032.24C1241.01 1032.24 1241.76 1031.5 1241.76 1030.56C1241.76 1029.62 1241.01 1028.88 1240.08 1028.88C1239.14 1028.88 1238.4 1029.62 1238.4 1030.56Z" fill="black"/>
<rect x="481" y="1082" width="189" height="59" rx="15" fill="#BF7FFF"/>
<rect x="694" y="1082" width="401" height="59" rx="15" fill="#BF7FFF"/>
<path d="M505.16 1120H507.56V1103.2H505.16V1120ZM526.467 1120H528.675V1102.96H526.395V1109.7C525.387 1108.86 524.163 1108.48 522.939 1108.48C521.883 1108.48 520.947 1108.74 520.179 1109.2C518.475 1110.21 517.275 1112.1 517.275 1114.36C517.275 1116.62 518.451 1118.49 520.155 1119.5C520.923 1119.95 521.979 1120.24 522.987 1120.24C524.331 1120.24 525.555 1119.78 526.467 1118.97V1120ZM526.395 1116.47C525.627 1117.5 524.451 1118.08 523.299 1118.08C521.115 1118.08 519.555 1116.38 519.555 1114.36C519.555 1112.39 520.995 1110.64 523.179 1110.64C524.547 1110.64 525.699 1111.34 526.395 1112.25V1116.47ZM531.807 1114.36C531.807 1117.72 534.303 1120.24 537.639 1120.24C540.975 1120.24 543.471 1117.72 543.471 1114.36C543.471 1111 540.975 1108.48 537.639 1108.48C534.303 1108.48 531.807 1111 531.807 1114.36ZM534.087 1114.36C534.087 1112.3 535.551 1110.64 537.639 1110.64C539.727 1110.64 541.191 1112.3 541.191 1114.36C541.191 1116.42 539.727 1118.08 537.639 1118.08C535.551 1118.08 534.087 1116.42 534.087 1114.36ZM548.803 1108.72H546.595V1120H548.875V1112.25C549.547 1111.43 550.627 1110.64 552.115 1110.64C553.051 1110.64 553.915 1111.07 554.443 1111.74C554.851 1112.25 555.115 1112.92 555.115 1114.36V1120H557.395V1114.48C557.395 1112.54 557.011 1111.38 556.291 1110.47C555.331 1109.25 553.843 1108.48 552.187 1108.48C550.555 1108.48 549.403 1109.22 548.803 1109.8V1108.72ZM567.63 1117.94C567.294 1118.03 566.718 1118.08 566.382 1118.08C565.782 1118.08 565.134 1117.86 564.822 1117.48C564.534 1117.14 564.486 1116.64 564.486 1116.04V1110.76H568.086V1108.72H564.486V1105.6H562.206V1108.72H559.326V1110.76H562.206V1115.92C562.206 1117.14 562.446 1118.18 563.118 1118.92C563.838 1119.74 564.894 1120.24 566.31 1120.24C566.958 1120.24 567.654 1120.14 568.086 1120L567.63 1117.94ZM572.398 1102.96L570.598 1109.2H572.158L575.038 1102.96H572.398ZM585.021 1117.94C584.685 1118.03 584.109 1118.08 583.773 1118.08C583.173 1118.08 582.525 1117.86 582.213 1117.48C581.925 1117.14 581.877 1116.64 581.877 1116.04V1110.76H585.477V1108.72H581.877V1105.6H579.597V1108.72H576.717V1110.76H579.597V1115.92C579.597 1117.14 579.837 1118.18 580.509 1118.92C581.229 1119.74 582.285 1120.24 583.701 1120.24C584.349 1120.24 585.045 1120.14 585.477 1120L585.021 1117.94ZM594.829 1120H597.109V1102.96H594.829V1120ZM601.181 1120H603.461V1108.72H601.181V1120ZM600.821 1104.71C600.821 1105.55 601.469 1106.2 602.309 1106.2C603.149 1106.2 603.821 1105.55 603.821 1104.71C603.821 1103.87 603.149 1103.2 602.309 1103.2C601.469 1103.2 600.821 1103.87 600.821 1104.71ZM612.092 1113.81L617.732 1108.72H614.516L609.812 1113.04V1102.96H607.532V1120H609.812V1114.48L615.404 1120H618.452L612.092 1113.81ZM629.937 1114.84C629.961 1114.62 629.961 1114.46 629.961 1114.36C629.961 1111.02 627.681 1108.48 624.537 1108.48C621.345 1108.48 619.041 1110.98 619.041 1114.36C619.041 1117.74 621.585 1120.24 624.873 1120.24C627.177 1120.24 628.785 1119.21 629.625 1118.13L628.137 1116.71C627.489 1117.43 626.577 1118.25 624.897 1118.25C622.929 1118.25 621.369 1116.74 621.249 1114.84H629.937ZM624.609 1110.47C625.953 1110.47 627.249 1111.48 627.585 1112.92H621.441C621.825 1111.46 623.145 1110.47 624.609 1110.47ZM633.679 1118.56C633.679 1119.5 634.423 1120.24 635.359 1120.24C636.295 1120.24 637.039 1119.5 637.039 1118.56C637.039 1117.62 636.295 1116.88 635.359 1116.88C634.423 1116.88 633.679 1117.62 633.679 1118.56ZM641.835 1118.56C641.835 1119.5 642.579 1120.24 643.515 1120.24C644.451 1120.24 645.195 1119.5 645.195 1118.56C645.195 1117.62 644.451 1116.88 643.515 1116.88C642.579 1116.88 641.835 1117.62 641.835 1118.56ZM649.992 1118.56C649.992 1119.5 650.736 1120.24 651.672 1120.24C652.608 1120.24 653.352 1119.5 653.352 1118.56C653.352 1117.62 652.608 1116.88 651.672 1116.88C650.736 1116.88 649.992 1117.62 649.992 1118.56Z" fill="black"/>
<path d="M765.4 1107.57L769.6 1120H771.28L776.56 1103.2H774.112L770.344 1115.37L766.24 1103.2H764.56L760.456 1115.37L756.688 1103.2H754.24L759.52 1120H761.2L765.4 1107.57ZM781.125 1102.96H778.845V1120H781.125V1112.25C781.797 1111.43 782.877 1110.64 784.365 1110.64C785.301 1110.64 786.165 1111.07 786.693 1111.74C787.101 1112.25 787.365 1112.92 787.365 1114.36V1120H789.645V1114.48C789.645 1112.54 789.261 1111.38 788.541 1110.47C787.581 1109.25 786.093 1108.48 784.437 1108.48C782.877 1108.48 781.749 1109.18 781.125 1109.7V1102.96ZM801.725 1120H803.933V1108.72H801.725V1109.75C800.693 1108.86 799.469 1108.48 798.197 1108.48C797.141 1108.48 796.205 1108.74 795.437 1109.2C793.733 1110.21 792.533 1112.1 792.533 1114.36C792.533 1116.62 793.709 1118.49 795.413 1119.5C796.181 1119.95 797.237 1120.24 798.245 1120.24C799.589 1120.24 800.813 1119.78 801.725 1118.97V1120ZM801.653 1116.47C800.885 1117.5 799.709 1118.08 798.557 1118.08C796.373 1118.08 794.813 1116.38 794.813 1114.36C794.813 1112.39 796.253 1110.64 798.437 1110.64C799.805 1110.64 800.957 1111.34 801.653 1112.25V1116.47ZM814.528 1117.94C814.192 1118.03 813.616 1118.08 813.28 1118.08C812.68 1118.08 812.032 1117.86 811.72 1117.48C811.432 1117.14 811.384 1116.64 811.384 1116.04V1110.76H814.984V1108.72H811.384V1105.6H809.104V1108.72H806.224V1110.76H809.104V1115.92C809.104 1117.14 809.344 1118.18 810.016 1118.92C810.736 1119.74 811.792 1120.24 813.208 1120.24C813.856 1120.24 814.552 1120.14 814.984 1120L814.528 1117.94ZM824.337 1120H826.617V1108.72H824.337V1120ZM823.977 1104.71C823.977 1105.55 824.625 1106.2 825.465 1106.2C826.305 1106.2 826.977 1105.55 826.977 1104.71C826.977 1103.87 826.305 1103.2 825.465 1103.2C824.625 1103.2 823.977 1103.87 823.977 1104.71ZM829.608 1118.68C830.856 1119.69 832.368 1120.24 834.168 1120.24C836.376 1120.24 838.368 1118.92 838.368 1116.78C838.368 1114.46 836.04 1113.66 834.264 1113.21C833.136 1112.92 832.248 1112.66 832.248 1111.89C832.248 1111 833.184 1110.47 834.288 1110.47C835.2 1110.47 836.016 1110.83 836.712 1111.36L837.888 1109.73C837 1109.01 835.8 1108.48 834.144 1108.48C832.128 1108.48 829.968 1109.58 829.968 1112.01C829.968 1113.59 831.192 1114.46 832.56 1114.91C834.216 1115.46 836.088 1115.54 836.088 1116.83C836.088 1117.72 835.104 1118.25 834.12 1118.25C832.992 1118.25 831.84 1117.82 830.784 1117L829.608 1118.68ZM850.245 1125.76L857.661 1108.72H855.261L852.021 1116.16L848.493 1108.72H846.045L850.869 1118.82L847.821 1125.76H850.245ZM858.978 1114.36C858.978 1117.72 861.474 1120.24 864.81 1120.24C868.146 1120.24 870.642 1117.72 870.642 1114.36C870.642 1111 868.146 1108.48 864.81 1108.48C861.474 1108.48 858.978 1111 858.978 1114.36ZM861.258 1114.36C861.258 1112.3 862.722 1110.64 864.81 1110.64C866.898 1110.64 868.362 1112.3 868.362 1114.36C868.362 1116.42 866.898 1118.08 864.81 1118.08C862.722 1118.08 861.258 1116.42 861.258 1114.36ZM878.567 1120.24C880.127 1120.24 881.375 1119.45 881.879 1118.97V1120H884.087V1108.72H881.807V1116.47C881.159 1117.24 880.031 1118.08 878.639 1118.08C877.775 1118.08 876.959 1117.7 876.455 1117.1C876.047 1116.62 875.807 1115.99 875.807 1114.84V1108.72H873.527V1114.48C873.527 1116.38 873.863 1117.48 874.559 1118.34C875.495 1119.52 876.959 1120.24 878.567 1120.24ZM894.637 1108.55C894.373 1108.5 893.989 1108.48 893.749 1108.48C892.093 1108.48 890.917 1109.25 890.365 1110.02V1108.72H888.157V1120H890.437V1112.54C891.061 1111.46 892.309 1110.64 893.485 1110.64C893.845 1110.64 894.109 1110.66 894.373 1110.74L894.637 1108.55ZM910.586 1102.89C910.274 1102.79 909.722 1102.72 909.242 1102.72C907.706 1102.72 906.362 1103.42 905.546 1104.59C905.042 1105.31 904.826 1106.25 904.826 1107.76V1108.72H902.186V1110.76H904.826V1120H907.106V1110.76H910.586V1108.72H907.106V1107.69C907.106 1106.66 907.226 1106.08 907.538 1105.67C907.922 1105.17 908.618 1104.88 909.266 1104.88C909.578 1104.88 909.938 1104.93 910.106 1104.98L910.586 1102.89ZM921.116 1120H923.324V1108.72H921.116V1109.75C920.084 1108.86 918.86 1108.48 917.588 1108.48C916.532 1108.48 915.596 1108.74 914.828 1109.2C913.124 1110.21 911.924 1112.1 911.924 1114.36C911.924 1116.62 913.1 1118.49 914.804 1119.5C915.572 1119.95 916.628 1120.24 917.636 1120.24C918.98 1120.24 920.204 1119.78 921.116 1118.97V1120ZM921.044 1116.47C920.276 1117.5 919.1 1118.08 917.948 1118.08C915.764 1118.08 914.204 1116.38 914.204 1114.36C914.204 1112.39 915.644 1110.64 917.828 1110.64C919.196 1110.64 920.348 1111.34 921.044 1112.25V1116.47ZM930.511 1120H932.095L936.991 1108.72H934.639L931.303 1116.4L927.967 1108.72H925.615L930.511 1120ZM938.197 1114.36C938.197 1117.72 940.693 1120.24 944.029 1120.24C947.365 1120.24 949.861 1117.72 949.861 1114.36C949.861 1111 947.365 1108.48 944.029 1108.48C940.693 1108.48 938.197 1111 938.197 1114.36ZM940.477 1114.36C940.477 1112.3 941.941 1110.64 944.029 1110.64C946.117 1110.64 947.581 1112.3 947.581 1114.36C947.581 1116.42 946.117 1118.08 944.029 1118.08C941.941 1118.08 940.477 1116.42 940.477 1114.36ZM959.465 1108.55C959.201 1108.5 958.817 1108.48 958.577 1108.48C956.921 1108.48 955.745 1109.25 955.193 1110.02V1108.72H952.985V1120H955.265V1112.54C955.889 1111.46 957.137 1110.64 958.313 1110.64C958.673 1110.64 958.937 1110.66 959.201 1110.74L959.465 1108.55ZM962.22 1120H964.5V1108.72H962.22V1120ZM961.86 1104.71C961.86 1105.55 962.508 1106.2 963.348 1106.2C964.188 1106.2 964.86 1105.55 964.86 1104.71C964.86 1103.87 964.188 1103.2 963.348 1103.2C962.508 1103.2 961.86 1103.87 961.86 1104.71ZM975.075 1117.94C974.739 1118.03 974.163 1118.08 973.827 1118.08C973.227 1118.08 972.579 1117.86 972.267 1117.48C971.979 1117.14 971.931 1116.64 971.931 1116.04V1110.76H975.531V1108.72H971.931V1105.6H969.651V1108.72H966.771V1110.76H969.651V1115.92C969.651 1117.14 969.891 1118.18 970.563 1118.92C971.283 1119.74 972.339 1120.24 973.755 1120.24C974.403 1120.24 975.099 1120.14 975.531 1120L975.075 1117.94ZM988.234 1114.84C988.258 1114.62 988.258 1114.46 988.258 1114.36C988.258 1111.02 985.978 1108.48 982.834 1108.48C979.642 1108.48 977.338 1110.98 977.338 1114.36C977.338 1117.74 979.882 1120.24 983.17 1120.24C985.474 1120.24 987.082 1119.21 987.922 1118.13L986.434 1116.71C985.786 1117.43 984.874 1118.25 983.194 1118.25C981.226 1118.25 979.666 1116.74 979.546 1114.84H988.234ZM982.906 1110.47C984.25 1110.47 985.546 1111.48 985.882 1112.92H979.738C980.122 1111.46 981.442 1110.47 982.906 1110.47ZM991.976 1118.56C991.976 1119.5 992.72 1120.24 993.656 1120.24C994.592 1120.24 995.336 1119.5 995.336 1118.56C995.336 1117.62 994.592 1116.88 993.656 1116.88C992.72 1116.88 991.976 1117.62 991.976 1118.56ZM1000.13 1118.56C1000.13 1119.5 1000.88 1120.24 1001.81 1120.24C1002.75 1120.24 1003.49 1119.5 1003.49 1118.56C1003.49 1117.62 1002.75 1116.88 1001.81 1116.88C1000.88 1116.88 1000.13 1117.62 1000.13 1118.56ZM1008.29 1118.56C1008.29 1119.5 1009.03 1120.24 1009.97 1120.24C1010.9 1120.24 1011.65 1119.5 1011.65 1118.56C1011.65 1117.62 1010.9 1116.88 1009.97 1116.88C1009.03 1116.88 1008.29 1117.62 1008.29 1118.56ZM1016.44 1118.56C1016.44 1119.5 1017.19 1120.24 1018.12 1120.24C1019.06 1120.24 1019.8 1119.5 1019.8 1118.56C1019.8 1117.62 1019.06 1116.88 1018.12 1116.88C1017.19 1116.88 1016.44 1117.62 1016.44 1118.56Z" fill="black"/>
<rect x="1119" y="1082" width="189" height="59" rx="15" fill="#BF7FFF"/>
<path d="M1174.22 1120H1176.72L1169.76 1103.2H1168.08L1161.12 1120H1163.62L1165.37 1115.68H1172.45L1174.22 1120ZM1168.92 1107.16L1171.51 1113.4H1166.33L1168.92 1107.16ZM1181.09 1108.72H1178.88V1120H1181.16V1112.25C1181.84 1111.43 1182.92 1110.64 1184.4 1110.64C1185.34 1110.64 1186.2 1111.07 1186.73 1111.74C1187.14 1112.25 1187.4 1112.92 1187.4 1114.36V1120H1189.68V1114.48C1189.68 1112.54 1189.3 1111.38 1188.58 1110.47C1187.62 1109.25 1186.13 1108.48 1184.48 1108.48C1182.84 1108.48 1181.69 1109.22 1181.09 1109.8V1108.72ZM1201.76 1120H1203.97V1102.96H1201.69V1109.7C1200.68 1108.86 1199.46 1108.48 1198.24 1108.48C1197.18 1108.48 1196.24 1108.74 1195.48 1109.2C1193.77 1110.21 1192.57 1112.1 1192.57 1114.36C1192.57 1116.62 1193.75 1118.49 1195.45 1119.5C1196.22 1119.95 1197.28 1120.24 1198.28 1120.24C1199.63 1120.24 1200.85 1119.78 1201.76 1118.97V1120ZM1201.69 1116.47C1200.92 1117.5 1199.75 1118.08 1198.6 1118.08C1196.41 1118.08 1194.85 1116.38 1194.85 1114.36C1194.85 1112.39 1196.29 1110.64 1198.48 1110.64C1199.84 1110.64 1201 1111.34 1201.69 1112.25V1116.47ZM1216.7 1125.76L1224.11 1108.72H1221.71L1218.47 1116.16L1214.95 1108.72H1212.5L1217.32 1118.82L1214.27 1125.76H1216.7ZM1225.43 1114.36C1225.43 1117.72 1227.93 1120.24 1231.26 1120.24C1234.6 1120.24 1237.1 1117.72 1237.1 1114.36C1237.1 1111 1234.6 1108.48 1231.26 1108.48C1227.93 1108.48 1225.43 1111 1225.43 1114.36ZM1227.71 1114.36C1227.71 1112.3 1229.18 1110.64 1231.26 1110.64C1233.35 1110.64 1234.82 1112.3 1234.82 1114.36C1234.82 1116.42 1233.35 1118.08 1231.26 1118.08C1229.18 1118.08 1227.71 1116.42 1227.71 1114.36ZM1245.02 1120.24C1246.58 1120.24 1247.83 1119.45 1248.33 1118.97V1120H1250.54V1108.72H1248.26V1116.47C1247.61 1117.24 1246.48 1118.08 1245.09 1118.08C1244.23 1118.08 1243.41 1117.7 1242.91 1117.1C1242.5 1116.62 1242.26 1115.99 1242.26 1114.84V1108.72H1239.98V1114.48C1239.98 1116.38 1240.32 1117.48 1241.01 1118.34C1241.95 1119.52 1243.41 1120.24 1245.02 1120.24ZM1256.29 1106.94C1256.53 1105.94 1257.63 1105.12 1258.91 1105.12C1260.35 1105.12 1261.33 1106.1 1261.33 1107.33C1261.33 1109.92 1257.15 1110.4 1257.15 1113.38C1257.15 1114.26 1257.56 1115.2 1258.55 1115.94L1260.06 1114.36C1259.65 1114 1259.43 1113.66 1259.43 1113.35C1259.43 1112.1 1263.61 1111.02 1263.61 1107.33C1263.61 1104.93 1261.62 1102.96 1258.91 1102.96C1256.58 1102.96 1254.61 1104.38 1254.13 1106.32L1256.29 1106.94ZM1257.13 1118.56C1257.13 1119.5 1257.87 1120.24 1258.81 1120.24C1259.75 1120.24 1260.49 1119.5 1260.49 1118.56C1260.49 1117.62 1259.75 1116.88 1258.81 1116.88C1257.87 1116.88 1257.13 1117.62 1257.13 1118.56Z" fill="black"/>
<rect x="437" y="1227" width="917" height="708" rx="40" fill="white"/>
<rect x="437" y="1227" width="917" height="129" rx="40" fill="#B1E7FE"/>
<rect x="437" y="1301" width="917" height="105" fill="white"/>
<path d="M484.72 1270.43C486.208 1272.23 488.296 1273.24 490.6 1273.24C493.528 1273.24 495.808 1271.32 495.808 1268.37C495.808 1266.45 494.752 1265.27 493.624 1264.53C491.464 1263.09 487.888 1262.63 487.888 1260.5C487.888 1259.03 489.28 1258.24 490.672 1258.24C491.728 1258.24 492.76 1258.62 493.672 1259.39L495.088 1257.64C494.2 1256.9 492.712 1255.96 490.576 1255.96C487.648 1255.96 485.488 1257.98 485.488 1260.42C485.488 1262.18 486.424 1263.33 487.624 1264.12C489.856 1265.58 493.408 1265.87 493.408 1268.44C493.408 1269.95 492.04 1270.96 490.48 1270.96C488.752 1270.96 487.36 1270 486.376 1268.8L484.72 1270.43ZM504.849 1270.94C504.513 1271.03 503.937 1271.08 503.601 1271.08C503.001 1271.08 502.353 1270.86 502.041 1270.48C501.753 1270.14 501.705 1269.64 501.705 1269.04V1263.76H505.305V1261.72H501.705V1258.6H499.425V1261.72H496.545V1263.76H499.425V1268.92C499.425 1270.14 499.665 1271.18 500.337 1271.92C501.057 1272.74 502.113 1273.24 503.529 1273.24C504.177 1273.24 504.873 1273.14 505.305 1273L504.849 1270.94ZM508.423 1273H510.703V1261.72H508.423V1273ZM508.063 1257.71C508.063 1258.55 508.711 1259.2 509.551 1259.2C510.391 1259.2 511.063 1258.55 511.063 1257.71C511.063 1256.87 510.391 1256.2 509.551 1256.2C508.711 1256.2 508.063 1256.87 508.063 1257.71ZM523.102 1269.33C522.382 1270.29 521.326 1271.08 519.838 1271.08C517.678 1271.08 516.094 1269.57 516.094 1267.36C516.094 1265.22 517.654 1263.64 519.694 1263.64C521.134 1263.64 522.19 1264.48 522.814 1265.34L524.494 1263.93C523.438 1262.46 521.662 1261.48 519.694 1261.48C516.31 1261.48 513.814 1264.02 513.814 1267.36C513.814 1270.7 516.358 1273.24 519.838 1273.24C521.902 1273.24 523.918 1272.16 524.854 1270.6L523.102 1269.33ZM532.061 1266.81L537.701 1261.72H534.485L529.781 1266.04V1255.96H527.501V1273H529.781V1267.48L535.373 1273H538.421L532.061 1266.81ZM549.906 1267.84C549.93 1267.62 549.93 1267.46 549.93 1267.36C549.93 1264.02 547.65 1261.48 544.506 1261.48C541.314 1261.48 539.01 1263.98 539.01 1267.36C539.01 1270.74 541.554 1273.24 544.842 1273.24C547.146 1273.24 548.754 1272.21 549.594 1271.13L548.106 1269.71C547.458 1270.43 546.546 1271.25 544.866 1271.25C542.898 1271.25 541.338 1269.74 541.218 1267.84H549.906ZM544.578 1263.47C545.922 1263.47 547.218 1264.48 547.554 1265.92H541.41C541.794 1264.46 543.114 1263.47 544.578 1263.47ZM559.528 1261.55C559.264 1261.5 558.88 1261.48 558.64 1261.48C556.984 1261.48 555.808 1262.25 555.256 1263.02V1261.72H553.048V1273H555.328V1265.54C555.952 1264.46 557.2 1263.64 558.376 1263.64C558.736 1263.64 559 1263.66 559.264 1263.74L559.528 1261.55ZM582.557 1262.8H575.357V1265.08H580.157V1269.4C579.269 1270.29 577.805 1270.96 576.029 1270.96C572.453 1270.96 569.717 1268.39 569.717 1264.6C569.717 1260.98 572.381 1258.24 575.813 1258.24C577.613 1258.24 579.365 1259.06 580.349 1260.14L581.957 1258.55C580.493 1256.94 578.213 1255.96 575.813 1255.96C570.965 1255.96 567.317 1259.75 567.317 1264.6C567.317 1269.57 571.013 1273.24 576.029 1273.24C578.621 1273.24 581.117 1271.94 582.557 1270.12V1262.8ZM594.397 1273H596.605V1261.72H594.397V1262.75C593.365 1261.86 592.141 1261.48 590.869 1261.48C589.813 1261.48 588.877 1261.74 588.109 1262.2C586.405 1263.21 585.205 1265.1 585.205 1267.36C585.205 1269.62 586.381 1271.49 588.085 1272.5C588.853 1272.95 589.909 1273.24 590.917 1273.24C592.261 1273.24 593.485 1272.78 594.397 1271.97V1273ZM594.325 1269.47C593.557 1270.5 592.381 1271.08 591.229 1271.08C589.045 1271.08 587.485 1269.38 587.485 1267.36C587.485 1265.39 588.925 1263.64 591.109 1263.64C592.477 1263.64 593.629 1264.34 594.325 1265.25V1269.47ZM600.696 1273H602.976V1255.96H600.696V1273ZM607.048 1273H609.328V1255.96H607.048V1273ZM623.335 1267.84C623.359 1267.62 623.359 1267.46 623.359 1267.36C623.359 1264.02 621.079 1261.48 617.935 1261.48C614.743 1261.48 612.439 1263.98 612.439 1267.36C612.439 1270.74 614.983 1273.24 618.271 1273.24C620.575 1273.24 622.183 1272.21 623.023 1271.13L621.535 1269.71C620.887 1270.43 619.975 1271.25 618.295 1271.25C616.327 1271.25 614.767 1269.74 614.647 1267.84H623.335ZM618.007 1263.47C619.351 1263.47 620.647 1264.48 620.983 1265.92H614.839C615.223 1264.46 616.543 1263.47 618.007 1263.47ZM632.958 1261.55C632.694 1261.5 632.31 1261.48 632.07 1261.48C630.414 1261.48 629.238 1262.25 628.686 1263.02V1261.72H626.478V1273H628.758V1265.54C629.382 1264.46 630.63 1263.64 631.806 1263.64C632.166 1263.64 632.43 1263.66 632.694 1263.74L632.958 1261.55ZM638.838 1278.76L646.254 1261.72H643.854L640.614 1269.16L637.086 1261.72H634.638L639.462 1271.82L636.414 1278.76H638.838Z" fill="black"/>
<rect x="484" y="1341" width="189" height="59" rx="15" fill="#BF7FFF"/>
<rect x="697" y="1341" width="188" height="59" rx="15" fill="#BF7FFF"/>
<rect x="909" y="1341" width="189" height="59" rx="15" fill="#BF7FFF"/>
<path d="M548.56 1368.8V1364.48H555.76V1362.2H546.16V1379H548.56V1371.08H554.08V1368.8H548.56ZM566.038 1379H568.246V1367.72H566.038V1368.75C565.006 1367.86 563.782 1367.48 562.51 1367.48C561.454 1367.48 560.518 1367.74 559.75 1368.2C558.046 1369.21 556.846 1371.1 556.846 1373.36C556.846 1375.62 558.022 1377.49 559.726 1378.5C560.494 1378.95 561.55 1379.24 562.558 1379.24C563.902 1379.24 565.126 1378.78 566.038 1377.97V1379ZM565.966 1375.47C565.198 1376.5 564.022 1377.08 562.87 1377.08C560.686 1377.08 559.126 1375.38 559.126 1373.36C559.126 1371.39 560.566 1369.64 562.75 1369.64C564.118 1369.64 565.27 1370.34 565.966 1371.25V1375.47ZM580.665 1375.33C579.945 1376.29 578.889 1377.08 577.401 1377.08C575.241 1377.08 573.657 1375.57 573.657 1373.36C573.657 1371.22 575.217 1369.64 577.257 1369.64C578.697 1369.64 579.753 1370.48 580.377 1371.34L582.057 1369.93C581.001 1368.46 579.225 1367.48 577.257 1367.48C573.873 1367.48 571.377 1370.02 571.377 1373.36C571.377 1376.7 573.921 1379.24 577.401 1379.24C579.465 1379.24 581.481 1378.16 582.417 1376.6L580.665 1375.33ZM594.999 1373.84C595.023 1373.62 595.023 1373.46 595.023 1373.36C595.023 1370.02 592.743 1367.48 589.599 1367.48C586.407 1367.48 584.103 1369.98 584.103 1373.36C584.103 1376.74 586.647 1379.24 589.935 1379.24C592.239 1379.24 593.847 1378.21 594.687 1377.13L593.199 1375.71C592.551 1376.43 591.639 1377.25 589.959 1377.25C587.991 1377.25 586.431 1375.74 586.311 1373.84H594.999ZM589.671 1369.47C591.015 1369.47 592.311 1370.48 592.647 1371.92H586.503C586.887 1370.46 588.207 1369.47 589.671 1369.47ZM597.062 1377.68C598.31 1378.69 599.822 1379.24 601.622 1379.24C603.83 1379.24 605.822 1377.92 605.822 1375.78C605.822 1373.46 603.494 1372.66 601.718 1372.21C600.59 1371.92 599.702 1371.66 599.702 1370.89C599.702 1370 600.638 1369.47 601.742 1369.47C602.654 1369.47 603.47 1369.83 604.166 1370.36L605.342 1368.73C604.454 1368.01 603.254 1367.48 601.598 1367.48C599.582 1367.48 597.422 1368.58 597.422 1371.01C597.422 1372.59 598.646 1373.46 600.014 1373.91C601.67 1374.46 603.542 1374.54 603.542 1375.83C603.542 1376.72 602.558 1377.25 601.574 1377.25C600.446 1377.25 599.294 1376.82 598.238 1376L597.062 1377.68Z" fill="black"/>
<path d="M757.56 1369.28V1364.48H761.4C762.552 1364.48 763.176 1364.77 763.608 1365.22C764.016 1365.66 764.28 1366.23 764.28 1366.88C764.28 1367.53 764.016 1368.1 763.608 1368.54C763.176 1368.99 762.552 1369.28 761.4 1369.28H757.56ZM761.52 1371.56C763.152 1371.56 764.208 1371.15 765.024 1370.46C766.032 1369.59 766.68 1368.32 766.68 1366.88C766.68 1365.44 766.032 1364.17 765.024 1363.3C764.208 1362.61 763.152 1362.2 761.52 1362.2H755.16V1379H757.56V1371.56H761.52ZM778.171 1373.84C778.195 1373.62 778.195 1373.46 778.195 1373.36C778.195 1370.02 775.915 1367.48 772.771 1367.48C769.579 1367.48 767.275 1369.98 767.275 1373.36C767.275 1376.74 769.819 1379.24 773.107 1379.24C775.411 1379.24 777.019 1378.21 777.859 1377.13L776.371 1375.71C775.723 1376.43 774.811 1377.25 773.131 1377.25C771.163 1377.25 769.603 1375.74 769.483 1373.84H778.171ZM772.843 1369.47C774.187 1369.47 775.483 1370.48 775.819 1371.92H769.675C770.059 1370.46 771.379 1369.47 772.843 1369.47ZM780.353 1373.36C780.353 1376.72 782.849 1379.24 786.185 1379.24C789.521 1379.24 792.017 1376.72 792.017 1373.36C792.017 1370 789.521 1367.48 786.185 1367.48C782.849 1367.48 780.353 1370 780.353 1373.36ZM782.633 1373.36C782.633 1371.3 784.097 1369.64 786.185 1369.64C788.273 1369.64 789.737 1371.3 789.737 1373.36C789.737 1375.42 788.273 1377.08 786.185 1377.08C784.097 1377.08 782.633 1375.42 782.633 1373.36ZM797.422 1378.02C798.334 1378.81 799.486 1379.24 800.83 1379.24C801.838 1379.24 802.894 1378.95 803.662 1378.5C805.366 1377.49 806.542 1375.62 806.542 1373.36C806.542 1371.1 805.342 1369.21 803.638 1368.2C802.87 1367.74 801.934 1367.48 800.878 1367.48C799.606 1367.48 798.382 1367.86 797.35 1368.75V1367.72H795.142V1384.76H797.422V1378.02ZM797.422 1371.25C798.118 1370.34 799.27 1369.64 800.638 1369.64C802.822 1369.64 804.262 1371.39 804.262 1373.36C804.262 1375.38 802.702 1377.08 800.518 1377.08C799.366 1377.08 798.19 1376.5 797.422 1375.47V1371.25ZM809.673 1379H811.953V1361.96H809.673V1379ZM825.96 1373.84C825.984 1373.62 825.984 1373.46 825.984 1373.36C825.984 1370.02 823.704 1367.48 820.56 1367.48C817.368 1367.48 815.064 1369.98 815.064 1373.36C815.064 1376.74 817.608 1379.24 820.896 1379.24C823.2 1379.24 824.808 1378.21 825.648 1377.13L824.16 1375.71C823.512 1376.43 822.6 1377.25 820.92 1377.25C818.952 1377.25 817.392 1375.74 817.272 1373.84H825.96ZM820.632 1369.47C821.976 1369.47 823.272 1370.48 823.608 1371.92H817.464C817.848 1370.46 819.168 1369.47 820.632 1369.47Z" fill="black"/>
<path d="M965.224 1379H967.72L960.76 1362.2H959.08L952.12 1379H954.616L956.368 1374.68H963.448L965.224 1379ZM959.92 1366.16L962.512 1372.4H957.328L959.92 1366.16ZM972.092 1367.72H969.884V1379H972.164V1371.25C972.836 1370.43 973.916 1369.64 975.404 1369.64C976.34 1369.64 977.204 1370.07 977.732 1370.74C978.14 1371.25 978.404 1371.92 978.404 1373.36V1379H980.684V1373.48C980.684 1371.54 980.3 1370.38 979.58 1369.47C978.62 1368.25 977.132 1367.48 975.476 1367.48C973.844 1367.48 972.692 1368.22 972.092 1368.8V1367.72ZM984.532 1379H986.812V1367.72H984.532V1379ZM984.172 1363.71C984.172 1364.55 984.82 1365.2 985.66 1365.2C986.5 1365.2 987.172 1364.55 987.172 1363.71C987.172 1362.87 986.5 1362.2 985.66 1362.2C984.82 1362.2 984.172 1362.87 984.172 1363.71ZM990.884 1367.72V1379H993.164V1371.25C993.812 1370.48 994.94 1369.64 996.332 1369.64C997.196 1369.64 998.012 1370.02 998.516 1370.62C998.924 1371.1 999.164 1371.73 999.164 1372.88V1379H1001.44V1373.24C1001.44 1372.45 1001.37 1371.8 1001.25 1371.25C1002 1370.48 1003.05 1369.64 1004.68 1369.64C1005.52 1369.64 1006.29 1370.02 1006.8 1370.62C1007.2 1371.1 1007.44 1371.73 1007.44 1372.88V1379H1009.72V1373.24C1009.72 1371.34 1009.39 1370.24 1008.69 1369.38C1007.76 1368.2 1006.29 1367.48 1004.68 1367.48C1002.64 1367.48 1001.42 1368.32 1000.39 1369.35C999.452 1368.22 998.06 1367.48 996.404 1367.48C994.868 1367.48 993.548 1368.3 993.092 1368.8V1367.72H990.884ZM1021.8 1379H1024.01V1367.72H1021.8V1368.75C1020.77 1367.86 1019.55 1367.48 1018.28 1367.48C1017.22 1367.48 1016.28 1367.74 1015.52 1368.2C1013.81 1369.21 1012.61 1371.1 1012.61 1373.36C1012.61 1375.62 1013.79 1377.49 1015.49 1378.5C1016.26 1378.95 1017.32 1379.24 1018.32 1379.24C1019.67 1379.24 1020.89 1378.78 1021.8 1377.97V1379ZM1021.73 1375.47C1020.96 1376.5 1019.79 1377.08 1018.64 1377.08C1016.45 1377.08 1014.89 1375.38 1014.89 1373.36C1014.89 1371.39 1016.33 1369.64 1018.52 1369.64C1019.88 1369.64 1021.04 1370.34 1021.73 1371.25V1375.47ZM1028.1 1379H1030.38V1361.96H1028.1V1379ZM1033.37 1377.68C1034.62 1378.69 1036.13 1379.24 1037.93 1379.24C1040.14 1379.24 1042.13 1377.92 1042.13 1375.78C1042.13 1373.46 1039.81 1372.66 1038.03 1372.21C1036.9 1371.92 1036.01 1371.66 1036.01 1370.89C1036.01 1370 1036.95 1369.47 1038.05 1369.47C1038.97 1369.47 1039.78 1369.83 1040.48 1370.36L1041.65 1368.73C1040.77 1368.01 1039.57 1367.48 1037.91 1367.48C1035.89 1367.48 1033.73 1368.58 1033.73 1371.01C1033.73 1372.59 1034.96 1373.46 1036.33 1373.91C1037.98 1374.46 1039.85 1374.54 1039.85 1375.83C1039.85 1376.72 1038.87 1377.25 1037.89 1377.25C1036.76 1377.25 1035.61 1376.82 1034.55 1376L1033.37 1377.68Z" fill="black"/>
<rect x="1122" y="1341" width="189" height="59" rx="15" fill="#BF7FFF"/>
<path d="M1190.56 1368.8V1364.48H1197.76V1362.2H1188.16V1379H1190.56V1371.08H1196.08V1368.8H1190.56ZM1198.85 1373.36C1198.85 1376.72 1201.34 1379.24 1204.68 1379.24C1208.01 1379.24 1210.51 1376.72 1210.51 1373.36C1210.51 1370 1208.01 1367.48 1204.68 1367.48C1201.34 1367.48 1198.85 1370 1198.85 1373.36ZM1201.13 1373.36C1201.13 1371.3 1202.59 1369.64 1204.68 1369.64C1206.77 1369.64 1208.23 1371.3 1208.23 1373.36C1208.23 1375.42 1206.77 1377.08 1204.68 1377.08C1202.59 1377.08 1201.13 1375.42 1201.13 1373.36ZM1212.67 1373.36C1212.67 1376.72 1215.17 1379.24 1218.51 1379.24C1221.84 1379.24 1224.34 1376.72 1224.34 1373.36C1224.34 1370 1221.84 1367.48 1218.51 1367.48C1215.17 1367.48 1212.67 1370 1212.67 1373.36ZM1214.95 1373.36C1214.95 1371.3 1216.42 1369.64 1218.51 1369.64C1220.59 1369.64 1222.06 1371.3 1222.06 1373.36C1222.06 1375.42 1220.59 1377.08 1218.51 1377.08C1216.42 1377.08 1214.95 1375.42 1214.95 1373.36ZM1235.69 1379H1237.9V1361.96H1235.62V1368.7C1234.61 1367.86 1233.39 1367.48 1232.17 1367.48C1231.11 1367.48 1230.17 1367.74 1229.41 1368.2C1227.7 1369.21 1226.5 1371.1 1226.5 1373.36C1226.5 1375.62 1227.68 1377.49 1229.38 1378.5C1230.15 1378.95 1231.21 1379.24 1232.21 1379.24C1233.56 1379.24 1234.78 1378.78 1235.69 1377.97V1379ZM1235.62 1375.47C1234.85 1376.5 1233.68 1377.08 1232.53 1377.08C1230.34 1377.08 1228.78 1375.38 1228.78 1373.36C1228.78 1371.39 1230.22 1369.64 1232.41 1369.64C1233.77 1369.64 1234.93 1370.34 1235.62 1371.25V1375.47Z" fill="black"/>
<rect x="484" y="1429" width="189" height="59" rx="15" fill="#BF7FFF"/>
<rect x="697" y="1429" width="188" height="59" rx="15" fill="#BF7FFF"/>
<rect x="909" y="1429" width="189" height="59" rx="15" fill="#BF7FFF"/>
<path d="M551.64 1467H553.32V1450.2H550.92V1462.54L540.84 1450.2H539.16V1467H541.56V1454.66L551.64 1467ZM565.741 1467H567.949V1455.72H565.741V1456.75C564.709 1455.86 563.485 1455.48 562.213 1455.48C561.157 1455.48 560.221 1455.74 559.453 1456.2C557.749 1457.21 556.549 1459.1 556.549 1461.36C556.549 1463.62 557.725 1465.49 559.429 1466.5C560.197 1466.95 561.253 1467.24 562.261 1467.24C563.605 1467.24 564.829 1466.78 565.741 1465.97V1467ZM565.669 1463.47C564.901 1464.5 563.725 1465.08 562.573 1465.08C560.389 1465.08 558.829 1463.38 558.829 1461.36C558.829 1459.39 560.269 1457.64 562.453 1457.64C563.821 1457.64 564.973 1458.34 565.669 1459.25V1463.47ZM578.544 1464.94C578.208 1465.03 577.632 1465.08 577.296 1465.08C576.696 1465.08 576.048 1464.86 575.736 1464.48C575.448 1464.14 575.4 1463.64 575.4 1463.04V1457.76H579V1455.72H575.4V1452.6H573.12V1455.72H570.24V1457.76H573.12V1462.92C573.12 1464.14 573.36 1465.18 574.032 1465.92C574.752 1466.74 575.808 1467.24 577.224 1467.24C577.872 1467.24 578.568 1467.14 579 1467L578.544 1464.94ZM586.918 1467.24C588.478 1467.24 589.726 1466.45 590.23 1465.97V1467H592.438V1455.72H590.158V1463.47C589.51 1464.24 588.382 1465.08 586.99 1465.08C586.126 1465.08 585.31 1464.7 584.806 1464.1C584.398 1463.62 584.158 1462.99 584.158 1461.84V1455.72H581.878V1461.48C581.878 1463.38 582.214 1464.48 582.91 1465.34C583.846 1466.52 585.31 1467.24 586.918 1467.24ZM602.989 1455.55C602.725 1455.5 602.341 1455.48 602.101 1455.48C600.445 1455.48 599.269 1456.25 598.717 1457.02V1455.72H596.509V1467H598.789V1459.54C599.413 1458.46 600.661 1457.64 601.837 1457.64C602.197 1457.64 602.461 1457.66 602.725 1457.74L602.989 1455.55ZM615.21 1461.84C615.234 1461.62 615.234 1461.46 615.234 1461.36C615.234 1458.02 612.954 1455.48 609.81 1455.48C606.618 1455.48 604.314 1457.98 604.314 1461.36C604.314 1464.74 606.858 1467.24 610.146 1467.24C612.45 1467.24 614.058 1466.21 614.898 1465.13L613.41 1463.71C612.762 1464.43 611.85 1465.25 610.17 1465.25C608.202 1465.25 606.642 1463.74 606.522 1461.84H615.21ZM609.882 1457.47C611.226 1457.47 612.522 1458.48 612.858 1459.92H606.714C607.098 1458.46 608.418 1457.47 609.882 1457.47Z" fill="black"/>
<path d="M754.08 1456.8H746.88V1459.08H751.68V1463.4C750.792 1464.29 749.328 1464.96 747.552 1464.96C743.976 1464.96 741.24 1462.39 741.24 1458.6C741.24 1454.98 743.904 1452.24 747.336 1452.24C749.136 1452.24 750.888 1453.06 751.872 1454.14L753.48 1452.55C752.016 1450.94 749.736 1449.96 747.336 1449.96C742.488 1449.96 738.84 1453.75 738.84 1458.6C738.84 1463.57 742.536 1467.24 747.552 1467.24C750.144 1467.24 752.64 1465.94 754.08 1464.12V1456.8ZM767.624 1461.84C767.648 1461.62 767.648 1461.46 767.648 1461.36C767.648 1458.02 765.368 1455.48 762.224 1455.48C759.032 1455.48 756.728 1457.98 756.728 1461.36C756.728 1464.74 759.272 1467.24 762.56 1467.24C764.864 1467.24 766.472 1466.21 767.312 1465.13L765.824 1463.71C765.176 1464.43 764.264 1465.25 762.584 1465.25C760.616 1465.25 759.056 1463.74 758.936 1461.84H767.624ZM762.296 1457.47C763.64 1457.47 764.936 1458.48 765.272 1459.92H759.128C759.512 1458.46 760.832 1457.47 762.296 1457.47ZM769.687 1465.68C770.935 1466.69 772.447 1467.24 774.247 1467.24C776.455 1467.24 778.447 1465.92 778.447 1463.78C778.447 1461.46 776.119 1460.66 774.343 1460.21C773.215 1459.92 772.327 1459.66 772.327 1458.89C772.327 1458 773.263 1457.47 774.367 1457.47C775.279 1457.47 776.095 1457.83 776.791 1458.36L777.967 1456.73C777.079 1456.01 775.879 1455.48 774.223 1455.48C772.207 1455.48 770.047 1456.58 770.047 1459.01C770.047 1460.59 771.271 1461.46 772.639 1461.91C774.295 1462.46 776.167 1462.54 776.167 1463.83C776.167 1464.72 775.183 1465.25 774.199 1465.25C773.071 1465.25 771.919 1464.82 770.863 1464L769.687 1465.68ZM788.075 1464.94C787.739 1465.03 787.163 1465.08 786.827 1465.08C786.227 1465.08 785.579 1464.86 785.267 1464.48C784.979 1464.14 784.931 1463.64 784.931 1463.04V1457.76H788.531V1455.72H784.931V1452.6H782.651V1455.72H779.771V1457.76H782.651V1462.92C782.651 1464.14 782.891 1465.18 783.563 1465.92C784.283 1466.74 785.339 1467.24 786.755 1467.24C787.403 1467.24 788.099 1467.14 788.531 1467L788.075 1464.94ZM796.449 1467.24C798.009 1467.24 799.257 1466.45 799.761 1465.97V1467H801.969V1455.72H799.689V1463.47C799.041 1464.24 797.913 1465.08 796.521 1465.08C795.657 1465.08 794.841 1464.7 794.337 1464.1C793.929 1463.62 793.689 1462.99 793.689 1461.84V1455.72H791.409V1461.48C791.409 1463.38 791.745 1464.48 792.441 1465.34C793.377 1466.52 794.841 1467.24 796.449 1467.24ZM812.52 1455.55C812.256 1455.5 811.872 1455.48 811.632 1455.48C809.976 1455.48 808.8 1456.25 808.248 1457.02V1455.72H806.04V1467H808.32V1459.54C808.944 1458.46 810.192 1457.64 811.368 1457.64C811.728 1457.64 811.992 1457.66 812.256 1457.74L812.52 1455.55ZM824.742 1461.84C824.766 1461.62 824.766 1461.46 824.766 1461.36C824.766 1458.02 822.486 1455.48 819.342 1455.48C816.15 1455.48 813.846 1457.98 813.846 1461.36C813.846 1464.74 816.39 1467.24 819.678 1467.24C821.982 1467.24 823.59 1466.21 824.43 1465.13L822.942 1463.71C822.294 1464.43 821.382 1465.25 819.702 1465.25C817.734 1465.25 816.174 1463.74 816.054 1461.84H824.742ZM819.414 1457.47C820.758 1457.47 822.054 1458.48 822.39 1459.92H816.246C816.63 1458.46 817.95 1457.47 819.414 1457.47ZM826.804 1465.68C828.052 1466.69 829.564 1467.24 831.364 1467.24C833.572 1467.24 835.564 1465.92 835.564 1463.78C835.564 1461.46 833.236 1460.66 831.46 1460.21C830.332 1459.92 829.444 1459.66 829.444 1458.89C829.444 1458 830.38 1457.47 831.484 1457.47C832.396 1457.47 833.212 1457.83 833.908 1458.36L835.084 1456.73C834.196 1456.01 832.996 1455.48 831.34 1455.48C829.324 1455.48 827.164 1456.58 827.164 1459.01C827.164 1460.59 828.388 1461.46 829.756 1461.91C831.412 1462.46 833.284 1462.54 833.284 1463.83C833.284 1464.72 832.3 1465.25 831.316 1465.25C830.188 1465.25 829.036 1464.82 827.98 1464L826.804 1465.68Z" fill="black"/>
<path d="M997.224 1467H999.72L992.76 1450.2H991.08L984.12 1467H986.616L988.368 1462.68H995.448L997.224 1467ZM991.92 1454.16L994.512 1460.4H989.328L991.92 1454.16ZM1001.88 1467H1004.16V1449.96H1001.88V1467ZM1008.24 1467H1010.52V1449.96H1008.24V1467Z" fill="black"/>
<path d="M226.56 324.8V320.48H233.76V318.2H224.16V335H226.56V327.08H232.08V324.8H226.56ZM242.403 323.552C242.139 323.504 241.755 323.48 241.515 323.48C239.859 323.48 238.683 324.248 238.131 325.016V323.72H235.923V335H238.203V327.536C238.827 326.456 240.075 325.64 241.251 325.64C241.611 325.64 241.875 325.664 242.139 325.736L242.403 323.552ZM245.157 335H247.437V323.72H245.157V335ZM244.797 319.712C244.797 320.552 245.445 321.2 246.285 321.2C247.125 321.2 247.797 320.552 247.797 319.712C247.797 318.872 247.125 318.2 246.285 318.2C245.445 318.2 244.797 318.872 244.797 319.712ZM261.445 329.84C261.469 329.624 261.469 329.456 261.469 329.36C261.469 326.024 259.189 323.48 256.045 323.48C252.853 323.48 250.549 325.976 250.549 329.36C250.549 332.744 253.093 335.24 256.381 335.24C258.685 335.24 260.293 334.208 261.133 333.128L259.645 331.712C258.997 332.432 258.085 333.248 256.405 333.248C254.437 333.248 252.877 331.736 252.757 329.84H261.445ZM256.117 325.472C257.461 325.472 258.757 326.48 259.093 327.92H252.949C253.333 326.456 254.653 325.472 256.117 325.472ZM266.795 323.72H264.587V335H266.867V327.248C267.539 326.432 268.619 325.64 270.107 325.64C271.043 325.64 271.907 326.072 272.435 326.744C272.843 327.248 273.107 327.92 273.107 329.36V335H275.387V329.48C275.387 327.536 275.003 326.384 274.283 325.472C273.323 324.248 271.835 323.48 270.179 323.48C268.547 323.48 267.395 324.224 266.795 324.8V323.72ZM287.467 335H289.675V317.96H287.395V324.704C286.387 323.864 285.163 323.48 283.939 323.48C282.883 323.48 281.947 323.744 281.179 324.2C279.475 325.208 278.275 327.104 278.275 329.36C278.275 331.616 279.451 333.488 281.155 334.496C281.923 334.952 282.979 335.24 283.987 335.24C285.331 335.24 286.555 334.784 287.467 333.968V335ZM287.395 331.472C286.627 332.504 285.451 333.08 284.299 333.08C282.115 333.08 280.555 331.376 280.555 329.36C280.555 327.392 281.995 325.64 284.179 325.64C285.547 325.64 286.699 326.336 287.395 327.248V331.472Z" fill="black"/>
<path d="M226.56 699.8V695.48H233.76V693.2H224.16V710H226.56V702.08H232.08V699.8H226.56ZM242.403 698.552C242.139 698.504 241.755 698.48 241.515 698.48C239.859 698.48 238.683 699.248 238.131 700.016V698.72H235.923V710H238.203V702.536C238.827 701.456 240.075 700.64 241.251 700.64C241.611 700.64 241.875 700.664 242.139 700.736L242.403 698.552ZM245.157 710H247.437V698.72H245.157V710ZM244.797 694.712C244.797 695.552 245.445 696.2 246.285 696.2C247.125 696.2 247.797 695.552 247.797 694.712C247.797 693.872 247.125 693.2 246.285 693.2C245.445 693.2 244.797 693.872 244.797 694.712ZM261.445 704.84C261.469 704.624 261.469 704.456 261.469 704.36C261.469 701.024 259.189 698.48 256.045 698.48C252.853 698.48 250.549 700.976 250.549 704.36C250.549 707.744 253.093 710.24 256.381 710.24C258.685 710.24 260.293 709.208 261.133 708.128L259.645 706.712C258.997 707.432 258.085 708.248 256.405 708.248C254.437 708.248 252.877 706.736 252.757 704.84H261.445ZM256.117 700.472C257.461 700.472 258.757 701.48 259.093 702.92H252.949C253.333 701.456 254.653 700.472 256.117 700.472ZM266.795 698.72H264.587V710H266.867V702.248C267.539 701.432 268.619 700.64 270.107 700.64C271.043 700.64 271.907 701.072 272.435 701.744C272.843 702.248 273.107 702.92 273.107 704.36V710H275.387V704.48C275.387 702.536 275.003 701.384 274.283 700.472C273.323 699.248 271.835 698.48 270.179 698.48C268.547 698.48 267.395 699.224 266.795 699.8V698.72ZM287.467 710H289.675V692.96H287.395V699.704C286.387 698.864 285.163 698.48 283.939 698.48C282.883 698.48 281.947 698.744 281.179 699.2C279.475 700.208 278.275 702.104 278.275 704.36C278.275 706.616 279.451 708.488 281.155 709.496C281.923 709.952 282.979 710.24 283.987 710.24C285.331 710.24 286.555 709.784 287.467 708.968V710ZM287.395 706.472C286.627 707.504 285.451 708.08 284.299 708.08C282.115 708.08 280.555 706.376 280.555 704.36C280.555 702.392 281.995 700.64 284.179 700.64C285.547 700.64 286.699 701.336 287.395 702.248V706.472Z" fill="black"/>
<path d="M226.56 575.8V571.48H233.76V569.2H224.16V586H226.56V578.08H232.08V575.8H226.56ZM242.403 574.552C242.139 574.504 241.755 574.48 241.515 574.48C239.859 574.48 238.683 575.248 238.131 576.016V574.72H235.923V586H238.203V578.536C238.827 577.456 240.075 576.64 241.251 576.64C241.611 576.64 241.875 576.664 242.139 576.736L242.403 574.552ZM245.157 586H247.437V574.72H245.157V586ZM244.797 570.712C244.797 571.552 245.445 572.2 246.285 572.2C247.125 572.2 247.797 571.552 247.797 570.712C247.797 569.872 247.125 569.2 246.285 569.2C245.445 569.2 244.797 569.872 244.797 570.712ZM261.445 580.84C261.469 580.624 261.469 580.456 261.469 580.36C261.469 577.024 259.189 574.48 256.045 574.48C252.853 574.48 250.549 576.976 250.549 580.36C250.549 583.744 253.093 586.24 256.381 586.24C258.685 586.24 260.293 585.208 261.133 584.128L259.645 582.712C258.997 583.432 258.085 584.248 256.405 584.248C254.437 584.248 252.877 582.736 252.757 580.84H261.445ZM256.117 576.472C257.461 576.472 258.757 577.48 259.093 578.92H252.949C253.333 577.456 254.653 576.472 256.117 576.472ZM266.795 574.72H264.587V586H266.867V578.248C267.539 577.432 268.619 576.64 270.107 576.64C271.043 576.64 271.907 577.072 272.435 577.744C272.843 578.248 273.107 578.92 273.107 580.36V586H275.387V580.48C275.387 578.536 275.003 577.384 274.283 576.472C273.323 575.248 271.835 574.48 270.179 574.48C268.547 574.48 267.395 575.224 266.795 575.8V574.72ZM287.467 586H289.675V568.96H287.395V575.704C286.387 574.864 285.163 574.48 283.939 574.48C282.883 574.48 281.947 574.744 281.179 575.2C279.475 576.208 278.275 578.104 278.275 580.36C278.275 582.616 279.451 584.488 281.155 585.496C281.923 585.952 282.979 586.24 283.987 586.24C285.331 586.24 286.555 585.784 287.467 584.968V586ZM287.395 582.472C286.627 583.504 285.451 584.08 284.299 584.08C282.115 584.08 280.555 582.376 280.555 580.36C280.555 578.392 281.995 576.64 284.179 576.64C285.547 576.64 286.699 577.336 287.395 578.248V582.472Z" fill="black"/>
<rect x="1016" y="759" width="56" height="57" rx="10" fill="#B1E7FE"/>
<rect x="1081" y="759" width="56" height="57" rx="10" fill="#B1E7FE"/>
<path d="M1038.44 779.888C1038.92 777.872 1041.13 776.24 1043.67 776.24C1046.55 776.24 1048.52 778.208 1048.52 780.656C1048.52 785.84 1040.17 786.8 1040.17 792.752C1040.17 794.528 1040.98 796.4 1042.95 797.888L1045.98 794.72C1045.16 794 1044.73 793.328 1044.73 792.704C1044.73 790.208 1053.08 788.048 1053.08 780.656C1053.08 775.856 1049.1 771.92 1043.67 771.92C1039.02 771.92 1035.08 774.752 1034.12 778.64L1038.44 779.888ZM1040.12 803.12C1040.12 804.992 1041.61 806.48 1043.48 806.48C1045.35 806.48 1046.84 804.992 1046.84 803.12C1046.84 801.248 1045.35 799.76 1043.48 799.76C1041.61 799.76 1040.12 801.248 1040.12 803.12Z" fill="white"/>
<path d="M226.56 449.8V445.48H233.76V443.2H224.16V460H226.56V452.08H232.08V449.8H226.56ZM242.403 448.552C242.139 448.504 241.755 448.48 241.515 448.48C239.859 448.48 238.683 449.248 238.131 450.016V448.72H235.923V460H238.203V452.536C238.827 451.456 240.075 450.64 241.251 450.64C241.611 450.64 241.875 450.664 242.139 450.736L242.403 448.552ZM245.157 460H247.437V448.72H245.157V460ZM244.797 444.712C244.797 445.552 245.445 446.2 246.285 446.2C247.125 446.2 247.797 445.552 247.797 444.712C247.797 443.872 247.125 443.2 246.285 443.2C245.445 443.2 244.797 443.872 244.797 444.712ZM261.445 454.84C261.469 454.624 261.469 454.456 261.469 454.36C261.469 451.024 259.189 448.48 256.045 448.48C252.853 448.48 250.549 450.976 250.549 454.36C250.549 457.744 253.093 460.24 256.381 460.24C258.685 460.24 260.293 459.208 261.133 458.128L259.645 456.712C258.997 457.432 258.085 458.248 256.405 458.248C254.437 458.248 252.877 456.736 252.757 454.84H261.445ZM256.117 450.472C257.461 450.472 258.757 451.48 259.093 452.92H252.949C253.333 451.456 254.653 450.472 256.117 450.472ZM266.795 448.72H264.587V460H266.867V452.248C267.539 451.432 268.619 450.64 270.107 450.64C271.043 450.64 271.907 451.072 272.435 451.744C272.843 452.248 273.107 452.92 273.107 454.36V460H275.387V454.48C275.387 452.536 275.003 451.384 274.283 450.472C273.323 449.248 271.835 448.48 270.179 448.48C268.547 448.48 267.395 449.224 266.795 449.8V448.72ZM287.467 460H289.675V442.96H287.395V449.704C286.387 448.864 285.163 448.48 283.939 448.48C282.883 448.48 281.947 448.744 281.179 449.2C279.475 450.208 278.275 452.104 278.275 454.36C278.275 456.616 279.451 458.488 281.155 459.496C281.923 459.952 282.979 460.24 283.987 460.24C285.331 460.24 286.555 459.784 287.467 458.968V460ZM287.395 456.472C286.627 457.504 285.451 458.08 284.299 458.08C282.115 458.08 280.555 456.376 280.555 454.36C280.555 452.392 281.995 450.64 284.179 450.64C285.547 450.64 286.699 451.336 287.395 452.248V456.472Z" fill="black"/>
<circle cx="1108.5" cy="787.5" r="17.5" stroke="white" stroke-width="4"/>
<circle cx="1103.24" cy="784.575" r="1.865" fill="white" stroke="white"/>
<circle cx="1113.76" cy="784.575" r="1.865" fill="white" stroke="white"/>
<path d="M1104.99 793.18C1106.11 794.651 1109.08 796.712 1112.01 793.18" stroke="white" stroke-width="3" stroke-linecap="round"/>
<rect x="512" y="2096" width="135" height="131" fill="#C4C4C4"/>
<rect x="693" y="2098" width="135" height="131" fill="#C4C4C4"/>
<rect x="693" y="2098" width="135" height="131" fill="#C4C4C4"/>
<rect x="869" y="2098" width="135" height="131" fill="#C4C4C4"/>
<rect x="1045" y="2098" width="135" height="131" fill="#C4C4C4"/>
<rect x="1045" y="2098" width="135" height="131" fill="#C4C4C4"/>
</svg>
