<svg width="1440" height="1629" viewBox="0 0 1440 1629" fill="none" xmlns="http://www.w3.org/2000/svg">
<g clip-path="url(#clip0)">
<rect width="1440" height="1629" fill="white"/>
<rect width="1440" height="2572" fill="#FFC9E3"/>
<path d="M520.76 242H527.96V191.6H520.76V211.4H492.68V191.6H485.48V242H492.68V218.24H520.76V242ZM540.526 242H547.366V208.16H540.526V242ZM539.446 196.136C539.446 198.656 541.39 200.6 543.91 200.6C546.43 200.6 548.446 198.656 548.446 196.136C548.446 193.616 546.43 191.6 543.91 191.6C541.39 191.6 539.446 193.616 539.446 196.136ZM616.787 242H621.827V191.6H614.627V228.608L584.387 191.6H579.347V242H586.547V204.992L616.787 242ZM664.201 226.52C664.273 225.872 664.273 225.368 664.273 225.08C664.273 215.072 657.433 207.44 648.001 207.44C638.425 207.44 631.513 214.928 631.513 225.08C631.513 235.232 639.145 242.72 649.009 242.72C655.921 242.72 660.745 239.624 663.265 236.384L658.801 232.136C656.857 234.296 654.121 236.744 649.081 236.744C643.177 236.744 638.497 232.208 638.137 226.52H664.201ZM648.217 213.416C652.249 213.416 656.137 216.44 657.145 220.76H638.713C639.865 216.368 643.825 213.416 648.217 213.416ZM673.628 242H680.468V208.16H673.628V242ZM672.548 196.136C672.548 198.656 674.492 200.6 677.012 200.6C679.532 200.6 681.548 198.656 681.548 196.136C681.548 193.616 679.532 191.6 677.012 191.6C674.492 191.6 672.548 193.616 672.548 196.136ZM717.163 239.048V240.92C717.163 245.168 716.515 247.76 715.291 249.632C713.635 252.152 710.755 253.52 707.083 253.52C701.539 253.52 698.371 250.712 695.923 247.472L690.883 252.152C693.043 255.536 698.587 260 707.371 260C714.067 260 719.251 256.904 721.987 251.648C723.355 248.984 724.003 245.6 724.003 240.56V208.16H717.379V211.256C714.283 208.592 710.611 207.44 706.795 207.44C703.627 207.44 700.819 208.232 698.515 209.6C693.403 212.624 689.803 218.312 689.803 225.08C689.803 231.848 693.331 237.464 698.443 240.488C700.747 241.856 703.915 242.72 706.939 242.72C710.971 242.72 714.427 241.424 717.163 239.048ZM717.163 231.416C714.859 234.512 711.331 236.24 707.875 236.24C701.323 236.24 696.643 231.128 696.643 225.08C696.643 219.176 700.963 213.92 707.515 213.92C711.619 213.92 715.075 216.008 717.163 218.744V231.416ZM743.116 190.88H736.276V242H743.116V218.744C745.132 216.296 748.372 213.92 752.836 213.92C755.644 213.92 758.236 215.216 759.82 217.232C761.044 218.744 761.836 220.76 761.836 225.08V242H768.676V225.44C768.676 219.608 767.524 216.152 765.364 213.416C762.484 209.744 758.02 207.44 753.052 207.44C748.372 207.44 744.988 209.528 743.116 211.112V190.88ZM786.846 238.904C789.582 241.352 793.254 242.72 797.286 242.72C800.31 242.72 803.478 241.856 805.782 240.488C810.894 237.464 814.422 231.848 814.422 225.08C814.422 218.312 810.822 212.624 805.71 209.6C803.406 208.232 800.598 207.44 797.43 207.44C793.758 207.44 790.086 208.592 787.062 211.112V190.88H780.222V242H786.846V238.904ZM787.062 218.744C789.15 216.008 792.606 213.92 796.71 213.92C803.262 213.92 807.582 219.176 807.582 225.08C807.582 231.128 802.902 236.24 796.35 236.24C792.894 236.24 789.366 234.512 787.062 231.416V218.744ZM820.935 225.08C820.935 235.16 828.423 242.72 838.431 242.72C848.439 242.72 855.927 235.16 855.927 225.08C855.927 215 848.439 207.44 838.431 207.44C828.423 207.44 820.935 215 820.935 225.08ZM827.775 225.08C827.775 218.888 832.167 213.92 838.431 213.92C844.695 213.92 849.087 218.888 849.087 225.08C849.087 231.272 844.695 236.24 838.431 236.24C832.167 236.24 827.775 231.272 827.775 225.08ZM884.74 207.656C883.948 207.512 882.796 207.44 882.076 207.44C877.108 207.44 873.58 209.744 871.924 212.048V208.16H865.3V242H872.14V219.608C874.012 216.368 877.756 213.92 881.284 213.92C882.364 213.92 883.156 213.992 883.948 214.208L884.74 207.656ZM896.819 226.16H901.499L902.579 208.16V191.6H895.739V208.16L896.819 226.16ZM894.083 237.68C894.083 240.488 896.315 242.72 899.123 242.72C901.931 242.72 904.163 240.488 904.163 237.68C904.163 234.872 901.931 232.64 899.123 232.64C896.315 232.64 894.083 234.872 894.083 237.68Z" fill="#FF6F81"/>
<path d="M154.35 89H156.8V64.5H153.3V82.49L138.6 64.5H136.15V89H139.65V71.01L154.35 89ZM166.584 74.125V67.825H177.084V64.5H163.084V89H177.434V85.675H166.584V77.45H174.634V74.125H166.584ZM181.985 89H185.485V64.5H181.985V89ZM212.095 74.125H201.595V77.45H208.595V83.75C207.3 85.045 205.165 86.025 202.575 86.025C197.36 86.025 193.37 82.28 193.37 76.75C193.37 71.465 197.255 67.475 202.26 67.475C204.885 67.475 207.44 68.665 208.875 70.24L211.22 67.93C209.085 65.585 205.76 64.15 202.26 64.15C195.19 64.15 189.87 69.68 189.87 76.75C189.87 83.995 195.26 89.35 202.575 89.35C206.355 89.35 209.995 87.46 212.095 84.8V74.125ZM234.682 89H238.182V64.5H234.682V74.125H221.032V64.5H217.532V89H221.032V77.45H234.682V89ZM247.965 85.675V77.45H253.285C255.49 77.45 256.54 77.94 257.31 78.71C258.01 79.445 258.465 80.425 258.465 81.545C258.465 82.665 258.01 83.68 257.31 84.415C256.54 85.185 255.49 85.675 253.285 85.675H247.965ZM247.965 74.125V67.825H252.165C254.125 67.825 254.965 68.21 255.525 68.84C256.05 69.4 256.365 70.135 256.365 70.975C256.365 71.815 256.05 72.55 255.525 73.11C254.965 73.74 254.125 74.125 252.165 74.125H247.965ZM253.915 89C256.4 89 258.01 88.405 259.27 87.355C260.915 86.025 261.965 83.96 261.965 81.685C261.965 78.92 260.25 76.4 257.94 75.245C259.095 74.16 259.865 72.55 259.865 70.87C259.865 69.05 259.095 67.37 257.835 66.215C256.68 65.165 255.175 64.5 252.795 64.5H244.465V89H253.915ZM264.586 76.75C264.586 83.89 269.906 89.35 276.836 89.35C283.766 89.35 289.086 83.89 289.086 76.75C289.086 69.61 283.766 64.15 276.836 64.15C269.906 64.15 264.586 69.61 264.586 76.75ZM268.086 76.75C268.086 71.465 271.831 67.475 276.836 67.475C281.841 67.475 285.586 71.465 285.586 76.75C285.586 82.07 281.841 86.025 276.836 86.025C271.831 86.025 268.086 82.07 268.086 76.75ZM299.745 77.45L308.46 89H312.695L303.91 77.31C305.135 77.1 306.01 76.645 306.78 76.015C308.25 74.825 309.195 73.005 309.195 70.975C309.195 68.945 308.25 67.125 306.78 65.935C305.66 65.025 304.26 64.5 302.02 64.5H293.445V89H296.945V77.45H299.745ZM296.945 74.125V67.825H301.845C303.42 67.825 304.225 68.175 304.785 68.735C305.345 69.295 305.695 70.1 305.695 70.975C305.695 71.85 305.345 72.655 304.785 73.215C304.225 73.775 303.42 74.125 301.845 74.125H296.945ZM313.562 85.255C315.732 87.88 318.777 89.35 322.137 89.35C326.407 89.35 329.732 86.55 329.732 82.245C329.732 79.445 328.192 77.73 326.547 76.645C323.397 74.545 318.182 73.88 318.182 70.765C318.182 68.63 320.212 67.475 322.242 67.475C323.782 67.475 325.287 68.035 326.617 69.155L328.682 66.6C327.387 65.515 325.217 64.15 322.102 64.15C317.832 64.15 314.682 67.09 314.682 70.66C314.682 73.215 316.047 74.895 317.797 76.05C321.052 78.185 326.232 78.605 326.232 82.35C326.232 84.555 324.237 86.025 321.962 86.025C319.442 86.025 317.412 84.625 315.977 82.875L313.562 85.255Z" fill="#FF6F81"/>
<rect x="66.8672" y="54.9639" width="53.8072" height="37.0361" fill="#FF6F81"/>
<path d="M92.7229 34L131.454 54.9639H53.9917L92.7229 34Z" fill="#FF6F81"/>
<rect x="148" y="1259" width="328" height="133" rx="28" fill="white" stroke="white" stroke-width="4"/>
<path d="M199.64 1316H201.32V1299.2H198.92V1311.54L188.84 1299.2H187.16V1316H189.56V1303.66L199.64 1316ZM215.445 1310.84C215.469 1310.62 215.469 1310.46 215.469 1310.36C215.469 1307.02 213.189 1304.48 210.045 1304.48C206.853 1304.48 204.549 1306.98 204.549 1310.36C204.549 1313.74 207.093 1316.24 210.381 1316.24C212.685 1316.24 214.293 1315.21 215.133 1314.13L213.645 1312.71C212.997 1313.43 212.085 1314.25 210.405 1314.25C208.437 1314.25 206.877 1312.74 206.757 1310.84H215.445ZM210.117 1306.47C211.461 1306.47 212.757 1307.48 213.093 1308.92H206.949C207.333 1307.46 208.653 1306.47 210.117 1306.47ZM218.587 1316H220.867V1304.72H218.587V1316ZM218.227 1300.71C218.227 1301.55 218.875 1302.2 219.715 1302.2C220.555 1302.2 221.227 1301.55 221.227 1300.71C221.227 1299.87 220.555 1299.2 219.715 1299.2C218.875 1299.2 218.227 1299.87 218.227 1300.71ZM233.098 1315.02V1315.64C233.098 1317.06 232.882 1317.92 232.474 1318.54C231.922 1319.38 230.962 1319.84 229.738 1319.84C227.89 1319.84 226.834 1318.9 226.018 1317.82L224.338 1319.38C225.058 1320.51 226.906 1322 229.834 1322C232.066 1322 233.794 1320.97 234.706 1319.22C235.162 1318.33 235.378 1317.2 235.378 1315.52V1304.72H233.17V1305.75C232.138 1304.86 230.914 1304.48 229.642 1304.48C228.586 1304.48 227.65 1304.74 226.882 1305.2C225.178 1306.21 223.978 1308.1 223.978 1310.36C223.978 1312.62 225.154 1314.49 226.858 1315.5C227.626 1315.95 228.682 1316.24 229.69 1316.24C231.034 1316.24 232.186 1315.81 233.098 1315.02ZM233.098 1312.47C232.33 1313.5 231.154 1314.08 230.002 1314.08C227.818 1314.08 226.258 1312.38 226.258 1310.36C226.258 1308.39 227.698 1306.64 229.882 1306.64C231.25 1306.64 232.402 1307.34 233.098 1308.25V1312.47ZM241.75 1298.96H239.47V1316H241.75V1308.25C242.422 1307.43 243.502 1306.64 244.99 1306.64C245.926 1306.64 246.79 1307.07 247.318 1307.74C247.726 1308.25 247.99 1308.92 247.99 1310.36V1316H250.27V1310.48C250.27 1308.54 249.886 1307.38 249.166 1306.47C248.206 1305.25 246.718 1304.48 245.062 1304.48C243.502 1304.48 242.374 1305.18 241.75 1305.7V1298.96ZM256.326 1314.97C257.238 1315.78 258.462 1316.24 259.806 1316.24C260.814 1316.24 261.87 1315.95 262.638 1315.5C264.342 1314.49 265.518 1312.62 265.518 1310.36C265.518 1308.1 264.318 1306.21 262.614 1305.2C261.846 1304.74 260.91 1304.48 259.854 1304.48C258.63 1304.48 257.406 1304.86 256.398 1305.7V1298.96H254.118V1316H256.326V1314.97ZM256.398 1308.25C257.094 1307.34 258.246 1306.64 259.614 1306.64C261.798 1306.64 263.238 1308.39 263.238 1310.36C263.238 1312.38 261.678 1314.08 259.494 1314.08C258.342 1314.08 257.166 1313.5 256.398 1312.47V1308.25ZM267.689 1310.36C267.689 1313.72 270.185 1316.24 273.521 1316.24C276.857 1316.24 279.353 1313.72 279.353 1310.36C279.353 1307 276.857 1304.48 273.521 1304.48C270.185 1304.48 267.689 1307 267.689 1310.36ZM269.969 1310.36C269.969 1308.3 271.433 1306.64 273.521 1306.64C275.609 1306.64 277.073 1308.3 277.073 1310.36C277.073 1312.42 275.609 1314.08 273.521 1314.08C271.433 1314.08 269.969 1312.42 269.969 1310.36ZM288.958 1304.55C288.694 1304.5 288.31 1304.48 288.07 1304.48C286.414 1304.48 285.238 1305.25 284.686 1306.02V1304.72H282.478V1316H284.758V1308.54C285.382 1307.46 286.63 1306.64 287.806 1306.64C288.166 1306.64 288.43 1306.66 288.694 1306.74L288.958 1304.55ZM290.515 1314.68C291.763 1315.69 293.275 1316.24 295.075 1316.24C297.283 1316.24 299.275 1314.92 299.275 1312.78C299.275 1310.46 296.947 1309.66 295.171 1309.21C294.043 1308.92 293.155 1308.66 293.155 1307.89C293.155 1307 294.091 1306.47 295.195 1306.47C296.107 1306.47 296.923 1306.83 297.619 1307.36L298.795 1305.73C297.907 1305.01 296.707 1304.48 295.051 1304.48C293.035 1304.48 290.875 1305.58 290.875 1308.01C290.875 1309.59 292.099 1310.46 293.467 1310.91C295.123 1311.46 296.995 1311.54 296.995 1312.83C296.995 1313.72 296.011 1314.25 295.027 1314.25C293.899 1314.25 292.747 1313.82 291.691 1313L290.515 1314.68ZM308.985 1316H311.265V1304.72H308.985V1316ZM308.625 1300.71C308.625 1301.55 309.273 1302.2 310.113 1302.2C310.953 1302.2 311.625 1301.55 311.625 1300.71C311.625 1299.87 310.953 1299.2 310.113 1299.2C309.273 1299.2 308.625 1299.87 308.625 1300.71ZM314.257 1314.68C315.505 1315.69 317.017 1316.24 318.817 1316.24C321.025 1316.24 323.017 1314.92 323.017 1312.78C323.017 1310.46 320.689 1309.66 318.913 1309.21C317.785 1308.92 316.897 1308.66 316.897 1307.89C316.897 1307 317.833 1306.47 318.937 1306.47C319.849 1306.47 320.665 1306.83 321.361 1307.36L322.537 1305.73C321.649 1305.01 320.449 1304.48 318.793 1304.48C316.777 1304.48 314.617 1305.58 314.617 1308.01C314.617 1309.59 315.841 1310.46 317.209 1310.91C318.865 1311.46 320.737 1311.54 320.737 1312.83C320.737 1313.72 319.753 1314.25 318.769 1314.25C317.641 1314.25 316.489 1313.82 315.433 1313L314.257 1314.68ZM340.96 1316H343.168V1304.72H340.96V1305.75C339.928 1304.86 338.704 1304.48 337.432 1304.48C336.376 1304.48 335.44 1304.74 334.672 1305.2C332.968 1306.21 331.768 1308.1 331.768 1310.36C331.768 1312.62 332.944 1314.49 334.648 1315.5C335.416 1315.95 336.472 1316.24 337.48 1316.24C338.824 1316.24 340.048 1315.78 340.96 1314.97V1316ZM340.888 1312.47C340.12 1313.5 338.944 1314.08 337.792 1314.08C335.608 1314.08 334.048 1312.38 334.048 1310.36C334.048 1308.39 335.488 1306.64 337.672 1306.64C339.04 1306.64 340.192 1307.34 340.888 1308.25V1312.47ZM362.056 1312.33C361.336 1313.29 360.28 1314.08 358.792 1314.08C356.632 1314.08 355.048 1312.57 355.048 1310.36C355.048 1308.22 356.608 1306.64 358.648 1306.64C360.088 1306.64 361.144 1307.48 361.768 1308.34L363.448 1306.93C362.392 1305.46 360.616 1304.48 358.648 1304.48C355.264 1304.48 352.768 1307.02 352.768 1310.36C352.768 1313.7 355.312 1316.24 358.792 1316.24C360.856 1316.24 362.872 1315.16 363.807 1313.6L362.056 1312.33ZM368.734 1298.96H366.454V1316H368.734V1308.25C369.406 1307.43 370.486 1306.64 371.974 1306.64C372.91 1306.64 373.774 1307.07 374.302 1307.74C374.71 1308.25 374.974 1308.92 374.974 1310.36V1316H377.254V1310.48C377.254 1308.54 376.87 1307.38 376.15 1306.47C375.19 1305.25 373.702 1304.48 372.046 1304.48C370.486 1304.48 369.358 1305.18 368.734 1305.7V1298.96ZM389.335 1316H391.543V1304.72H389.335V1305.75C388.303 1304.86 387.079 1304.48 385.807 1304.48C384.751 1304.48 383.815 1304.74 383.047 1305.2C381.343 1306.21 380.143 1308.1 380.143 1310.36C380.143 1312.62 381.319 1314.49 383.023 1315.5C383.791 1315.95 384.847 1316.24 385.855 1316.24C387.199 1316.24 388.423 1315.78 389.335 1314.97V1316ZM389.263 1312.47C388.495 1313.5 387.319 1314.08 386.167 1314.08C383.983 1314.08 382.423 1312.38 382.423 1310.36C382.423 1308.39 383.863 1306.64 386.047 1306.64C387.415 1306.64 388.567 1307.34 389.263 1308.25V1312.47ZM402.138 1313.94C401.802 1314.03 401.226 1314.08 400.89 1314.08C400.29 1314.08 399.642 1313.86 399.33 1313.48C399.042 1313.14 398.994 1312.64 398.994 1312.04V1306.76H402.594V1304.72H398.994V1301.6H396.714V1304.72H393.834V1306.76H396.714V1311.92C396.714 1313.14 396.954 1314.18 397.626 1314.92C398.346 1315.74 399.402 1316.24 400.818 1316.24C401.466 1316.24 402.162 1316.14 402.594 1316L402.138 1313.94ZM195.272 1345H197.48V1333.72H195.272V1334.75C194.24 1333.86 193.016 1333.48 191.744 1333.48C190.688 1333.48 189.752 1333.74 188.984 1334.2C187.28 1335.21 186.08 1337.1 186.08 1339.36C186.08 1341.62 187.256 1343.49 188.96 1344.5C189.728 1344.95 190.784 1345.24 191.792 1345.24C193.136 1345.24 194.36 1344.78 195.272 1343.97V1345ZM195.2 1341.47C194.432 1342.5 193.256 1343.08 192.104 1343.08C189.92 1343.08 188.36 1341.38 188.36 1339.36C188.36 1337.39 189.8 1335.64 191.984 1335.64C193.352 1335.64 194.504 1336.34 195.2 1337.25V1341.47ZM203.851 1344.02C204.763 1344.81 205.915 1345.24 207.259 1345.24C208.267 1345.24 209.323 1344.95 210.091 1344.5C211.795 1343.49 212.971 1341.62 212.971 1339.36C212.971 1337.1 211.771 1335.21 210.067 1334.2C209.299 1333.74 208.363 1333.48 207.307 1333.48C206.035 1333.48 204.811 1333.86 203.779 1334.75V1333.72H201.571V1350.76H203.851V1344.02ZM203.851 1337.25C204.547 1336.34 205.699 1335.64 207.067 1335.64C209.251 1335.64 210.691 1337.39 210.691 1339.36C210.691 1341.38 209.131 1343.08 206.947 1343.08C205.795 1343.08 204.619 1342.5 203.851 1341.47V1337.25ZM218.383 1344.02C219.295 1344.81 220.447 1345.24 221.791 1345.24C222.799 1345.24 223.855 1344.95 224.623 1344.5C226.327 1343.49 227.503 1341.62 227.503 1339.36C227.503 1337.1 226.303 1335.21 224.599 1334.2C223.831 1333.74 222.895 1333.48 221.839 1333.48C220.567 1333.48 219.343 1333.86 218.311 1334.75V1333.72H216.103V1350.76H218.383V1344.02ZM218.383 1337.25C219.079 1336.34 220.23 1335.64 221.599 1335.64C223.783 1335.64 225.223 1337.39 225.223 1339.36C225.223 1341.38 223.663 1343.08 221.479 1343.08C220.327 1343.08 219.151 1342.5 218.383 1341.47V1337.25ZM230.634 1345H232.914V1327.96H230.634V1345ZM236.985 1345H239.265V1333.72H236.985V1345ZM236.625 1329.71C236.625 1330.55 237.273 1331.2 238.113 1331.2C238.953 1331.2 239.625 1330.55 239.625 1329.71C239.625 1328.87 238.953 1328.2 238.113 1328.2C237.273 1328.2 236.625 1328.87 236.625 1329.71ZM251.665 1341.33C250.945 1342.29 249.889 1343.08 248.401 1343.08C246.241 1343.08 244.657 1341.57 244.657 1339.36C244.657 1337.22 246.217 1335.64 248.257 1335.64C249.697 1335.64 250.753 1336.48 251.377 1337.34L253.057 1335.93C252.001 1334.46 250.225 1333.48 248.257 1333.48C244.873 1333.48 242.377 1336.02 242.377 1339.36C242.377 1342.7 244.921 1345.24 248.401 1345.24C250.465 1345.24 252.481 1344.16 253.417 1342.6L251.665 1341.33ZM264.295 1345H266.503V1333.72H264.295V1334.75C263.263 1333.86 262.039 1333.48 260.767 1333.48C259.711 1333.48 258.775 1333.74 258.007 1334.2C256.303 1335.21 255.103 1337.1 255.103 1339.36C255.103 1341.62 256.279 1343.49 257.983 1344.5C258.751 1344.95 259.807 1345.24 260.815 1345.24C262.159 1345.24 263.383 1344.78 264.295 1343.97V1345ZM264.223 1341.47C263.455 1342.5 262.279 1343.08 261.127 1343.08C258.943 1343.08 257.383 1341.38 257.383 1339.36C257.383 1337.39 258.823 1335.64 261.007 1335.64C262.375 1335.64 263.527 1336.34 264.223 1337.25V1341.47ZM277.099 1342.94C276.763 1343.03 276.187 1343.08 275.851 1343.08C275.251 1343.08 274.603 1342.86 274.291 1342.48C274.003 1342.14 273.955 1341.64 273.955 1341.04V1335.76H277.555V1333.72H273.955V1330.6H271.675V1333.72H268.795V1335.76H271.675V1340.92C271.675 1342.14 271.915 1343.18 272.587 1343.92C273.307 1344.74 274.363 1345.24 275.779 1345.24C276.427 1345.24 277.123 1345.14 277.555 1345L277.099 1342.94ZM280.673 1345H282.953V1333.72H280.673V1345ZM280.313 1329.71C280.313 1330.55 280.961 1331.2 281.801 1331.2C282.641 1331.2 283.313 1330.55 283.313 1329.71C283.313 1328.87 282.641 1328.2 281.801 1328.2C280.961 1328.2 280.313 1328.87 280.313 1329.71ZM286.064 1339.36C286.064 1342.72 288.56 1345.24 291.896 1345.24C295.232 1345.24 297.728 1342.72 297.728 1339.36C297.728 1336 295.232 1333.48 291.896 1333.48C288.56 1333.48 286.064 1336 286.064 1339.36ZM288.344 1339.36C288.344 1337.3 289.808 1335.64 291.896 1335.64C293.984 1335.64 295.448 1337.3 295.448 1339.36C295.448 1341.42 293.984 1343.08 291.896 1343.08C289.808 1343.08 288.344 1341.42 288.344 1339.36ZM303.061 1333.72H300.853V1345H303.133V1337.25C303.805 1336.43 304.885 1335.64 306.373 1335.64C307.309 1335.64 308.173 1336.07 308.701 1336.74C309.109 1337.25 309.373 1337.92 309.373 1339.36V1345H311.653V1339.48C311.653 1337.54 311.269 1336.38 310.549 1335.47C309.589 1334.25 308.101 1333.48 306.445 1333.48C304.812 1333.48 303.661 1334.22 303.061 1334.8V1333.72ZM328.93 1327.89C328.618 1327.79 328.066 1327.72 327.586 1327.72C326.05 1327.72 324.706 1328.42 323.89 1329.59C323.386 1330.31 323.17 1331.25 323.17 1332.76V1333.72H320.53V1335.76H323.17V1345H325.45V1335.76H328.93V1333.72H325.45V1332.69C325.45 1331.66 325.57 1331.08 325.882 1330.67C326.266 1330.17 326.962 1329.88 327.61 1329.88C327.922 1329.88 328.282 1329.93 328.45 1329.98L328.93 1327.89ZM330.268 1339.36C330.268 1342.72 332.764 1345.24 336.1 1345.24C339.436 1345.24 341.932 1342.72 341.932 1339.36C341.932 1336 339.436 1333.48 336.1 1333.48C332.764 1333.48 330.268 1336 330.268 1339.36ZM332.548 1339.36C332.548 1337.3 334.012 1335.64 336.1 1335.64C338.188 1335.64 339.652 1337.3 339.652 1339.36C339.652 1341.42 338.188 1343.08 336.1 1343.08C334.012 1343.08 332.548 1341.42 332.548 1339.36ZM351.536 1333.55C351.272 1333.5 350.888 1333.48 350.648 1333.48C348.992 1333.48 347.816 1334.25 347.264 1335.02V1333.72H345.056V1345H347.336V1337.54C347.96 1336.46 349.208 1335.64 350.384 1335.64C350.744 1335.64 351.008 1335.66 351.272 1335.74L351.536 1333.55ZM368.852 1341.33C368.132 1342.29 367.076 1343.08 365.588 1343.08C363.428 1343.08 361.844 1341.57 361.844 1339.36C361.844 1337.22 363.404 1335.64 365.444 1335.64C366.884 1335.64 367.94 1336.48 368.564 1337.34L370.244 1335.93C369.188 1334.46 367.412 1333.48 365.444 1333.48C362.06 1333.48 359.564 1336.02 359.564 1339.36C359.564 1342.7 362.108 1345.24 365.588 1345.24C367.652 1345.24 369.668 1344.16 370.604 1342.6L368.852 1341.33ZM375.531 1327.96H373.251V1345H375.531V1337.25C376.203 1336.43 377.283 1335.64 378.771 1335.64C379.707 1335.64 380.571 1336.07 381.099 1336.74C381.507 1337.25 381.771 1337.92 381.771 1339.36V1345H384.051V1339.48C384.051 1337.54 383.667 1336.38 382.947 1335.47C381.987 1334.25 380.499 1333.48 378.843 1333.48C377.283 1333.48 376.155 1334.18 375.531 1334.7V1327.96ZM387.899 1345H390.179V1333.72H387.899V1345ZM387.539 1329.71C387.539 1330.55 388.187 1331.2 389.027 1331.2C389.867 1331.2 390.539 1330.55 390.539 1329.71C390.539 1328.87 389.867 1328.2 389.027 1328.2C388.187 1328.2 387.539 1328.87 387.539 1329.71ZM394.251 1345H396.531V1327.96H394.251V1345ZM408.835 1345H411.043V1327.96H408.763V1334.7C407.755 1333.86 406.531 1333.48 405.307 1333.48C404.251 1333.48 403.315 1333.74 402.547 1334.2C400.843 1335.21 399.643 1337.1 399.643 1339.36C399.643 1341.62 400.819 1343.49 402.523 1344.5C403.291 1344.95 404.347 1345.24 405.355 1345.24C406.699 1345.24 407.923 1344.78 408.835 1343.97V1345ZM408.763 1341.47C407.995 1342.5 406.819 1343.08 405.667 1343.08C403.483 1343.08 401.923 1341.38 401.923 1339.36C401.923 1337.39 403.363 1335.64 405.547 1335.64C406.915 1335.64 408.067 1336.34 408.763 1337.25V1341.47ZM421.614 1333.55C421.35 1333.5 420.966 1333.48 420.726 1333.48C419.07 1333.48 417.894 1334.25 417.342 1335.02V1333.72H415.134V1345H417.414V1337.54C418.038 1336.46 419.286 1335.64 420.462 1335.64C420.822 1335.64 421.086 1335.66 421.35 1335.74L421.614 1333.55ZM433.835 1339.84C433.859 1339.62 433.859 1339.46 433.859 1339.36C433.859 1336.02 431.579 1333.48 428.435 1333.48C425.243 1333.48 422.939 1335.98 422.939 1339.36C422.939 1342.74 425.483 1345.24 428.771 1345.24C431.075 1345.24 432.683 1344.21 433.523 1343.13L432.035 1341.71C431.387 1342.43 430.475 1343.25 428.795 1343.25C426.827 1343.25 425.267 1341.74 425.147 1339.84H433.835ZM428.507 1335.47C429.851 1335.47 431.147 1336.48 431.483 1337.92H425.339C425.723 1336.46 427.043 1335.47 428.507 1335.47ZM439.186 1333.72H436.978V1345H439.258V1337.25C439.93 1336.43 441.01 1335.64 442.498 1335.64C443.434 1335.64 444.298 1336.07 444.826 1336.74C445.234 1337.25 445.498 1337.92 445.498 1339.36V1345H447.778V1339.48C447.778 1337.54 447.394 1336.38 446.674 1335.47C445.714 1334.25 444.226 1333.48 442.57 1333.48C440.938 1333.48 439.786 1334.22 439.186 1334.8V1333.72Z" fill="black"/>
<rect x="556" y="1259" width="328" height="133" rx="28" fill="white" stroke="white" stroke-width="4"/>
<path d="M595.16 1316H597.56V1299.2H595.16V1316ZM608.271 1313.94C607.935 1314.03 607.359 1314.08 607.023 1314.08C606.423 1314.08 605.775 1313.86 605.463 1313.48C605.175 1313.14 605.127 1312.64 605.127 1312.04V1306.76H608.727V1304.72H605.127V1301.6H602.847V1304.72H599.967V1306.76H602.847V1311.92C602.847 1313.14 603.087 1314.18 603.759 1314.92C604.479 1315.74 605.535 1316.24 606.951 1316.24C607.599 1316.24 608.295 1316.14 608.727 1316L608.271 1313.94ZM613.039 1298.96L611.239 1305.2H612.799L615.679 1298.96H613.039ZM615.921 1314.68C617.169 1315.69 618.681 1316.24 620.481 1316.24C622.689 1316.24 624.681 1314.92 624.681 1312.78C624.681 1310.46 622.353 1309.66 620.577 1309.21C619.449 1308.92 618.561 1308.66 618.561 1307.89C618.561 1307 619.497 1306.47 620.601 1306.47C621.513 1306.47 622.329 1306.83 623.025 1307.36L624.201 1305.73C623.313 1305.01 622.113 1304.48 620.457 1304.48C618.441 1304.48 616.281 1305.58 616.281 1308.01C616.281 1309.59 617.505 1310.46 618.873 1310.91C620.529 1311.46 622.401 1311.54 622.401 1312.83C622.401 1313.72 621.417 1314.25 620.433 1314.25C619.305 1314.25 618.153 1313.82 617.097 1313L615.921 1314.68ZM641.352 1298.89C641.04 1298.79 640.488 1298.72 640.008 1298.72C638.472 1298.72 637.128 1299.42 636.312 1300.59C635.808 1301.31 635.592 1302.25 635.592 1303.76V1304.72H632.952V1306.76H635.592V1316H637.872V1306.76H641.352V1304.72H637.872V1303.69C637.872 1302.66 637.992 1302.08 638.304 1301.67C638.688 1301.17 639.384 1300.88 640.032 1300.88C640.344 1300.88 640.704 1300.93 640.872 1300.98L641.352 1298.89ZM650.364 1304.55C650.1 1304.5 649.716 1304.48 649.476 1304.48C647.82 1304.48 646.644 1305.25 646.092 1306.02V1304.72H643.884V1316H646.164V1308.54C646.788 1307.46 648.036 1306.64 649.212 1306.64C649.572 1306.64 649.836 1306.66 650.1 1306.74L650.364 1304.55ZM662.585 1310.84C662.609 1310.62 662.609 1310.46 662.609 1310.36C662.609 1307.02 660.329 1304.48 657.185 1304.48C653.993 1304.48 651.689 1306.98 651.689 1310.36C651.689 1313.74 654.233 1316.24 657.521 1316.24C659.825 1316.24 661.433 1315.21 662.273 1314.13L660.785 1312.71C660.137 1313.43 659.225 1314.25 657.545 1314.25C655.577 1314.25 654.017 1312.74 653.897 1310.84H662.585ZM657.257 1306.47C658.601 1306.47 659.897 1307.48 660.233 1308.92H654.089C654.473 1307.46 655.793 1306.47 657.257 1306.47ZM675.664 1310.84C675.688 1310.62 675.688 1310.46 675.688 1310.36C675.688 1307.02 673.408 1304.48 670.264 1304.48C667.072 1304.48 664.768 1306.98 664.768 1310.36C664.768 1313.74 667.312 1316.24 670.6 1316.24C672.904 1316.24 674.512 1315.21 675.352 1314.13L673.864 1312.71C673.216 1313.43 672.304 1314.25 670.624 1314.25C668.656 1314.25 667.096 1312.74 666.976 1310.84H675.664ZM670.336 1306.47C671.68 1306.47 672.976 1307.48 673.312 1308.92H667.168C667.552 1307.46 668.872 1306.47 670.336 1306.47ZM693.506 1316H695.714V1304.72H693.506V1305.75C692.474 1304.86 691.25 1304.48 689.978 1304.48C688.922 1304.48 687.986 1304.74 687.218 1305.2C685.514 1306.21 684.314 1308.1 684.314 1310.36C684.314 1312.62 685.49 1314.49 687.194 1315.5C687.962 1315.95 689.018 1316.24 690.026 1316.24C691.37 1316.24 692.594 1315.78 693.506 1314.97V1316ZM693.434 1312.47C692.666 1313.5 691.49 1314.08 690.338 1314.08C688.154 1314.08 686.594 1312.38 686.594 1310.36C686.594 1308.39 688.034 1306.64 690.218 1306.64C691.586 1306.64 692.738 1307.34 693.434 1308.25V1312.47ZM702.014 1304.72H699.806V1316H702.086V1308.25C702.758 1307.43 703.838 1306.64 705.326 1306.64C706.262 1306.64 707.126 1307.07 707.654 1307.74C708.062 1308.25 708.326 1308.92 708.326 1310.36V1316H710.606V1310.48C710.606 1308.54 710.222 1307.38 709.502 1306.47C708.542 1305.25 707.054 1304.48 705.398 1304.48C703.766 1304.48 702.614 1305.22 702.014 1305.8V1304.72ZM722.686 1316H724.894V1298.96H722.614V1305.7C721.606 1304.86 720.382 1304.48 719.158 1304.48C718.102 1304.48 717.166 1304.74 716.398 1305.2C714.694 1306.21 713.494 1308.1 713.494 1310.36C713.494 1312.62 714.67 1314.49 716.374 1315.5C717.142 1315.95 718.198 1316.24 719.206 1316.24C720.55 1316.24 721.774 1315.78 722.686 1314.97V1316ZM722.614 1312.47C721.846 1313.5 720.67 1314.08 719.518 1314.08C717.334 1314.08 715.774 1312.38 715.774 1310.36C715.774 1308.39 717.214 1306.64 719.398 1306.64C720.766 1306.64 721.918 1307.34 722.614 1308.25V1312.47ZM734.374 1314.68C735.622 1315.69 737.134 1316.24 738.934 1316.24C741.142 1316.24 743.134 1314.92 743.134 1312.78C743.134 1310.46 740.806 1309.66 739.03 1309.21C737.902 1308.92 737.014 1308.66 737.014 1307.89C737.014 1307 737.95 1306.47 739.054 1306.47C739.966 1306.47 740.782 1306.83 741.478 1307.36L742.654 1305.73C741.766 1305.01 740.566 1304.48 738.91 1304.48C736.894 1304.48 734.734 1305.58 734.734 1308.01C734.734 1309.59 735.958 1310.46 737.326 1310.91C738.982 1311.46 740.854 1311.54 740.854 1312.83C740.854 1313.72 739.87 1314.25 738.886 1314.25C737.758 1314.25 736.606 1313.82 735.55 1313L734.374 1314.68ZM754.608 1316H756.816V1304.72H754.608V1305.75C753.576 1304.86 752.352 1304.48 751.08 1304.48C750.024 1304.48 749.088 1304.74 748.32 1305.2C746.616 1306.21 745.416 1308.1 745.416 1310.36C745.416 1312.62 746.592 1314.49 748.296 1315.5C749.064 1315.95 750.12 1316.24 751.128 1316.24C752.472 1316.24 753.696 1315.78 754.608 1314.97V1316ZM754.536 1312.47C753.768 1313.5 752.592 1314.08 751.44 1314.08C749.256 1314.08 747.696 1312.38 747.696 1310.36C747.696 1308.39 749.136 1306.64 751.32 1306.64C752.688 1306.64 753.84 1307.34 754.536 1308.25V1312.47ZM767.867 1298.89C767.555 1298.79 767.003 1298.72 766.523 1298.72C764.987 1298.72 763.643 1299.42 762.827 1300.59C762.323 1301.31 762.107 1302.25 762.107 1303.76V1304.72H759.467V1306.76H762.107V1316H764.387V1306.76H767.867V1304.72H764.387V1303.69C764.387 1302.66 764.507 1302.08 764.819 1301.67C765.203 1301.17 765.899 1300.88 766.547 1300.88C766.859 1300.88 767.219 1300.93 767.387 1300.98L767.867 1298.89ZM780.101 1310.84C780.125 1310.62 780.125 1310.46 780.125 1310.36C780.125 1307.02 777.845 1304.48 774.701 1304.48C771.509 1304.48 769.205 1306.98 769.205 1310.36C769.205 1313.74 771.749 1316.24 775.037 1316.24C777.341 1316.24 778.949 1315.21 779.789 1314.13L778.301 1312.71C777.653 1313.43 776.741 1314.25 775.061 1314.25C773.093 1314.25 771.533 1312.74 771.413 1310.84H780.101ZM774.773 1306.47C776.117 1306.47 777.413 1307.48 777.749 1308.92H771.605C771.989 1307.46 773.309 1306.47 774.773 1306.47ZM784.083 1313.12L782.283 1319.36H783.843L786.723 1313.12H784.083ZM803.182 1304.72L800.086 1312.42L796.99 1304.72H794.638L799.222 1316H800.806L803.974 1308.08L807.142 1316H808.726L813.31 1304.72H810.958L807.862 1312.42L804.766 1304.72H803.182ZM815.587 1316H817.867V1304.72H815.587V1316ZM815.227 1300.71C815.227 1301.55 815.875 1302.2 816.715 1302.2C817.555 1302.2 818.227 1301.55 818.227 1300.71C818.227 1299.87 817.555 1299.2 816.715 1299.2C815.875 1299.2 815.227 1299.87 815.227 1300.71ZM828.442 1313.94C828.106 1314.03 827.53 1314.08 827.194 1314.08C826.594 1314.08 825.946 1313.86 825.634 1313.48C825.346 1313.14 825.298 1312.64 825.298 1312.04V1306.76H828.898V1304.72H825.298V1301.6H823.018V1304.72H820.138V1306.76H823.018V1311.92C823.018 1313.14 823.258 1314.18 823.93 1314.92C824.65 1315.74 825.706 1316.24 827.122 1316.24C827.77 1316.24 828.466 1316.14 828.898 1316L828.442 1313.94ZM834.297 1298.96H832.017V1316H834.297V1308.25C834.969 1307.43 836.049 1306.64 837.537 1306.64C838.473 1306.64 839.337 1307.07 839.865 1307.74C840.273 1308.25 840.537 1308.92 840.537 1310.36V1316H842.817V1310.48C842.817 1308.54 842.433 1307.38 841.713 1306.47C840.753 1305.25 839.265 1304.48 837.609 1304.48C836.049 1304.48 834.921 1305.18 834.297 1305.7V1298.96ZM597.32 1344.02C598.232 1344.81 599.384 1345.24 600.728 1345.24C601.736 1345.24 602.792 1344.95 603.56 1344.5C605.264 1343.49 606.44 1341.62 606.44 1339.36C606.44 1337.1 605.24 1335.21 603.536 1334.2C602.768 1333.74 601.832 1333.48 600.776 1333.48C599.504 1333.48 598.28 1333.86 597.248 1334.75V1333.72H595.04V1350.76H597.32V1344.02ZM597.32 1337.25C598.016 1336.34 599.168 1335.64 600.536 1335.64C602.72 1335.64 604.16 1337.39 604.16 1339.36C604.16 1341.38 602.6 1343.08 600.416 1343.08C599.264 1343.08 598.088 1342.5 597.32 1341.47V1337.25ZM617.803 1345H620.011V1333.72H617.803V1334.75C616.771 1333.86 615.547 1333.48 614.275 1333.48C613.219 1333.48 612.283 1333.74 611.515 1334.2C609.811 1335.21 608.611 1337.1 608.611 1339.36C608.611 1341.62 609.787 1343.49 611.491 1344.5C612.259 1344.95 613.315 1345.24 614.323 1345.24C615.667 1345.24 616.891 1344.78 617.803 1343.97V1345ZM617.731 1341.47C616.963 1342.5 615.787 1343.08 614.635 1343.08C612.451 1343.08 610.891 1341.38 610.891 1339.36C610.891 1337.39 612.331 1335.64 614.515 1335.64C615.883 1335.64 617.035 1336.34 617.731 1337.25V1341.47ZM630.583 1333.55C630.319 1333.5 629.935 1333.48 629.695 1333.48C628.039 1333.48 626.863 1334.25 626.311 1335.02V1333.72H624.103V1345H626.383V1337.54C627.007 1336.46 628.255 1335.64 629.431 1335.64C629.791 1335.64 630.055 1335.66 630.319 1335.74L630.583 1333.55ZM642.804 1339.84C642.828 1339.62 642.828 1339.46 642.828 1339.36C642.828 1336.02 640.548 1333.48 637.404 1333.48C634.212 1333.48 631.908 1335.98 631.908 1339.36C631.908 1342.74 634.452 1345.24 637.74 1345.24C640.044 1345.24 641.652 1344.21 642.492 1343.13L641.004 1341.71C640.356 1342.43 639.444 1343.25 637.764 1343.25C635.796 1343.25 634.236 1341.74 634.116 1339.84H642.804ZM637.476 1335.47C638.82 1335.47 640.116 1336.48 640.452 1337.92H634.308C634.692 1336.46 636.012 1335.47 637.476 1335.47ZM648.154 1333.72H645.946V1345H648.226V1337.25C648.898 1336.43 649.978 1335.64 651.466 1335.64C652.402 1335.64 653.266 1336.07 653.794 1336.74C654.202 1337.25 654.466 1337.92 654.466 1339.36V1345H656.746V1339.48C656.746 1337.54 656.362 1336.38 655.642 1335.47C654.682 1334.25 653.194 1333.48 651.538 1333.48C649.906 1333.48 648.754 1334.22 648.154 1334.8V1333.72ZM666.982 1342.94C666.646 1343.03 666.07 1343.08 665.734 1343.08C665.134 1343.08 664.486 1342.86 664.174 1342.48C663.886 1342.14 663.838 1341.64 663.838 1341.04V1335.76H667.438V1333.72H663.838V1330.6H661.558V1333.72H658.678V1335.76H661.558V1340.92C661.558 1342.14 661.798 1343.18 662.47 1343.92C663.19 1344.74 664.246 1345.24 665.662 1345.24C666.31 1345.24 667.006 1345.14 667.438 1345L666.982 1342.94ZM678.436 1345H680.644V1333.72H678.436V1334.75C677.404 1333.86 676.18 1333.48 674.908 1333.48C673.852 1333.48 672.916 1333.74 672.148 1334.2C670.444 1335.21 669.244 1337.1 669.244 1339.36C669.244 1341.62 670.42 1343.49 672.124 1344.5C672.892 1344.95 673.948 1345.24 674.956 1345.24C676.3 1345.24 677.524 1344.78 678.436 1343.97V1345ZM678.364 1341.47C677.596 1342.5 676.42 1343.08 675.268 1343.08C673.084 1343.08 671.524 1341.38 671.524 1339.36C671.524 1337.39 672.964 1335.64 675.148 1335.64C676.516 1335.64 677.668 1336.34 678.364 1337.25V1341.47ZM684.735 1345H687.015V1327.96H684.735V1345ZM705.884 1341.33C705.164 1342.29 704.108 1343.08 702.62 1343.08C700.46 1343.08 698.876 1341.57 698.876 1339.36C698.876 1337.22 700.436 1335.64 702.476 1335.64C703.916 1335.64 704.972 1336.48 705.596 1337.34L707.276 1335.93C706.22 1334.46 704.444 1333.48 702.476 1333.48C699.092 1333.48 696.596 1336.02 696.596 1339.36C696.596 1342.7 699.14 1345.24 702.62 1345.24C704.684 1345.24 706.7 1344.16 707.636 1342.6L705.884 1341.33ZM709.322 1339.36C709.322 1342.72 711.818 1345.24 715.154 1345.24C718.49 1345.24 720.986 1342.72 720.986 1339.36C720.986 1336 718.49 1333.48 715.154 1333.48C711.818 1333.48 709.322 1336 709.322 1339.36ZM711.602 1339.36C711.602 1337.3 713.066 1335.64 715.154 1335.64C717.242 1335.64 718.706 1337.3 718.706 1339.36C718.706 1341.42 717.242 1343.08 715.154 1343.08C713.066 1343.08 711.602 1341.42 711.602 1339.36ZM726.318 1333.72H724.11V1345H726.39V1337.25C727.062 1336.43 728.142 1335.64 729.63 1335.64C730.566 1335.64 731.43 1336.07 731.958 1336.74C732.366 1337.25 732.63 1337.92 732.63 1339.36V1345H734.91V1339.48C734.91 1337.54 734.526 1336.38 733.806 1335.47C732.846 1334.25 731.358 1333.48 729.702 1333.48C728.07 1333.48 726.918 1334.22 726.318 1334.8V1333.72ZM745.146 1342.94C744.81 1343.03 744.234 1343.08 743.898 1343.08C743.298 1343.08 742.65 1342.86 742.338 1342.48C742.05 1342.14 742.002 1341.64 742.002 1341.04V1335.76H745.602V1333.72H742.002V1330.6H739.722V1333.72H736.842V1335.76H739.722V1340.92C739.722 1342.14 739.962 1343.18 740.634 1343.92C741.354 1344.74 742.41 1345.24 743.826 1345.24C744.474 1345.24 745.17 1345.14 745.602 1345L745.146 1342.94ZM755.2 1333.55C754.936 1333.5 754.552 1333.48 754.312 1333.48C752.656 1333.48 751.48 1334.25 750.928 1335.02V1333.72H748.72V1345H751V1337.54C751.624 1336.46 752.872 1335.64 754.048 1335.64C754.408 1335.64 754.672 1335.66 754.936 1335.74L755.2 1333.55ZM756.525 1339.36C756.525 1342.72 759.021 1345.24 762.357 1345.24C765.693 1345.24 768.189 1342.72 768.189 1339.36C768.189 1336 765.693 1333.48 762.357 1333.48C759.021 1333.48 756.525 1336 756.525 1339.36ZM758.805 1339.36C758.805 1337.3 760.269 1335.64 762.357 1335.64C764.445 1335.64 765.909 1337.3 765.909 1339.36C765.909 1341.42 764.445 1343.08 762.357 1343.08C760.269 1343.08 758.805 1341.42 758.805 1339.36ZM771.313 1345H773.593V1327.96H771.313V1345ZM776.585 1343.68C777.833 1344.69 779.345 1345.24 781.145 1345.24C783.353 1345.24 785.345 1343.92 785.345 1341.78C785.345 1339.46 783.017 1338.66 781.241 1338.21C780.113 1337.92 779.225 1337.66 779.225 1336.89C779.225 1336 780.161 1335.47 781.265 1335.47C782.177 1335.47 782.993 1335.83 783.689 1336.36L784.865 1334.73C783.977 1334.01 782.777 1333.48 781.121 1333.48C779.105 1333.48 776.945 1334.58 776.945 1337.01C776.945 1338.59 778.169 1339.46 779.537 1339.91C781.193 1340.46 783.065 1340.54 783.065 1341.83C783.065 1342.72 782.081 1343.25 781.097 1343.25C779.969 1343.25 778.817 1342.82 777.761 1342L776.585 1343.68Z" fill="black"/>
<rect x="964" y="1261" width="328" height="133" rx="28" fill="white" stroke="white" stroke-width="4"/>
<path d="M1002.16 1307H1004.56V1290.2H1002.16V1307ZM1015.27 1304.94C1014.93 1305.03 1014.36 1305.08 1014.02 1305.08C1013.42 1305.08 1012.77 1304.86 1012.46 1304.48C1012.17 1304.14 1012.13 1303.64 1012.13 1303.04V1297.76H1015.73V1295.72H1012.13V1292.6H1009.85V1295.72H1006.97V1297.76H1009.85V1302.92C1009.85 1304.14 1010.09 1305.18 1010.76 1305.92C1011.48 1306.74 1012.53 1307.24 1013.95 1307.24C1014.6 1307.24 1015.29 1307.14 1015.73 1307L1015.27 1304.94ZM1020.04 1289.96L1018.24 1296.2H1019.8L1022.68 1289.96H1020.04ZM1022.92 1305.68C1024.17 1306.69 1025.68 1307.24 1027.48 1307.24C1029.69 1307.24 1031.68 1305.92 1031.68 1303.78C1031.68 1301.46 1029.35 1300.66 1027.58 1300.21C1026.45 1299.92 1025.56 1299.66 1025.56 1298.89C1025.56 1298 1026.5 1297.47 1027.6 1297.47C1028.51 1297.47 1029.33 1297.83 1030.02 1298.36L1031.2 1296.73C1030.31 1296.01 1029.11 1295.48 1027.46 1295.48C1025.44 1295.48 1023.28 1296.58 1023.28 1299.01C1023.28 1300.59 1024.5 1301.46 1025.87 1301.91C1027.53 1302.46 1029.4 1302.54 1029.4 1303.83C1029.4 1304.72 1028.42 1305.25 1027.43 1305.25C1026.3 1305.25 1025.15 1304.82 1024.1 1304L1022.92 1305.68ZM1051.33 1301.84C1051.35 1301.62 1051.35 1301.46 1051.35 1301.36C1051.35 1298.02 1049.07 1295.48 1045.93 1295.48C1042.74 1295.48 1040.43 1297.98 1040.43 1301.36C1040.43 1304.74 1042.98 1307.24 1046.26 1307.24C1048.57 1307.24 1050.18 1306.21 1051.02 1305.13L1049.53 1303.71C1048.88 1304.43 1047.97 1305.25 1046.29 1305.25C1044.32 1305.25 1042.76 1303.74 1042.64 1301.84H1051.33ZM1046 1297.47C1047.34 1297.47 1048.64 1298.48 1048.98 1299.92H1042.83C1043.22 1298.46 1044.54 1297.47 1046 1297.47ZM1057.45 1307H1059.03L1063.93 1295.72H1061.58L1058.24 1303.4L1054.9 1295.72H1052.55L1057.45 1307ZM1076.03 1301.84C1076.05 1301.62 1076.05 1301.46 1076.05 1301.36C1076.05 1298.02 1073.77 1295.48 1070.63 1295.48C1067.44 1295.48 1065.13 1297.98 1065.13 1301.36C1065.13 1304.74 1067.68 1307.24 1070.97 1307.24C1073.27 1307.24 1074.88 1306.21 1075.72 1305.13L1074.23 1303.71C1073.58 1304.43 1072.67 1305.25 1070.99 1305.25C1069.02 1305.25 1067.46 1303.74 1067.34 1301.84H1076.03ZM1070.7 1297.47C1072.05 1297.47 1073.34 1298.48 1073.68 1299.92H1067.53C1067.92 1298.46 1069.24 1297.47 1070.7 1297.47ZM1081.38 1295.72H1079.17V1307H1081.45V1299.25C1082.12 1298.43 1083.2 1297.64 1084.69 1297.64C1085.63 1297.64 1086.49 1298.07 1087.02 1298.74C1087.43 1299.25 1087.69 1299.92 1087.69 1301.36V1307H1089.97V1301.48C1089.97 1299.54 1089.59 1298.38 1088.87 1297.47C1087.91 1296.25 1086.42 1295.48 1084.76 1295.48C1083.13 1295.48 1081.98 1296.22 1081.38 1296.8V1295.72ZM1108.45 1306.02V1306.64C1108.45 1308.06 1108.23 1308.92 1107.83 1309.54C1107.27 1310.38 1106.31 1310.84 1105.09 1310.84C1103.24 1310.84 1102.19 1309.9 1101.37 1308.82L1099.69 1310.38C1100.41 1311.51 1102.26 1313 1105.19 1313C1107.42 1313 1109.15 1311.97 1110.06 1310.22C1110.51 1309.33 1110.73 1308.2 1110.73 1306.52V1295.72H1108.52V1296.75C1107.49 1295.86 1106.27 1295.48 1104.99 1295.48C1103.94 1295.48 1103 1295.74 1102.23 1296.2C1100.53 1297.21 1099.33 1299.1 1099.33 1301.36C1099.33 1303.62 1100.51 1305.49 1102.21 1306.5C1102.98 1306.95 1104.03 1307.24 1105.04 1307.24C1106.39 1307.24 1107.54 1306.81 1108.45 1306.02ZM1108.45 1303.47C1107.68 1304.5 1106.51 1305.08 1105.35 1305.08C1103.17 1305.08 1101.61 1303.38 1101.61 1301.36C1101.61 1299.39 1103.05 1297.64 1105.23 1297.64C1106.6 1297.64 1107.75 1298.34 1108.45 1299.25V1303.47ZM1113.86 1301.36C1113.86 1304.72 1116.36 1307.24 1119.69 1307.24C1123.03 1307.24 1125.53 1304.72 1125.53 1301.36C1125.53 1298 1123.03 1295.48 1119.69 1295.48C1116.36 1295.48 1113.86 1298 1113.86 1301.36ZM1116.14 1301.36C1116.14 1299.3 1117.61 1297.64 1119.69 1297.64C1121.78 1297.64 1123.25 1299.3 1123.25 1301.36C1123.25 1303.42 1121.78 1305.08 1119.69 1305.08C1117.61 1305.08 1116.14 1303.42 1116.14 1301.36ZM1127.69 1301.36C1127.69 1304.72 1130.19 1307.24 1133.52 1307.24C1136.86 1307.24 1139.35 1304.72 1139.35 1301.36C1139.35 1298 1136.86 1295.48 1133.52 1295.48C1130.19 1295.48 1127.69 1298 1127.69 1301.36ZM1129.97 1301.36C1129.97 1299.3 1131.43 1297.64 1133.52 1297.64C1135.61 1297.64 1137.07 1299.3 1137.07 1301.36C1137.07 1303.42 1135.61 1305.08 1133.52 1305.08C1131.43 1305.08 1129.97 1303.42 1129.97 1301.36ZM1150.71 1307H1152.92V1289.96H1150.64V1296.7C1149.63 1295.86 1148.41 1295.48 1147.18 1295.48C1146.13 1295.48 1145.19 1295.74 1144.42 1296.2C1142.72 1297.21 1141.52 1299.1 1141.52 1301.36C1141.52 1303.62 1142.69 1305.49 1144.4 1306.5C1145.17 1306.95 1146.22 1307.24 1147.23 1307.24C1148.57 1307.24 1149.8 1306.78 1150.71 1305.97V1307ZM1150.64 1303.47C1149.87 1304.5 1148.69 1305.08 1147.54 1305.08C1145.36 1305.08 1143.8 1303.38 1143.8 1301.36C1143.8 1299.39 1145.24 1297.64 1147.42 1297.64C1148.79 1297.64 1149.94 1298.34 1150.64 1299.25V1303.47ZM1170.44 1289.89C1170.13 1289.79 1169.57 1289.72 1169.09 1289.72C1167.56 1289.72 1166.21 1290.42 1165.4 1291.59C1164.89 1292.31 1164.68 1293.25 1164.68 1294.76V1295.72H1162.04V1297.76H1164.68V1307H1166.96V1297.76H1170.44V1295.72H1166.96V1294.69C1166.96 1293.66 1167.08 1293.08 1167.39 1292.67C1167.77 1292.17 1168.47 1291.88 1169.12 1291.88C1169.43 1291.88 1169.79 1291.93 1169.96 1291.98L1170.44 1289.89ZM1171.78 1301.36C1171.78 1304.72 1174.27 1307.24 1177.61 1307.24C1180.94 1307.24 1183.44 1304.72 1183.44 1301.36C1183.44 1298 1180.94 1295.48 1177.61 1295.48C1174.27 1295.48 1171.78 1298 1171.78 1301.36ZM1174.06 1301.36C1174.06 1299.3 1175.52 1297.64 1177.61 1297.64C1179.7 1297.64 1181.16 1299.3 1181.16 1301.36C1181.16 1303.42 1179.7 1305.08 1177.61 1305.08C1175.52 1305.08 1174.06 1303.42 1174.06 1301.36ZM1193.04 1295.55C1192.78 1295.5 1192.4 1295.48 1192.16 1295.48C1190.5 1295.48 1189.32 1296.25 1188.77 1297.02V1295.72H1186.56V1307H1188.84V1299.54C1189.47 1298.46 1190.72 1297.64 1191.89 1297.64C1192.25 1297.64 1192.52 1297.66 1192.78 1297.74L1193.04 1295.55ZM1204.2 1312.76L1211.61 1295.72H1209.21L1205.97 1303.16L1202.45 1295.72H1200L1204.82 1305.82L1201.77 1312.76H1204.2ZM1212.93 1301.36C1212.93 1304.72 1215.43 1307.24 1218.76 1307.24C1222.1 1307.24 1224.6 1304.72 1224.6 1301.36C1224.6 1298 1222.1 1295.48 1218.76 1295.48C1215.43 1295.48 1212.93 1298 1212.93 1301.36ZM1215.21 1301.36C1215.21 1299.3 1216.68 1297.64 1218.76 1297.64C1220.85 1297.64 1222.32 1299.3 1222.32 1301.36C1222.32 1303.42 1220.85 1305.08 1218.76 1305.08C1216.68 1305.08 1215.21 1303.42 1215.21 1301.36ZM1232.52 1307.24C1234.08 1307.24 1235.33 1306.45 1235.83 1305.97V1307H1238.04V1295.72H1235.76V1303.47C1235.11 1304.24 1233.98 1305.08 1232.59 1305.08C1231.73 1305.08 1230.91 1304.7 1230.41 1304.1C1230 1303.62 1229.76 1302.99 1229.76 1301.84V1295.72H1227.48V1301.48C1227.48 1303.38 1227.82 1304.48 1228.51 1305.34C1229.45 1306.52 1230.91 1307.24 1232.52 1307.24ZM1244.32 1295.72H1242.11V1307H1244.39V1299.25C1245.06 1298.43 1246.14 1297.64 1247.63 1297.64C1248.57 1297.64 1249.43 1298.07 1249.96 1298.74C1250.37 1299.25 1250.63 1299.92 1250.63 1301.36V1307H1252.91V1301.48C1252.91 1299.54 1252.53 1298.38 1251.81 1297.47C1250.85 1296.25 1249.36 1295.48 1247.7 1295.48C1246.07 1295.48 1244.92 1296.22 1244.32 1296.8V1295.72ZM1264.92 1306.02V1306.64C1264.92 1308.06 1264.7 1308.92 1264.29 1309.54C1263.74 1310.38 1262.78 1310.84 1261.56 1310.84C1259.71 1310.84 1258.65 1309.9 1257.84 1308.82L1256.16 1310.38C1256.88 1311.51 1258.73 1313 1261.65 1313C1263.89 1313 1265.61 1311.97 1266.53 1310.22C1266.98 1309.33 1267.2 1308.2 1267.2 1306.52V1295.72H1264.99V1296.75C1263.96 1295.86 1262.73 1295.48 1261.46 1295.48C1260.41 1295.48 1259.47 1295.74 1258.7 1296.2C1257 1297.21 1255.8 1299.1 1255.8 1301.36C1255.8 1303.62 1256.97 1305.49 1258.68 1306.5C1259.45 1306.95 1260.5 1307.24 1261.51 1307.24C1262.85 1307.24 1264.01 1306.81 1264.92 1306.02ZM1264.92 1303.47C1264.15 1304.5 1262.97 1305.08 1261.82 1305.08C1259.64 1305.08 1258.08 1303.38 1258.08 1301.36C1258.08 1299.39 1259.52 1297.64 1261.7 1297.64C1263.07 1297.64 1264.22 1298.34 1264.92 1299.25V1303.47ZM1010.37 1332.33C1009.65 1333.29 1008.59 1334.08 1007.1 1334.08C1004.94 1334.08 1003.36 1332.57 1003.36 1330.36C1003.36 1328.22 1004.92 1326.64 1006.96 1326.64C1008.4 1326.64 1009.46 1327.48 1010.08 1328.34L1011.76 1326.93C1010.7 1325.46 1008.93 1324.48 1006.96 1324.48C1003.58 1324.48 1001.08 1327.02 1001.08 1330.36C1001.08 1333.7 1003.62 1336.24 1007.1 1336.24C1009.17 1336.24 1011.18 1335.16 1012.12 1333.6L1010.37 1332.33ZM1017.05 1318.96H1014.77V1336H1017.05V1328.25C1017.72 1327.43 1018.8 1326.64 1020.29 1326.64C1021.22 1326.64 1022.09 1327.07 1022.61 1327.74C1023.02 1328.25 1023.29 1328.92 1023.29 1330.36V1336H1025.57V1330.48C1025.57 1328.54 1025.18 1327.38 1024.46 1326.47C1023.5 1325.25 1022.01 1324.48 1020.36 1324.48C1018.8 1324.48 1017.67 1325.18 1017.05 1325.7V1318.96ZM1029.42 1336H1031.7V1324.72H1029.42V1336ZM1029.06 1320.71C1029.06 1321.55 1029.7 1322.2 1030.54 1322.2C1031.38 1322.2 1032.06 1321.55 1032.06 1320.71C1032.06 1319.87 1031.38 1319.2 1030.54 1319.2C1029.7 1319.2 1029.06 1319.87 1029.06 1320.71ZM1035.77 1336H1038.05V1318.96H1035.77V1336ZM1050.35 1336H1052.56V1318.96H1050.28V1325.7C1049.27 1324.86 1048.05 1324.48 1046.82 1324.48C1045.77 1324.48 1044.83 1324.74 1044.06 1325.2C1042.36 1326.21 1041.16 1328.1 1041.16 1330.36C1041.16 1332.62 1042.33 1334.49 1044.04 1335.5C1044.81 1335.95 1045.86 1336.24 1046.87 1336.24C1048.21 1336.24 1049.44 1335.78 1050.35 1334.97V1336ZM1050.28 1332.47C1049.51 1333.5 1048.33 1334.08 1047.18 1334.08C1045 1334.08 1043.44 1332.38 1043.44 1330.36C1043.44 1328.39 1044.88 1326.64 1047.06 1326.64C1048.43 1326.64 1049.58 1327.34 1050.28 1328.25V1332.47ZM1063.13 1324.55C1062.87 1324.5 1062.48 1324.48 1062.24 1324.48C1060.59 1324.48 1059.41 1325.25 1058.86 1326.02V1324.72H1056.65V1336H1058.93V1328.54C1059.55 1327.46 1060.8 1326.64 1061.98 1326.64C1062.34 1326.64 1062.6 1326.66 1062.87 1326.74L1063.13 1324.55ZM1075.35 1330.84C1075.38 1330.62 1075.38 1330.46 1075.38 1330.36C1075.38 1327.02 1073.1 1324.48 1069.95 1324.48C1066.76 1324.48 1064.46 1326.98 1064.46 1330.36C1064.46 1333.74 1067 1336.24 1070.29 1336.24C1072.59 1336.24 1074.2 1335.21 1075.04 1334.13L1073.55 1332.71C1072.9 1333.43 1071.99 1334.25 1070.31 1334.25C1068.34 1334.25 1066.78 1332.74 1066.66 1330.84H1075.35ZM1070.02 1326.47C1071.37 1326.47 1072.66 1327.48 1073 1328.92H1066.86C1067.24 1327.46 1068.56 1326.47 1070.02 1326.47ZM1080.7 1324.72H1078.49V1336H1080.77V1328.25C1081.45 1327.43 1082.53 1326.64 1084.01 1326.64C1084.95 1326.64 1085.81 1327.07 1086.34 1327.74C1086.75 1328.25 1087.01 1328.92 1087.01 1330.36V1336H1089.29V1330.48C1089.29 1328.54 1088.91 1327.38 1088.19 1326.47C1087.23 1325.25 1085.74 1324.48 1084.09 1324.48C1082.45 1324.48 1081.3 1325.22 1080.7 1325.8V1324.72ZM1106.12 1324.72L1103.02 1332.42L1099.93 1324.72H1097.58L1102.16 1336H1103.74L1106.91 1328.08L1110.08 1336H1111.66L1116.25 1324.72H1113.9L1110.8 1332.42L1107.7 1324.72H1106.12ZM1118.52 1336H1120.8V1324.72H1118.52V1336ZM1118.16 1320.71C1118.16 1321.55 1118.81 1322.2 1119.65 1322.2C1120.49 1322.2 1121.16 1321.55 1121.16 1320.71C1121.16 1319.87 1120.49 1319.2 1119.65 1319.2C1118.81 1319.2 1118.16 1319.87 1118.16 1320.71ZM1131.38 1333.94C1131.04 1334.03 1130.47 1334.08 1130.13 1334.08C1129.53 1334.08 1128.88 1333.86 1128.57 1333.48C1128.28 1333.14 1128.24 1332.64 1128.24 1332.04V1326.76H1131.84V1324.72H1128.24V1321.6H1125.96V1324.72H1123.08V1326.76H1125.96V1331.92C1125.96 1333.14 1126.2 1334.18 1126.87 1334.92C1127.59 1335.74 1128.64 1336.24 1130.06 1336.24C1130.71 1336.24 1131.4 1336.14 1131.84 1336L1131.38 1333.94ZM1137.23 1318.96H1134.95V1336H1137.23V1328.25C1137.91 1327.43 1138.99 1326.64 1140.47 1326.64C1141.41 1326.64 1142.27 1327.07 1142.8 1327.74C1143.21 1328.25 1143.47 1328.92 1143.47 1330.36V1336H1145.75V1330.48C1145.75 1328.54 1145.37 1327.38 1144.65 1326.47C1143.69 1325.25 1142.2 1324.48 1140.55 1324.48C1138.99 1324.48 1137.86 1325.18 1137.23 1325.7V1318.96ZM1148.64 1330.36C1148.64 1333.72 1151.14 1336.24 1154.47 1336.24C1157.81 1336.24 1160.31 1333.72 1160.31 1330.36C1160.31 1327 1157.81 1324.48 1154.47 1324.48C1151.14 1324.48 1148.64 1327 1148.64 1330.36ZM1150.92 1330.36C1150.92 1328.3 1152.39 1326.64 1154.47 1326.64C1156.56 1326.64 1158.03 1328.3 1158.03 1330.36C1158.03 1332.42 1156.56 1334.08 1154.47 1334.08C1152.39 1334.08 1150.92 1332.42 1150.92 1330.36ZM1168.23 1336.24C1169.79 1336.24 1171.04 1335.45 1171.54 1334.97V1336H1173.75V1324.72H1171.47V1332.47C1170.82 1333.24 1169.69 1334.08 1168.3 1334.08C1167.44 1334.08 1166.62 1333.7 1166.12 1333.1C1165.71 1332.62 1165.47 1331.99 1165.47 1330.84V1324.72H1163.19V1330.48C1163.19 1332.38 1163.53 1333.48 1164.22 1334.34C1165.16 1335.52 1166.62 1336.24 1168.23 1336.24ZM1184.33 1333.94C1183.99 1334.03 1183.41 1334.08 1183.08 1334.08C1182.48 1334.08 1181.83 1333.86 1181.52 1333.48C1181.23 1333.14 1181.18 1332.64 1181.18 1332.04V1326.76H1184.78V1324.72H1181.18V1321.6H1178.9V1324.72H1176.02V1326.76H1178.9V1331.92C1178.9 1333.14 1179.14 1334.18 1179.81 1334.92C1180.53 1335.74 1181.59 1336.24 1183.01 1336.24C1183.65 1336.24 1184.35 1336.14 1184.78 1336L1184.33 1333.94ZM1008.52 1353.55C1008.26 1353.5 1007.87 1353.48 1007.63 1353.48C1005.98 1353.48 1004.8 1354.25 1004.25 1355.02V1353.72H1002.04V1365H1004.32V1357.54C1004.94 1356.46 1006.19 1355.64 1007.37 1355.64C1007.73 1355.64 1007.99 1355.66 1008.26 1355.74L1008.52 1353.55ZM1020.74 1359.84C1020.77 1359.62 1020.77 1359.46 1020.77 1359.36C1020.77 1356.02 1018.49 1353.48 1015.34 1353.48C1012.15 1353.48 1009.85 1355.98 1009.85 1359.36C1009.85 1362.74 1012.39 1365.24 1015.68 1365.24C1017.98 1365.24 1019.59 1364.21 1020.43 1363.13L1018.94 1361.71C1018.29 1362.43 1017.38 1363.25 1015.7 1363.25C1013.73 1363.25 1012.17 1361.74 1012.05 1359.84H1020.74ZM1015.41 1355.47C1016.76 1355.47 1018.05 1356.48 1018.39 1357.92H1012.25C1012.63 1356.46 1013.95 1355.47 1015.41 1355.47ZM1032.12 1365H1034.32V1353.72H1032.12V1354.75C1031.08 1353.86 1029.86 1353.48 1028.59 1353.48C1027.53 1353.48 1026.6 1353.74 1025.83 1354.2C1024.12 1355.21 1022.92 1357.1 1022.92 1359.36C1022.92 1361.62 1024.1 1363.49 1025.8 1364.5C1026.57 1364.95 1027.63 1365.24 1028.64 1365.24C1029.98 1365.24 1031.2 1364.78 1032.12 1363.97V1365ZM1032.04 1361.47C1031.28 1362.5 1030.1 1363.08 1028.95 1363.08C1026.76 1363.08 1025.2 1361.38 1025.2 1359.36C1025.2 1357.39 1026.64 1355.64 1028.83 1355.64C1030.2 1355.64 1031.35 1356.34 1032.04 1357.25V1361.47ZM1046.65 1365H1048.86V1347.96H1046.58V1354.7C1045.57 1353.86 1044.34 1353.48 1043.12 1353.48C1042.06 1353.48 1041.13 1353.74 1040.36 1354.2C1038.66 1355.21 1037.46 1357.1 1037.46 1359.36C1037.46 1361.62 1038.63 1363.49 1040.34 1364.5C1041.1 1364.95 1042.16 1365.24 1043.17 1365.24C1044.51 1365.24 1045.74 1364.78 1046.65 1363.97V1365ZM1046.58 1361.47C1045.81 1362.5 1044.63 1363.08 1043.48 1363.08C1041.3 1363.08 1039.74 1361.38 1039.74 1359.36C1039.74 1357.39 1041.18 1355.64 1043.36 1355.64C1044.73 1355.64 1045.88 1356.34 1046.58 1357.25V1361.47ZM1052.95 1365H1055.23V1353.72H1052.95V1365ZM1052.59 1349.71C1052.59 1350.55 1053.23 1351.2 1054.07 1351.2C1054.91 1351.2 1055.59 1350.55 1055.59 1349.71C1055.59 1348.87 1054.91 1348.2 1054.07 1348.2C1053.23 1348.2 1052.59 1348.87 1052.59 1349.71ZM1061.51 1353.72H1059.3V1365H1061.58V1357.25C1062.25 1356.43 1063.33 1355.64 1064.82 1355.64C1065.75 1355.64 1066.62 1356.07 1067.15 1356.74C1067.55 1357.25 1067.82 1357.92 1067.82 1359.36V1365H1070.1V1359.48C1070.1 1357.54 1069.71 1356.38 1068.99 1355.47C1068.03 1354.25 1066.55 1353.48 1064.89 1353.48C1063.26 1353.48 1062.11 1354.22 1061.51 1354.8V1353.72ZM1082.11 1364.02V1364.64C1082.11 1366.06 1081.89 1366.92 1081.48 1367.54C1080.93 1368.38 1079.97 1368.84 1078.75 1368.84C1076.9 1368.84 1075.84 1367.9 1075.03 1366.82L1073.35 1368.38C1074.07 1369.51 1075.91 1371 1078.84 1371C1081.07 1371 1082.8 1369.97 1083.71 1368.22C1084.17 1367.33 1084.39 1366.2 1084.39 1364.52V1353.72H1082.18V1354.75C1081.15 1353.86 1079.92 1353.48 1078.65 1353.48C1077.59 1353.48 1076.66 1353.74 1075.89 1354.2C1074.19 1355.21 1072.99 1357.1 1072.99 1359.36C1072.99 1361.62 1074.16 1363.49 1075.87 1364.5C1076.63 1364.95 1077.69 1365.24 1078.7 1365.24C1080.04 1365.24 1081.19 1364.81 1082.11 1364.02ZM1082.11 1361.47C1081.34 1362.5 1080.16 1363.08 1079.01 1363.08C1076.83 1363.08 1075.27 1361.38 1075.27 1359.36C1075.27 1357.39 1076.71 1355.64 1078.89 1355.64C1080.26 1355.64 1081.41 1356.34 1082.11 1357.25V1361.47ZM1093.87 1363.68C1095.11 1364.69 1096.63 1365.24 1098.43 1365.24C1100.63 1365.24 1102.63 1363.92 1102.63 1361.78C1102.63 1359.46 1100.3 1358.66 1098.52 1358.21C1097.39 1357.92 1096.51 1357.66 1096.51 1356.89C1096.51 1356 1097.44 1355.47 1098.55 1355.47C1099.46 1355.47 1100.27 1355.83 1100.97 1356.36L1102.15 1354.73C1101.26 1354.01 1100.06 1353.48 1098.4 1353.48C1096.39 1353.48 1094.23 1354.58 1094.23 1357.01C1094.23 1358.59 1095.45 1359.46 1096.82 1359.91C1098.47 1360.46 1100.35 1360.54 1100.35 1361.83C1100.35 1362.72 1099.36 1363.25 1098.38 1363.25C1097.25 1363.25 1096.1 1362.82 1095.04 1362L1093.87 1363.68ZM1110.43 1358.81L1116.07 1353.72H1112.85L1108.15 1358.04V1347.96H1105.87V1365H1108.15V1359.48L1113.74 1365H1116.79L1110.43 1358.81ZM1119.06 1365H1121.34V1353.72H1119.06V1365ZM1118.7 1349.71C1118.7 1350.55 1119.35 1351.2 1120.19 1351.2C1121.03 1351.2 1121.7 1350.55 1121.7 1349.71C1121.7 1348.87 1121.03 1348.2 1120.19 1348.2C1119.35 1348.2 1118.7 1348.87 1118.7 1349.71ZM1125.42 1365H1127.7V1347.96H1125.42V1365ZM1131.77 1365H1134.05V1347.96H1131.77V1365ZM1137.04 1363.68C1138.29 1364.69 1139.8 1365.24 1141.6 1365.24C1143.81 1365.24 1145.8 1363.92 1145.8 1361.78C1145.8 1359.46 1143.47 1358.66 1141.69 1358.21C1140.57 1357.92 1139.68 1357.66 1139.68 1356.89C1139.68 1356 1140.61 1355.47 1141.72 1355.47C1142.63 1355.47 1143.45 1355.83 1144.14 1356.36L1145.32 1354.73C1144.43 1354.01 1143.23 1353.48 1141.57 1353.48C1139.56 1353.48 1137.4 1354.58 1137.4 1357.01C1137.4 1358.59 1138.62 1359.46 1139.99 1359.91C1141.65 1360.46 1143.52 1360.54 1143.52 1361.83C1143.52 1362.72 1142.53 1363.25 1141.55 1363.25C1140.42 1363.25 1139.27 1362.82 1138.21 1362L1137.04 1363.68Z" fill="black"/>
<rect x="753" y="759" width="226" height="91" rx="28" fill="white" stroke="white" stroke-width="4"/>
<path d="M783.448 541H788.44L774.52 507.4H771.16L757.24 541H762.232L765.736 532.36H779.896L783.448 541ZM772.84 515.32L778.024 527.8H767.656L772.84 515.32ZM818.688 506.776C818.064 506.584 816.96 506.44 816 506.44C812.928 506.44 810.24 507.832 808.608 510.184C807.6 511.624 807.168 513.496 807.168 516.52V518.44H801.888V522.52H807.168V541H811.728V522.52H818.688V518.44H811.728V516.376C811.728 514.312 811.968 513.16 812.592 512.344C813.359 511.336 814.752 510.76 816.048 510.76C816.672 510.76 817.392 510.856 817.728 510.952L818.688 506.776ZM832.883 541.48C836.003 541.48 838.499 539.896 839.507 538.936V541H843.923V518.44H839.363V533.944C838.067 535.48 835.811 537.16 833.027 537.16C831.299 537.16 829.667 536.392 828.659 535.192C827.843 534.232 827.363 532.984 827.363 530.68V518.44H822.803V529.96C822.803 533.752 823.475 535.96 824.867 537.688C826.739 540.04 829.667 541.48 832.883 541.48ZM856.48 518.44H852.064V541H856.624V525.496C857.968 523.864 860.128 522.28 863.104 522.28C864.976 522.28 866.704 523.144 867.76 524.488C868.576 525.496 869.104 526.84 869.104 529.72V541H873.664V529.96C873.664 526.072 872.896 523.768 871.456 521.944C869.536 519.496 866.56 517.96 863.248 517.96C859.984 517.96 857.68 519.448 856.48 520.6V518.44ZM910.763 541H915.179V518.44H910.763V520.504C908.699 518.728 906.251 517.96 903.707 517.96C901.595 517.96 899.723 518.488 898.187 519.4C894.779 521.416 892.379 525.208 892.379 529.72C892.379 534.232 894.731 537.976 898.139 539.992C899.675 540.904 901.787 541.48 903.803 541.48C906.491 541.48 908.939 540.568 910.763 538.936V541ZM910.619 533.944C909.083 536.008 906.731 537.16 904.427 537.16C900.059 537.16 896.939 533.752 896.939 529.72C896.939 525.784 899.819 522.28 904.187 522.28C906.923 522.28 909.227 523.672 910.619 525.496V533.944ZM927.777 518.44H923.361V541H927.921V525.496C929.265 523.864 931.425 522.28 934.401 522.28C936.273 522.28 938.001 523.144 939.057 524.488C939.873 525.496 940.401 526.84 940.401 529.72V541H944.961V529.96C944.961 526.072 944.193 523.768 942.753 521.944C940.833 519.496 937.857 517.96 934.545 517.96C931.281 517.96 928.977 519.448 927.777 520.6V518.44ZM969.122 541H973.538V506.92H968.978V520.408C966.962 518.728 964.514 517.96 962.066 517.96C959.954 517.96 958.082 518.488 956.546 519.4C953.138 521.416 950.738 525.208 950.738 529.72C950.738 534.232 953.09 537.976 956.498 539.992C958.034 540.904 960.146 541.48 962.162 541.48C964.85 541.48 967.298 540.568 969.122 538.936V541ZM968.978 533.944C967.442 536.008 965.09 537.16 962.786 537.16C958.418 537.16 955.298 533.752 955.298 529.72C955.298 525.784 958.178 522.28 962.546 522.28C965.282 522.28 967.586 523.672 968.978 525.496V533.944ZM992.498 538.36C994.994 540.376 998.018 541.48 1001.62 541.48C1006.03 541.48 1010.02 538.84 1010.02 534.568C1010.02 529.912 1005.36 528.328 1001.81 527.416C999.554 526.84 997.778 526.312 997.778 524.776C997.778 523 999.65 521.944 1001.86 521.944C1003.68 521.944 1005.31 522.664 1006.71 523.72L1009.06 520.456C1007.28 519.016 1004.88 517.96 1001.57 517.96C997.538 517.96 993.218 520.168 993.218 525.016C993.218 528.184 995.666 529.912 998.402 530.824C1001.71 531.928 1005.46 532.072 1005.46 534.664C1005.46 536.44 1003.49 537.496 1001.52 537.496C999.266 537.496 996.962 536.632 994.85 535L992.498 538.36ZM1032.97 541H1037.38V518.44H1032.97V520.504C1030.9 518.728 1028.45 517.96 1025.91 517.96C1023.8 517.96 1021.93 518.488 1020.39 519.4C1016.98 521.416 1014.58 525.208 1014.58 529.72C1014.58 534.232 1016.93 537.976 1020.34 539.992C1021.88 540.904 1023.99 541.48 1026.01 541.48C1028.69 541.48 1031.14 540.568 1032.97 538.936V541ZM1032.82 533.944C1031.29 536.008 1028.93 537.16 1026.63 537.16C1022.26 537.16 1019.14 533.752 1019.14 529.72C1019.14 525.784 1022.02 522.28 1026.39 522.28C1029.13 522.28 1031.43 523.672 1032.82 525.496V533.944ZM1059.48 506.776C1058.86 506.584 1057.76 506.44 1056.8 506.44C1053.72 506.44 1051.04 507.832 1049.4 510.184C1048.4 511.624 1047.96 513.496 1047.96 516.52V518.44H1042.68V522.52H1047.96V541H1052.52V522.52H1059.48V518.44H1052.52V516.376C1052.52 514.312 1052.76 513.16 1053.39 512.344C1054.16 511.336 1055.55 510.76 1056.84 510.76C1057.47 510.76 1058.19 510.856 1058.52 510.952L1059.48 506.776ZM1083.95 530.68C1084 530.248 1084 529.912 1084 529.72C1084 523.048 1079.44 517.96 1073.15 517.96C1066.77 517.96 1062.16 522.952 1062.16 529.72C1062.16 536.488 1067.25 541.48 1073.82 541.48C1078.43 541.48 1081.65 539.416 1083.33 537.256L1080.35 534.424C1079.06 535.864 1077.23 537.496 1073.87 537.496C1069.94 537.496 1066.82 534.472 1066.58 530.68H1083.95ZM1073.3 521.944C1075.98 521.944 1078.58 523.96 1079.25 526.84H1066.96C1067.73 523.912 1070.37 521.944 1073.3 521.944ZM777.736 591.656C776.296 593.576 774.184 595.16 771.208 595.16C766.888 595.16 763.72 592.136 763.72 587.72C763.72 583.448 766.84 580.28 770.92 580.28C773.8 580.28 775.912 581.96 777.16 583.688L780.52 580.856C778.408 577.928 774.856 575.96 770.92 575.96C764.152 575.96 759.16 581.048 759.16 587.72C759.16 594.392 764.248 599.48 771.208 599.48C775.336 599.48 779.368 597.32 781.24 594.2L777.736 591.656ZM791.093 564.92H786.533V599H791.093V583.496C792.437 581.864 794.597 580.28 797.573 580.28C799.445 580.28 801.173 581.144 802.229 582.488C803.045 583.496 803.573 584.84 803.573 587.72V599H808.133V587.96C808.133 584.072 807.365 581.768 805.925 579.944C804.005 577.496 801.029 575.96 797.717 575.96C794.597 575.96 792.341 577.352 791.093 578.408V564.92ZM832.294 599H836.71V576.44H832.294V578.504C830.23 576.728 827.782 575.96 825.238 575.96C823.126 575.96 821.254 576.488 819.718 577.4C816.31 579.416 813.91 583.208 813.91 587.72C813.91 592.232 816.262 595.976 819.67 597.992C821.206 598.904 823.318 599.48 825.334 599.48C828.022 599.48 830.47 598.568 832.294 596.936V599ZM832.15 591.944C830.614 594.008 828.262 595.16 825.958 595.16C821.59 595.16 818.47 591.752 818.47 587.72C818.47 583.784 821.35 580.28 825.718 580.28C828.454 580.28 830.758 581.672 832.15 583.496V591.944ZM857.901 594.872C857.229 595.064 856.077 595.16 855.405 595.16C854.205 595.16 852.909 594.728 852.285 593.96C851.709 593.288 851.613 592.28 851.613 591.08V580.52H858.813V576.44H851.613V570.2H847.053V576.44H841.293V580.52H847.053V590.84C847.053 593.288 847.533 595.352 848.877 596.84C850.317 598.472 852.429 599.48 855.261 599.48C856.557 599.48 857.949 599.288 858.813 599L857.901 594.872ZM893.982 599H898.398V576.44H893.982V578.504C891.918 576.728 889.47 575.96 886.926 575.96C884.814 575.96 882.942 576.488 881.406 577.4C877.998 579.416 875.598 583.208 875.598 587.72C875.598 592.232 877.95 595.976 881.358 597.992C882.894 598.904 885.006 599.48 887.022 599.48C889.71 599.48 892.158 598.568 893.982 596.936V599ZM893.838 591.944C892.302 594.008 889.95 595.16 887.646 595.16C883.278 595.16 880.158 591.752 880.158 587.72C880.158 583.784 883.038 580.28 887.406 580.28C890.142 580.28 892.446 581.672 893.838 583.496V591.944ZM911.14 597.032C912.964 598.616 915.268 599.48 917.956 599.48C919.972 599.48 922.084 598.904 923.62 597.992C927.028 595.976 929.38 592.232 929.38 587.72C929.38 583.208 926.98 579.416 923.572 577.4C922.036 576.488 920.164 575.96 918.052 575.96C915.508 575.96 913.06 576.728 910.996 578.504V576.44H906.58V610.52H911.14V597.032ZM911.14 583.496C912.532 581.672 914.836 580.28 917.572 580.28C921.94 580.28 924.82 583.784 924.82 587.72C924.82 591.752 921.7 595.16 917.332 595.16C915.028 595.16 912.676 594.008 911.14 591.944V583.496ZM940.203 597.032C942.027 598.616 944.331 599.48 947.019 599.48C949.035 599.48 951.147 598.904 952.683 597.992C956.091 595.976 958.443 592.232 958.443 587.72C958.443 583.208 956.043 579.416 952.635 577.4C951.099 576.488 949.227 575.96 947.115 575.96C944.571 575.96 942.123 576.728 940.059 578.504V576.44H935.643V610.52H940.203V597.032ZM940.203 583.496C941.595 581.672 943.898 580.28 946.635 580.28C951.003 580.28 953.883 583.784 953.883 587.72C953.883 591.752 950.763 595.16 946.395 595.16C944.091 595.16 941.739 594.008 940.203 591.944V583.496ZM991.563 564.776C990.939 564.584 989.835 564.44 988.875 564.44C985.803 564.44 983.115 565.832 981.483 568.184C980.475 569.624 980.043 571.496 980.043 574.52V576.44H974.763V580.52H980.043V599H984.603V580.52H991.563V576.44H984.603V574.376C984.603 572.312 984.843 571.16 985.467 570.344C986.234 569.336 987.627 568.76 988.923 568.76C989.547 568.76 990.267 568.856 990.603 568.952L991.563 564.776ZM994.238 587.72C994.238 594.44 999.23 599.48 1005.9 599.48C1012.57 599.48 1017.57 594.44 1017.57 587.72C1017.57 581 1012.57 575.96 1005.9 575.96C999.23 575.96 994.238 581 994.238 587.72ZM998.798 587.72C998.798 583.592 1001.73 580.28 1005.9 580.28C1010.08 580.28 1013.01 583.592 1013.01 587.72C1013.01 591.848 1010.08 595.16 1005.9 595.16C1001.73 595.16 998.798 591.848 998.798 587.72ZM1036.77 576.104C1036.25 576.008 1035.48 575.96 1035 575.96C1031.69 575.96 1029.33 577.496 1028.23 579.032V576.44H1023.81V599H1028.37V584.072C1029.62 581.912 1032.12 580.28 1034.47 580.28C1035.19 580.28 1035.72 580.328 1036.25 580.472L1036.77 576.104ZM1063.87 586.616L1075.15 576.44H1068.72L1059.31 585.08V564.92H1054.75V599H1059.31V587.96L1070.5 599H1076.59L1063.87 586.616ZM1081.14 599H1085.7V576.44H1081.14V599ZM1080.42 568.424C1080.42 570.104 1081.72 571.4 1083.4 571.4C1085.08 571.4 1086.42 570.104 1086.42 568.424C1086.42 566.744 1085.08 565.4 1083.4 565.4C1081.72 565.4 1080.42 566.744 1080.42 568.424ZM1110.31 599H1114.73V564.92H1110.17V578.408C1108.15 576.728 1105.7 575.96 1103.25 575.96C1101.14 575.96 1099.27 576.488 1097.73 577.4C1094.33 579.416 1091.93 583.208 1091.93 587.72C1091.93 592.232 1094.28 595.976 1097.69 597.992C1099.22 598.904 1101.33 599.48 1103.35 599.48C1106.04 599.48 1108.49 598.568 1110.31 596.936V599ZM1110.17 591.944C1108.63 594.008 1106.28 595.16 1103.97 595.16C1099.61 595.16 1096.49 591.752 1096.49 587.72C1096.49 583.784 1099.37 580.28 1103.73 580.28C1106.47 580.28 1108.77 581.672 1110.17 583.496V591.944ZM1120.75 596.36C1123.24 598.376 1126.27 599.48 1129.87 599.48C1134.28 599.48 1138.27 596.84 1138.27 592.568C1138.27 587.912 1133.61 586.328 1130.06 585.416C1127.8 584.84 1126.03 584.312 1126.03 582.776C1126.03 581 1127.9 579.944 1130.11 579.944C1131.93 579.944 1133.56 580.664 1134.96 581.72L1137.31 578.456C1135.53 577.016 1133.13 575.96 1129.82 575.96C1125.79 575.96 1121.47 578.168 1121.47 583.016C1121.47 586.184 1123.92 587.912 1126.65 588.824C1129.96 589.928 1133.71 590.072 1133.71 592.664C1133.71 594.44 1131.74 595.496 1129.77 595.496C1127.52 595.496 1125.21 594.632 1123.1 593L1120.75 596.36Z" fill="black"/>
<rect x="250.5" y="353.5" width="332" height="728" rx="38.5" fill="#CCFFFF" stroke="black" stroke-width="3"/>
<rect x="250.5" y="337.5" width="332" height="136" rx="38.5" fill="#FFC9E3" stroke="black" stroke-width="3"/>
<path d="M250.5 413V475" stroke="black" stroke-width="3"/>
<path d="M384.65 377.825V370.825H390.25C391.93 370.825 392.84 371.245 393.47 371.91C394.065 372.54 394.45 373.38 394.45 374.325C394.45 375.27 394.065 376.11 393.47 376.74C392.84 377.405 391.93 377.825 390.25 377.825H384.65ZM390.425 381.15C392.805 381.15 394.345 380.555 395.535 379.54C397.005 378.28 397.95 376.425 397.95 374.325C397.95 372.225 397.005 370.37 395.535 369.11C394.345 368.095 392.805 367.5 390.425 367.5H381.15V392H384.65V381.15H390.425ZM412.223 392H415.443V375.55H412.223V377.055C410.718 375.76 408.933 375.2 407.078 375.2C405.538 375.2 404.173 375.585 403.053 376.25C400.568 377.72 398.818 380.485 398.818 383.775C398.818 387.065 400.533 389.795 403.018 391.265C404.138 391.93 405.678 392.35 407.148 392.35C409.108 392.35 410.893 391.685 412.223 390.495V392ZM412.118 386.855C410.998 388.36 409.283 389.2 407.603 389.2C404.418 389.2 402.143 386.715 402.143 383.775C402.143 380.905 404.243 378.35 407.428 378.35C409.423 378.35 411.103 379.365 412.118 380.695V386.855ZM421.41 392H424.735V367.15H421.41V392ZM429.097 390.075C430.917 391.545 433.122 392.35 435.747 392.35C438.967 392.35 441.872 390.425 441.872 387.31C441.872 383.915 438.477 382.76 435.887 382.095C434.242 381.675 432.947 381.29 432.947 380.17C432.947 378.875 434.312 378.105 435.922 378.105C437.252 378.105 438.442 378.63 439.457 379.4L441.172 377.02C439.877 375.97 438.127 375.2 435.712 375.2C432.772 375.2 429.622 376.81 429.622 380.345C429.622 382.655 431.407 383.915 433.402 384.58C435.817 385.385 438.547 385.49 438.547 387.38C438.547 388.675 437.112 389.445 435.677 389.445C434.032 389.445 432.352 388.815 430.812 387.625L429.097 390.075Z" fill="black"/>
<rect x="249" y="413" width="335" height="62" fill="#CCFFFF"/>
<rect x="279" y="454" width="275" height="93" rx="40" fill="#C9DDFF"/>
<rect x="279" y="577" width="275" height="93" rx="40" fill="#FFF574"/>
<rect x="279" y="703" width="275" height="92" rx="40" fill="#FF9F66"/>
<rect x="279" y="829" width="275" height="93" rx="40" fill="#7FA3FF"/>
<path d="M371.5 874.855C371.5 889.955 359.195 902.208 344 902.208C328.805 902.208 316.5 889.955 316.5 874.855C316.5 859.755 328.805 847.502 344 847.502C359.195 847.502 371.5 859.755 371.5 874.855Z" stroke="white" stroke-width="3"/>
<ellipse cx="336.171" cy="870.527" rx="2.03" ry="2.01973" fill="white"/>
<ellipse cx="351.831" cy="870.527" rx="2.03" ry="2.01973" fill="white"/>
<path d="M338.781 881.78C340.446 883.957 344.864 887.005 349.221 881.78" stroke="white" stroke-width="2" stroke-linecap="round"/>
<path d="M371.5 749.487C371.5 764.587 359.195 776.841 344 776.841C328.805 776.841 316.5 764.587 316.5 749.487C316.5 734.388 328.805 722.134 344 722.134C359.195 722.134 371.5 734.388 371.5 749.487Z" stroke="white" stroke-width="3"/>
<ellipse cx="336.171" cy="745.159" rx="2.03" ry="2.01973" fill="white"/>
<ellipse cx="351.831" cy="745.159" rx="2.03" ry="2.01973" fill="white"/>
<path d="M338.781 756.412C340.446 758.589 344.864 761.638 349.221 756.412" stroke="white" stroke-width="2" stroke-linecap="round"/>
<path d="M371.5 500.762C371.5 515.862 359.195 528.116 344 528.116C328.805 528.116 316.5 515.862 316.5 500.762C316.5 485.663 328.805 473.409 344 473.409C359.195 473.409 371.5 485.663 371.5 500.762Z" stroke="white" stroke-width="3"/>
<ellipse cx="336.171" cy="496.434" rx="2.03" ry="2.01973" fill="white"/>
<ellipse cx="351.831" cy="496.434" rx="2.03" ry="2.01973" fill="white"/>
<path d="M338.781 507.687C340.446 509.864 344.864 512.913 349.221 507.687" stroke="white" stroke-width="2" stroke-linecap="round"/>
<path d="M371.5 624.125C371.5 639.224 359.195 651.478 344 651.478C328.805 651.478 316.5 639.224 316.5 624.125C316.5 609.025 328.805 596.771 344 596.771C359.195 596.771 371.5 609.025 371.5 624.125Z" stroke="#957FFF" stroke-width="3"/>
<ellipse cx="336.171" cy="619.797" rx="2.03" ry="2.01973" fill="#957FFF"/>
<ellipse cx="351.831" cy="619.797" rx="2.03" ry="2.01973" fill="#957FFF"/>
<path d="M338.781 631.05C340.446 633.227 344.864 636.275 349.221 631.05" stroke="#957FFF" stroke-width="2" stroke-linecap="round"/>
<path d="M417.72 508.432C419.208 510.232 421.296 511.24 423.6 511.24C426.528 511.24 428.808 509.32 428.808 506.368C428.808 504.448 427.752 503.272 426.624 502.528C424.464 501.088 420.888 500.632 420.888 498.496C420.888 497.032 422.28 496.24 423.672 496.24C424.728 496.24 425.76 496.624 426.672 497.392L428.088 495.64C427.2 494.896 425.712 493.96 423.576 493.96C420.648 493.96 418.488 495.976 418.488 498.424C418.488 500.176 419.424 501.328 420.624 502.12C422.856 503.584 426.408 503.872 426.408 506.44C426.408 507.952 425.04 508.96 423.48 508.96C421.752 508.96 420.36 508 419.376 506.8L417.72 508.432ZM440.045 511H442.253V499.72H440.045V500.752C439.013 499.864 437.789 499.48 436.517 499.48C435.461 499.48 434.525 499.744 433.757 500.2C432.053 501.208 430.853 503.104 430.853 505.36C430.853 507.616 432.029 509.488 433.733 510.496C434.501 510.952 435.557 511.24 436.565 511.24C437.909 511.24 439.133 510.784 440.045 509.968V511ZM439.973 507.472C439.205 508.504 438.029 509.08 436.877 509.08C434.693 509.08 433.133 507.376 433.133 505.36C433.133 503.392 434.573 501.64 436.757 501.64C438.125 501.64 439.277 502.336 439.973 503.248V507.472ZM446.345 511H448.625V493.96H446.345V511ZM452.696 511H454.976V493.96H452.696V511ZM461.448 516.76L468.864 499.72H466.464L463.224 507.16L459.696 499.72H457.248L462.072 509.824L459.024 516.76H461.448Z" fill="black"/>
<path d="M419.16 883H421.56V866.2H419.16V883ZM424.687 881.68C425.935 882.688 427.447 883.24 429.247 883.24C431.455 883.24 433.447 881.92 433.447 879.784C433.447 877.456 431.119 876.664 429.343 876.208C428.215 875.92 427.327 875.656 427.327 874.888C427.327 874 428.263 873.472 429.367 873.472C430.279 873.472 431.095 873.832 431.791 874.36L432.967 872.728C432.079 872.008 430.879 871.48 429.223 871.48C427.207 871.48 425.047 872.584 425.047 875.008C425.047 876.592 426.271 877.456 427.639 877.912C429.295 878.464 431.167 878.536 431.167 879.832C431.167 880.72 430.183 881.248 429.199 881.248C428.071 881.248 426.919 880.816 425.863 880L424.687 881.68ZM436.688 883H438.968V871.72H436.688V883ZM436.328 867.712C436.328 868.552 436.976 869.2 437.816 869.2C438.656 869.2 439.328 868.552 439.328 867.712C439.328 866.872 438.656 866.2 437.816 866.2C436.976 866.2 436.328 866.872 436.328 867.712ZM441.96 881.68C443.208 882.688 444.72 883.24 446.52 883.24C448.728 883.24 450.72 881.92 450.72 879.784C450.72 877.456 448.392 876.664 446.616 876.208C445.488 875.92 444.6 875.656 444.6 874.888C444.6 874 445.536 873.472 446.64 873.472C447.552 873.472 448.368 873.832 449.064 874.36L450.24 872.728C449.352 872.008 448.152 871.48 446.496 871.48C444.48 871.48 442.32 872.584 442.32 875.008C442.32 876.592 443.544 877.456 444.912 877.912C446.568 878.464 448.44 878.536 448.44 879.832C448.44 880.72 447.456 881.248 446.472 881.248C445.344 881.248 444.192 880.816 443.136 880L441.96 881.68Z" fill="black"/>
<rect x="279" y="954" width="275" height="93" rx="40" fill="#FFABF6"/>
<path d="M371.5 1000.24C371.5 1015.34 359.195 1027.59 344 1027.59C328.805 1027.59 316.5 1015.34 316.5 1000.24C316.5 985.138 328.805 972.885 344 972.885C359.195 972.885 371.5 985.138 371.5 1000.24Z" stroke="white" stroke-width="3"/>
<ellipse cx="336.171" cy="995.91" rx="2.03" ry="2.01973" fill="white"/>
<ellipse cx="351.831" cy="995.91" rx="2.03" ry="2.01973" fill="white"/>
<path d="M338.781 1007.16C340.446 1009.34 344.864 1012.39 349.221 1007.16" stroke="white" stroke-width="2" stroke-linecap="round"/>
<path d="M421.56 997.8V993.48H428.76V991.2H419.16V1008H421.56V1000.08H427.08V997.8H421.56ZM437.403 996.552C437.139 996.504 436.755 996.48 436.515 996.48C434.859 996.48 433.683 997.248 433.131 998.016V996.72H430.923V1008H433.203V1000.54C433.827 999.456 435.075 998.64 436.251 998.64C436.611 998.64 436.875 998.664 437.139 998.736L437.403 996.552ZM447.92 1008H450.128V996.72H447.92V997.752C446.888 996.864 445.664 996.48 444.392 996.48C443.336 996.48 442.4 996.744 441.632 997.2C439.928 998.208 438.728 1000.1 438.728 1002.36C438.728 1004.62 439.904 1006.49 441.608 1007.5C442.376 1007.95 443.432 1008.24 444.44 1008.24C445.784 1008.24 447.008 1007.78 447.92 1006.97V1008ZM447.848 1004.47C447.08 1005.5 445.904 1006.08 444.752 1006.08C442.568 1006.08 441.008 1004.38 441.008 1002.36C441.008 1000.39 442.448 998.64 444.632 998.64C446 998.64 447.152 999.336 447.848 1000.25V1004.47ZM456.428 996.72H454.22V1008H456.5V1000.25C457.172 999.432 458.252 998.64 459.74 998.64C460.676 998.64 461.54 999.072 462.068 999.744C462.476 1000.25 462.74 1000.92 462.74 1002.36V1008H465.02V1002.48C465.02 1000.54 464.636 999.384 463.916 998.472C462.956 997.248 461.468 996.48 459.812 996.48C458.18 996.48 457.028 997.224 456.428 997.8V996.72ZM473.428 1001.81L479.068 996.72H475.852L471.148 1001.04V990.96H468.868V1008H471.148V1002.48L476.74 1008H479.788L473.428 1001.81Z" fill="black"/>
<path d="M433.08 747.696V759H435.48V742.2H433.8L427.32 752.448L420.84 742.2H419.16V759H421.56V747.696L426.48 755.4H428.16L433.08 747.696ZM447.92 759H450.128V747.72H447.92V748.752C446.888 747.864 445.664 747.48 444.392 747.48C443.336 747.48 442.4 747.744 441.632 748.2C439.928 749.208 438.728 751.104 438.728 753.36C438.728 755.616 439.904 757.488 441.608 758.496C442.376 758.952 443.432 759.24 444.44 759.24C445.784 759.24 447.008 758.784 447.92 757.968V759ZM447.848 755.472C447.08 756.504 445.904 757.08 444.752 757.08C442.568 757.08 441.008 755.376 441.008 753.36C441.008 751.392 442.448 749.64 444.632 749.64C446 749.64 447.152 750.336 447.848 751.248V755.472ZM456.62 764.76L464.036 747.72H461.636L458.396 755.16L454.868 747.72H452.42L457.244 757.824L454.196 764.76H456.62ZM474.545 759H476.753V747.72H474.545V748.752C473.513 747.864 472.289 747.48 471.017 747.48C469.961 747.48 469.025 747.744 468.257 748.2C466.553 749.208 465.353 751.104 465.353 753.36C465.353 755.616 466.529 757.488 468.233 758.496C469.001 758.952 470.057 759.24 471.065 759.24C472.409 759.24 473.633 758.784 474.545 757.968V759ZM474.473 755.472C473.705 756.504 472.529 757.08 471.377 757.08C469.193 757.08 467.633 755.376 467.633 753.36C467.633 751.392 469.073 749.64 471.257 749.64C472.625 749.64 473.777 750.336 474.473 751.248V755.472Z" fill="black"/>
<path d="M417 630.528C417.72 632.232 419.424 633.24 421.368 633.24C423.144 633.24 424.728 632.256 425.544 630.816C425.928 630.12 426.12 629.28 426.12 627.96V616.2H423.72V628.128C423.72 629.136 423.552 629.64 423.264 630.024C422.856 630.576 422.112 630.96 421.368 630.96C420.36 630.96 419.52 630.432 419.136 629.616L417 630.528ZM429.119 627.36C429.119 630.72 431.615 633.24 434.951 633.24C438.287 633.24 440.783 630.72 440.783 627.36C440.783 624 438.287 621.48 434.951 621.48C431.615 621.48 429.119 624 429.119 627.36ZM431.399 627.36C431.399 625.296 432.863 623.64 434.951 623.64C437.039 623.64 438.503 625.296 438.503 627.36C438.503 629.424 437.039 631.08 434.951 631.08C432.863 631.08 431.399 629.424 431.399 627.36ZM453.843 627.84C453.867 627.624 453.867 627.456 453.867 627.36C453.867 624.024 451.587 621.48 448.443 621.48C445.251 621.48 442.947 623.976 442.947 627.36C442.947 630.744 445.491 633.24 448.779 633.24C451.083 633.24 452.691 632.208 453.531 631.128L452.043 629.712C451.395 630.432 450.483 631.248 448.803 631.248C446.835 631.248 445.275 629.736 445.155 627.84H453.843ZM448.515 623.472C449.859 623.472 451.155 624.48 451.491 625.92H445.347C445.731 624.456 447.051 623.472 448.515 623.472ZM459.268 638.76L466.684 621.72H464.284L461.044 629.16L457.516 621.72H455.068L459.892 631.824L456.844 638.76H459.268Z" fill="black"/>
<path d="M250.5 413V475" stroke="black" stroke-width="3"/>
<path d="M582.5 413V475" stroke="black" stroke-width="3"/>
<path d="M755.96 655.68C757.208 656.688 758.72 657.24 760.52 657.24C762.728 657.24 764.72 655.92 764.72 653.784C764.72 651.456 762.392 650.664 760.616 650.208C759.488 649.92 758.6 649.656 758.6 648.888C758.6 648 759.536 647.472 760.64 647.472C761.552 647.472 762.368 647.832 763.064 648.36L764.24 646.728C763.352 646.008 762.152 645.48 760.496 645.48C758.48 645.48 756.32 646.584 756.32 649.008C756.32 650.592 757.544 651.456 758.912 651.912C760.568 652.464 762.44 652.536 762.44 653.832C762.44 654.72 761.456 655.248 760.472 655.248C759.344 655.248 758.192 654.816 757.136 654L755.96 655.68ZM776.194 657H778.402V645.72H776.194V646.752C775.162 645.864 773.938 645.48 772.666 645.48C771.61 645.48 770.674 645.744 769.906 646.2C768.202 647.208 767.002 649.104 767.002 651.36C767.002 653.616 768.178 655.488 769.882 656.496C770.65 656.952 771.706 657.24 772.714 657.24C774.058 657.24 775.282 656.784 776.194 655.968V657ZM776.122 653.472C775.354 654.504 774.178 655.08 773.026 655.08C770.842 655.08 769.282 653.376 769.282 651.36C769.282 649.392 770.722 647.64 772.906 647.64C774.274 647.64 775.426 648.336 776.122 649.248V653.472ZM789.453 639.888C789.141 639.792 788.589 639.72 788.109 639.72C786.573 639.72 785.229 640.416 784.413 641.592C783.909 642.312 783.693 643.248 783.693 644.76V645.72H781.053V647.76H783.693V657H785.973V647.76H789.453V645.72H785.973V644.688C785.973 643.656 786.093 643.08 786.405 642.672C786.789 642.168 787.485 641.88 788.133 641.88C788.445 641.88 788.805 641.928 788.973 641.976L789.453 639.888ZM801.687 651.84C801.711 651.624 801.711 651.456 801.711 651.36C801.711 648.024 799.431 645.48 796.287 645.48C793.095 645.48 790.791 647.976 790.791 651.36C790.791 654.744 793.335 657.24 796.623 657.24C798.927 657.24 800.535 656.208 801.375 655.128L799.887 653.712C799.239 654.432 798.327 655.248 796.647 655.248C794.679 655.248 793.119 653.736 792.999 651.84H801.687ZM796.359 647.472C797.703 647.472 798.999 648.48 799.335 649.92H793.191C793.575 648.456 794.895 647.472 796.359 647.472ZM811.333 654.936C810.997 655.032 810.421 655.08 810.085 655.08C809.485 655.08 808.837 654.864 808.525 654.48C808.237 654.144 808.189 653.64 808.189 653.04V647.76H811.789V645.72H808.189V642.6H805.909V645.72H803.029V647.76H805.909V652.92C805.909 654.144 806.149 655.176 806.821 655.92C807.541 656.736 808.597 657.24 810.013 657.24C810.661 657.24 811.357 657.144 811.789 657L811.333 654.936ZM817.776 662.76L825.192 645.72H822.792L819.552 653.16L816.024 645.72H813.576L818.4 655.824L815.352 662.76H817.776ZM840.781 639.888C840.469 639.792 839.917 639.72 839.437 639.72C837.901 639.72 836.557 640.416 835.741 641.592C835.237 642.312 835.021 643.248 835.021 644.76V645.72H832.381V647.76H835.021V657H837.301V647.76H840.781V645.72H837.301V644.688C837.301 643.656 837.421 643.08 837.733 642.672C838.117 642.168 838.813 641.88 839.461 641.88C839.773 641.88 840.133 641.928 840.301 641.976L840.781 639.888ZM853.015 651.84C853.039 651.624 853.039 651.456 853.039 651.36C853.039 648.024 850.759 645.48 847.615 645.48C844.423 645.48 842.119 647.976 842.119 651.36C842.119 654.744 844.663 657.24 847.951 657.24C850.255 657.24 851.863 656.208 852.703 655.128L851.215 653.712C850.567 654.432 849.655 655.248 847.975 655.248C846.007 655.248 844.447 653.736 844.327 651.84H853.015ZM847.687 647.472C849.031 647.472 850.327 648.48 850.663 649.92H844.519C844.903 648.456 846.223 647.472 847.687 647.472ZM864.389 657H866.597V645.72H864.389V646.752C863.357 645.864 862.133 645.48 860.861 645.48C859.805 645.48 858.869 645.744 858.101 646.2C856.397 647.208 855.197 649.104 855.197 651.36C855.197 653.616 856.373 655.488 858.077 656.496C858.845 656.952 859.901 657.24 860.909 657.24C862.253 657.24 863.477 656.784 864.389 655.968V657ZM864.317 653.472C863.549 654.504 862.373 655.08 861.221 655.08C859.037 655.08 857.477 653.376 857.477 651.36C857.477 649.392 858.917 647.64 861.101 647.64C862.469 647.64 863.621 648.336 864.317 649.248V653.472ZM877.192 654.936C876.856 655.032 876.28 655.08 875.944 655.08C875.344 655.08 874.696 654.864 874.384 654.48C874.096 654.144 874.048 653.64 874.048 653.04V647.76H877.648V645.72H874.048V642.6H871.768V645.72H868.888V647.76H871.768V652.92C871.768 654.144 872.008 655.176 872.68 655.92C873.4 656.736 874.456 657.24 875.872 657.24C876.52 657.24 877.216 657.144 877.648 657L877.192 654.936ZM885.567 657.24C887.127 657.24 888.375 656.448 888.879 655.968V657H891.087V645.72H888.807V653.472C888.159 654.24 887.031 655.08 885.639 655.08C884.775 655.08 883.959 654.696 883.455 654.096C883.047 653.616 882.807 652.992 882.807 651.84V645.72H880.527V651.48C880.527 653.376 880.863 654.48 881.559 655.344C882.495 656.52 883.959 657.24 885.567 657.24ZM901.637 645.552C901.373 645.504 900.989 645.48 900.749 645.48C899.093 645.48 897.917 646.248 897.365 647.016V645.72H895.157V657H897.437V649.536C898.061 648.456 899.309 647.64 900.485 647.64C900.845 647.64 901.109 647.664 901.373 647.736L901.637 645.552ZM913.859 651.84C913.883 651.624 913.883 651.456 913.883 651.36C913.883 648.024 911.603 645.48 908.459 645.48C905.267 645.48 902.963 647.976 902.963 651.36C902.963 654.744 905.507 657.24 908.795 657.24C911.099 657.24 912.707 656.208 913.547 655.128L912.059 653.712C911.411 654.432 910.499 655.248 908.819 655.248C906.851 655.248 905.291 653.736 905.171 651.84H913.859ZM908.531 647.472C909.875 647.472 911.171 648.48 911.507 649.92H905.363C905.747 648.456 907.067 647.472 908.531 647.472ZM915.921 655.68C917.169 656.688 918.681 657.24 920.481 657.24C922.689 657.24 924.681 655.92 924.681 653.784C924.681 651.456 922.353 650.664 920.577 650.208C919.449 649.92 918.561 649.656 918.561 648.888C918.561 648 919.497 647.472 920.601 647.472C921.513 647.472 922.329 647.832 923.025 648.36L924.201 646.728C923.313 646.008 922.113 645.48 920.457 645.48C918.441 645.48 916.281 646.584 916.281 649.008C916.281 650.592 917.505 651.456 918.873 651.912C920.529 652.464 922.401 652.536 922.401 653.832C922.401 654.72 921.417 655.248 920.433 655.248C919.305 655.248 918.153 654.816 917.097 654L915.921 655.68ZM928.763 654.12L926.963 660.36H928.523L931.403 654.12H928.763ZM765.368 682.328C764.648 683.288 763.592 684.08 762.104 684.08C759.944 684.08 758.36 682.568 758.36 680.36C758.36 678.224 759.92 676.64 761.96 676.64C763.4 676.64 764.456 677.48 765.08 678.344L766.76 676.928C765.704 675.464 763.928 674.48 761.96 674.48C758.576 674.48 756.08 677.024 756.08 680.36C756.08 683.696 758.624 686.24 762.104 686.24C764.168 686.24 766.184 685.16 767.12 683.6L765.368 682.328ZM768.807 680.36C768.807 683.72 771.303 686.24 774.639 686.24C777.975 686.24 780.471 683.72 780.471 680.36C780.471 677 777.975 674.48 774.639 674.48C771.303 674.48 768.807 677 768.807 680.36ZM771.087 680.36C771.087 678.296 772.551 676.64 774.639 676.64C776.727 676.64 778.191 678.296 778.191 680.36C778.191 682.424 776.727 684.08 774.639 684.08C772.551 684.08 771.087 682.424 771.087 680.36ZM785.803 674.72H783.595V686H785.875V678.248C786.547 677.432 787.627 676.64 789.115 676.64C790.051 676.64 790.915 677.072 791.443 677.744C791.851 678.248 792.115 678.92 792.115 680.36V686H794.395V680.48C794.395 678.536 794.011 677.384 793.291 676.472C792.331 675.248 790.843 674.48 789.187 674.48C787.555 674.48 786.403 675.224 785.803 675.8V674.72ZM801.105 686H802.689L807.585 674.72H805.233L801.897 682.4L798.561 674.72H796.209L801.105 686ZM819.687 680.84C819.711 680.624 819.711 680.456 819.711 680.36C819.711 677.024 817.431 674.48 814.287 674.48C811.095 674.48 808.791 676.976 808.791 680.36C808.791 683.744 811.335 686.24 814.623 686.24C816.927 686.24 818.535 685.208 819.375 684.128L817.887 682.712C817.239 683.432 816.327 684.248 814.647 684.248C812.679 684.248 811.119 682.736 810.999 680.84H819.687ZM814.359 676.472C815.703 676.472 816.999 677.48 817.335 678.92H811.191C811.575 677.456 812.895 676.472 814.359 676.472ZM829.309 674.552C829.045 674.504 828.661 674.48 828.421 674.48C826.765 674.48 825.589 675.248 825.037 676.016V674.72H822.829V686H825.109V678.536C825.733 677.456 826.981 676.64 828.157 676.64C828.517 676.64 828.781 676.664 829.045 676.736L829.309 674.552ZM830.866 684.68C832.114 685.688 833.626 686.24 835.426 686.24C837.634 686.24 839.626 684.92 839.626 682.784C839.626 680.456 837.298 679.664 835.522 679.208C834.394 678.92 833.506 678.656 833.506 677.888C833.506 677 834.442 676.472 835.546 676.472C836.458 676.472 837.274 676.832 837.97 677.36L839.146 675.728C838.258 675.008 837.058 674.48 835.402 674.48C833.386 674.48 831.226 675.584 831.226 678.008C831.226 679.592 832.45 680.456 833.818 680.912C835.474 681.464 837.346 681.536 837.346 682.832C837.346 683.72 836.362 684.248 835.378 684.248C834.25 684.248 833.098 683.816 832.042 683L830.866 684.68ZM851.1 686H853.308V674.72H851.1V675.752C850.068 674.864 848.844 674.48 847.572 674.48C846.516 674.48 845.58 674.744 844.812 675.2C843.108 676.208 841.908 678.104 841.908 680.36C841.908 682.616 843.084 684.488 844.788 685.496C845.556 685.952 846.612 686.24 847.62 686.24C848.964 686.24 850.188 685.784 851.1 684.968V686ZM851.028 682.472C850.26 683.504 849.084 684.08 847.932 684.08C845.748 684.08 844.188 682.376 844.188 680.36C844.188 678.392 845.628 676.64 847.812 676.64C849.18 676.64 850.332 677.336 851.028 678.248V682.472ZM863.903 683.936C863.567 684.032 862.991 684.08 862.655 684.08C862.055 684.08 861.407 683.864 861.095 683.48C860.807 683.144 860.759 682.64 860.759 682.04V676.76H864.359V674.72H860.759V671.6H858.479V674.72H855.599V676.76H858.479V681.92C858.479 683.144 858.719 684.176 859.391 684.92C860.111 685.736 861.167 686.24 862.583 686.24C863.231 686.24 863.927 686.144 864.359 686L863.903 683.936ZM867.478 686H869.758V674.72H867.478V686ZM867.118 670.712C867.118 671.552 867.766 672.2 868.605 672.2C869.446 672.2 870.118 671.552 870.118 670.712C870.118 669.872 869.446 669.2 868.605 669.2C867.766 669.2 867.118 669.872 867.118 670.712ZM872.869 680.36C872.869 683.72 875.365 686.24 878.701 686.24C882.037 686.24 884.533 683.72 884.533 680.36C884.533 677 882.037 674.48 878.701 674.48C875.365 674.48 872.869 677 872.869 680.36ZM875.149 680.36C875.149 678.296 876.613 676.64 878.701 676.64C880.789 676.64 882.253 678.296 882.253 680.36C882.253 682.424 880.789 684.08 878.701 684.08C876.613 684.08 875.149 682.424 875.149 680.36ZM889.865 674.72H887.657V686H889.937V678.248C890.609 677.432 891.689 676.64 893.177 676.64C894.113 676.64 894.977 677.072 895.505 677.744C895.913 678.248 896.177 678.92 896.177 680.36V686H898.457V680.48C898.457 678.536 898.073 677.384 897.353 676.472C896.393 675.248 894.905 674.48 893.249 674.48C891.617 674.48 890.465 675.224 889.865 675.8V674.72ZM907.694 684.68C908.942 685.688 910.454 686.24 912.254 686.24C914.462 686.24 916.454 684.92 916.454 682.784C916.454 680.456 914.126 679.664 912.35 679.208C911.222 678.92 910.334 678.656 910.334 677.888C910.334 677 911.27 676.472 912.374 676.472C913.286 676.472 914.102 676.832 914.798 677.36L915.974 675.728C915.086 675.008 913.886 674.48 912.23 674.48C910.214 674.48 908.054 675.584 908.054 678.008C908.054 679.592 909.278 680.456 910.646 680.912C912.302 681.464 914.174 681.536 914.174 682.832C914.174 683.72 913.19 684.248 912.206 684.248C911.078 684.248 909.926 683.816 908.87 683L907.694 684.68ZM926.083 683.936C925.747 684.032 925.171 684.08 924.835 684.08C924.235 684.08 923.587 683.864 923.275 683.48C922.987 683.144 922.939 682.64 922.939 682.04V676.76H926.539V674.72H922.939V671.6H920.659V674.72H917.779V676.76H920.659V681.92C920.659 683.144 920.899 684.176 921.571 684.92C922.291 685.736 923.347 686.24 924.763 686.24C925.411 686.24 926.107 686.144 926.539 686L926.083 683.936ZM937.538 686H939.746V674.72H937.538V675.752C936.506 674.864 935.282 674.48 934.01 674.48C932.954 674.48 932.018 674.744 931.25 675.2C929.546 676.208 928.346 678.104 928.346 680.36C928.346 682.616 929.522 684.488 931.226 685.496C931.994 685.952 933.05 686.24 934.058 686.24C935.402 686.24 936.626 685.784 937.538 684.968V686ZM937.466 682.472C936.698 683.504 935.522 684.08 934.37 684.08C932.186 684.08 930.626 682.376 930.626 680.36C930.626 678.392 932.066 676.64 934.25 676.64C935.618 676.64 936.77 677.336 937.466 678.248V682.472ZM950.317 674.552C950.053 674.504 949.669 674.48 949.429 674.48C947.773 674.48 946.597 675.248 946.045 676.016V674.72H943.837V686H946.117V678.536C946.741 677.456 947.989 676.64 949.165 676.64C949.525 676.64 949.789 676.664 950.053 676.736L950.317 674.552ZM960.302 683.936C959.966 684.032 959.39 684.08 959.054 684.08C958.454 684.08 957.806 683.864 957.494 683.48C957.206 683.144 957.158 682.64 957.158 682.04V676.76H960.758V674.72H957.158V671.6H954.878V674.72H951.998V676.76H954.878V681.92C954.878 683.144 955.118 684.176 955.79 684.92C956.51 685.736 957.566 686.24 958.982 686.24C959.63 686.24 960.326 686.144 960.758 686L960.302 683.936ZM973.46 680.84C973.484 680.624 973.484 680.456 973.484 680.36C973.484 677.024 971.204 674.48 968.06 674.48C964.868 674.48 962.564 676.976 962.564 680.36C962.564 683.744 965.108 686.24 968.396 686.24C970.7 686.24 972.308 685.208 973.148 684.128L971.66 682.712C971.012 683.432 970.1 684.248 968.42 684.248C966.452 684.248 964.892 682.736 964.772 680.84H973.46ZM968.132 676.472C969.476 676.472 970.772 677.48 971.108 678.92H964.964C965.348 677.456 966.668 676.472 968.132 676.472ZM983.083 674.552C982.819 674.504 982.435 674.48 982.195 674.48C980.539 674.48 979.363 675.248 978.811 676.016V674.72H976.603V686H978.883V678.536C979.507 677.456 980.755 676.64 981.931 676.64C982.291 676.64 982.555 676.664 982.819 676.736L983.083 674.552ZM984.64 684.68C985.888 685.688 987.4 686.24 989.2 686.24C991.408 686.24 993.4 684.92 993.4 682.784C993.4 680.456 991.072 679.664 989.296 679.208C988.168 678.92 987.28 678.656 987.28 677.888C987.28 677 988.216 676.472 989.32 676.472C990.232 676.472 991.048 676.832 991.744 677.36L992.92 675.728C992.032 675.008 990.832 674.48 989.176 674.48C987.16 674.48 985 675.584 985 678.008C985 679.592 986.224 680.456 987.592 680.912C989.248 681.464 991.12 681.536 991.12 682.832C991.12 683.72 990.136 684.248 989.152 684.248C988.024 684.248 986.872 683.816 985.816 683L984.64 684.68ZM997.482 683.12L995.682 689.36H997.242L1000.12 683.12H997.482ZM765.272 715H767.48V703.72H765.272V704.752C764.24 703.864 763.016 703.48 761.744 703.48C760.688 703.48 759.752 703.744 758.984 704.2C757.28 705.208 756.08 707.104 756.08 709.36C756.08 711.616 757.256 713.488 758.96 714.496C759.728 714.952 760.784 715.24 761.792 715.24C763.136 715.24 764.36 714.784 765.272 713.968V715ZM765.2 711.472C764.432 712.504 763.256 713.08 762.104 713.08C759.92 713.08 758.36 711.376 758.36 709.36C758.36 707.392 759.8 705.64 761.984 705.64C763.352 705.64 764.504 706.336 765.2 707.248V711.472ZM773.779 703.72H771.571V715H773.851V707.248C774.523 706.432 775.603 705.64 777.091 705.64C778.027 705.64 778.891 706.072 779.419 706.744C779.827 707.248 780.091 707.92 780.091 709.36V715H782.371V709.48C782.371 707.536 781.987 706.384 781.267 705.472C780.307 704.248 778.819 703.48 777.163 703.48C775.531 703.48 774.379 704.224 773.779 704.8V703.72ZM794.452 715H796.66V697.96H794.38V704.704C793.372 703.864 792.148 703.48 790.924 703.48C789.868 703.48 788.932 703.744 788.164 704.2C786.46 705.208 785.26 707.104 785.26 709.36C785.26 711.616 786.436 713.488 788.14 714.496C788.908 714.952 789.964 715.24 790.972 715.24C792.316 715.24 793.54 714.784 794.452 713.968V715ZM794.38 711.472C793.612 712.504 792.436 713.08 791.284 713.08C789.1 713.08 787.54 711.376 787.54 709.36C787.54 707.392 788.98 705.64 791.164 705.64C792.532 705.64 793.684 706.336 794.38 707.248V711.472ZM814.18 697.888C813.868 697.792 813.316 697.72 812.836 697.72C811.3 697.72 809.956 698.416 809.14 699.592C808.636 700.312 808.42 701.248 808.42 702.76V703.72H805.78V705.76H808.42V715H810.7V705.76H814.18V703.72H810.7V702.688C810.7 701.656 810.82 701.08 811.132 700.672C811.516 700.168 812.212 699.88 812.86 699.88C813.172 699.88 813.532 699.928 813.7 699.976L814.18 697.888ZM821.278 715.24C822.838 715.24 824.086 714.448 824.59 713.968V715H826.798V703.72H824.518V711.472C823.87 712.24 822.742 713.08 821.35 713.08C820.486 713.08 819.67 712.696 819.166 712.096C818.758 711.616 818.518 710.992 818.518 709.84V703.72H816.238V709.48C816.238 711.376 816.574 712.48 817.27 713.344C818.206 714.52 819.67 715.24 821.278 715.24ZM833.076 703.72H830.868V715H833.148V707.248C833.82 706.432 834.9 705.64 836.388 705.64C837.324 705.64 838.188 706.072 838.716 706.744C839.124 707.248 839.388 707.92 839.388 709.36V715H841.668V709.48C841.668 707.536 841.284 706.384 840.564 705.472C839.604 704.248 838.116 703.48 836.46 703.48C834.828 703.48 833.676 704.224 833.076 704.8V703.72ZM850.905 713.68C852.153 714.688 853.665 715.24 855.465 715.24C857.673 715.24 859.665 713.92 859.665 711.784C859.665 709.456 857.337 708.664 855.561 708.208C854.433 707.92 853.545 707.656 853.545 706.888C853.545 706 854.481 705.472 855.585 705.472C856.497 705.472 857.313 705.832 858.009 706.36L859.185 704.728C858.297 704.008 857.097 703.48 855.441 703.48C853.425 703.48 851.265 704.584 851.265 707.008C851.265 708.592 852.489 709.456 853.857 709.912C855.513 710.464 857.385 710.536 857.385 711.832C857.385 712.72 856.401 713.248 855.417 713.248C854.289 713.248 853.137 712.816 852.081 712L850.905 713.68ZM869.294 712.936C868.958 713.032 868.382 713.08 868.046 713.08C867.446 713.08 866.798 712.864 866.486 712.48C866.198 712.144 866.15 711.64 866.15 711.04V705.76H869.75V703.72H866.15V700.6H863.87V703.72H860.99V705.76H863.87V710.92C863.87 712.144 864.11 713.176 864.782 713.92C865.502 714.736 866.558 715.24 867.974 715.24C868.622 715.24 869.318 715.144 869.75 715L869.294 712.936ZM872.868 715H875.148V703.72H872.868V715ZM872.508 699.712C872.508 700.552 873.156 701.2 873.996 701.2C874.836 701.2 875.508 700.552 875.508 699.712C875.508 698.872 874.836 698.2 873.996 698.2C873.156 698.2 872.508 698.872 872.508 699.712ZM887.548 711.328C886.828 712.288 885.772 713.08 884.284 713.08C882.124 713.08 880.54 711.568 880.54 709.36C880.54 707.224 882.1 705.64 884.14 705.64C885.58 705.64 886.636 706.48 887.26 707.344L888.94 705.928C887.884 704.464 886.108 703.48 884.14 703.48C880.756 703.48 878.26 706.024 878.26 709.36C878.26 712.696 880.804 715.24 884.284 715.24C886.348 715.24 888.364 714.16 889.3 712.6L887.548 711.328ZM896.506 708.808L902.146 703.72H898.93L894.226 708.04V697.96H891.946V715H894.226V709.48L899.818 715H902.866L896.506 708.808ZM914.351 709.84C914.375 709.624 914.375 709.456 914.375 709.36C914.375 706.024 912.095 703.48 908.951 703.48C905.759 703.48 903.455 705.976 903.455 709.36C903.455 712.744 905.999 715.24 909.287 715.24C911.591 715.24 913.199 714.208 914.039 713.128L912.551 711.712C911.903 712.432 910.991 713.248 909.311 713.248C907.343 713.248 905.783 711.736 905.663 709.84H914.351ZM909.023 705.472C910.367 705.472 911.663 706.48 911.999 707.92H905.855C906.239 706.456 907.559 705.472 909.023 705.472ZM923.973 703.552C923.709 703.504 923.325 703.48 923.085 703.48C921.429 703.48 920.253 704.248 919.701 705.016V703.72H917.493V715H919.773V707.536C920.397 706.456 921.645 705.64 922.821 705.64C923.181 705.64 923.445 705.664 923.709 705.736L923.973 703.552ZM925.53 713.68C926.778 714.688 928.29 715.24 930.09 715.24C932.298 715.24 934.29 713.92 934.29 711.784C934.29 709.456 931.962 708.664 930.186 708.208C929.058 707.92 928.17 707.656 928.17 706.888C928.17 706 929.106 705.472 930.21 705.472C931.122 705.472 931.938 705.832 932.634 706.36L933.81 704.728C932.922 704.008 931.722 703.48 930.066 703.48C928.05 703.48 925.89 704.584 925.89 707.008C925.89 708.592 927.114 709.456 928.482 709.912C930.138 710.464 932.01 710.536 932.01 711.832C932.01 712.72 931.026 713.248 930.042 713.248C928.914 713.248 927.762 712.816 926.706 712L925.53 713.68Z" fill="black"/>
<path d="M781.54 793.22H788.38V815H791.98V793.22H798.82V789.8H781.54V793.22ZM810.339 797.828C809.943 797.756 809.367 797.72 809.007 797.72C806.523 797.72 804.759 798.872 803.931 800.024V798.08H800.619V815H804.039V803.804C804.975 802.184 806.847 800.96 808.611 800.96C809.151 800.96 809.547 800.996 809.943 801.104L810.339 797.828ZM819.16 823.64L830.284 798.08H826.684L821.824 809.24L816.532 798.08H812.86L820.096 813.236L815.524 823.64H819.16ZM843.228 815H846.648V798.08H843.228V815ZM842.688 792.068C842.688 793.328 843.66 794.3 844.92 794.3C846.18 794.3 847.188 793.328 847.188 792.068C847.188 790.808 846.18 789.8 844.92 789.8C843.66 789.8 842.688 790.808 842.688 792.068ZM862.511 811.904C862.007 812.048 861.143 812.12 860.639 812.12C859.739 812.12 858.767 811.796 858.299 811.22C857.867 810.716 857.795 809.96 857.795 809.06V801.14H863.195V798.08H857.795V793.4H854.375V798.08H850.055V801.14H854.375V808.88C854.375 810.716 854.735 812.264 855.743 813.38C856.823 814.604 858.407 815.36 860.531 815.36C861.503 815.36 862.547 815.216 863.195 815L862.511 811.904ZM880.536 798.08H877.224V815H880.644V803.372C881.652 802.148 883.272 800.96 885.504 800.96C886.908 800.96 888.204 801.608 888.996 802.616C889.608 803.372 890.004 804.38 890.004 806.54V815H893.424V806.72C893.424 803.804 892.848 802.076 891.768 800.708C890.328 798.872 888.096 797.72 885.612 797.72C883.164 797.72 881.436 798.836 880.536 799.7V798.08ZM897.757 806.54C897.757 811.58 901.501 815.36 906.505 815.36C911.509 815.36 915.253 811.58 915.253 806.54C915.253 801.5 911.509 797.72 906.505 797.72C901.501 797.72 897.757 801.5 897.757 806.54ZM901.177 806.54C901.177 803.444 903.373 800.96 906.505 800.96C909.637 800.96 911.833 803.444 911.833 806.54C911.833 809.636 909.637 812.12 906.505 812.12C903.373 812.12 901.177 809.636 901.177 806.54ZM929.879 798.08L925.235 809.636L920.591 798.08H917.063L923.939 815H926.315L931.067 803.12L935.819 815H938.195L945.071 798.08H941.543L936.899 809.636L932.255 798.08H929.879ZM950.394 807.08H952.734L953.274 798.08V789.8H949.854V798.08L950.394 807.08ZM949.026 812.84C949.026 814.244 950.142 815.36 951.546 815.36C952.95 815.36 954.066 814.244 954.066 812.84C954.066 811.436 952.95 810.32 951.546 810.32C950.142 810.32 949.026 811.436 949.026 812.84Z" fill="black"/>
</g>
<defs>
<clipPath id="clip0">
<rect width="1440" height="1629" fill="white"/>
</clipPath>
</defs>
</svg>
