<svg width="1440" height="930" viewBox="0 0 1440 930" fill="none" xmlns="http://www.w3.org/2000/svg">
<rect width="1440" height="930" fill="white"/>
<rect width="1440" height="65" fill="#FFC9E3"/>
<g filter="url(#filter0_d)">
<rect x="54" y="142" width="335" height="675" rx="40" fill="#CCFFFF"/>
</g>
<g filter="url(#filter1_d)">
<rect x="426" y="142" width="935" height="675" rx="40" fill="#CCFFFF"/>
</g>
<rect x="976" y="511" width="350" height="100" rx="40" fill="#FFF574"/>
<rect x="475" y="384" width="350" height="100" rx="40" fill="#FF9F66"/>
<rect x="976" y="311" width="350" height="100" rx="40" fill="#FFF574"/>
<rect x="54" y="142" width="335" height="123" rx="40" fill="#FFC9E3"/>
<rect x="475" y="184" width="350" height="100" rx="40" fill="#FF9F66"/>
<rect x="464" y="686" width="859" height="90" rx="30" fill="white"/>
<path d="M509.36 722.48H513.92V737H516.32V722.48H520.88V720.2H509.36V722.48ZM524.479 742.76L531.895 725.72H529.495L526.255 733.16L522.727 725.72H520.279L525.103 735.824L522.055 742.76H524.479ZM536.57 736.016C537.482 736.808 538.634 737.24 539.978 737.24C540.986 737.24 542.042 736.952 542.81 736.496C544.514 735.488 545.69 733.616 545.69 731.36C545.69 729.104 544.49 727.208 542.786 726.2C542.018 725.744 541.082 725.48 540.026 725.48C538.754 725.48 537.53 725.864 536.498 726.752V725.72H534.29V742.76H536.57V736.016ZM536.57 729.248C537.266 728.336 538.418 727.64 539.786 727.64C541.97 727.64 543.41 729.392 543.41 731.36C543.41 733.376 541.85 735.08 539.666 735.08C538.514 735.08 537.338 734.504 536.57 733.472V729.248ZM558.757 731.84C558.781 731.624 558.781 731.456 558.781 731.36C558.781 728.024 556.501 725.48 553.357 725.48C550.165 725.48 547.861 727.976 547.861 731.36C547.861 734.744 550.405 737.24 553.693 737.24C555.997 737.24 557.605 736.208 558.445 735.128L556.957 733.712C556.309 734.432 555.397 735.248 553.717 735.248C551.749 735.248 550.189 733.736 550.069 731.84H558.757ZM553.429 727.472C554.773 727.472 556.069 728.48 556.405 729.92H550.261C550.645 728.456 551.965 727.472 553.429 727.472ZM570.534 742.76L577.95 725.72H575.55L572.31 733.16L568.782 725.72H566.334L571.158 735.824L568.11 742.76H570.534ZM579.268 731.36C579.268 734.72 581.764 737.24 585.1 737.24C588.436 737.24 590.932 734.72 590.932 731.36C590.932 728 588.436 725.48 585.1 725.48C581.764 725.48 579.268 728 579.268 731.36ZM581.548 731.36C581.548 729.296 583.012 727.64 585.1 727.64C587.188 727.64 588.652 729.296 588.652 731.36C588.652 733.424 587.188 735.08 585.1 735.08C583.012 735.08 581.548 733.424 581.548 731.36ZM598.856 737.24C600.416 737.24 601.664 736.448 602.168 735.968V737H604.376V725.72H602.096V733.472C601.448 734.24 600.32 735.08 598.928 735.08C598.064 735.08 597.248 734.696 596.744 734.096C596.336 733.616 596.096 732.992 596.096 731.84V725.72H593.816V731.48C593.816 733.376 594.152 734.48 594.848 735.344C595.784 736.52 597.248 737.24 598.856 737.24ZM614.926 725.552C614.662 725.504 614.278 725.48 614.038 725.48C612.382 725.48 611.206 726.248 610.654 727.016V725.72H608.446V737H610.726V729.536C611.35 728.456 612.598 727.64 613.774 727.64C614.134 727.64 614.398 727.664 614.662 727.736L614.926 725.552ZM623.915 725.72V737H626.195V729.248C626.843 728.48 627.971 727.64 629.363 727.64C630.227 727.64 631.043 728.024 631.547 728.624C631.955 729.104 632.195 729.728 632.195 730.88V737H634.475V731.24C634.475 730.448 634.403 729.8 634.283 729.248C635.027 728.48 636.083 727.64 637.715 727.64C638.555 727.64 639.323 728.024 639.827 728.624C640.235 729.104 640.475 729.728 640.475 730.88V737H642.755V731.24C642.755 729.344 642.419 728.24 641.723 727.376C640.787 726.2 639.323 725.48 637.715 725.48C635.675 725.48 634.451 726.32 633.419 727.352C632.483 726.224 631.091 725.48 629.435 725.48C627.899 725.48 626.579 726.296 626.123 726.8V725.72H623.915ZM656.539 731.84C656.562 731.624 656.562 731.456 656.562 731.36C656.562 728.024 654.283 725.48 651.139 725.48C647.947 725.48 645.643 727.976 645.643 731.36C645.643 734.744 648.187 737.24 651.475 737.24C653.779 737.24 655.387 736.208 656.227 735.128L654.739 733.712C654.091 734.432 653.179 735.248 651.499 735.248C649.531 735.248 647.971 733.736 647.851 731.84H656.539ZM651.211 727.472C652.555 727.472 653.851 728.48 654.187 729.92H648.043C648.427 728.456 649.747 727.472 651.211 727.472ZM658.601 735.68C659.849 736.688 661.361 737.24 663.161 737.24C665.369 737.24 667.361 735.92 667.361 733.784C667.361 731.456 665.033 730.664 663.257 730.208C662.129 729.92 661.241 729.656 661.241 728.888C661.241 728 662.177 727.472 663.281 727.472C664.193 727.472 665.009 727.832 665.705 728.36L666.881 726.728C665.993 726.008 664.793 725.48 663.137 725.48C661.121 725.48 658.961 726.584 658.961 729.008C658.961 730.592 660.185 731.456 661.553 731.912C663.209 732.464 665.081 732.536 665.081 733.832C665.081 734.72 664.097 735.248 663.113 735.248C661.985 735.248 660.833 734.816 659.777 734L658.601 735.68ZM669.523 735.68C670.771 736.688 672.283 737.24 674.083 737.24C676.291 737.24 678.283 735.92 678.283 733.784C678.283 731.456 675.955 730.664 674.179 730.208C673.051 729.92 672.163 729.656 672.163 728.888C672.163 728 673.099 727.472 674.203 727.472C675.115 727.472 675.931 727.832 676.627 728.36L677.803 726.728C676.915 726.008 675.715 725.48 674.059 725.48C672.043 725.48 669.883 726.584 669.883 729.008C669.883 730.592 671.107 731.456 672.475 731.912C674.131 732.464 676.003 732.536 676.003 733.832C676.003 734.72 675.019 735.248 674.035 735.248C672.907 735.248 671.755 734.816 670.699 734L669.523 735.68ZM689.756 737H691.964V725.72H689.756V726.752C688.724 725.864 687.5 725.48 686.228 725.48C685.172 725.48 684.236 725.744 683.468 726.2C681.764 727.208 680.564 729.104 680.564 731.36C680.564 733.616 681.74 735.488 683.444 736.496C684.212 736.952 685.268 737.24 686.276 737.24C687.62 737.24 688.844 736.784 689.756 735.968V737ZM689.684 733.472C688.916 734.504 687.74 735.08 686.588 735.08C684.404 735.08 682.844 733.376 682.844 731.36C682.844 729.392 684.284 727.64 686.468 727.64C687.836 727.64 688.988 728.336 689.684 729.248V733.472ZM704.216 736.016V736.64C704.216 738.056 704 738.92 703.592 739.544C703.04 740.384 702.08 740.84 700.856 740.84C699.008 740.84 697.952 739.904 697.136 738.824L695.456 740.384C696.176 741.512 698.024 743 700.952 743C703.184 743 704.912 741.968 705.824 740.216C706.28 739.328 706.496 738.2 706.496 736.52V725.72H704.288V726.752C703.256 725.864 702.032 725.48 700.76 725.48C699.704 725.48 698.768 725.744 698 726.2C696.296 727.208 695.096 729.104 695.096 731.36C695.096 733.616 696.272 735.488 697.976 736.496C698.744 736.952 699.8 737.24 700.808 737.24C702.152 737.24 703.304 736.808 704.216 736.016ZM704.216 733.472C703.448 734.504 702.272 735.08 701.12 735.08C698.936 735.08 697.376 733.376 697.376 731.36C697.376 729.392 698.816 727.64 701 727.64C702.368 727.64 703.52 728.336 704.216 729.248V733.472ZM720.523 731.84C720.547 731.624 720.547 731.456 720.547 731.36C720.547 728.024 718.267 725.48 715.123 725.48C711.931 725.48 709.627 727.976 709.627 731.36C709.627 734.744 712.171 737.24 715.459 737.24C717.763 737.24 719.371 736.208 720.211 735.128L718.723 733.712C718.075 734.432 717.163 735.248 715.483 735.248C713.515 735.248 711.955 733.736 711.835 731.84H720.523ZM715.195 727.472C716.539 727.472 717.835 728.48 718.171 729.92H712.027C712.411 728.456 713.731 727.472 715.195 727.472ZM732.414 719.96H730.134V737H732.414V729.248C733.086 728.432 734.166 727.64 735.654 727.64C736.59 727.64 737.454 728.072 737.982 728.744C738.39 729.248 738.654 729.92 738.654 731.36V737H740.934V731.48C740.934 729.536 740.55 728.384 739.83 727.472C738.87 726.248 737.382 725.48 735.726 725.48C734.166 725.48 733.038 726.176 732.414 726.704V719.96ZM754.718 731.84C754.742 731.624 754.742 731.456 754.742 731.36C754.742 728.024 752.462 725.48 749.318 725.48C746.126 725.48 743.822 727.976 743.822 731.36C743.822 734.744 746.366 737.24 749.654 737.24C751.958 737.24 753.566 736.208 754.406 735.128L752.918 733.712C752.27 734.432 751.358 735.248 749.678 735.248C747.71 735.248 746.15 733.736 746.03 731.84H754.718ZM749.39 727.472C750.734 727.472 752.03 728.48 752.366 729.92H746.222C746.606 728.456 747.926 727.472 749.39 727.472ZM764.34 725.552C764.076 725.504 763.692 725.48 763.452 725.48C761.796 725.48 760.62 726.248 760.068 727.016V725.72H757.86V737H760.14V729.536C760.764 728.456 762.012 727.64 763.188 727.64C763.548 727.64 763.812 727.664 764.076 727.736L764.34 725.552ZM776.562 731.84C776.586 731.624 776.586 731.456 776.586 731.36C776.586 728.024 774.306 725.48 771.162 725.48C767.97 725.48 765.666 727.976 765.666 731.36C765.666 734.744 768.21 737.24 771.498 737.24C773.802 737.24 775.41 736.208 776.25 735.128L774.762 733.712C774.114 734.432 773.202 735.248 771.522 735.248C769.554 735.248 767.994 733.736 767.874 731.84H776.562ZM771.234 727.472C772.578 727.472 773.874 728.48 774.21 729.92H768.066C768.45 728.456 769.77 727.472 771.234 727.472ZM780.976 731.72H782.536L782.896 725.72V720.2H780.616V725.72L780.976 731.72ZM780.064 735.56C780.064 736.496 780.808 737.24 781.744 737.24C782.68 737.24 783.424 736.496 783.424 735.56C783.424 734.624 782.68 733.88 781.744 733.88C780.808 733.88 780.064 734.624 780.064 735.56Z" fill="black"/>
<path d="M177.375 207.8H183.225V195.47C184.98 196.82 186.87 197.45 189.075 197.45C192.315 197.45 195.42 196.01 197.355 193.76C199.065 191.78 200.1 189.08 200.1 186.11C200.1 179.675 195.33 174.725 189.39 174.725C186.915 174.725 184.71 175.535 183 176.93V175.175H177.375V207.8ZM183.225 182.825C184.44 181.205 186.375 180.125 188.625 180.125C192.045 180.125 194.25 182.96 194.25 186.11C194.25 189.53 191.775 192.05 188.49 192.05C186.285 192.05 184.35 190.97 183.225 189.35V182.825ZM220.575 189.35C219.45 190.97 217.515 192.05 215.31 192.05C212.025 192.05 209.55 189.53 209.55 186.11C209.55 182.96 211.755 180.125 215.175 180.125C217.425 180.125 219.36 181.205 220.575 182.825V189.35ZM226.425 175.175H220.8V176.93C219.09 175.535 216.885 174.725 214.41 174.725C208.47 174.725 203.7 179.675 203.7 186.11C203.7 189.08 204.78 191.78 206.49 193.76C208.425 196.01 211.485 197.45 214.725 197.45C216.93 197.45 219 196.775 220.8 195.245V197H226.425V175.175ZM239.036 165.05H233.186V197H239.036V165.05ZM243.638 194.525C246.203 196.415 249.398 197.45 252.413 197.45C257.003 197.45 261.098 194.885 261.098 190.7C261.098 183.14 250.523 184.265 250.523 181.43C250.523 180.305 251.873 179.675 253.493 179.675C255.068 179.675 256.553 180.35 257.678 181.16L260.423 176.93C258.983 175.805 255.878 174.725 253.043 174.725C248.723 174.725 244.673 177.335 244.673 181.52C244.673 188.54 255.248 187.37 255.248 190.655C255.248 191.735 254.033 192.5 252.458 192.5C250.253 192.5 247.958 191.69 246.473 190.34L243.638 194.525Z" fill="black"/>
<path d="M56.72 44H61.31V28.496L74.57 44H77.8V20.2H73.21V35.704L59.95 20.2H56.72V44ZM94.6053 38.866C93.8233 39.716 92.3273 40.77 90.4573 40.77C88.1113 40.77 86.2413 39.172 86.0033 36.86H97.4273C97.4953 36.486 97.5293 36.044 97.5293 35.602C97.5293 31.012 94.2993 27.17 89.7433 27.17C84.8473 27.17 81.7193 31.182 81.7193 35.772C81.7193 40.94 85.4253 44.34 90.3553 44.34C92.9053 44.34 95.5233 43.286 97.1213 41.382L94.6053 38.866ZM86.2073 33.63C86.4113 32.134 87.9073 30.74 89.7433 30.74C91.5453 30.74 92.8713 32.168 93.0073 33.63H86.2073ZM105.695 27.51H101.275V44H105.695V27.51ZM100.595 21.662C100.595 23.26 101.887 24.484 103.485 24.484C105.083 24.484 106.375 23.26 106.375 21.662C106.375 20.064 105.083 18.84 103.485 18.84C101.887 18.84 100.595 20.064 100.595 21.662ZM126.614 27.51H122.364V28.836C121.072 27.782 119.406 27.17 117.536 27.17C113.048 27.17 109.444 30.91 109.444 35.772C109.444 38.016 110.226 40.056 111.518 41.552C112.98 43.252 115.326 44.34 117.774 44.34C119.44 44.34 120.868 43.864 122.194 42.844V43.388C122.194 45.496 121.854 46.516 121.174 47.264C120.426 48.148 119.236 48.59 117.808 48.59C115.088 48.59 113.558 47.162 112.674 46.21L109.886 49.1C111.518 51.004 114.578 52.5 117.808 52.5C120.97 52.5 123.622 51.276 125.118 49.202C126.104 47.808 126.614 46.04 126.614 43.082V27.51ZM122.194 38.22C121.344 39.444 119.882 40.26 118.216 40.26C115.734 40.26 113.864 38.356 113.864 35.772C113.864 33.392 115.53 31.25 118.114 31.25C119.814 31.25 121.276 32.066 122.194 33.29V38.22ZM136.142 33.29C136.754 32.44 138.284 31.25 140.154 31.25C141.174 31.25 142.058 31.59 142.636 32.168C143.248 32.78 143.622 33.63 143.622 35.262V44H148.042V35.602C148.042 32.78 147.43 31.114 146.342 29.822C144.982 28.19 142.908 27.17 140.63 27.17C138.93 27.17 137.366 27.748 136.142 28.7V19.86H131.722V44H136.142V33.29ZM157.226 33.29C158.144 32.066 159.606 31.25 161.306 31.25C163.89 31.25 165.556 33.392 165.556 35.772C165.556 38.356 163.686 40.26 161.204 40.26C159.538 40.26 158.076 39.444 157.226 38.22V33.29ZM157.056 44V42.674C158.416 43.83 159.98 44.34 161.646 44.34C164.094 44.34 166.406 43.252 167.868 41.552C169.16 40.056 169.976 38.016 169.976 35.772C169.976 30.91 166.372 27.17 161.884 27.17C160.082 27.17 158.518 27.68 157.226 28.7V19.86H152.806V44H157.056ZM172.696 35.772C172.696 40.532 176.47 44.34 181.468 44.34C186.466 44.34 190.24 40.532 190.24 35.772C190.24 31.012 186.466 27.17 181.468 27.17C176.47 27.17 172.696 31.012 172.696 35.772ZM177.116 35.772C177.116 33.29 178.884 31.25 181.468 31.25C184.052 31.25 185.82 33.29 185.82 35.772C185.82 38.254 184.052 40.26 181.468 40.26C178.884 40.26 177.116 38.254 177.116 35.772ZM204.518 27.306C204.042 27.238 203.668 27.17 203.022 27.17C201.016 27.17 199.214 27.952 198.228 29.176V27.51H193.978V44H198.398V33.63C198.942 32.644 200.472 31.25 202.41 31.25C203.056 31.25 203.702 31.318 204.008 31.42L204.518 27.306ZM206.125 42.13C208.063 43.558 210.477 44.34 212.755 44.34C216.223 44.34 219.317 42.402 219.317 39.24C219.317 33.528 211.327 34.378 211.327 32.236C211.327 31.386 212.347 30.91 213.571 30.91C214.761 30.91 215.883 31.42 216.733 32.032L218.807 28.836C217.719 27.986 215.373 27.17 213.231 27.17C209.967 27.17 206.907 29.142 206.907 32.304C206.907 37.608 214.897 36.724 214.897 39.206C214.897 40.022 213.979 40.6 212.789 40.6C211.123 40.6 209.389 39.988 208.267 38.968L206.125 42.13Z" fill="black"/>
<g filter="url(#filter2_d)">
<rect x="1191" y="702" width="100" height="57" rx="15" fill="#FFC9E3"/>
</g>
<path d="M1211.24 735.72C1212.97 737.304 1215.06 738.24 1217.31 738.24C1220.34 738.24 1223 736.176 1223 733.2C1223 727.536 1215.25 728.376 1215.25 725.664C1215.25 724.368 1216.62 723.84 1217.84 723.84C1218.94 723.84 1220.07 724.32 1220.74 724.944L1222.42 722.544C1220.84 721.368 1219.26 720.96 1217.55 720.96C1214.77 720.96 1212.01 722.688 1212.01 725.688C1212.01 727.584 1213.06 728.736 1214.38 729.504C1216.64 730.824 1219.76 731.088 1219.76 733.248C1219.76 734.472 1218.75 735.36 1217.31 735.36C1215.78 735.36 1214.31 734.568 1213.35 733.512L1211.24 735.72ZM1234.97 734.376C1234.42 734.976 1233.37 735.72 1232.05 735.72C1230.39 735.72 1229.07 734.592 1228.9 732.96H1236.97C1237.01 732.696 1237.04 732.384 1237.04 732.072C1237.04 728.832 1234.76 726.12 1231.54 726.12C1228.09 726.12 1225.88 728.952 1225.88 732.192C1225.88 735.84 1228.49 738.24 1231.97 738.24C1233.77 738.24 1235.62 737.496 1236.75 736.152L1234.97 734.376ZM1229.05 730.68C1229.19 729.624 1230.25 728.64 1231.54 728.64C1232.81 728.64 1233.75 729.648 1233.85 730.68H1229.05ZM1243.76 738V730.44C1244.19 729.84 1245.27 729 1246.59 729C1247.31 729 1247.94 729.24 1248.35 729.648C1248.78 730.08 1249.04 730.68 1249.04 731.832V738H1252.16V732.072C1252.16 730.08 1251.73 728.904 1250.96 727.992C1250 726.84 1248.54 726.12 1246.93 726.12C1245.63 726.12 1244.53 726.576 1243.64 727.296V726.36H1240.64V738H1243.76ZM1264.52 733.92C1263.92 734.784 1262.89 735.36 1261.72 735.36C1259.96 735.36 1258.64 734.016 1258.64 732.192C1258.64 730.512 1259.82 729 1261.64 729C1262.84 729 1263.88 729.576 1264.52 730.44V733.92ZM1267.64 738V720.96H1264.52V727.2C1263.61 726.48 1262.51 726.12 1261.24 726.12C1258.07 726.12 1255.52 728.76 1255.52 732.192C1255.52 733.776 1256.1 735.216 1257.01 736.272C1258.04 737.472 1259.68 738.24 1261.4 738.24C1262.58 738.24 1263.68 737.88 1264.64 737.064V738H1267.64Z" fill="black"/>
<rect x="54" y="223" width="335" height="53" fill="#CCFFFF"/>
<rect x="84" y="278" width="275" height="93" rx="40" fill="#C9DDFF"/>
<rect x="84" y="404" width="275" height="93" rx="40" fill="#FFF574"/>
<rect x="84" y="530" width="275" height="93" rx="40" fill="#FF9F66"/>
<path d="M212.56 323.8V319.48H219.76V317.2H210.16V334H212.56V326.08H218.08V323.8H212.56ZM228.403 322.552C228.139 322.504 227.755 322.48 227.515 322.48C225.859 322.48 224.683 323.248 224.131 324.016V322.72H221.923V334H224.203V326.536C224.827 325.456 226.075 324.64 227.251 324.64C227.611 324.64 227.875 324.664 228.139 324.736L228.403 322.552ZM231.157 334H233.437V322.72H231.157V334ZM230.797 318.712C230.797 319.552 231.445 320.2 232.285 320.2C233.125 320.2 233.797 319.552 233.797 318.712C233.797 317.872 233.125 317.2 232.285 317.2C231.445 317.2 230.797 317.872 230.797 318.712ZM247.445 328.84C247.469 328.624 247.469 328.456 247.469 328.36C247.469 325.024 245.189 322.48 242.045 322.48C238.853 322.48 236.549 324.976 236.549 328.36C236.549 331.744 239.093 334.24 242.381 334.24C244.685 334.24 246.293 333.208 247.133 332.128L245.645 330.712C244.997 331.432 244.085 332.248 242.405 332.248C240.437 332.248 238.877 330.736 238.757 328.84H247.445ZM242.117 324.472C243.461 324.472 244.757 325.48 245.093 326.92H238.949C239.333 325.456 240.653 324.472 242.117 324.472ZM252.795 322.72H250.587V334H252.867V326.248C253.539 325.432 254.619 324.64 256.107 324.64C257.043 324.64 257.907 325.072 258.435 325.744C258.843 326.248 259.107 326.92 259.107 328.36V334H261.387V328.48C261.387 326.536 261.003 325.384 260.283 324.472C259.323 323.248 257.835 322.48 256.179 322.48C254.547 322.48 253.395 323.224 252.795 323.8V322.72ZM273.467 334H275.675V316.96H273.395V323.704C272.387 322.864 271.163 322.48 269.939 322.48C268.883 322.48 267.947 322.744 267.179 323.2C265.475 324.208 264.275 326.104 264.275 328.36C264.275 330.616 265.451 332.488 267.155 333.496C267.923 333.952 268.979 334.24 269.987 334.24C271.331 334.24 272.555 333.784 273.467 332.968V334ZM273.395 330.472C272.627 331.504 271.451 332.08 270.299 332.08C268.115 332.08 266.555 330.376 266.555 328.36C266.555 326.392 267.995 324.64 270.179 324.64C271.547 324.64 272.699 325.336 273.395 326.248V330.472Z" fill="black"/>
<rect x="84" y="656" width="275" height="93" rx="40" fill="#7FA3FF"/>
<path d="M212.56 698.8V694.48H219.76V692.2H210.16V709H212.56V701.08H218.08V698.8H212.56ZM228.403 697.552C228.139 697.504 227.755 697.48 227.515 697.48C225.859 697.48 224.683 698.248 224.131 699.016V697.72H221.923V709H224.203V701.536C224.827 700.456 226.075 699.64 227.251 699.64C227.611 699.64 227.875 699.664 228.139 699.736L228.403 697.552ZM231.157 709H233.437V697.72H231.157V709ZM230.797 693.712C230.797 694.552 231.445 695.2 232.285 695.2C233.125 695.2 233.797 694.552 233.797 693.712C233.797 692.872 233.125 692.2 232.285 692.2C231.445 692.2 230.797 692.872 230.797 693.712ZM247.445 703.84C247.469 703.624 247.469 703.456 247.469 703.36C247.469 700.024 245.189 697.48 242.045 697.48C238.853 697.48 236.549 699.976 236.549 703.36C236.549 706.744 239.093 709.24 242.381 709.24C244.685 709.24 246.293 708.208 247.133 707.128L245.645 705.712C244.997 706.432 244.085 707.248 242.405 707.248C240.437 707.248 238.877 705.736 238.757 703.84H247.445ZM242.117 699.472C243.461 699.472 244.757 700.48 245.093 701.92H238.949C239.333 700.456 240.653 699.472 242.117 699.472ZM252.795 697.72H250.587V709H252.867V701.248C253.539 700.432 254.619 699.64 256.107 699.64C257.043 699.64 257.907 700.072 258.435 700.744C258.843 701.248 259.107 701.92 259.107 703.36V709H261.387V703.48C261.387 701.536 261.003 700.384 260.283 699.472C259.323 698.248 257.835 697.48 256.179 697.48C254.547 697.48 253.395 698.224 252.795 698.8V697.72ZM273.467 709H275.675V691.96H273.395V698.704C272.387 697.864 271.163 697.48 269.939 697.48C268.883 697.48 267.947 697.744 267.179 698.2C265.475 699.208 264.275 701.104 264.275 703.36C264.275 705.616 265.451 707.488 267.155 708.496C267.923 708.952 268.979 709.24 269.987 709.24C271.331 709.24 272.555 708.784 273.467 707.968V709ZM273.395 705.472C272.627 706.504 271.451 707.08 270.299 707.08C268.115 707.08 266.555 705.376 266.555 703.36C266.555 701.392 267.995 699.64 270.179 699.64C271.547 699.64 272.699 700.336 273.395 701.248V705.472Z" fill="black"/>
<path d="M212.56 574.8V570.48H219.76V568.2H210.16V585H212.56V577.08H218.08V574.8H212.56ZM228.403 573.552C228.139 573.504 227.755 573.48 227.515 573.48C225.859 573.48 224.683 574.248 224.131 575.016V573.72H221.923V585H224.203V577.536C224.827 576.456 226.075 575.64 227.251 575.64C227.611 575.64 227.875 575.664 228.139 575.736L228.403 573.552ZM231.157 585H233.437V573.72H231.157V585ZM230.797 569.712C230.797 570.552 231.445 571.2 232.285 571.2C233.125 571.2 233.797 570.552 233.797 569.712C233.797 568.872 233.125 568.2 232.285 568.2C231.445 568.2 230.797 568.872 230.797 569.712ZM247.445 579.84C247.469 579.624 247.469 579.456 247.469 579.36C247.469 576.024 245.189 573.48 242.045 573.48C238.853 573.48 236.549 575.976 236.549 579.36C236.549 582.744 239.093 585.24 242.381 585.24C244.685 585.24 246.293 584.208 247.133 583.128L245.645 581.712C244.997 582.432 244.085 583.248 242.405 583.248C240.437 583.248 238.877 581.736 238.757 579.84H247.445ZM242.117 575.472C243.461 575.472 244.757 576.48 245.093 577.92H238.949C239.333 576.456 240.653 575.472 242.117 575.472ZM252.795 573.72H250.587V585H252.867V577.248C253.539 576.432 254.619 575.64 256.107 575.64C257.043 575.64 257.907 576.072 258.435 576.744C258.843 577.248 259.107 577.92 259.107 579.36V585H261.387V579.48C261.387 577.536 261.003 576.384 260.283 575.472C259.323 574.248 257.835 573.48 256.179 573.48C254.547 573.48 253.395 574.224 252.795 574.8V573.72ZM273.467 585H275.675V567.96H273.395V574.704C272.387 573.864 271.163 573.48 269.939 573.48C268.883 573.48 267.947 573.744 267.179 574.2C265.475 575.208 264.275 577.104 264.275 579.36C264.275 581.616 265.451 583.488 267.155 584.496C267.923 584.952 268.979 585.24 269.987 585.24C271.331 585.24 272.555 584.784 273.467 583.968V585ZM273.395 581.472C272.627 582.504 271.451 583.08 270.299 583.08C268.115 583.08 266.555 581.376 266.555 579.36C266.555 577.392 267.995 575.64 270.179 575.64C271.547 575.64 272.699 576.336 273.395 577.248V581.472Z" fill="black"/>
<path d="M212.56 448.8V444.48H219.76V442.2H210.16V459H212.56V451.08H218.08V448.8H212.56ZM228.403 447.552C228.139 447.504 227.755 447.48 227.515 447.48C225.859 447.48 224.683 448.248 224.131 449.016V447.72H221.923V459H224.203V451.536C224.827 450.456 226.075 449.64 227.251 449.64C227.611 449.64 227.875 449.664 228.139 449.736L228.403 447.552ZM231.157 459H233.437V447.72H231.157V459ZM230.797 443.712C230.797 444.552 231.445 445.2 232.285 445.2C233.125 445.2 233.797 444.552 233.797 443.712C233.797 442.872 233.125 442.2 232.285 442.2C231.445 442.2 230.797 442.872 230.797 443.712ZM247.445 453.84C247.469 453.624 247.469 453.456 247.469 453.36C247.469 450.024 245.189 447.48 242.045 447.48C238.853 447.48 236.549 449.976 236.549 453.36C236.549 456.744 239.093 459.24 242.381 459.24C244.685 459.24 246.293 458.208 247.133 457.128L245.645 455.712C244.997 456.432 244.085 457.248 242.405 457.248C240.437 457.248 238.877 455.736 238.757 453.84H247.445ZM242.117 449.472C243.461 449.472 244.757 450.48 245.093 451.92H238.949C239.333 450.456 240.653 449.472 242.117 449.472ZM252.795 447.72H250.587V459H252.867V451.248C253.539 450.432 254.619 449.64 256.107 449.64C257.043 449.64 257.907 450.072 258.435 450.744C258.843 451.248 259.107 451.92 259.107 453.36V459H261.387V453.48C261.387 451.536 261.003 450.384 260.283 449.472C259.323 448.248 257.835 447.48 256.179 447.48C254.547 447.48 253.395 448.224 252.795 448.8V447.72ZM273.467 459H275.675V441.96H273.395V448.704C272.387 447.864 271.163 447.48 269.939 447.48C268.883 447.48 267.947 447.744 267.179 448.2C265.475 449.208 264.275 451.104 264.275 453.36C264.275 455.616 265.451 457.488 267.155 458.496C267.923 458.952 268.979 459.24 269.987 459.24C271.331 459.24 272.555 458.784 273.467 457.968V459ZM273.395 455.472C272.627 456.504 271.451 457.08 270.299 457.08C268.115 457.08 266.555 455.376 266.555 453.36C266.555 451.392 267.995 449.64 270.179 449.64C271.547 449.64 272.699 450.336 273.395 451.248V455.472Z" fill="black"/>
<circle cx="145" cy="702" r="27.5" stroke="white" stroke-width="3"/>
<circle cx="137.17" cy="697.65" r="2.03" fill="white"/>
<circle cx="152.83" cy="697.65" r="2.03" fill="white"/>
<path d="M139.78 708.96C141.444 711.148 145.862 714.212 150.22 708.96" stroke="white" stroke-width="2" stroke-linecap="round"/>
<circle cx="145" cy="577" r="27.5" stroke="white" stroke-width="3"/>
<circle cx="137.17" cy="572.65" r="2.03" fill="white"/>
<circle cx="152.83" cy="572.65" r="2.03" fill="white"/>
<path d="M139.78 583.96C141.444 586.148 145.862 589.212 150.22 583.96" stroke="white" stroke-width="2" stroke-linecap="round"/>
<circle cx="145" cy="325" r="27.5" stroke="white" stroke-width="3"/>
<circle cx="137.17" cy="320.65" r="2.03" fill="white"/>
<circle cx="152.83" cy="320.65" r="2.03" fill="white"/>
<path d="M139.78 331.96C141.444 334.148 145.862 337.212 150.22 331.96" stroke="white" stroke-width="2" stroke-linecap="round"/>
<circle cx="145" cy="451" r="27.5" stroke="#957FFF" stroke-width="3"/>
<circle cx="137.17" cy="446.65" r="2.03" fill="#957FFF"/>
<circle cx="152.83" cy="446.65" r="2.03" fill="#957FFF"/>
<path d="M139.78 457.96C141.444 460.148 145.862 463.212 150.22 457.96" stroke="#957FFF" stroke-width="2" stroke-linecap="round"/>
<defs>
<filter id="filter0_d" x="50" y="142" width="343" height="683" filterUnits="userSpaceOnUse" color-interpolation-filters="sRGB">
<feFlood flood-opacity="0" result="BackgroundImageFix"/>
<feColorMatrix in="SourceAlpha" type="matrix" values="0 0 0 0 0 0 0 0 0 0 0 0 0 0 0 0 0 0 127 0"/>
<feOffset dy="4"/>
<feGaussianBlur stdDeviation="2"/>
<feColorMatrix type="matrix" values="0 0 0 0 0 0 0 0 0 0 0 0 0 0 0 0 0 0 0.25 0"/>
<feBlend mode="normal" in2="BackgroundImageFix" result="effect1_dropShadow"/>
<feBlend mode="normal" in="SourceGraphic" in2="effect1_dropShadow" result="shape"/>
</filter>
<filter id="filter1_d" x="422" y="142" width="943" height="683" filterUnits="userSpaceOnUse" color-interpolation-filters="sRGB">
<feFlood flood-opacity="0" result="BackgroundImageFix"/>
<feColorMatrix in="SourceAlpha" type="matrix" values="0 0 0 0 0 0 0 0 0 0 0 0 0 0 0 0 0 0 127 0"/>
<feOffset dy="4"/>
<feGaussianBlur stdDeviation="2"/>
<feColorMatrix type="matrix" values="0 0 0 0 0 0 0 0 0 0 0 0 0 0 0 0 0 0 0.25 0"/>
<feBlend mode="normal" in2="BackgroundImageFix" result="effect1_dropShadow"/>
<feBlend mode="normal" in="SourceGraphic" in2="effect1_dropShadow" result="shape"/>
</filter>
<filter id="filter2_d" x="1187" y="702" width="108" height="65" filterUnits="userSpaceOnUse" color-interpolation-filters="sRGB">
<feFlood flood-opacity="0" result="BackgroundImageFix"/>
<feColorMatrix in="SourceAlpha" type="matrix" values="0 0 0 0 0 0 0 0 0 0 0 0 0 0 0 0 0 0 127 0"/>
<feOffset dy="4"/>
<feGaussianBlur stdDeviation="2"/>
<feColorMatrix type="matrix" values="0 0 0 0 0 0 0 0 0 0 0 0 0 0 0 0 0 0 0.25 0"/>
<feBlend mode="normal" in2="BackgroundImageFix" result="effect1_dropShadow"/>
<feBlend mode="normal" in="SourceGraphic" in2="effect1_dropShadow" result="shape"/>
</filter>
</defs>
</svg>
