<svg width="90" height="118" viewBox="0 0 90 118" fill="none" xmlns="http://www.w3.org/2000/svg">
<path d="M43.1827 39.9207H42.1875C40.5385 39.9207 39.2018 41.3244 39.2018 43.056L37.8301 111.697C37.8301 113.429 40.5385 117.52 42.1875 117.52H44.6723C46.3213 117.52 47.5336 110.163 47.5336 108.431L46.1684 43.056C46.1684 41.3244 44.8317 39.9207 43.1827 39.9207Z" fill="#98FFA8"/>
<path d="M44.5042 39H43.9914C43.1417 39 42.4529 40.411 42.4529 42.1515L41.7461 111.147C41.7461 112.888 43.1417 117 43.9914 117H45.2717C46.1214 117 46.7461 109.605 46.7461 107.865L46.0426 42.1515C46.0426 40.411 45.3538 39 44.5042 39Z" fill="#40FF5E"/>
<path d="M61.9343 26.8167C68.051 18.2864 70.5178 9.40102 67.4441 6.97064C64.3705 4.54027 56.9203 9.48522 50.8037 18.0155C44.687 26.5458 42.2202 35.4311 45.2939 37.8615C48.3675 40.2919 55.8177 35.3469 61.9343 26.8167Z" fill="#F9EC43"/>
<path d="M68.161 39.1382C77.6043 35.1777 84.1027 28.9253 82.6756 25.1732C81.2486 21.421 72.4364 21.5898 62.9931 25.5503C53.5498 29.5108 47.0514 35.7632 48.4784 39.5154C49.9055 43.2675 58.7177 43.0987 68.161 39.1382Z" fill="#F9EC43"/>
<path d="M88.2437 48.5264C88.8555 44.5385 81.2153 39.9294 71.1789 38.2316C61.1425 36.5337 52.5105 38.3902 51.8987 42.378C51.2869 46.3658 58.9271 50.975 68.9635 52.6728C78.9999 54.3706 87.6319 52.5142 88.2437 48.5264Z" fill="#F9EC43"/>
<path d="M79.3255 70.0503C81.6295 66.8144 76.8953 59.0077 68.7514 52.6135C60.6075 46.2193 52.1378 43.6589 49.8338 46.8948C47.5299 50.1307 52.264 57.9374 60.4079 64.3316C68.5518 70.7258 77.0215 73.2862 79.3255 70.0503Z" fill="#F9EC43"/>
<path d="M59.6771 84.9595C63.2324 83.4148 62.9632 74.1639 59.0758 64.2969C55.1884 54.4299 49.1549 47.6833 45.5996 49.2279C42.0443 50.7725 42.3135 60.0234 46.2009 69.8904C50.0883 79.7575 56.1218 86.5041 59.6771 84.9595Z" fill="#F9EC43"/>
<path d="M44.5723 68.0866C46.3151 57.5665 44.6551 48.4769 40.8644 47.7844C37.0738 47.0919 32.588 55.0588 30.8452 65.5789C29.1023 76.099 30.7624 85.1886 34.553 85.8811C38.3436 86.5736 42.8294 78.6067 44.5723 68.0866Z" fill="#FFF574"/>
<path d="M29.7855 64.5934C36.9758 57.0429 40.5992 48.6059 37.8785 45.7489C35.1579 42.892 27.1235 46.6969 19.9332 54.2474C12.7429 61.798 9.11958 70.235 11.8402 73.0919C14.5609 75.9489 22.5953 72.144 29.7855 64.5934Z" fill="#FFF574"/>
<path d="M20.3149 54.1547C30.3972 52.7666 38.165 48.3938 37.6649 44.3877C37.1648 40.3817 28.586 38.2593 18.5037 39.6474C8.42137 41.0354 0.653494 45.4082 1.15364 49.4143C1.65378 53.4204 10.2326 55.5427 20.3149 54.1547Z" fill="#FFF574"/>
<path d="M37.5247 41.8397C39.0653 38.1374 32.7605 31.6701 23.4426 27.3946C14.1247 23.1191 5.32217 22.6545 3.78161 26.3568C2.24105 30.0592 8.54584 36.5265 17.8637 40.802C27.1816 45.0775 35.9841 45.5421 37.5247 41.8397Z" fill="#FFF574"/>
<path d="M41.8259 40.2044C44.7048 37.5239 41.5699 28.8739 34.8239 20.884C28.0779 12.8941 20.2753 8.58995 17.3964 11.2704C14.5174 13.9508 17.6523 22.6009 24.3983 30.5908C31.1443 38.5807 38.9469 42.8848 41.8259 40.2044Z" fill="#FFF574"/>
<path d="M43.7909 39.5851C47.6384 39.5851 50.7575 30.9288 50.7575 20.2507C50.7575 9.57258 47.6384 0.91626 43.7909 0.91626C39.9433 0.91626 36.8242 9.57258 36.8242 20.2507C36.8242 30.9288 39.9433 39.5851 43.7909 39.5851Z" fill="#FFF574"/>
<path d="M44.1755 56.0456C50.2217 56.0456 53.6335 50.4505 53.6335 44.1014C53.6335 37.7522 51.2169 32.6614 45.1707 32.6614C39.1245 32.6614 31.7383 37.7522 31.7383 44.1014C31.7383 50.4505 38.1293 56.0456 44.1755 56.0456Z" fill="#FFBFE8"/>
<path d="M43.7466 56C49.2461 56.5 54.0046 50.7891 54.0046 44.44C54.0046 38.0908 51.7461 33 45.2461 32.5C37.7461 32.5 49.6166 38.0908 49.6166 44.44C49.6166 50.7891 37.7004 56 43.7466 56Z" fill="#FFA4DE"/>
</svg>
