<svg width="120" height="124" viewBox="0 0 120 124" fill="none" xmlns="http://www.w3.org/2000/svg">
<path d="M56.7376 93.316C73.4924 93.316 89.8042 78.5018 89.8042 60.9075C89.8042 43.3131 73.4924 29.05 56.7376 29.05C39.9828 29.05 26.4004 43.3131 26.4004 60.9075C26.4004 78.5018 39.9828 93.316 56.7376 93.316Z" fill="#FFF574"/>
<path d="M59.0835 93.266C75.8383 93.266 92.1501 78.4518 92.1501 60.8574C92.1501 43.2631 75.8383 29 59.0835 29C42.3287 29 73.7461 43.2631 73.7461 60.8574C73.7461 78.4518 42.3287 93.266 59.0835 93.266Z" fill="#F9EC43"/>
<path d="M60.0961 66.0885C61.1976 66.0885 62.0905 62.1402 62.0905 57.2698C62.0905 52.3994 61.1976 48.4512 60.0961 48.4512C58.9945 48.4512 58.1016 52.3994 58.1016 57.2698C58.1016 62.1402 58.9945 66.0885 60.0961 66.0885Z" fill="#FF9F66"/>
<path d="M48.5482 55.0651C49.5338 55.0651 50.3328 54.2261 50.3328 53.1911C50.3328 52.1561 49.5338 51.3171 48.5482 51.3171C47.5626 51.3171 46.7637 52.1561 46.7637 53.1911C46.7637 54.2261 47.5626 55.0651 48.5482 55.0651Z" fill="#FF9F66"/>
<path d="M49.4922 71.1592C49.4922 71.1592 58.7298 80.1983 69.2271 71.1592" stroke="#FF9F66" stroke-width="5" stroke-miterlimit="10"/>
<path d="M70.472 55.0436C71.4576 55.0436 72.2566 54.2046 72.2566 53.1696C72.2566 52.1347 71.4576 51.2957 70.472 51.2957C69.4865 51.2957 68.6875 52.1347 68.6875 53.1696C68.6875 54.2046 69.4865 55.0436 70.472 55.0436Z" fill="#FF9F66"/>
<path d="M33.5378 121.756C34.868 122.361 38.3179 115.608 40.3446 110.691C42.3712 105.774 42.9358 101.298 41.6057 100.694C40.2755 100.089 37.5544 103.585 35.5278 108.501C33.5012 113.418 32.2077 121.151 33.5378 121.756Z" fill="#FFF574"/>
<path d="M10.8323 98.3064C11.8171 99.4232 16.742 98.3064 19.3935 93.7377C22.0449 89.169 25.3732 86.2416 24.3885 85.1249C23.4038 84.0081 19.5708 86.0536 15.8274 89.6936C12.084 93.3335 9.8476 97.1896 10.8323 98.3064Z" fill="#FFF574"/>
<path d="M24.2334 34.642C25.2258 33.5328 22.4523 29.7419 18.734 26.0736C14.745 19.3494 10.3838 20.555 9.39139 21.6643C8.39898 22.7736 11.0268 26.9249 14.745 30.5932C18.4633 34.2615 23.241 35.7513 24.2334 34.642Z" fill="#FFF574"/>
<path d="M71.5508 20.1629C72.8332 20.872 75.7997 17.6039 78.1766 12.8634C80.5535 8.12286 81.4407 3.7051 80.1582 2.99601C78.8758 2.28693 74.9647 4.57769 72.5878 9.31819C70.2109 14.0587 70.2683 19.4538 71.5508 20.1629Z" fill="#F9EC43"/>
<path d="M43.74 21.9583C45.1673 21.6938 45.6056 17.2024 44.7189 11.9265C43.8322 6.65055 43.1511 0.896486 41.7238 1.161C40.2965 1.42552 38.6635 7.60844 39.5501 12.8844C40.4368 18.1603 42.3126 22.2228 43.74 21.9583Z" fill="#FFF574"/>
<path d="M0.632297 59.997C0.663124 61.5187 4.82301 62.6599 9.92367 62.5459C15.0243 62.432 19.1342 61.1061 19.1034 59.5844C19.0726 58.0627 14.9127 56.9216 9.81203 57.0355C4.71138 57.1495 -1.83815 55.2859 0.632297 59.997Z" fill="#FFF574"/>
<path d="M119.616 57.4899C119.653 55.9684 111.41 56.1096 106.31 55.9732C101.21 55.8368 97.0451 56.9596 97.0082 58.4811C96.9713 60.0027 101.076 61.3467 106.176 61.4831C111.276 61.6195 119.579 59.0115 119.616 57.4899Z" fill="#F9EC43"/>
<path d="M109.119 23.0972C108.326 21.8235 101.804 24.8133 97.5346 27.7461C93.2651 30.6789 90.4472 34.0889 91.2406 35.3626C92.034 36.6363 95.822 37.2738 100.091 34.341C104.361 31.4083 109.913 24.3709 109.119 23.0972Z" fill="#F9EC43"/>
<path d="M71.0724 122.417C72.4963 122.134 72.0236 115.593 71.0724 110.329C70.1211 105.066 68.1956 101.029 66.7717 101.313C65.3477 101.596 64.9645 106.093 65.9158 111.357C66.867 116.62 69.6484 122.701 71.0724 122.417Z" fill="#F9EC43"/>
<path d="M102.569 101.909C103.7 100.957 102.03 96.7971 98.8383 92.6171C95.6471 88.4371 92.1432 87.8117 91.0124 88.7638C89.8816 89.7158 91.5518 93.8761 94.7431 98.0561C97.9343 102.236 101.438 102.861 102.569 101.909Z" fill="#F9EC43"/>
</svg>
