<svg width="1440" height="1545" viewBox="0 0 1440 1545" fill="none" xmlns="http://www.w3.org/2000/svg">
<g clip-path="url(#clip0)">
<rect width="1440" height="1545" fill="white"/>
<rect width="1440" height="2598" fill="#FFC9E3"/>
<rect x="464" y="992" width="918" height="345" rx="40" fill="white"/>
<rect x="66" y="190" width="350" height="750" rx="40" fill="white"/>
<rect x="81.5" y="222.5" width="319" height="699" rx="39.5" fill="#CCFFFF" stroke="white"/>
<rect x="481" y="1011" width="885" height="306" rx="40" fill="#CCFFFF"/>
<rect x="81" y="207" width="320" height="133" rx="40" fill="#FFC9E3"/>
<path d="M207.65 247.825V240.825H213.25C214.93 240.825 215.84 241.245 216.47 241.91C217.065 242.54 217.45 243.38 217.45 244.325C217.45 245.27 217.065 246.11 216.47 246.74C215.84 247.405 214.93 247.825 213.25 247.825H207.65ZM213.425 251.15C215.805 251.15 217.345 250.555 218.535 249.54C220.005 248.28 220.95 246.425 220.95 244.325C220.95 242.225 220.005 240.37 218.535 239.11C217.345 238.095 215.805 237.5 213.425 237.5H204.15V262H207.65V251.15H213.425ZM235.223 262H238.443V245.55H235.223V247.055C233.718 245.76 231.933 245.2 230.078 245.2C228.538 245.2 227.173 245.585 226.053 246.25C223.568 247.72 221.818 250.485 221.818 253.775C221.818 257.065 223.533 259.795 226.018 261.265C227.138 261.93 228.678 262.35 230.148 262.35C232.108 262.35 233.893 261.685 235.223 260.495V262ZM235.118 256.855C233.998 258.36 232.283 259.2 230.603 259.2C227.418 259.2 225.143 256.715 225.143 253.775C225.143 250.905 227.243 248.35 230.428 248.35C232.423 248.35 234.103 249.365 235.118 250.695V256.855ZM244.41 262H247.735V237.15H244.41V262ZM252.097 260.075C253.917 261.545 256.122 262.35 258.747 262.35C261.967 262.35 264.872 260.425 264.872 257.31C264.872 253.915 261.477 252.76 258.887 252.095C257.242 251.675 255.947 251.29 255.947 250.17C255.947 248.875 257.312 248.105 258.922 248.105C260.252 248.105 261.442 248.63 262.457 249.4L264.172 247.02C262.877 245.97 261.127 245.2 258.712 245.2C255.772 245.2 252.622 246.81 252.622 250.345C252.622 252.655 254.407 253.915 256.402 254.58C258.817 255.385 261.547 255.49 261.547 257.38C261.547 258.675 260.112 259.445 258.677 259.445C257.032 259.445 255.352 258.815 253.812 257.625L252.097 260.075Z" fill="black"/>
<rect x="81" y="281" width="320" height="59" fill="#CCFFFF"/>
<rect x="110" y="320" width="263" height="89" rx="40" fill="#C9DDFF"/>
<rect x="110" y="437" width="263" height="89" rx="40" fill="#FFF574"/>
<rect x="110" y="558" width="263" height="88" rx="40" fill="#98FFA8"/>
<rect x="110" y="678" width="263" height="89" rx="40" fill="#7FA3FF"/>
<path d="M198.012 722.181C198.012 736.582 186.276 748.27 171.783 748.27C157.291 748.27 145.555 736.582 145.555 722.181C145.555 707.78 157.291 696.093 171.783 696.093C186.276 696.093 198.012 707.78 198.012 722.181Z" stroke="white" stroke-width="3"/>
<ellipse cx="164.296" cy="718.043" rx="1.94101" ry="1.93119" fill="white"/>
<ellipse cx="179.271" cy="718.043" rx="1.94101" ry="1.93119" fill="white"/>
<path d="M166.793 728.802C168.384 730.884 172.609 733.799 176.775 728.802" stroke="white" stroke-width="2" stroke-linecap="round"/>
<path d="M198.012 602.309C198.012 616.71 186.276 628.398 171.783 628.398C157.291 628.398 145.555 616.71 145.555 602.309C145.555 587.908 157.291 576.221 171.783 576.221C186.276 576.221 198.012 587.908 198.012 602.309Z" stroke="white" stroke-width="3"/>
<ellipse cx="164.296" cy="598.171" rx="1.94101" ry="1.93119" fill="white"/>
<ellipse cx="179.271" cy="598.171" rx="1.94101" ry="1.93119" fill="white"/>
<path d="M166.793 608.931C168.384 611.012 172.609 613.927 176.775 608.931" stroke="white" stroke-width="2" stroke-linecap="round"/>
<path d="M198.012 364.487C198.012 378.888 186.276 390.576 171.783 390.576C157.291 390.576 145.555 378.888 145.555 364.487C145.555 350.086 157.291 338.399 171.783 338.399C186.276 338.399 198.012 350.086 198.012 364.487Z" stroke="white" stroke-width="3"/>
<ellipse cx="164.296" cy="360.349" rx="1.94101" ry="1.93119" fill="white"/>
<ellipse cx="179.271" cy="360.349" rx="1.94101" ry="1.93119" fill="white"/>
<path d="M166.793 371.109C168.384 373.191 172.609 376.105 176.775 371.109" stroke="white" stroke-width="2" stroke-linecap="round"/>
<path d="M198.012 482.442C198.012 496.843 186.276 508.531 171.783 508.531C157.291 508.531 145.555 496.843 145.555 482.442C145.555 468.041 157.291 456.354 171.783 456.354C186.276 456.354 198.012 468.041 198.012 482.442Z" stroke="#957FFF" stroke-width="3"/>
<ellipse cx="164.296" cy="478.304" rx="1.94101" ry="1.93119" fill="#957FFF"/>
<ellipse cx="179.271" cy="478.304" rx="1.94101" ry="1.93119" fill="#957FFF"/>
<path d="M166.793 489.063C168.384 491.145 172.609 494.06 176.775 489.063" stroke="#957FFF" stroke-width="2" stroke-linecap="round"/>
<rect x="481" y="1011" width="885" height="129" rx="40" fill="#FFC9E3"/>
<rect x="481" y="1085" width="885" height="104" fill="#CCFFFF"/>
<path d="M580.64 1059H582.32V1042.2H579.92V1054.54L569.84 1042.2H568.16V1059H570.56V1046.66L580.64 1059ZM596.445 1053.84C596.469 1053.62 596.469 1053.46 596.469 1053.36C596.469 1050.02 594.189 1047.48 591.045 1047.48C587.853 1047.48 585.549 1049.98 585.549 1053.36C585.549 1056.74 588.093 1059.24 591.381 1059.24C593.685 1059.24 595.293 1058.21 596.133 1057.13L594.645 1055.71C593.997 1056.43 593.085 1057.25 591.405 1057.25C589.437 1057.25 587.877 1055.74 587.757 1053.84H596.445ZM591.117 1049.47C592.461 1049.47 593.757 1050.48 594.093 1051.92H587.949C588.333 1050.46 589.653 1049.47 591.117 1049.47ZM609.523 1053.84C609.547 1053.62 609.547 1053.46 609.547 1053.36C609.547 1050.02 607.267 1047.48 604.123 1047.48C600.931 1047.48 598.627 1049.98 598.627 1053.36C598.627 1056.74 601.171 1059.24 604.459 1059.24C606.763 1059.24 608.371 1058.21 609.211 1057.13L607.723 1055.71C607.075 1056.43 606.163 1057.25 604.483 1057.25C602.515 1057.25 600.955 1055.74 600.835 1053.84H609.523ZM604.195 1049.47C605.539 1049.47 606.835 1050.48 607.171 1051.92H601.027C601.411 1050.46 602.731 1049.47 604.195 1049.47ZM620.897 1059H623.105V1041.96H620.825V1048.7C619.817 1047.86 618.593 1047.48 617.369 1047.48C616.313 1047.48 615.377 1047.74 614.609 1048.2C612.905 1049.21 611.705 1051.1 611.705 1053.36C611.705 1055.62 612.881 1057.49 614.585 1058.5C615.353 1058.95 616.409 1059.24 617.417 1059.24C618.761 1059.24 619.985 1058.78 620.897 1057.97V1059ZM620.825 1055.47C620.057 1056.5 618.881 1057.08 617.729 1057.08C615.545 1057.08 613.985 1055.38 613.985 1053.36C613.985 1051.39 615.425 1049.64 617.609 1049.64C618.977 1049.64 620.129 1050.34 620.825 1051.25V1055.47ZM635.945 1041.96H633.665V1059H635.945V1051.25C636.617 1050.43 637.697 1049.64 639.185 1049.64C640.121 1049.64 640.985 1050.07 641.513 1050.74C641.921 1051.25 642.185 1051.92 642.185 1053.36V1059H644.465V1053.48C644.465 1051.54 644.081 1050.38 643.361 1049.47C642.401 1048.25 640.913 1047.48 639.257 1047.48C637.697 1047.48 636.569 1048.18 635.945 1048.7V1041.96ZM658.249 1053.84C658.273 1053.62 658.273 1053.46 658.273 1053.36C658.273 1050.02 655.993 1047.48 652.849 1047.48C649.657 1047.48 647.353 1049.98 647.353 1053.36C647.353 1056.74 649.897 1059.24 653.185 1059.24C655.489 1059.24 657.097 1058.21 657.937 1057.13L656.449 1055.71C655.801 1056.43 654.889 1057.25 653.209 1057.25C651.241 1057.25 649.681 1055.74 649.561 1053.84H658.249ZM652.921 1049.47C654.265 1049.47 655.561 1050.48 655.897 1051.92H649.753C650.137 1050.46 651.457 1049.47 652.921 1049.47ZM661.392 1059H663.672V1041.96H661.392V1059ZM670.023 1058.02C670.935 1058.81 672.087 1059.24 673.431 1059.24C674.439 1059.24 675.495 1058.95 676.263 1058.5C677.967 1057.49 679.143 1055.62 679.143 1053.36C679.143 1051.1 677.943 1049.21 676.239 1048.2C675.471 1047.74 674.535 1047.48 673.479 1047.48C672.207 1047.48 670.983 1047.86 669.951 1048.75V1047.72H667.743V1064.76H670.023V1058.02ZM670.023 1051.25C670.719 1050.34 671.871 1049.64 673.239 1049.64C675.423 1049.64 676.863 1051.39 676.863 1053.36C676.863 1055.38 675.303 1057.08 673.119 1057.08C671.967 1057.08 670.791 1056.5 670.023 1055.47V1051.25ZM696.903 1058.02V1058.64C696.903 1060.06 696.687 1060.92 696.279 1061.54C695.727 1062.38 694.767 1062.84 693.543 1062.84C691.695 1062.84 690.639 1061.9 689.823 1060.82L688.143 1062.38C688.863 1063.51 690.711 1065 693.639 1065C695.871 1065 697.599 1063.97 698.511 1062.22C698.967 1061.33 699.183 1060.2 699.183 1058.52V1047.72H696.975V1048.75C695.943 1047.86 694.719 1047.48 693.447 1047.48C692.391 1047.48 691.455 1047.74 690.687 1048.2C688.983 1049.21 687.783 1051.1 687.783 1053.36C687.783 1055.62 688.959 1057.49 690.663 1058.5C691.431 1058.95 692.487 1059.24 693.495 1059.24C694.839 1059.24 695.991 1058.81 696.903 1058.02ZM696.903 1055.47C696.135 1056.5 694.959 1057.08 693.807 1057.08C691.623 1057.08 690.063 1055.38 690.063 1053.36C690.063 1051.39 691.503 1049.64 693.687 1049.64C695.055 1049.64 696.207 1050.34 696.903 1051.25V1055.47ZM713.21 1053.84C713.234 1053.62 713.234 1053.46 713.234 1053.36C713.234 1050.02 710.954 1047.48 707.81 1047.48C704.618 1047.48 702.314 1049.98 702.314 1053.36C702.314 1056.74 704.858 1059.24 708.146 1059.24C710.45 1059.24 712.058 1058.21 712.898 1057.13L711.41 1055.71C710.762 1056.43 709.85 1057.25 708.17 1057.25C706.202 1057.25 704.642 1055.74 704.522 1053.84H713.21ZM707.882 1049.47C709.226 1049.47 710.522 1050.48 710.858 1051.92H704.714C705.098 1050.46 706.418 1049.47 707.882 1049.47ZM722.857 1056.94C722.521 1057.03 721.945 1057.08 721.609 1057.08C721.009 1057.08 720.361 1056.86 720.049 1056.48C719.761 1056.14 719.713 1055.64 719.713 1055.04V1049.76H723.313V1047.72H719.713V1044.6H717.433V1047.72H714.553V1049.76H717.433V1054.92C717.433 1056.14 717.673 1057.18 718.345 1057.92C719.065 1058.74 720.121 1059.24 721.537 1059.24C722.185 1059.24 722.881 1059.14 723.313 1059L722.857 1056.94ZM733.169 1056.94C732.833 1057.03 732.257 1057.08 731.921 1057.08C731.321 1057.08 730.673 1056.86 730.361 1056.48C730.073 1056.14 730.025 1055.64 730.025 1055.04V1049.76H733.625V1047.72H730.025V1044.6H727.745V1047.72H724.865V1049.76H727.745V1054.92C727.745 1056.14 727.985 1057.18 728.657 1057.92C729.377 1058.74 730.433 1059.24 731.849 1059.24C732.497 1059.24 733.193 1059.14 733.625 1059L733.169 1056.94ZM736.743 1059H739.023V1047.72H736.743V1059ZM736.383 1043.71C736.383 1044.55 737.031 1045.2 737.871 1045.2C738.711 1045.2 739.383 1044.55 739.383 1043.71C739.383 1042.87 738.711 1042.2 737.871 1042.2C737.031 1042.2 736.383 1042.87 736.383 1043.71ZM745.303 1047.72H743.095V1059H745.375V1051.25C746.047 1050.43 747.127 1049.64 748.615 1049.64C749.551 1049.64 750.415 1050.07 750.943 1050.74C751.351 1051.25 751.615 1051.92 751.615 1053.36V1059H753.895V1053.48C753.895 1051.54 753.511 1050.38 752.791 1049.47C751.831 1048.25 750.343 1047.48 748.687 1047.48C747.055 1047.48 745.903 1048.22 745.303 1048.8V1047.72ZM765.903 1058.02V1058.64C765.903 1060.06 765.687 1060.92 765.279 1061.54C764.727 1062.38 763.767 1062.84 762.543 1062.84C760.695 1062.84 759.639 1061.9 758.823 1060.82L757.143 1062.38C757.863 1063.51 759.711 1065 762.639 1065C764.871 1065 766.599 1063.97 767.511 1062.22C767.967 1061.33 768.183 1060.2 768.183 1058.52V1047.72H765.975V1048.75C764.943 1047.86 763.719 1047.48 762.447 1047.48C761.391 1047.48 760.455 1047.74 759.687 1048.2C757.983 1049.21 756.783 1051.1 756.783 1053.36C756.783 1055.62 757.959 1057.49 759.663 1058.5C760.431 1058.95 761.487 1059.24 762.495 1059.24C763.839 1059.24 764.991 1058.81 765.903 1058.02ZM765.903 1055.47C765.135 1056.5 763.959 1057.08 762.807 1057.08C760.623 1057.08 759.063 1055.38 759.063 1053.36C759.063 1051.39 760.503 1049.64 762.687 1049.64C764.055 1049.64 765.207 1050.34 765.903 1051.25V1055.47ZM777.663 1057.68C778.911 1058.69 780.423 1059.24 782.223 1059.24C784.431 1059.24 786.423 1057.92 786.423 1055.78C786.423 1053.46 784.095 1052.66 782.319 1052.21C781.191 1051.92 780.303 1051.66 780.303 1050.89C780.303 1050 781.239 1049.47 782.343 1049.47C783.255 1049.47 784.071 1049.83 784.767 1050.36L785.943 1048.73C785.055 1048.01 783.855 1047.48 782.199 1047.48C780.183 1047.48 778.023 1048.58 778.023 1051.01C778.023 1052.59 779.247 1053.46 780.615 1053.91C782.271 1054.46 784.143 1054.54 784.143 1055.83C784.143 1056.72 783.159 1057.25 782.175 1057.25C781.047 1057.25 779.895 1056.82 778.839 1056L777.663 1057.68ZM796.052 1056.94C795.716 1057.03 795.14 1057.08 794.804 1057.08C794.204 1057.08 793.556 1056.86 793.244 1056.48C792.956 1056.14 792.908 1055.64 792.908 1055.04V1049.76H796.508V1047.72H792.908V1044.6H790.628V1047.72H787.748V1049.76H790.628V1054.92C790.628 1056.14 790.868 1057.18 791.54 1057.92C792.26 1058.74 793.316 1059.24 794.732 1059.24C795.38 1059.24 796.076 1059.14 796.508 1059L796.052 1056.94ZM807.506 1059H809.714V1047.72H807.506V1048.75C806.474 1047.86 805.25 1047.48 803.978 1047.48C802.922 1047.48 801.986 1047.74 801.218 1048.2C799.514 1049.21 798.314 1051.1 798.314 1053.36C798.314 1055.62 799.49 1057.49 801.194 1058.5C801.962 1058.95 803.018 1059.24 804.026 1059.24C805.37 1059.24 806.594 1058.78 807.506 1057.97V1059ZM807.434 1055.47C806.666 1056.5 805.49 1057.08 804.338 1057.08C802.154 1057.08 800.594 1055.38 800.594 1053.36C800.594 1051.39 802.034 1049.64 804.218 1049.64C805.586 1049.64 806.738 1050.34 807.434 1051.25V1055.47ZM820.286 1047.55C820.022 1047.5 819.638 1047.48 819.398 1047.48C817.742 1047.48 816.566 1048.25 816.014 1049.02V1047.72H813.806V1059H816.086V1051.54C816.71 1050.46 817.958 1049.64 819.134 1049.64C819.494 1049.64 819.758 1049.66 820.022 1049.74L820.286 1047.55ZM830.271 1056.94C829.935 1057.03 829.359 1057.08 829.023 1057.08C828.423 1057.08 827.775 1056.86 827.463 1056.48C827.175 1056.14 827.127 1055.64 827.127 1055.04V1049.76H830.727V1047.72H827.127V1044.6H824.847V1047.72H821.967V1049.76H824.847V1054.92C824.847 1056.14 825.087 1057.18 825.759 1057.92C826.479 1058.74 827.535 1059.24 828.951 1059.24C829.599 1059.24 830.295 1059.14 830.727 1059L830.271 1056.94ZM843.429 1053.84C843.453 1053.62 843.453 1053.46 843.453 1053.36C843.453 1050.02 841.173 1047.48 838.029 1047.48C834.837 1047.48 832.533 1049.98 832.533 1053.36C832.533 1056.74 835.077 1059.24 838.365 1059.24C840.669 1059.24 842.277 1058.21 843.117 1057.13L841.629 1055.71C840.981 1056.43 840.069 1057.25 838.389 1057.25C836.421 1057.25 834.861 1055.74 834.741 1053.84H843.429ZM838.101 1049.47C839.445 1049.47 840.741 1050.48 841.077 1051.92H834.933C835.317 1050.46 836.637 1049.47 838.101 1049.47ZM854.803 1059H857.011V1041.96H854.731V1048.7C853.723 1047.86 852.499 1047.48 851.275 1047.48C850.219 1047.48 849.283 1047.74 848.515 1048.2C846.811 1049.21 845.611 1051.1 845.611 1053.36C845.611 1055.62 846.787 1057.49 848.491 1058.5C849.259 1058.95 850.315 1059.24 851.323 1059.24C852.667 1059.24 853.891 1058.78 854.803 1057.97V1059ZM854.731 1055.47C853.963 1056.5 852.787 1057.08 851.635 1057.08C849.451 1057.08 847.891 1055.38 847.891 1053.36C847.891 1051.39 849.331 1049.64 851.515 1049.64C852.883 1049.64 854.035 1050.34 854.731 1051.25V1055.47ZM862.783 1045.94C863.023 1044.94 864.127 1044.12 865.398 1044.12C866.839 1044.12 867.823 1045.1 867.823 1046.33C867.823 1048.92 863.647 1049.4 863.647 1052.38C863.647 1053.26 864.055 1054.2 865.039 1054.94L866.551 1053.36C866.143 1053 865.927 1052.66 865.927 1052.35C865.927 1051.1 870.103 1050.02 870.103 1046.33C870.103 1043.93 868.111 1041.96 865.398 1041.96C863.071 1041.96 861.103 1043.38 860.623 1045.32L862.783 1045.94ZM863.623 1057.56C863.623 1058.5 864.367 1059.24 865.303 1059.24C866.239 1059.24 866.983 1058.5 866.983 1057.56C866.983 1056.62 866.239 1055.88 865.303 1055.88C864.367 1055.88 863.623 1056.62 863.623 1057.56Z" fill="black"/>
<rect x="527" y="1124" width="182" height="59" rx="15" fill="#BF7FFF"/>
<rect x="733" y="1124" width="180" height="59" rx="15" fill="#BF7FFF"/>
<rect x="937" y="1124" width="182" height="59" rx="15" fill="#BF7FFF"/>
<path d="M603.92 1163H606.32V1146.2H603.92V1152.8H594.56V1146.2H592.16V1163H594.56V1155.08H603.92V1163ZM620.445 1157.84C620.469 1157.62 620.469 1157.46 620.469 1157.36C620.469 1154.02 618.189 1151.48 615.045 1151.48C611.853 1151.48 609.549 1153.98 609.549 1157.36C609.549 1160.74 612.093 1163.24 615.381 1163.24C617.685 1163.24 619.293 1162.21 620.133 1161.13L618.645 1159.71C617.997 1160.43 617.085 1161.25 615.405 1161.25C613.437 1161.25 611.877 1159.74 611.757 1157.84H620.445ZM615.117 1153.47C616.461 1153.47 617.757 1154.48 618.093 1155.92H611.949C612.333 1154.46 613.653 1153.47 615.117 1153.47ZM623.587 1163H625.867V1145.96H623.587V1163ZM629.938 1163H632.218V1145.96H629.938V1163ZM635.33 1157.36C635.33 1160.72 637.826 1163.24 641.162 1163.24C644.498 1163.24 646.994 1160.72 646.994 1157.36C646.994 1154 644.498 1151.48 641.162 1151.48C637.826 1151.48 635.33 1154 635.33 1157.36ZM637.61 1157.36C637.61 1155.3 639.074 1153.64 641.162 1153.64C643.25 1153.64 644.714 1155.3 644.714 1157.36C644.714 1159.42 643.25 1161.08 641.162 1161.08C639.074 1161.08 637.61 1159.42 637.61 1157.36Z" fill="black"/>
<path d="M761.92 1163H764.32V1146.2H761.92V1152.8H752.56V1146.2H750.16V1163H752.56V1155.08H761.92V1163ZM767.549 1157.36C767.549 1160.72 770.045 1163.24 773.381 1163.24C776.717 1163.24 779.213 1160.72 779.213 1157.36C779.213 1154 776.717 1151.48 773.381 1151.48C770.045 1151.48 767.549 1154 767.549 1157.36ZM769.829 1157.36C769.829 1155.3 771.293 1153.64 773.381 1153.64C775.469 1153.64 776.933 1155.3 776.933 1157.36C776.933 1159.42 775.469 1161.08 773.381 1161.08C771.293 1161.08 769.829 1159.42 769.829 1157.36ZM788.964 1151.72L785.868 1159.42L782.772 1151.72H780.42L785.004 1163H786.588L789.756 1155.08L792.924 1163H794.508L799.092 1151.72H796.74L793.644 1159.42L790.548 1151.72H788.964ZM815.835 1163H818.043V1151.72H815.835V1152.75C814.803 1151.86 813.579 1151.48 812.307 1151.48C811.251 1151.48 810.315 1151.74 809.547 1152.2C807.843 1153.21 806.643 1155.1 806.643 1157.36C806.643 1159.62 807.819 1161.49 809.523 1162.5C810.291 1162.95 811.347 1163.24 812.355 1163.24C813.699 1163.24 814.923 1162.78 815.835 1161.97V1163ZM815.763 1159.47C814.995 1160.5 813.819 1161.08 812.667 1161.08C810.483 1161.08 808.923 1159.38 808.923 1157.36C808.923 1155.39 810.363 1153.64 812.547 1153.64C813.915 1153.64 815.067 1154.34 815.763 1155.25V1159.47ZM828.614 1151.55C828.35 1151.5 827.966 1151.48 827.726 1151.48C826.07 1151.48 824.894 1152.25 824.342 1153.02V1151.72H822.134V1163H824.414V1155.54C825.038 1154.46 826.286 1153.64 827.462 1153.64C827.822 1153.64 828.086 1153.66 828.35 1153.74L828.614 1151.55ZM840.835 1157.84C840.859 1157.62 840.859 1157.46 840.859 1157.36C840.859 1154.02 838.579 1151.48 835.435 1151.48C832.243 1151.48 829.939 1153.98 829.939 1157.36C829.939 1160.74 832.483 1163.24 835.771 1163.24C838.075 1163.24 839.683 1162.21 840.523 1161.13L839.035 1159.71C838.387 1160.43 837.475 1161.25 835.795 1161.25C833.827 1161.25 832.267 1159.74 832.147 1157.84H840.835ZM835.507 1153.47C836.851 1153.47 838.147 1154.48 838.483 1155.92H832.339C832.723 1154.46 834.043 1153.47 835.507 1153.47ZM852.612 1168.76L860.028 1151.72H857.628L854.388 1159.16L850.86 1151.72H848.412L853.236 1161.82L850.188 1168.76H852.612ZM861.346 1157.36C861.346 1160.72 863.842 1163.24 867.178 1163.24C870.514 1163.24 873.01 1160.72 873.01 1157.36C873.01 1154 870.514 1151.48 867.178 1151.48C863.842 1151.48 861.346 1154 861.346 1157.36ZM863.626 1157.36C863.626 1155.3 865.09 1153.64 867.178 1153.64C869.266 1153.64 870.73 1155.3 870.73 1157.36C870.73 1159.42 869.266 1161.08 867.178 1161.08C865.09 1161.08 863.626 1159.42 863.626 1157.36ZM880.934 1163.24C882.494 1163.24 883.742 1162.45 884.246 1161.97V1163H886.454V1151.72H884.174V1159.47C883.526 1160.24 882.398 1161.08 881.006 1161.08C880.142 1161.08 879.326 1160.7 878.822 1160.1C878.414 1159.62 878.174 1158.99 878.174 1157.84V1151.72H875.894V1157.48C875.894 1159.38 876.23 1160.48 876.926 1161.34C877.862 1162.52 879.326 1163.24 880.934 1163.24ZM892.204 1149.94C892.444 1148.94 893.548 1148.12 894.82 1148.12C896.26 1148.12 897.244 1149.1 897.244 1150.33C897.244 1152.92 893.068 1153.4 893.068 1156.38C893.068 1157.26 893.476 1158.2 894.46 1158.94L895.972 1157.36C895.564 1157 895.348 1156.66 895.348 1156.35C895.348 1155.1 899.524 1154.02 899.524 1150.33C899.524 1147.93 897.532 1145.96 894.82 1145.96C892.492 1145.96 890.524 1147.38 890.044 1149.32L892.204 1149.94ZM893.044 1161.56C893.044 1162.5 893.788 1163.24 894.724 1163.24C895.66 1163.24 896.404 1162.5 896.404 1161.56C896.404 1160.62 895.66 1159.88 894.724 1159.88C893.788 1159.88 893.044 1160.62 893.044 1161.56Z" fill="black"/>
<path d="M979.16 1163H981.56V1146.2H979.16V1163ZM986.727 1145.96L984.927 1152.2H986.487L989.367 1145.96H986.727ZM991.415 1151.72V1163H993.695V1155.25C994.343 1154.48 995.471 1153.64 996.863 1153.64C997.727 1153.64 998.543 1154.02 999.047 1154.62C999.455 1155.1 999.695 1155.73 999.695 1156.88V1163H1001.98V1157.24C1001.98 1156.45 1001.9 1155.8 1001.78 1155.25C1002.53 1154.48 1003.58 1153.64 1005.22 1153.64C1006.06 1153.64 1006.82 1154.02 1007.33 1154.62C1007.74 1155.1 1007.98 1155.73 1007.98 1156.88V1163H1010.26V1157.24C1010.26 1155.34 1009.92 1154.24 1009.22 1153.38C1008.29 1152.2 1006.82 1151.48 1005.22 1151.48C1003.18 1151.48 1001.95 1152.32 1000.92 1153.35C999.983 1152.22 998.591 1151.48 996.935 1151.48C995.399 1151.48 994.079 1152.3 993.623 1152.8V1151.72H991.415ZM1028.73 1162.02V1162.64C1028.73 1164.06 1028.52 1164.92 1028.11 1165.54C1027.56 1166.38 1026.6 1166.84 1025.37 1166.84C1023.52 1166.84 1022.47 1165.9 1021.65 1164.82L1019.97 1166.38C1020.69 1167.51 1022.54 1169 1025.47 1169C1027.7 1169 1029.43 1167.97 1030.34 1166.22C1030.8 1165.33 1031.01 1164.2 1031.01 1162.52V1151.72H1028.8V1152.75C1027.77 1151.86 1026.55 1151.48 1025.28 1151.48C1024.22 1151.48 1023.28 1151.74 1022.52 1152.2C1020.81 1153.21 1019.61 1155.1 1019.61 1157.36C1019.61 1159.62 1020.79 1161.49 1022.49 1162.5C1023.26 1162.95 1024.32 1163.24 1025.32 1163.24C1026.67 1163.24 1027.82 1162.81 1028.73 1162.02ZM1028.73 1159.47C1027.96 1160.5 1026.79 1161.08 1025.64 1161.08C1023.45 1161.08 1021.89 1159.38 1021.89 1157.36C1021.89 1155.39 1023.33 1153.64 1025.52 1153.64C1026.88 1153.64 1028.04 1154.34 1028.73 1155.25V1159.47ZM1034.14 1157.36C1034.14 1160.72 1036.64 1163.24 1039.97 1163.24C1043.31 1163.24 1045.81 1160.72 1045.81 1157.36C1045.81 1154 1043.31 1151.48 1039.97 1151.48C1036.64 1151.48 1034.14 1154 1034.14 1157.36ZM1036.42 1157.36C1036.42 1155.3 1037.89 1153.64 1039.97 1153.64C1042.06 1153.64 1043.53 1155.3 1043.53 1157.36C1043.53 1159.42 1042.06 1161.08 1039.97 1161.08C1037.89 1161.08 1036.42 1159.42 1036.42 1157.36ZM1047.97 1157.36C1047.97 1160.72 1050.47 1163.24 1053.8 1163.24C1057.14 1163.24 1059.63 1160.72 1059.63 1157.36C1059.63 1154 1057.14 1151.48 1053.8 1151.48C1050.47 1151.48 1047.97 1154 1047.97 1157.36ZM1050.25 1157.36C1050.25 1155.3 1051.71 1153.64 1053.8 1153.64C1055.89 1153.64 1057.35 1155.3 1057.35 1157.36C1057.35 1159.42 1055.89 1161.08 1053.8 1161.08C1051.71 1161.08 1050.25 1159.42 1050.25 1157.36ZM1070.99 1163H1073.2V1145.96H1070.92V1152.7C1069.91 1151.86 1068.69 1151.48 1067.46 1151.48C1066.41 1151.48 1065.47 1151.74 1064.7 1152.2C1063 1153.21 1061.8 1155.1 1061.8 1157.36C1061.8 1159.62 1062.97 1161.49 1064.68 1162.5C1065.45 1162.95 1066.5 1163.24 1067.51 1163.24C1068.85 1163.24 1070.08 1162.78 1070.99 1161.97V1163ZM1070.92 1159.47C1070.15 1160.5 1068.97 1161.08 1067.82 1161.08C1065.64 1161.08 1064.08 1159.38 1064.08 1157.36C1064.08 1155.39 1065.52 1153.64 1067.7 1153.64C1069.07 1153.64 1070.22 1154.34 1070.92 1155.25V1159.47Z" fill="black"/>
<rect x="1143" y="1124" width="181" height="59" rx="15" fill="#BF7FFF"/>
<path d="M1192.16 1163H1194.56V1146.2H1192.16V1163ZM1205.24 1163H1207.52V1145.96H1205.24V1163ZM1211.59 1163H1213.87V1151.72H1211.59V1163ZM1211.23 1147.71C1211.23 1148.55 1211.87 1149.2 1212.71 1149.2C1213.55 1149.2 1214.23 1148.55 1214.23 1147.71C1214.23 1146.87 1213.55 1146.2 1212.71 1146.2C1211.87 1146.2 1211.23 1146.87 1211.23 1147.71ZM1222.5 1156.81L1228.14 1151.72H1224.92L1220.22 1156.04V1145.96H1217.94V1163H1220.22V1157.48L1225.81 1163H1228.86L1222.5 1156.81ZM1240.34 1157.84C1240.37 1157.62 1240.37 1157.46 1240.37 1157.36C1240.37 1154.02 1238.09 1151.48 1234.94 1151.48C1231.75 1151.48 1229.45 1153.98 1229.45 1157.36C1229.45 1160.74 1231.99 1163.24 1235.28 1163.24C1237.58 1163.24 1239.19 1162.21 1240.03 1161.13L1238.54 1159.71C1237.9 1160.43 1236.98 1161.25 1235.3 1161.25C1233.34 1161.25 1231.78 1159.74 1231.66 1157.84H1240.34ZM1235.02 1153.47C1236.36 1153.47 1237.66 1154.48 1237.99 1155.92H1231.85C1232.23 1154.46 1233.55 1153.47 1235.02 1153.47ZM1244.09 1161.56C1244.09 1162.5 1244.83 1163.24 1245.77 1163.24C1246.7 1163.24 1247.45 1162.5 1247.45 1161.56C1247.45 1160.62 1246.7 1159.88 1245.77 1159.88C1244.83 1159.88 1244.09 1160.62 1244.09 1161.56ZM1252.24 1161.56C1252.24 1162.5 1252.99 1163.24 1253.92 1163.24C1254.86 1163.24 1255.6 1162.5 1255.6 1161.56C1255.6 1160.62 1254.86 1159.88 1253.92 1159.88C1252.99 1159.88 1252.24 1160.62 1252.24 1161.56ZM1260.4 1161.56C1260.4 1162.5 1261.14 1163.24 1262.08 1163.24C1263.01 1163.24 1263.76 1162.5 1263.76 1161.56C1263.76 1160.62 1263.01 1159.88 1262.08 1159.88C1261.14 1159.88 1260.4 1160.62 1260.4 1161.56Z" fill="black"/>
<rect x="527" y="1212" width="182" height="58" rx="15" fill="#BF7FFF"/>
<rect x="733" y="1212" width="386" height="58" rx="15" fill="#BF7FFF"/>
<path d="M546.16 1250H548.56V1233.2H546.16V1250ZM567.467 1250H569.675V1232.96H567.395V1239.7C566.387 1238.86 565.163 1238.48 563.939 1238.48C562.883 1238.48 561.947 1238.74 561.179 1239.2C559.475 1240.21 558.275 1242.1 558.275 1244.36C558.275 1246.62 559.451 1248.49 561.155 1249.5C561.923 1249.95 562.979 1250.24 563.987 1250.24C565.331 1250.24 566.555 1249.78 567.467 1248.97V1250ZM567.395 1246.47C566.627 1247.5 565.451 1248.08 564.299 1248.08C562.115 1248.08 560.555 1246.38 560.555 1244.36C560.555 1242.39 561.995 1240.64 564.179 1240.64C565.547 1240.64 566.699 1241.34 567.395 1242.25V1246.47ZM572.807 1244.36C572.807 1247.72 575.303 1250.24 578.639 1250.24C581.975 1250.24 584.471 1247.72 584.471 1244.36C584.471 1241 581.975 1238.48 578.639 1238.48C575.303 1238.48 572.807 1241 572.807 1244.36ZM575.087 1244.36C575.087 1242.3 576.551 1240.64 578.639 1240.64C580.727 1240.64 582.191 1242.3 582.191 1244.36C582.191 1246.42 580.727 1248.08 578.639 1248.08C576.551 1248.08 575.087 1246.42 575.087 1244.36ZM589.803 1238.72H587.595V1250H589.875V1242.25C590.547 1241.43 591.627 1240.64 593.115 1240.64C594.051 1240.64 594.915 1241.07 595.443 1241.74C595.851 1242.25 596.115 1242.92 596.115 1244.36V1250H598.395V1244.48C598.395 1242.54 598.011 1241.38 597.291 1240.47C596.331 1239.25 594.843 1238.48 593.187 1238.48C591.555 1238.48 590.403 1239.22 589.803 1239.8V1238.72ZM608.63 1247.94C608.294 1248.03 607.718 1248.08 607.382 1248.08C606.782 1248.08 606.134 1247.86 605.822 1247.48C605.534 1247.14 605.486 1246.64 605.486 1246.04V1240.76H609.086V1238.72H605.486V1235.6H603.206V1238.72H600.326V1240.76H603.206V1245.92C603.206 1247.14 603.446 1248.18 604.118 1248.92C604.838 1249.74 605.894 1250.24 607.31 1250.24C607.958 1250.24 608.654 1250.14 609.086 1250L608.63 1247.94ZM613.398 1232.96L611.598 1239.2H613.158L616.038 1232.96H613.398ZM626.021 1247.94C625.685 1248.03 625.109 1248.08 624.773 1248.08C624.173 1248.08 623.525 1247.86 623.213 1247.48C622.925 1247.14 622.877 1246.64 622.877 1246.04V1240.76H626.477V1238.72H622.877V1235.6H620.597V1238.72H617.717V1240.76H620.597V1245.92C620.597 1247.14 620.837 1248.18 621.509 1248.92C622.229 1249.74 623.285 1250.24 624.701 1250.24C625.349 1250.24 626.045 1250.14 626.477 1250L626.021 1247.94ZM635.829 1250H638.109V1232.96H635.829V1250ZM642.181 1250H644.461V1238.72H642.181V1250ZM641.821 1234.71C641.821 1235.55 642.469 1236.2 643.309 1236.2C644.149 1236.2 644.821 1235.55 644.821 1234.71C644.821 1233.87 644.149 1233.2 643.309 1233.2C642.469 1233.2 641.821 1233.87 641.821 1234.71ZM653.092 1243.81L658.732 1238.72H655.516L650.812 1243.04V1232.96H648.532V1250H650.812V1244.48L656.404 1250H659.452L653.092 1243.81ZM670.937 1244.84C670.961 1244.62 670.961 1244.46 670.961 1244.36C670.961 1241.02 668.681 1238.48 665.537 1238.48C662.345 1238.48 660.041 1240.98 660.041 1244.36C660.041 1247.74 662.585 1250.24 665.873 1250.24C668.177 1250.24 669.785 1249.21 670.625 1248.13L669.137 1246.71C668.489 1247.43 667.577 1248.25 665.897 1248.25C663.929 1248.25 662.369 1246.74 662.249 1244.84H670.937ZM665.609 1240.47C666.953 1240.47 668.249 1241.48 668.585 1242.92H662.441C662.825 1241.46 664.145 1240.47 665.609 1240.47ZM674.679 1248.56C674.679 1249.5 675.423 1250.24 676.359 1250.24C677.295 1250.24 678.039 1249.5 678.039 1248.56C678.039 1247.62 677.295 1246.88 676.359 1246.88C675.423 1246.88 674.679 1247.62 674.679 1248.56ZM682.835 1248.56C682.835 1249.5 683.579 1250.24 684.515 1250.24C685.451 1250.24 686.195 1249.5 686.195 1248.56C686.195 1247.62 685.451 1246.88 684.515 1246.88C683.579 1246.88 682.835 1247.62 682.835 1248.56ZM690.992 1248.56C690.992 1249.5 691.736 1250.24 692.672 1250.24C693.608 1250.24 694.352 1249.5 694.352 1248.56C694.352 1247.62 693.608 1246.88 692.672 1246.88C691.736 1246.88 690.992 1247.62 690.992 1248.56Z" fill="black"/>
<path d="M802.4 1237.57L806.6 1250H808.28L813.56 1233.2H811.112L807.344 1245.37L803.24 1233.2H801.56L797.456 1245.37L793.688 1233.2H791.24L796.52 1250H798.2L802.4 1237.57ZM818.125 1232.96H815.845V1250H818.125V1242.25C818.797 1241.43 819.877 1240.64 821.365 1240.64C822.301 1240.64 823.165 1241.07 823.693 1241.74C824.101 1242.25 824.365 1242.92 824.365 1244.36V1250H826.645V1244.48C826.645 1242.54 826.261 1241.38 825.541 1240.47C824.581 1239.25 823.093 1238.48 821.437 1238.48C819.877 1238.48 818.749 1239.18 818.125 1239.7V1232.96ZM838.725 1250H840.933V1238.72H838.725V1239.75C837.693 1238.86 836.469 1238.48 835.197 1238.48C834.141 1238.48 833.205 1238.74 832.437 1239.2C830.733 1240.21 829.533 1242.1 829.533 1244.36C829.533 1246.62 830.709 1248.49 832.413 1249.5C833.181 1249.95 834.237 1250.24 835.245 1250.24C836.589 1250.24 837.813 1249.78 838.725 1248.97V1250ZM838.653 1246.47C837.885 1247.5 836.709 1248.08 835.557 1248.08C833.373 1248.08 831.813 1246.38 831.813 1244.36C831.813 1242.39 833.253 1240.64 835.437 1240.64C836.805 1240.64 837.957 1241.34 838.653 1242.25V1246.47ZM851.528 1247.94C851.192 1248.03 850.616 1248.08 850.28 1248.08C849.68 1248.08 849.032 1247.86 848.72 1247.48C848.432 1247.14 848.384 1246.64 848.384 1246.04V1240.76H851.984V1238.72H848.384V1235.6H846.104V1238.72H843.224V1240.76H846.104V1245.92C846.104 1247.14 846.344 1248.18 847.016 1248.92C847.736 1249.74 848.792 1250.24 850.208 1250.24C850.856 1250.24 851.552 1250.14 851.984 1250L851.528 1247.94ZM861.337 1250H863.617V1238.72H861.337V1250ZM860.977 1234.71C860.977 1235.55 861.625 1236.2 862.465 1236.2C863.305 1236.2 863.977 1235.55 863.977 1234.71C863.977 1233.87 863.305 1233.2 862.465 1233.2C861.625 1233.2 860.977 1233.87 860.977 1234.71ZM866.608 1248.68C867.856 1249.69 869.368 1250.24 871.168 1250.24C873.376 1250.24 875.368 1248.92 875.368 1246.78C875.368 1244.46 873.04 1243.66 871.264 1243.21C870.136 1242.92 869.248 1242.66 869.248 1241.89C869.248 1241 870.184 1240.47 871.288 1240.47C872.2 1240.47 873.016 1240.83 873.712 1241.36L874.888 1239.73C874 1239.01 872.8 1238.48 871.144 1238.48C869.128 1238.48 866.968 1239.58 866.968 1242.01C866.968 1243.59 868.192 1244.46 869.56 1244.91C871.216 1245.46 873.088 1245.54 873.088 1246.83C873.088 1247.72 872.104 1248.25 871.12 1248.25C869.992 1248.25 868.84 1247.82 867.784 1247L866.608 1248.68ZM887.245 1255.76L894.661 1238.72H892.261L889.021 1246.16L885.493 1238.72H883.045L887.869 1248.82L884.821 1255.76H887.245ZM895.978 1244.36C895.978 1247.72 898.474 1250.24 901.81 1250.24C905.146 1250.24 907.642 1247.72 907.642 1244.36C907.642 1241 905.146 1238.48 901.81 1238.48C898.474 1238.48 895.978 1241 895.978 1244.36ZM898.258 1244.36C898.258 1242.3 899.722 1240.64 901.81 1240.64C903.898 1240.64 905.362 1242.3 905.362 1244.36C905.362 1246.42 903.898 1248.08 901.81 1248.08C899.722 1248.08 898.258 1246.42 898.258 1244.36ZM915.567 1250.24C917.127 1250.24 918.375 1249.45 918.879 1248.97V1250H921.087V1238.72H918.807V1246.47C918.159 1247.24 917.031 1248.08 915.639 1248.08C914.775 1248.08 913.959 1247.7 913.455 1247.1C913.047 1246.62 912.807 1245.99 912.807 1244.84V1238.72H910.527V1244.48C910.527 1246.38 910.863 1247.48 911.559 1248.34C912.495 1249.52 913.959 1250.24 915.567 1250.24ZM931.637 1238.55C931.373 1238.5 930.989 1238.48 930.749 1238.48C929.093 1238.48 927.917 1239.25 927.365 1240.02V1238.72H925.157V1250H927.437V1242.54C928.061 1241.46 929.309 1240.64 930.485 1240.64C930.845 1240.64 931.109 1240.66 931.373 1240.74L931.637 1238.55ZM947.586 1232.89C947.274 1232.79 946.722 1232.72 946.242 1232.72C944.706 1232.72 943.362 1233.42 942.546 1234.59C942.042 1235.31 941.826 1236.25 941.826 1237.76V1238.72H939.186V1240.76H941.826V1250H944.106V1240.76H947.586V1238.72H944.106V1237.69C944.106 1236.66 944.226 1236.08 944.538 1235.67C944.922 1235.17 945.618 1234.88 946.266 1234.88C946.578 1234.88 946.938 1234.93 947.106 1234.98L947.586 1232.89ZM958.116 1250H960.324V1238.72H958.116V1239.75C957.084 1238.86 955.86 1238.48 954.588 1238.48C953.532 1238.48 952.596 1238.74 951.828 1239.2C950.124 1240.21 948.924 1242.1 948.924 1244.36C948.924 1246.62 950.1 1248.49 951.804 1249.5C952.572 1249.95 953.628 1250.24 954.636 1250.24C955.98 1250.24 957.204 1249.78 958.116 1248.97V1250ZM958.044 1246.47C957.276 1247.5 956.1 1248.08 954.948 1248.08C952.764 1248.08 951.204 1246.38 951.204 1244.36C951.204 1242.39 952.644 1240.64 954.828 1240.64C956.196 1240.64 957.348 1241.34 958.044 1242.25V1246.47ZM967.511 1250H969.095L973.991 1238.72H971.639L968.303 1246.4L964.967 1238.72H962.615L967.511 1250ZM975.197 1244.36C975.197 1247.72 977.693 1250.24 981.029 1250.24C984.365 1250.24 986.861 1247.72 986.861 1244.36C986.861 1241 984.365 1238.48 981.029 1238.48C977.693 1238.48 975.197 1241 975.197 1244.36ZM977.477 1244.36C977.477 1242.3 978.941 1240.64 981.029 1240.64C983.117 1240.64 984.581 1242.3 984.581 1244.36C984.581 1246.42 983.117 1248.08 981.029 1248.08C978.941 1248.08 977.477 1246.42 977.477 1244.36ZM996.465 1238.55C996.201 1238.5 995.817 1238.48 995.577 1238.48C993.921 1238.48 992.745 1239.25 992.193 1240.02V1238.72H989.985V1250H992.265V1242.54C992.889 1241.46 994.137 1240.64 995.313 1240.64C995.673 1240.64 995.937 1240.66 996.201 1240.74L996.465 1238.55ZM999.22 1250H1001.5V1238.72H999.22V1250ZM998.86 1234.71C998.86 1235.55 999.508 1236.2 1000.35 1236.2C1001.19 1236.2 1001.86 1235.55 1001.86 1234.71C1001.86 1233.87 1001.19 1233.2 1000.35 1233.2C999.508 1233.2 998.86 1233.87 998.86 1234.71ZM1012.08 1247.94C1011.74 1248.03 1011.16 1248.08 1010.83 1248.08C1010.23 1248.08 1009.58 1247.86 1009.27 1247.48C1008.98 1247.14 1008.93 1246.64 1008.93 1246.04V1240.76H1012.53V1238.72H1008.93V1235.6H1006.65V1238.72H1003.77V1240.76H1006.65V1245.92C1006.65 1247.14 1006.89 1248.18 1007.56 1248.92C1008.28 1249.74 1009.34 1250.24 1010.76 1250.24C1011.4 1250.24 1012.1 1250.14 1012.53 1250L1012.08 1247.94ZM1025.23 1244.84C1025.26 1244.62 1025.26 1244.46 1025.26 1244.36C1025.26 1241.02 1022.98 1238.48 1019.83 1238.48C1016.64 1238.48 1014.34 1240.98 1014.34 1244.36C1014.34 1247.74 1016.88 1250.24 1020.17 1250.24C1022.47 1250.24 1024.08 1249.21 1024.92 1248.13L1023.43 1246.71C1022.79 1247.43 1021.87 1248.25 1020.19 1248.25C1018.23 1248.25 1016.67 1246.74 1016.55 1244.84H1025.23ZM1019.91 1240.47C1021.25 1240.47 1022.55 1241.48 1022.88 1242.92H1016.74C1017.12 1241.46 1018.44 1240.47 1019.91 1240.47ZM1028.98 1248.56C1028.98 1249.5 1029.72 1250.24 1030.66 1250.24C1031.59 1250.24 1032.34 1249.5 1032.34 1248.56C1032.34 1247.62 1031.59 1246.88 1030.66 1246.88C1029.72 1246.88 1028.98 1247.62 1028.98 1248.56ZM1037.13 1248.56C1037.13 1249.5 1037.88 1250.24 1038.81 1250.24C1039.75 1250.24 1040.49 1249.5 1040.49 1248.56C1040.49 1247.62 1039.75 1246.88 1038.81 1246.88C1037.88 1246.88 1037.13 1247.62 1037.13 1248.56ZM1045.29 1248.56C1045.29 1249.5 1046.03 1250.24 1046.97 1250.24C1047.9 1250.24 1048.65 1249.5 1048.65 1248.56C1048.65 1247.62 1047.9 1246.88 1046.97 1246.88C1046.03 1246.88 1045.29 1247.62 1045.29 1248.56ZM1053.44 1248.56C1053.44 1249.5 1054.19 1250.24 1055.12 1250.24C1056.06 1250.24 1056.8 1249.5 1056.8 1248.56C1056.8 1247.62 1056.06 1246.88 1055.12 1246.88C1054.19 1246.88 1053.44 1247.62 1053.44 1248.56Z" fill="black"/>
<rect x="1143" y="1212" width="181" height="58" rx="15" fill="#BF7FFF"/>
<path d="M1196.22 1250H1198.72L1191.76 1233.2H1190.08L1183.12 1250H1185.62L1187.37 1245.68H1194.45L1196.22 1250ZM1190.92 1237.16L1193.51 1243.4H1188.33L1190.92 1237.16ZM1203.09 1238.72H1200.88V1250H1203.16V1242.25C1203.84 1241.43 1204.92 1240.64 1206.4 1240.64C1207.34 1240.64 1208.2 1241.07 1208.73 1241.74C1209.14 1242.25 1209.4 1242.92 1209.4 1244.36V1250H1211.68V1244.48C1211.68 1242.54 1211.3 1241.38 1210.58 1240.47C1209.62 1239.25 1208.13 1238.48 1206.48 1238.48C1204.84 1238.48 1203.69 1239.22 1203.09 1239.8V1238.72ZM1223.76 1250H1225.97V1232.96H1223.69V1239.7C1222.68 1238.86 1221.46 1238.48 1220.24 1238.48C1219.18 1238.48 1218.24 1238.74 1217.48 1239.2C1215.77 1240.21 1214.57 1242.1 1214.57 1244.36C1214.57 1246.62 1215.75 1248.49 1217.45 1249.5C1218.22 1249.95 1219.28 1250.24 1220.28 1250.24C1221.63 1250.24 1222.85 1249.78 1223.76 1248.97V1250ZM1223.69 1246.47C1222.92 1247.5 1221.75 1248.08 1220.6 1248.08C1218.41 1248.08 1216.85 1246.38 1216.85 1244.36C1216.85 1242.39 1218.29 1240.64 1220.48 1240.64C1221.84 1240.64 1223 1241.34 1223.69 1242.25V1246.47ZM1238.7 1255.76L1246.11 1238.72H1243.71L1240.47 1246.16L1236.95 1238.72H1234.5L1239.32 1248.82L1236.27 1255.76H1238.7ZM1247.43 1244.36C1247.43 1247.72 1249.93 1250.24 1253.26 1250.24C1256.6 1250.24 1259.1 1247.72 1259.1 1244.36C1259.1 1241 1256.6 1238.48 1253.26 1238.48C1249.93 1238.48 1247.43 1241 1247.43 1244.36ZM1249.71 1244.36C1249.71 1242.3 1251.18 1240.64 1253.26 1240.64C1255.35 1240.64 1256.82 1242.3 1256.82 1244.36C1256.82 1246.42 1255.35 1248.08 1253.26 1248.08C1251.18 1248.08 1249.71 1246.42 1249.71 1244.36ZM1267.02 1250.24C1268.58 1250.24 1269.83 1249.45 1270.33 1248.97V1250H1272.54V1238.72H1270.26V1246.47C1269.61 1247.24 1268.48 1248.08 1267.09 1248.08C1266.23 1248.08 1265.41 1247.7 1264.91 1247.1C1264.5 1246.62 1264.26 1245.99 1264.26 1244.84V1238.72H1261.98V1244.48C1261.98 1246.38 1262.32 1247.48 1263.01 1248.34C1263.95 1249.52 1265.41 1250.24 1267.02 1250.24ZM1278.29 1236.94C1278.53 1235.94 1279.63 1235.12 1280.91 1235.12C1282.35 1235.12 1283.33 1236.1 1283.33 1237.33C1283.33 1239.92 1279.15 1240.4 1279.15 1243.38C1279.15 1244.26 1279.56 1245.2 1280.55 1245.94L1282.06 1244.36C1281.65 1244 1281.43 1243.66 1281.43 1243.35C1281.43 1242.1 1285.61 1241.02 1285.61 1237.33C1285.61 1234.93 1283.62 1232.96 1280.91 1232.96C1278.58 1232.96 1276.61 1234.38 1276.13 1236.32L1278.29 1236.94ZM1279.13 1248.56C1279.13 1249.5 1279.87 1250.24 1280.81 1250.24C1281.75 1250.24 1282.49 1249.5 1282.49 1248.56C1282.49 1247.62 1281.75 1246.88 1280.81 1246.88C1279.87 1246.88 1279.13 1247.62 1279.13 1248.56Z" fill="black"/>
<path d="M242.72 372.432C244.208 374.232 246.296 375.24 248.6 375.24C251.528 375.24 253.808 373.32 253.808 370.368C253.808 368.448 252.752 367.272 251.624 366.528C249.464 365.088 245.888 364.632 245.888 362.496C245.888 361.032 247.28 360.24 248.672 360.24C249.728 360.24 250.76 360.624 251.672 361.392L253.088 359.64C252.2 358.896 250.712 357.96 248.576 357.96C245.648 357.96 243.488 359.976 243.488 362.424C243.488 364.176 244.424 365.328 245.624 366.12C247.856 367.584 251.408 367.872 251.408 370.44C251.408 371.952 250.04 372.96 248.48 372.96C246.752 372.96 245.36 372 244.376 370.8L242.72 372.432ZM265.045 375H267.253V363.72H265.045V364.752C264.013 363.864 262.789 363.48 261.517 363.48C260.461 363.48 259.525 363.744 258.757 364.2C257.053 365.208 255.853 367.104 255.853 369.36C255.853 371.616 257.029 373.488 258.733 374.496C259.501 374.952 260.557 375.24 261.565 375.24C262.909 375.24 264.133 374.784 265.045 373.968V375ZM264.973 371.472C264.205 372.504 263.029 373.08 261.877 373.08C259.693 373.08 258.133 371.376 258.133 369.36C258.133 367.392 259.573 365.64 261.757 365.64C263.125 365.64 264.277 366.336 264.973 367.248V371.472ZM271.345 375H273.625V357.96H271.345V375ZM277.696 375H279.976V357.96H277.696V375ZM286.448 380.76L293.864 363.72H291.464L288.224 371.16L284.696 363.72H282.248L287.072 373.824L284.024 380.76H286.448Z" fill="black"/>
<path d="M244.16 731H246.56V714.2H244.16V731ZM249.687 729.68C250.935 730.688 252.447 731.24 254.247 731.24C256.455 731.24 258.447 729.92 258.447 727.784C258.447 725.456 256.119 724.664 254.343 724.208C253.215 723.92 252.327 723.656 252.327 722.888C252.327 722 253.263 721.472 254.367 721.472C255.279 721.472 256.095 721.832 256.791 722.36L257.967 720.728C257.079 720.008 255.879 719.48 254.223 719.48C252.207 719.48 250.047 720.584 250.047 723.008C250.047 724.592 251.271 725.456 252.639 725.912C254.295 726.464 256.167 726.536 256.167 727.832C256.167 728.72 255.183 729.248 254.199 729.248C253.071 729.248 251.919 728.816 250.863 728L249.687 729.68ZM261.688 731H263.968V719.72H261.688V731ZM261.328 715.712C261.328 716.552 261.976 717.2 262.816 717.2C263.656 717.2 264.328 716.552 264.328 715.712C264.328 714.872 263.656 714.2 262.816 714.2C261.976 714.2 261.328 714.872 261.328 715.712ZM266.96 729.68C268.208 730.688 269.72 731.24 271.52 731.24C273.728 731.24 275.72 729.92 275.72 727.784C275.72 725.456 273.392 724.664 271.616 724.208C270.488 723.92 269.6 723.656 269.6 722.888C269.6 722 270.536 721.472 271.64 721.472C272.552 721.472 273.368 721.832 274.064 722.36L275.24 720.728C274.352 720.008 273.152 719.48 271.496 719.48C269.48 719.48 267.32 720.584 267.32 723.008C267.32 724.592 268.544 725.456 269.912 725.912C271.568 726.464 273.44 726.536 273.44 727.832C273.44 728.72 272.456 729.248 271.472 729.248C270.344 729.248 269.192 728.816 268.136 728L266.96 729.68Z" fill="black"/>
<rect x="110" y="798" width="263" height="89" rx="40" fill="#FFABF6"/>
<path d="M198.012 842.068C198.012 856.469 186.276 868.156 171.783 868.156C157.291 868.156 145.555 856.469 145.555 842.068C145.555 827.667 157.291 815.979 171.783 815.979C186.276 815.979 198.012 827.667 198.012 842.068Z" stroke="white" stroke-width="3"/>
<ellipse cx="164.296" cy="837.93" rx="1.94101" ry="1.93119" fill="white"/>
<ellipse cx="179.271" cy="837.93" rx="1.94101" ry="1.93119" fill="white"/>
<path d="M166.793 848.689C168.384 850.771 172.609 853.685 176.775 848.689" stroke="white" stroke-width="2" stroke-linecap="round"/>
<path d="M246.56 839.8V835.48H253.76V833.2H244.16V850H246.56V842.08H252.08V839.8H246.56ZM262.403 838.552C262.139 838.504 261.755 838.48 261.515 838.48C259.859 838.48 258.683 839.248 258.131 840.016V838.72H255.923V850H258.203V842.536C258.827 841.456 260.075 840.64 261.251 840.64C261.611 840.64 261.875 840.664 262.139 840.736L262.403 838.552ZM272.92 850H275.128V838.72H272.92V839.752C271.888 838.864 270.664 838.48 269.392 838.48C268.336 838.48 267.4 838.744 266.632 839.2C264.928 840.208 263.728 842.104 263.728 844.36C263.728 846.616 264.904 848.488 266.608 849.496C267.376 849.952 268.432 850.24 269.44 850.24C270.784 850.24 272.008 849.784 272.92 848.968V850ZM272.848 846.472C272.08 847.504 270.904 848.08 269.752 848.08C267.568 848.08 266.008 846.376 266.008 844.36C266.008 842.392 267.448 840.64 269.632 840.64C271 840.64 272.152 841.336 272.848 842.248V846.472ZM281.428 838.72H279.22V850H281.5V842.248C282.172 841.432 283.252 840.64 284.74 840.64C285.676 840.64 286.54 841.072 287.068 841.744C287.476 842.248 287.74 842.92 287.74 844.36V850H290.02V844.48C290.02 842.536 289.636 841.384 288.916 840.472C287.956 839.248 286.468 838.48 284.812 838.48C283.18 838.48 282.028 839.224 281.428 839.8V838.72ZM298.428 843.808L304.068 838.72H300.852L296.148 843.04V832.96H293.868V850H296.148V844.48L301.74 850H304.788L298.428 843.808Z" fill="black"/>
<path d="M258.08 600.696V612H260.48V595.2H258.8L252.32 605.448L245.84 595.2H244.16V612H246.56V600.696L251.48 608.4H253.16L258.08 600.696ZM272.92 612H275.128V600.72H272.92V601.752C271.888 600.864 270.664 600.48 269.392 600.48C268.336 600.48 267.4 600.744 266.632 601.2C264.928 602.208 263.728 604.104 263.728 606.36C263.728 608.616 264.904 610.488 266.608 611.496C267.376 611.952 268.432 612.24 269.44 612.24C270.784 612.24 272.008 611.784 272.92 610.968V612ZM272.848 608.472C272.08 609.504 270.904 610.08 269.752 610.08C267.568 610.08 266.008 608.376 266.008 606.36C266.008 604.392 267.448 602.64 269.632 602.64C271 602.64 272.152 603.336 272.848 604.248V608.472ZM281.62 617.76L289.036 600.72H286.636L283.396 608.16L279.868 600.72H277.42L282.244 610.824L279.196 617.76H281.62ZM299.545 612H301.753V600.72H299.545V601.752C298.513 600.864 297.289 600.48 296.017 600.48C294.961 600.48 294.025 600.744 293.257 601.2C291.553 602.208 290.353 604.104 290.353 606.36C290.353 608.616 291.529 610.488 293.233 611.496C294.001 611.952 295.057 612.24 296.065 612.24C297.409 612.24 298.633 611.784 299.545 610.968V612ZM299.473 608.472C298.705 609.504 297.529 610.08 296.377 610.08C294.193 610.08 292.633 608.376 292.633 606.36C292.633 604.392 294.073 602.64 296.257 602.64C297.625 602.64 298.777 603.336 299.473 604.248V608.472Z" fill="black"/>
<rect x="503" y="1019" width="54" height="57" rx="10" fill="#FFC9E3"/>
<path d="M523.44 1039.89C523.92 1037.87 526.128 1036.24 528.672 1036.24C531.552 1036.24 533.52 1038.21 533.52 1040.66C533.52 1045.84 525.168 1046.8 525.168 1052.75C525.168 1054.53 525.984 1056.4 527.952 1057.89L530.976 1054.72C530.16 1054 529.728 1053.33 529.728 1052.7C529.728 1050.21 538.08 1048.05 538.08 1040.66C538.08 1035.86 534.096 1031.92 528.672 1031.92C524.016 1031.92 520.08 1034.75 519.12 1038.64L523.44 1039.89ZM525.12 1063.12C525.12 1064.99 526.608 1066.48 528.48 1066.48C530.352 1066.48 531.84 1064.99 531.84 1063.12C531.84 1061.25 530.352 1059.76 528.48 1059.76C526.608 1059.76 525.12 1061.25 525.12 1063.12Z" fill="white"/>
<path d="M242 489.528C242.72 491.232 244.424 492.24 246.368 492.24C248.144 492.24 249.728 491.256 250.544 489.816C250.928 489.12 251.12 488.28 251.12 486.96V475.2H248.72V487.128C248.72 488.136 248.552 488.64 248.264 489.024C247.856 489.576 247.112 489.96 246.368 489.96C245.36 489.96 244.52 489.432 244.136 488.616L242 489.528ZM254.119 486.36C254.119 489.72 256.615 492.24 259.951 492.24C263.287 492.24 265.783 489.72 265.783 486.36C265.783 483 263.287 480.48 259.951 480.48C256.615 480.48 254.119 483 254.119 486.36ZM256.399 486.36C256.399 484.296 257.863 482.64 259.951 482.64C262.039 482.64 263.503 484.296 263.503 486.36C263.503 488.424 262.039 490.08 259.951 490.08C257.863 490.08 256.399 488.424 256.399 486.36ZM278.843 486.84C278.867 486.624 278.867 486.456 278.867 486.36C278.867 483.024 276.587 480.48 273.443 480.48C270.251 480.48 267.947 482.976 267.947 486.36C267.947 489.744 270.491 492.24 273.779 492.24C276.083 492.24 277.691 491.208 278.531 490.128L277.043 488.712C276.395 489.432 275.483 490.248 273.803 490.248C271.835 490.248 270.275 488.736 270.155 486.84H278.843ZM273.515 482.472C274.859 482.472 276.155 483.48 276.491 484.92H270.347C270.731 483.456 272.051 482.472 273.515 482.472ZM284.268 497.76L291.684 480.72H289.284L286.044 488.16L282.516 480.72H280.068L284.892 490.824L281.844 497.76H284.268Z" fill="black"/>
<path d="M159.35 88H161.8V63.5H158.3V81.49L143.6 63.5H141.15V88H144.65V70.01L159.35 88ZM171.584 73.125V66.825H182.084V63.5H168.084V88H182.434V84.675H171.584V76.45H179.634V73.125H171.584ZM186.985 88H190.485V63.5H186.985V88ZM217.095 73.125H206.595V76.45H213.595V82.75C212.3 84.045 210.165 85.025 207.575 85.025C202.36 85.025 198.37 81.28 198.37 75.75C198.37 70.465 202.255 66.475 207.26 66.475C209.885 66.475 212.44 67.665 213.875 69.24L216.22 66.93C214.085 64.585 210.76 63.15 207.26 63.15C200.19 63.15 194.87 68.68 194.87 75.75C194.87 82.995 200.26 88.35 207.575 88.35C211.355 88.35 214.995 86.46 217.095 83.8V73.125ZM239.682 88H243.182V63.5H239.682V73.125H226.032V63.5H222.532V88H226.032V76.45H239.682V88ZM252.965 84.675V76.45H258.285C260.49 76.45 261.54 76.94 262.31 77.71C263.01 78.445 263.465 79.425 263.465 80.545C263.465 81.665 263.01 82.68 262.31 83.415C261.54 84.185 260.49 84.675 258.285 84.675H252.965ZM252.965 73.125V66.825H257.165C259.125 66.825 259.965 67.21 260.525 67.84C261.05 68.4 261.365 69.135 261.365 69.975C261.365 70.815 261.05 71.55 260.525 72.11C259.965 72.74 259.125 73.125 257.165 73.125H252.965ZM258.915 88C261.4 88 263.01 87.405 264.27 86.355C265.915 85.025 266.965 82.96 266.965 80.685C266.965 77.92 265.25 75.4 262.94 74.245C264.095 73.16 264.865 71.55 264.865 69.87C264.865 68.05 264.095 66.37 262.835 65.215C261.68 64.165 260.175 63.5 257.795 63.5H249.465V88H258.915ZM269.586 75.75C269.586 82.89 274.906 88.35 281.836 88.35C288.766 88.35 294.086 82.89 294.086 75.75C294.086 68.61 288.766 63.15 281.836 63.15C274.906 63.15 269.586 68.61 269.586 75.75ZM273.086 75.75C273.086 70.465 276.831 66.475 281.836 66.475C286.841 66.475 290.586 70.465 290.586 75.75C290.586 81.07 286.841 85.025 281.836 85.025C276.831 85.025 273.086 81.07 273.086 75.75ZM304.745 76.45L313.46 88H317.695L308.91 76.31C310.135 76.1 311.01 75.645 311.78 75.015C313.25 73.825 314.195 72.005 314.195 69.975C314.195 67.945 313.25 66.125 311.78 64.935C310.66 64.025 309.26 63.5 307.02 63.5H298.445V88H301.945V76.45H304.745ZM301.945 73.125V66.825H306.845C308.42 66.825 309.225 67.175 309.785 67.735C310.345 68.295 310.695 69.1 310.695 69.975C310.695 70.85 310.345 71.655 309.785 72.215C309.225 72.775 308.42 73.125 306.845 73.125H301.945ZM318.562 84.255C320.732 86.88 323.777 88.35 327.137 88.35C331.407 88.35 334.732 85.55 334.732 81.245C334.732 78.445 333.192 76.73 331.547 75.645C328.397 73.545 323.182 72.88 323.182 69.765C323.182 67.63 325.212 66.475 327.242 66.475C328.782 66.475 330.287 67.035 331.617 68.155L333.682 65.6C332.387 64.515 330.217 63.15 327.102 63.15C322.832 63.15 319.682 66.09 319.682 69.66C319.682 72.215 321.047 73.895 322.797 75.05C326.052 77.185 331.232 77.605 331.232 81.35C331.232 83.555 329.237 85.025 326.962 85.025C324.442 85.025 322.412 83.625 320.977 81.875L318.562 84.255Z" fill="#FF6F81"/>
<rect x="71.8672" y="53.9639" width="53.8072" height="37.0361" fill="#FF6F81"/>
<path d="M97.7229 33L136.454 53.9639H58.9917L97.7229 33Z" fill="#FF6F81"/>
<rect x="462" y="190" width="916" height="750" rx="40" fill="white"/>
<rect x="480.684" y="222.246" width="861.796" height="529.714" rx="40" fill="white"/>
<rect x="481" y="222" width="878" height="699" rx="40" fill="#CCFFFF"/>
<rect x="517.709" y="800.813" width="634.743" height="82.0547" rx="28" fill="white" stroke="white" stroke-width="4"/>
<path d="M551.741 835.978H556.301V850.498H558.701V835.978H563.261V833.698H551.741V835.978ZM566.86 856.258L574.276 839.218H571.876L568.636 846.658L565.108 839.218H562.66L567.484 849.322L564.436 856.258H566.86ZM578.951 849.514C579.863 850.306 581.015 850.738 582.359 850.738C583.367 850.738 584.423 850.45 585.191 849.994C586.895 848.986 588.071 847.114 588.071 844.858C588.071 842.602 586.871 840.706 585.167 839.698C584.399 839.242 583.463 838.978 582.407 838.978C581.135 838.978 579.911 839.362 578.879 840.25V839.218H576.671V856.258H578.951V849.514ZM578.951 842.746C579.647 841.834 580.799 841.138 582.167 841.138C584.351 841.138 585.791 842.89 585.791 844.858C585.791 846.874 584.231 848.578 582.047 848.578C580.895 848.578 579.719 848.002 578.951 846.97V842.746ZM601.138 845.338C601.162 845.122 601.162 844.954 601.162 844.858C601.162 841.522 598.882 838.978 595.738 838.978C592.546 838.978 590.242 841.474 590.242 844.858C590.242 848.242 592.786 850.738 596.074 850.738C598.378 850.738 599.986 849.706 600.826 848.626L599.338 847.21C598.69 847.93 597.778 848.746 596.098 848.746C594.13 848.746 592.57 847.234 592.45 845.338H601.138ZM595.81 840.97C597.154 840.97 598.45 841.978 598.786 843.418H592.642C593.026 841.954 594.346 840.97 595.81 840.97ZM612.915 856.258L620.331 839.218H617.931L614.691 846.658L611.163 839.218H608.715L613.539 849.322L610.491 856.258H612.915ZM621.648 844.858C621.648 848.218 624.144 850.738 627.48 850.738C630.816 850.738 633.312 848.218 633.312 844.858C633.312 841.498 630.816 838.978 627.48 838.978C624.144 838.978 621.648 841.498 621.648 844.858ZM623.928 844.858C623.928 842.794 625.392 841.138 627.48 841.138C629.568 841.138 631.032 842.794 631.032 844.858C631.032 846.922 629.568 848.578 627.48 848.578C625.392 848.578 623.928 846.922 623.928 844.858ZM641.236 850.738C642.796 850.738 644.044 849.946 644.548 849.466V850.498H646.756V839.218H644.476V846.97C643.828 847.738 642.7 848.578 641.308 848.578C640.444 848.578 639.628 848.194 639.124 847.594C638.716 847.114 638.476 846.49 638.476 845.338V839.218H636.196V844.978C636.196 846.874 636.532 847.978 637.228 848.842C638.164 850.018 639.628 850.738 641.236 850.738ZM657.307 839.05C657.043 839.002 656.659 838.978 656.419 838.978C654.763 838.978 653.587 839.746 653.035 840.514V839.218H650.827V850.498H653.107V843.034C653.731 841.954 654.979 841.138 656.155 841.138C656.515 841.138 656.779 841.162 657.043 841.234L657.307 839.05ZM666.296 839.218V850.498H668.576V842.746C669.224 841.978 670.352 841.138 671.744 841.138C672.608 841.138 673.424 841.522 673.928 842.122C674.336 842.602 674.576 843.226 674.576 844.378V850.498H676.856V844.738C676.856 843.946 676.784 843.298 676.664 842.746C677.408 841.978 678.464 841.138 680.096 841.138C680.936 841.138 681.704 841.522 682.208 842.122C682.616 842.602 682.856 843.226 682.856 844.378V850.498H685.136V844.738C685.136 842.842 684.8 841.738 684.104 840.874C683.168 839.698 681.704 838.978 680.096 838.978C678.056 838.978 676.832 839.818 675.8 840.85C674.864 839.722 673.472 838.978 671.816 838.978C670.28 838.978 668.96 839.794 668.504 840.298V839.218H666.296ZM698.919 845.338C698.943 845.122 698.943 844.954 698.943 844.858C698.943 841.522 696.663 838.978 693.519 838.978C690.327 838.978 688.023 841.474 688.023 844.858C688.023 848.242 690.567 850.738 693.855 850.738C696.159 850.738 697.767 849.706 698.607 848.626L697.119 847.21C696.471 847.93 695.559 848.746 693.879 848.746C691.911 848.746 690.351 847.234 690.231 845.338H698.919ZM693.591 840.97C694.935 840.97 696.231 841.978 696.567 843.418H690.423C690.807 841.954 692.127 840.97 693.591 840.97ZM700.981 849.178C702.229 850.186 703.741 850.738 705.541 850.738C707.749 850.738 709.741 849.418 709.741 847.282C709.741 844.954 707.413 844.162 705.637 843.706C704.509 843.418 703.621 843.154 703.621 842.386C703.621 841.498 704.557 840.97 705.661 840.97C706.573 840.97 707.389 841.33 708.085 841.858L709.261 840.226C708.373 839.506 707.173 838.978 705.517 838.978C703.501 838.978 701.341 840.082 701.341 842.506C701.341 844.09 702.565 844.954 703.933 845.41C705.589 845.962 707.461 846.034 707.461 847.33C707.461 848.218 706.477 848.746 705.493 848.746C704.365 848.746 703.213 848.314 702.157 847.498L700.981 849.178ZM711.903 849.178C713.151 850.186 714.663 850.738 716.463 850.738C718.671 850.738 720.663 849.418 720.663 847.282C720.663 844.954 718.335 844.162 716.559 843.706C715.431 843.418 714.543 843.154 714.543 842.386C714.543 841.498 715.479 840.97 716.583 840.97C717.495 840.97 718.311 841.33 719.007 841.858L720.183 840.226C719.295 839.506 718.095 838.978 716.439 838.978C714.423 838.978 712.263 840.082 712.263 842.506C712.263 844.09 713.487 844.954 714.855 845.41C716.511 845.962 718.383 846.034 718.383 847.33C718.383 848.218 717.399 848.746 716.415 848.746C715.287 848.746 714.135 848.314 713.079 847.498L711.903 849.178ZM732.137 850.498H734.345V839.218H732.137V840.25C731.105 839.362 729.881 838.978 728.609 838.978C727.553 838.978 726.617 839.242 725.849 839.698C724.145 840.706 722.945 842.602 722.945 844.858C722.945 847.114 724.121 848.986 725.825 849.994C726.593 850.45 727.649 850.738 728.657 850.738C730.001 850.738 731.225 850.282 732.137 849.466V850.498ZM732.065 846.97C731.297 848.002 730.121 848.578 728.969 848.578C726.785 848.578 725.225 846.874 725.225 844.858C725.225 842.89 726.665 841.138 728.849 841.138C730.217 841.138 731.369 841.834 732.065 842.746V846.97ZM746.596 849.514V850.138C746.596 851.554 746.38 852.418 745.972 853.042C745.42 853.882 744.46 854.338 743.236 854.338C741.388 854.338 740.332 853.402 739.516 852.322L737.836 853.882C738.556 855.01 740.404 856.498 743.332 856.498C745.564 856.498 747.292 855.466 748.204 853.714C748.66 852.826 748.876 851.698 748.876 850.018V839.218H746.668V840.25C745.636 839.362 744.412 838.978 743.14 838.978C742.084 838.978 741.148 839.242 740.38 839.698C738.676 840.706 737.476 842.602 737.476 844.858C737.476 847.114 738.652 848.986 740.356 849.994C741.124 850.45 742.18 850.738 743.188 850.738C744.532 850.738 745.684 850.306 746.596 849.514ZM746.596 846.97C745.828 848.002 744.652 848.578 743.5 848.578C741.316 848.578 739.756 846.874 739.756 844.858C739.756 842.89 741.196 841.138 743.38 841.138C744.748 841.138 745.9 841.834 746.596 842.746V846.97ZM762.904 845.338C762.928 845.122 762.928 844.954 762.928 844.858C762.928 841.522 760.648 838.978 757.504 838.978C754.312 838.978 752.008 841.474 752.008 844.858C752.008 848.242 754.552 850.738 757.84 850.738C760.144 850.738 761.752 849.706 762.592 848.626L761.104 847.21C760.456 847.93 759.544 848.746 757.864 848.746C755.896 848.746 754.336 847.234 754.216 845.338H762.904ZM757.576 840.97C758.92 840.97 760.216 841.978 760.552 843.418H754.408C754.792 841.954 756.112 840.97 757.576 840.97ZM774.795 833.458H772.515V850.498H774.795V842.746C775.467 841.93 776.547 841.138 778.035 841.138C778.971 841.138 779.835 841.57 780.363 842.242C780.771 842.746 781.035 843.418 781.035 844.858V850.498H783.315V844.978C783.315 843.034 782.931 841.882 782.211 840.97C781.251 839.746 779.763 838.978 778.107 838.978C776.547 838.978 775.419 839.674 774.795 840.202V833.458ZM797.099 845.338C797.123 845.122 797.123 844.954 797.123 844.858C797.123 841.522 794.843 838.978 791.699 838.978C788.507 838.978 786.203 841.474 786.203 844.858C786.203 848.242 788.747 850.738 792.035 850.738C794.339 850.738 795.947 849.706 796.787 848.626L795.299 847.21C794.651 847.93 793.739 848.746 792.059 848.746C790.091 848.746 788.531 847.234 788.411 845.338H797.099ZM791.771 840.97C793.115 840.97 794.411 841.978 794.747 843.418H788.603C788.987 841.954 790.307 840.97 791.771 840.97ZM806.721 839.05C806.457 839.002 806.073 838.978 805.833 838.978C804.177 838.978 803.001 839.746 802.449 840.514V839.218H800.241V850.498H802.521V843.034C803.145 841.954 804.393 841.138 805.569 841.138C805.929 841.138 806.193 841.162 806.457 841.234L806.721 839.05ZM818.943 845.338C818.967 845.122 818.967 844.954 818.967 844.858C818.967 841.522 816.687 838.978 813.543 838.978C810.351 838.978 808.047 841.474 808.047 844.858C808.047 848.242 810.591 850.738 813.879 850.738C816.183 850.738 817.791 849.706 818.631 848.626L817.143 847.21C816.495 847.93 815.583 848.746 813.903 848.746C811.935 848.746 810.375 847.234 810.255 845.338H818.943ZM813.615 840.97C814.959 840.97 816.255 841.978 816.591 843.418H810.447C810.831 841.954 812.151 840.97 813.615 840.97ZM823.357 845.218H824.917L825.277 839.218V833.698H822.997V839.218L823.357 845.218ZM822.445 849.058C822.445 849.994 823.189 850.738 824.125 850.738C825.061 850.738 825.805 849.994 825.805 849.058C825.805 848.122 825.061 847.378 824.125 847.378C823.189 847.378 822.445 848.122 822.445 849.058Z" fill="black"/>
<rect x="1186.71" y="801.681" width="136.413" height="80.3177" rx="15" fill="#FFC9E3"/>
<path d="M1214.26 851.06C1216.43 853.685 1219.47 855.155 1222.83 855.155C1227.1 855.155 1230.43 852.355 1230.43 848.05C1230.43 845.25 1228.89 843.535 1227.24 842.45C1224.09 840.35 1218.88 839.685 1218.88 836.57C1218.88 834.435 1220.91 833.28 1222.94 833.28C1224.48 833.28 1225.98 833.84 1227.31 834.96L1229.38 832.405C1228.08 831.32 1225.91 829.955 1222.8 829.955C1218.53 829.955 1215.38 832.895 1215.38 836.465C1215.38 839.02 1216.74 840.7 1218.49 841.855C1221.75 843.99 1226.93 844.41 1226.93 848.155C1226.93 850.36 1224.93 851.83 1222.66 851.83C1220.14 851.83 1218.11 850.43 1216.67 848.68L1214.26 851.06ZM1250.7 847.28C1250.73 846.965 1250.73 846.72 1250.73 846.58C1250.73 841.715 1247.41 838.005 1242.82 838.005C1238.17 838.005 1234.81 841.645 1234.81 846.58C1234.81 851.515 1238.52 855.155 1243.31 855.155C1246.67 855.155 1249.02 853.65 1250.24 852.075L1248.07 850.01C1247.13 851.06 1245.8 852.25 1243.35 852.25C1240.48 852.25 1238.2 850.045 1238.03 847.28H1250.7ZM1242.93 840.91C1244.89 840.91 1246.78 842.38 1247.27 844.48H1238.31C1238.87 842.345 1240.79 840.91 1242.93 840.91ZM1259.9 838.355H1256.68V854.805H1260.01V843.5C1260.99 842.31 1262.56 841.155 1264.73 841.155C1266.1 841.155 1267.36 841.785 1268.13 842.765C1268.72 843.5 1269.11 844.48 1269.11 846.58V854.805H1272.43V846.755C1272.43 843.92 1271.87 842.24 1270.82 840.91C1269.42 839.125 1267.25 838.005 1264.84 838.005C1262.46 838.005 1260.78 839.09 1259.9 839.93V838.355ZM1291.45 854.805H1294.67V829.955H1291.34V839.79C1289.87 838.565 1288.09 838.005 1286.3 838.005C1284.76 838.005 1283.4 838.39 1282.28 839.055C1279.79 840.525 1278.04 843.29 1278.04 846.58C1278.04 849.87 1279.76 852.6 1282.24 854.07C1283.36 854.735 1284.9 855.155 1286.37 855.155C1288.33 855.155 1290.12 854.49 1291.45 853.3V854.805ZM1291.34 849.66C1290.22 851.165 1288.51 852.005 1286.83 852.005C1283.64 852.005 1281.37 849.52 1281.37 846.58C1281.37 843.71 1283.47 841.155 1286.65 841.155C1288.65 841.155 1290.33 842.17 1291.34 843.5V849.66Z" fill="black"/>
<rect x="1074.26" y="815.068" width="51.6156" height="54.5013" rx="10" fill="#FFC9E3"/>
<rect x="1014.35" y="815.068" width="51.6156" height="54.5013" rx="10" fill="#FFC9E3"/>
<path d="M1035.62 835.912C1036.1 833.896 1038.31 832.264 1040.85 832.264C1043.73 832.264 1045.7 834.232 1045.7 836.68C1045.7 841.864 1037.35 842.824 1037.35 848.776C1037.35 850.552 1038.16 852.424 1040.13 853.912L1043.16 850.744C1042.34 850.024 1041.91 849.352 1041.91 848.728C1041.91 846.232 1050.26 844.072 1050.26 836.68C1050.26 831.88 1046.28 827.944 1040.85 827.944C1036.2 827.944 1032.26 830.776 1031.3 834.664L1035.62 835.912ZM1037.3 859.144C1037.3 861.016 1038.79 862.504 1040.66 862.504C1042.53 862.504 1044.02 861.016 1044.02 859.144C1044.02 857.272 1042.53 855.784 1040.66 855.784C1038.79 855.784 1037.3 857.272 1037.3 859.144Z" fill="white"/>
<path d="M1115.58 841.362C1115.58 850.625 1108.36 858.007 1099.61 858.007C1090.86 858.007 1083.64 850.625 1083.64 841.362C1083.64 832.099 1090.86 824.717 1099.61 824.717C1108.36 824.717 1115.58 832.099 1115.58 841.362Z" stroke="white" stroke-width="4"/>
<path d="M1094.75 840.37C1095.74 840.37 1096.51 839.545 1096.51 838.565C1096.51 837.586 1095.74 836.76 1094.75 836.76C1093.77 836.76 1093 837.586 1093 838.565C1093 839.545 1093.77 840.37 1094.75 840.37Z" fill="white" stroke="white"/>
<path d="M1104.46 840.37C1105.45 840.37 1106.22 839.545 1106.22 838.565C1106.22 837.586 1105.45 836.76 1104.46 836.76C1103.47 836.76 1102.7 837.586 1102.7 838.565C1102.7 839.545 1103.47 840.37 1104.46 840.37Z" fill="white" stroke="white"/>
<path d="M1096.38 846.793C1097.41 848.2 1100.14 850.17 1102.85 846.793" stroke="white" stroke-width="3" stroke-linecap="round"/>
<rect x="480.684" y="206.948" width="878.387" height="129.082" rx="40" fill="#FFC9E3"/>
<rect x="480.684" y="280.572" width="878.387" height="104.222" fill="#CCFFFF"/>
<path d="M858.887 244.953C858.887 252.198 864.277 257.553 871.592 257.553C875.372 257.553 879.012 255.698 881.112 253.003L878.627 250.763C877.262 252.408 874.882 254.228 871.592 254.228C866.377 254.228 862.387 250.483 862.387 244.953C862.387 239.668 866.272 235.678 871.277 235.678C873.902 235.678 876.457 236.868 877.892 238.443L880.237 236.133C878.102 233.788 874.777 232.353 871.277 232.353C864.207 232.353 858.887 237.883 858.887 244.953ZM888.127 232.353H884.802V257.203H888.127V245.898C889.107 244.708 890.682 243.553 892.852 243.553C894.217 243.553 895.477 244.183 896.247 245.163C896.842 245.898 897.227 246.878 897.227 248.978V257.203H900.552V249.153C900.552 246.318 899.992 244.638 898.942 243.308C897.542 241.523 895.372 240.403 892.957 240.403C890.682 240.403 889.037 241.418 888.127 242.188V232.353ZM918.169 257.203H921.389V240.753H918.169V242.258C916.664 240.963 914.879 240.403 913.024 240.403C911.484 240.403 910.119 240.788 908.999 241.453C906.514 242.923 904.764 245.688 904.764 248.978C904.764 252.268 906.479 254.998 908.964 256.468C910.084 257.133 911.624 257.553 913.094 257.553C915.054 257.553 916.839 256.888 918.169 255.698V257.203ZM918.064 252.058C916.944 253.563 915.229 254.403 913.549 254.403C910.364 254.403 908.089 251.918 908.089 248.978C908.089 246.108 910.189 243.553 913.374 243.553C915.369 243.553 917.049 244.568 918.064 245.898V252.058ZM936.841 254.193C936.351 254.333 935.511 254.403 935.021 254.403C934.146 254.403 933.201 254.088 932.746 253.528C932.326 253.038 932.256 252.303 932.256 251.428V243.728H937.506V240.753H932.256V236.203H928.931V240.753H924.731V243.728H928.931V251.253C928.931 253.038 929.281 254.543 930.261 255.628C931.311 256.818 932.851 257.553 934.916 257.553C935.861 257.553 936.876 257.413 937.506 257.203L936.841 254.193Z" fill="black"/>
<rect x="68" y="992" width="348" height="247" rx="40" fill="white"/>
<rect x="87" y="1009" width="311" height="133" rx="40" fill="#FFC9E3"/>
<rect x="87" y="1085" width="311" height="141" rx="40" fill="#CCFFFF"/>
<rect x="87" y="1082" width="311" height="93" fill="#CCFFFF"/>
<rect x="110" y="1112" width="263" height="88" rx="40" fill="#FF9F66"/>
<path d="M198.012 1157.31C198.012 1171.71 186.276 1183.4 171.783 1183.4C157.291 1183.4 145.555 1171.71 145.555 1157.31C145.555 1142.91 157.291 1131.22 171.783 1131.22C186.276 1131.22 198.012 1142.91 198.012 1157.31Z" stroke="white" stroke-width="3"/>
<ellipse cx="164.296" cy="1153.17" rx="1.94101" ry="1.93119" fill="white"/>
<ellipse cx="179.271" cy="1153.17" rx="1.94101" ry="1.93119" fill="white"/>
<path d="M166.793 1163.93C168.384 1166.01 172.609 1168.93 176.775 1163.93" stroke="white" stroke-width="2" stroke-linecap="round"/>
<path d="M246.56 1156.8V1152.48H253.76V1150.2H244.16V1167H246.56V1159.08H252.08V1156.8H246.56ZM256.274 1167H258.554V1155.72H256.274V1167ZM255.914 1151.71C255.914 1152.55 256.562 1153.2 257.402 1153.2C258.242 1153.2 258.914 1152.55 258.914 1151.71C258.914 1150.87 258.242 1150.2 257.402 1150.2C256.562 1150.2 255.914 1150.87 255.914 1151.71ZM261.666 1161.36C261.666 1164.72 264.162 1167.24 267.498 1167.24C270.834 1167.24 273.33 1164.72 273.33 1161.36C273.33 1158 270.834 1155.48 267.498 1155.48C264.162 1155.48 261.666 1158 261.666 1161.36ZM263.946 1161.36C263.946 1159.3 265.41 1157.64 267.498 1157.64C269.586 1157.64 271.05 1159.3 271.05 1161.36C271.05 1163.42 269.586 1165.08 267.498 1165.08C265.41 1165.08 263.946 1163.42 263.946 1161.36ZM278.662 1155.72H276.454V1167H278.734V1159.25C279.406 1158.43 280.486 1157.64 281.974 1157.64C282.91 1157.64 283.774 1158.07 284.302 1158.74C284.71 1159.25 284.974 1159.92 284.974 1161.36V1167H287.254V1161.48C287.254 1159.54 286.87 1158.38 286.15 1157.47C285.19 1156.25 283.702 1155.48 282.046 1155.48C280.414 1155.48 279.262 1156.22 278.662 1156.8V1155.72ZM299.335 1167H301.543V1155.72H299.335V1156.75C298.303 1155.86 297.079 1155.48 295.807 1155.48C294.751 1155.48 293.815 1155.74 293.047 1156.2C291.343 1157.21 290.143 1159.1 290.143 1161.36C290.143 1163.62 291.319 1165.49 293.023 1166.5C293.791 1166.95 294.847 1167.24 295.855 1167.24C297.199 1167.24 298.423 1166.78 299.335 1165.97V1167ZM299.263 1163.47C298.495 1164.5 297.319 1165.08 296.167 1165.08C293.983 1165.08 292.423 1163.38 292.423 1161.36C292.423 1159.39 293.863 1157.64 296.047 1157.64C297.415 1157.64 298.567 1158.34 299.263 1159.25V1163.47Z" fill="black"/>
<path d="M149.45 1043.51V1060H152.95V1035.5H150.5L141.05 1050.44L131.6 1035.5H129.15V1060H132.65V1043.51L139.825 1054.75H142.275L149.45 1043.51ZM173.577 1052.47C173.612 1052.16 173.612 1051.91 173.612 1051.77C173.612 1046.91 170.287 1043.2 165.702 1043.2C161.047 1043.2 157.687 1046.84 157.687 1051.77C157.687 1056.71 161.397 1060.35 166.192 1060.35C169.552 1060.35 171.897 1058.85 173.122 1057.27L170.952 1055.2C170.007 1056.25 168.677 1057.44 166.227 1057.44C163.357 1057.44 161.082 1055.24 160.907 1052.47H173.577ZM165.807 1046.1C167.767 1046.1 169.657 1047.57 170.147 1049.67H161.187C161.747 1047.54 163.672 1046.1 165.807 1046.1Z" fill="black"/>
<rect x="315" y="1023" width="44" height="47" rx="10" fill="white"/>
<path d="M322.527 1060.77L325.308 1053.74L348.875 1033.25L348.937 1033.33L353.109 1038.41L329.542 1058.9L322.527 1060.77Z" stroke="#FFC9E3" stroke-width="2"/>
<path d="M326.676 1052.55L330.91 1057.71" stroke="#FFC9E3" stroke-width="2"/>
<path d="M325.615 1059.51C325.535 1058.3 324.564 1057.77 324.089 1057.65L322.737 1060.62L325.615 1059.51Z" fill="#5BAEE1" stroke="#FFC9E3" stroke-width="2"/>
<path d="M1335.96 471.729C1335.96 486.267 1324.61 497.957 1310.73 497.957C1296.85 497.957 1285.5 486.267 1285.5 471.729C1285.5 457.191 1296.85 445.5 1310.73 445.5C1324.61 445.5 1335.96 457.191 1335.96 471.729Z" fill="#FF9F66" stroke="#FF9F66" stroke-width="3"/>
<ellipse cx="1303.51" cy="467.569" rx="1.87106" ry="1.94101" fill="black"/>
<ellipse cx="1317.95" cy="467.569" rx="1.87106" ry="1.94101" fill="black"/>
<path d="M1305.92 478.384C1307.45 480.476 1311.52 483.405 1315.54 478.384" stroke="black" stroke-width="2" stroke-linecap="round"/>
<path d="M581.959 401.729C581.959 416.267 570.612 427.957 556.729 427.957C542.847 427.957 531.5 416.267 531.5 401.729C531.5 387.191 542.847 375.5 556.729 375.5C570.612 375.5 581.959 387.191 581.959 401.729Z" fill="#FFF574" stroke="#FFF574" stroke-width="3"/>
<ellipse cx="549.514" cy="397.569" rx="1.87106" ry="1.94101" fill="black"/>
<ellipse cx="563.947" cy="397.569" rx="1.87106" ry="1.94101" fill="black"/>
<path d="M551.918 408.384C553.452 410.476 557.524 413.405 561.541 408.384" stroke="black" stroke-width="2" stroke-linecap="round"/>
<rect width="104" height="70" rx="35" transform="matrix(-1 0 0 1 1236 402)" fill="white"/>
<path d="M1260.1 473.752L1211.29 431.497L1195.56 472.192L1260.1 473.752Z" fill="white"/>
<path d="M1181.94 444H1184.34V427.2H1181.94V433.8H1172.58V427.2H1170.18V444H1172.58V436.08H1181.94V444ZM1188.53 444H1190.81V432.72H1188.53V444ZM1188.17 428.712C1188.17 429.552 1188.82 430.2 1189.66 430.2C1190.5 430.2 1191.17 429.552 1191.17 428.712C1191.17 427.872 1190.5 427.2 1189.66 427.2C1188.82 427.2 1188.17 427.872 1188.17 428.712ZM1196.16 438.72H1197.72L1198.08 432.72V427.2H1195.8V432.72L1196.16 438.72ZM1195.24 442.56C1195.24 443.496 1195.99 444.24 1196.92 444.24C1197.86 444.24 1198.6 443.496 1198.6 442.56C1198.6 441.624 1197.86 440.88 1196.92 440.88C1195.99 440.88 1195.24 441.624 1195.24 442.56Z" fill="black"/>
<rect x="631.186" y="332" width="134" height="70" rx="35" fill="white"/>
<path d="M607.081 403.752L655.896 361.497L671.625 402.192L607.081 403.752Z" fill="white"/>
<path d="M681.106 374H683.506V357.2H681.106V363.8H671.746V357.2H669.346V374H671.746V366.08H681.106V374ZM697.63 368.84C697.654 368.624 697.654 368.456 697.654 368.36C697.654 365.024 695.374 362.48 692.23 362.48C689.038 362.48 686.734 364.976 686.734 368.36C686.734 371.744 689.278 374.24 692.566 374.24C694.87 374.24 696.478 373.208 697.318 372.128L695.83 370.712C695.182 371.432 694.27 372.248 692.59 372.248C690.622 372.248 689.062 370.736 688.942 368.84H697.63ZM692.302 364.472C693.646 364.472 694.942 365.48 695.278 366.92H689.134C689.518 365.456 690.838 364.472 692.302 364.472ZM700.772 374H703.052V356.96H700.772V374ZM707.124 374H709.404V356.96H707.124V374ZM712.516 368.36C712.516 371.72 715.012 374.24 718.348 374.24C721.684 374.24 724.18 371.72 724.18 368.36C724.18 365 721.684 362.48 718.348 362.48C715.012 362.48 712.516 365 712.516 368.36ZM714.796 368.36C714.796 366.296 716.26 364.64 718.348 364.64C720.436 364.64 721.9 366.296 721.9 368.36C721.9 370.424 720.436 372.08 718.348 372.08C716.26 372.08 714.796 370.424 714.796 368.36Z" fill="black"/>
<path d="M578.959 556.729C578.959 571.267 567.612 582.957 553.729 582.957C539.847 582.957 528.5 571.267 528.5 556.729C528.5 542.191 539.847 530.5 553.729 530.5C567.612 530.5 578.959 542.191 578.959 556.729Z" fill="#FFF574" stroke="#FFF574" stroke-width="3"/>
<ellipse cx="546.514" cy="552.569" rx="1.87106" ry="1.94101" fill="black"/>
<ellipse cx="560.947" cy="552.569" rx="1.87106" ry="1.94101" fill="black"/>
<path d="M548.918 563.384C550.452 565.476 554.524 568.406 558.541 563.384" stroke="black" stroke-width="2" stroke-linecap="round"/>
<rect x="628" y="487" width="214" height="70" rx="35" fill="white"/>
<path d="M604.081 558.752L652.896 516.497L668.625 557.192L604.081 558.752Z" fill="white"/>
<path d="M681.4 518.568L685.6 531H687.28L692.56 514.2H690.112L686.344 526.368L682.24 514.2H680.56L676.456 526.368L672.688 514.2H670.24L675.52 531H677.2L681.4 518.568ZM697.125 513.96H694.845V531H697.125V523.248C697.797 522.432 698.877 521.64 700.365 521.64C701.301 521.64 702.165 522.072 702.693 522.744C703.101 523.248 703.365 523.92 703.365 525.36V531H705.645V525.48C705.645 523.536 705.261 522.384 704.541 521.472C703.581 520.248 702.093 519.48 700.437 519.48C698.877 519.48 697.749 520.176 697.125 520.704V513.96ZM717.725 531H719.933V519.72H717.725V520.752C716.693 519.864 715.469 519.48 714.197 519.48C713.141 519.48 712.205 519.744 711.437 520.2C709.733 521.208 708.533 523.104 708.533 525.36C708.533 527.616 709.709 529.488 711.413 530.496C712.181 530.952 713.237 531.24 714.245 531.24C715.589 531.24 716.813 530.784 717.725 529.968V531ZM717.653 527.472C716.885 528.504 715.709 529.08 714.557 529.08C712.373 529.08 710.813 527.376 710.813 525.36C710.813 523.392 712.253 521.64 714.437 521.64C715.805 521.64 716.957 522.336 717.653 523.248V527.472ZM730.528 528.936C730.192 529.032 729.616 529.08 729.28 529.08C728.68 529.08 728.032 528.864 727.72 528.48C727.432 528.144 727.384 527.64 727.384 527.04V521.76H730.984V519.72H727.384V516.6H725.104V519.72H722.224V521.76H725.104V526.92C725.104 528.144 725.344 529.176 726.016 529.92C726.736 530.736 727.792 531.24 729.208 531.24C729.856 531.24 730.552 531.144 730.984 531L730.528 528.936ZM735.297 513.96L733.497 520.2H735.057L737.937 513.96H735.297ZM738.179 529.68C739.427 530.688 740.939 531.24 742.739 531.24C744.947 531.24 746.939 529.92 746.939 527.784C746.939 525.456 744.611 524.664 742.835 524.208C741.707 523.92 740.819 523.656 740.819 522.888C740.819 522 741.755 521.472 742.859 521.472C743.771 521.472 744.587 521.832 745.283 522.36L746.459 520.728C745.571 520.008 744.371 519.48 742.715 519.48C740.699 519.48 738.539 520.584 738.539 523.008C738.539 524.592 739.763 525.456 741.131 525.912C742.787 526.464 744.659 526.536 744.659 527.832C744.659 528.72 743.675 529.248 742.691 529.248C741.563 529.248 740.411 528.816 739.355 528L738.179 529.68ZM761.449 531.24C763.009 531.24 764.257 530.448 764.761 529.968V531H766.969V519.72H764.689V527.472C764.041 528.24 762.913 529.08 761.521 529.08C760.657 529.08 759.841 528.696 759.337 528.096C758.929 527.616 758.689 526.992 758.689 525.84V519.72H756.409V525.48C756.409 527.376 756.745 528.48 757.441 529.344C758.377 530.52 759.841 531.24 761.449 531.24ZM773.32 530.016C774.232 530.808 775.384 531.24 776.728 531.24C777.736 531.24 778.792 530.952 779.56 530.496C781.264 529.488 782.44 527.616 782.44 525.36C782.44 523.104 781.24 521.208 779.536 520.2C778.768 519.744 777.832 519.48 776.776 519.48C775.504 519.48 774.28 519.864 773.248 520.752V519.72H771.04V536.76H773.32V530.016ZM773.32 523.248C774.016 522.336 775.168 521.64 776.536 521.64C778.72 521.64 780.16 523.392 780.16 525.36C780.16 527.376 778.6 529.08 776.416 529.08C775.264 529.08 774.088 528.504 773.32 527.472V523.248ZM787.251 517.944C787.491 516.936 788.595 516.12 789.867 516.12C791.307 516.12 792.291 517.104 792.291 518.328C792.291 520.92 788.115 521.4 788.115 524.376C788.115 525.264 788.523 526.2 789.507 526.944L791.019 525.36C790.611 525 790.395 524.664 790.395 524.352C790.395 523.104 794.571 522.024 794.571 518.328C794.571 515.928 792.579 513.96 789.867 513.96C787.539 513.96 785.571 515.376 785.091 517.32L787.251 517.944ZM788.091 529.56C788.091 530.496 788.835 531.24 789.771 531.24C790.707 531.24 791.451 530.496 791.451 529.56C791.451 528.624 790.707 527.88 789.771 527.88C788.835 527.88 788.091 528.624 788.091 529.56Z" fill="black"/>
</g>
<defs>
<clipPath id="clip0">
<rect width="1440" height="1545" fill="white"/>
</clipPath>
</defs>
</svg>
