<svg width="1440" height="1863" viewBox="0 0 1440 1863" fill="none" xmlns="http://www.w3.org/2000/svg">
<g clip-path="url(#clip0)">
<rect width="1440" height="1863" fill="white"/>
<rect width="1440" height="2572" fill="#FFC9E3"/>
<path d="M523.76 285H530.96V234.6H523.76V254.4H495.68V234.6H488.48V285H495.68V261.24H523.76V285ZM543.526 285H550.366V251.16H543.526V285ZM542.446 239.136C542.446 241.656 544.39 243.6 546.91 243.6C549.43 243.6 551.446 241.656 551.446 239.136C551.446 236.616 549.43 234.6 546.91 234.6C544.39 234.6 542.446 236.616 542.446 239.136ZM619.787 285H624.827V234.6H617.627V271.608L587.387 234.6H582.347V285H589.547V247.992L619.787 285ZM667.201 269.52C667.273 268.872 667.273 268.368 667.273 268.08C667.273 258.072 660.433 250.44 651.001 250.44C641.425 250.44 634.513 257.928 634.513 268.08C634.513 278.232 642.145 285.72 652.009 285.72C658.921 285.72 663.745 282.624 666.265 279.384L661.801 275.136C659.857 277.296 657.121 279.744 652.081 279.744C646.177 279.744 641.497 275.208 641.137 269.52H667.201ZM651.217 256.416C655.249 256.416 659.137 259.44 660.145 263.76H641.713C642.865 259.368 646.825 256.416 651.217 256.416ZM676.628 285H683.468V251.16H676.628V285ZM675.548 239.136C675.548 241.656 677.492 243.6 680.012 243.6C682.532 243.6 684.548 241.656 684.548 239.136C684.548 236.616 682.532 234.6 680.012 234.6C677.492 234.6 675.548 236.616 675.548 239.136ZM720.163 282.048V283.92C720.163 288.168 719.515 290.76 718.291 292.632C716.635 295.152 713.755 296.52 710.083 296.52C704.539 296.52 701.371 293.712 698.923 290.472L693.883 295.152C696.043 298.536 701.587 303 710.371 303C717.067 303 722.251 299.904 724.987 294.648C726.355 291.984 727.003 288.6 727.003 283.56V251.16H720.379V254.256C717.283 251.592 713.611 250.44 709.795 250.44C706.627 250.44 703.819 251.232 701.515 252.6C696.403 255.624 692.803 261.312 692.803 268.08C692.803 274.848 696.331 280.464 701.443 283.488C703.747 284.856 706.915 285.72 709.939 285.72C713.971 285.72 717.427 284.424 720.163 282.048ZM720.163 274.416C717.859 277.512 714.331 279.24 710.875 279.24C704.323 279.24 699.643 274.128 699.643 268.08C699.643 262.176 703.963 256.92 710.515 256.92C714.619 256.92 718.075 259.008 720.163 261.744V274.416ZM746.116 233.88H739.276V285H746.116V261.744C748.132 259.296 751.372 256.92 755.836 256.92C758.644 256.92 761.236 258.216 762.82 260.232C764.044 261.744 764.836 263.76 764.836 268.08V285H771.676V268.44C771.676 262.608 770.524 259.152 768.364 256.416C765.484 252.744 761.02 250.44 756.052 250.44C751.372 250.44 747.988 252.528 746.116 254.112V233.88ZM789.846 281.904C792.582 284.352 796.254 285.72 800.286 285.72C803.31 285.72 806.478 284.856 808.782 283.488C813.894 280.464 817.422 274.848 817.422 268.08C817.422 261.312 813.822 255.624 808.71 252.6C806.406 251.232 803.598 250.44 800.43 250.44C796.758 250.44 793.086 251.592 790.062 254.112V233.88H783.222V285H789.846V281.904ZM790.062 261.744C792.15 259.008 795.606 256.92 799.71 256.92C806.262 256.92 810.582 262.176 810.582 268.08C810.582 274.128 805.902 279.24 799.35 279.24C795.894 279.24 792.366 277.512 790.062 274.416V261.744ZM823.935 268.08C823.935 278.16 831.423 285.72 841.431 285.72C851.439 285.72 858.927 278.16 858.927 268.08C858.927 258 851.439 250.44 841.431 250.44C831.423 250.44 823.935 258 823.935 268.08ZM830.775 268.08C830.775 261.888 835.167 256.92 841.431 256.92C847.695 256.92 852.087 261.888 852.087 268.08C852.087 274.272 847.695 279.24 841.431 279.24C835.167 279.24 830.775 274.272 830.775 268.08ZM887.74 250.656C886.948 250.512 885.796 250.44 885.076 250.44C880.108 250.44 876.58 252.744 874.924 255.048V251.16H868.3V285H875.14V262.608C877.012 259.368 880.756 256.92 884.284 256.92C885.364 256.92 886.156 256.992 886.948 257.208L887.74 250.656ZM899.819 269.16H904.499L905.579 251.16V234.6H898.739V251.16L899.819 269.16ZM897.083 280.68C897.083 283.488 899.315 285.72 902.123 285.72C904.931 285.72 907.163 283.488 907.163 280.68C907.163 277.872 904.931 275.64 902.123 275.64C899.315 275.64 897.083 277.872 897.083 280.68Z" fill="black"/>
<path d="M159.35 89H161.8V64.5H158.3V82.49L143.6 64.5H141.15V89H144.65V71.01L159.35 89ZM171.584 74.125V67.825H182.084V64.5H168.084V89H182.434V85.675H171.584V77.45H179.634V74.125H171.584ZM186.985 89H190.485V64.5H186.985V89ZM217.095 74.125H206.595V77.45H213.595V83.75C212.3 85.045 210.165 86.025 207.575 86.025C202.36 86.025 198.37 82.28 198.37 76.75C198.37 71.465 202.255 67.475 207.26 67.475C209.885 67.475 212.44 68.665 213.875 70.24L216.22 67.93C214.085 65.585 210.76 64.15 207.26 64.15C200.19 64.15 194.87 69.68 194.87 76.75C194.87 83.995 200.26 89.35 207.575 89.35C211.355 89.35 214.995 87.46 217.095 84.8V74.125ZM239.682 89H243.182V64.5H239.682V74.125H226.032V64.5H222.532V89H226.032V77.45H239.682V89ZM252.965 85.675V77.45H258.285C260.49 77.45 261.54 77.94 262.31 78.71C263.01 79.445 263.465 80.425 263.465 81.545C263.465 82.665 263.01 83.68 262.31 84.415C261.54 85.185 260.49 85.675 258.285 85.675H252.965ZM252.965 74.125V67.825H257.165C259.125 67.825 259.965 68.21 260.525 68.84C261.05 69.4 261.365 70.135 261.365 70.975C261.365 71.815 261.05 72.55 260.525 73.11C259.965 73.74 259.125 74.125 257.165 74.125H252.965ZM258.915 89C261.4 89 263.01 88.405 264.27 87.355C265.915 86.025 266.965 83.96 266.965 81.685C266.965 78.92 265.25 76.4 262.94 75.245C264.095 74.16 264.865 72.55 264.865 70.87C264.865 69.05 264.095 67.37 262.835 66.215C261.68 65.165 260.175 64.5 257.795 64.5H249.465V89H258.915ZM269.586 76.75C269.586 83.89 274.906 89.35 281.836 89.35C288.766 89.35 294.086 83.89 294.086 76.75C294.086 69.61 288.766 64.15 281.836 64.15C274.906 64.15 269.586 69.61 269.586 76.75ZM273.086 76.75C273.086 71.465 276.831 67.475 281.836 67.475C286.841 67.475 290.586 71.465 290.586 76.75C290.586 82.07 286.841 86.025 281.836 86.025C276.831 86.025 273.086 82.07 273.086 76.75ZM304.745 77.45L313.46 89H317.695L308.91 77.31C310.135 77.1 311.01 76.645 311.78 76.015C313.25 74.825 314.195 73.005 314.195 70.975C314.195 68.945 313.25 67.125 311.78 65.935C310.66 65.025 309.26 64.5 307.02 64.5H298.445V89H301.945V77.45H304.745ZM301.945 74.125V67.825H306.845C308.42 67.825 309.225 68.175 309.785 68.735C310.345 69.295 310.695 70.1 310.695 70.975C310.695 71.85 310.345 72.655 309.785 73.215C309.225 73.775 308.42 74.125 306.845 74.125H301.945ZM318.562 85.255C320.732 87.88 323.777 89.35 327.137 89.35C331.407 89.35 334.732 86.55 334.732 82.245C334.732 79.445 333.192 77.73 331.547 76.645C328.397 74.545 323.182 73.88 323.182 70.765C323.182 68.63 325.212 67.475 327.242 67.475C328.782 67.475 330.287 68.035 331.617 69.155L333.682 66.6C332.387 65.515 330.217 64.15 327.102 64.15C322.832 64.15 319.682 67.09 319.682 70.66C319.682 73.215 321.047 74.895 322.797 76.05C326.052 78.185 331.232 78.605 331.232 82.35C331.232 84.555 329.237 86.025 326.962 86.025C324.442 86.025 322.412 84.625 320.977 82.875L318.562 85.255Z" fill="#FF6F81"/>
<rect x="71.8672" y="54.9639" width="53.8072" height="37.0361" fill="#FF6F81"/>
<path d="M97.7229 34L136.454 54.9639H58.9917L97.7229 34Z" fill="#FF6F81"/>
<rect x="899" y="813" width="226" height="91" rx="28" fill="white" stroke="white" stroke-width="4"/>
<path d="M938.448 485H943.44L929.52 451.4H926.16L912.24 485H917.232L920.736 476.36H934.896L938.448 485ZM927.84 459.32L933.024 471.8H922.656L927.84 459.32ZM973.688 450.776C973.064 450.584 971.96 450.44 971 450.44C967.928 450.44 965.24 451.832 963.608 454.184C962.6 455.624 962.168 457.496 962.168 460.52V462.44H956.888V466.52H962.168V485H966.728V466.52H973.688V462.44H966.728V460.376C966.728 458.312 966.968 457.16 967.592 456.344C968.359 455.336 969.752 454.76 971.048 454.76C971.672 454.76 972.392 454.856 972.728 454.952L973.688 450.776ZM987.883 485.48C991.003 485.48 993.499 483.896 994.507 482.936V485H998.923V462.44H994.363V477.944C993.067 479.48 990.811 481.16 988.027 481.16C986.299 481.16 984.667 480.392 983.659 479.192C982.843 478.232 982.363 476.984 982.363 474.68V462.44H977.803V473.96C977.803 477.752 978.475 479.96 979.867 481.688C981.739 484.04 984.667 485.48 987.883 485.48ZM1011.48 462.44H1007.06V485H1011.62V469.496C1012.97 467.864 1015.13 466.28 1018.1 466.28C1019.98 466.28 1021.7 467.144 1022.76 468.488C1023.58 469.496 1024.1 470.84 1024.1 473.72V485H1028.66V473.96C1028.66 470.072 1027.9 467.768 1026.46 465.944C1024.54 463.496 1021.56 461.96 1018.25 461.96C1014.98 461.96 1012.68 463.448 1011.48 464.6V462.44ZM1065.76 485H1070.18V462.44H1065.76V464.504C1063.7 462.728 1061.25 461.96 1058.71 461.96C1056.59 461.96 1054.72 462.488 1053.19 463.4C1049.78 465.416 1047.38 469.208 1047.38 473.72C1047.38 478.232 1049.73 481.976 1053.14 483.992C1054.67 484.904 1056.79 485.48 1058.8 485.48C1061.49 485.48 1063.94 484.568 1065.76 482.936V485ZM1065.62 477.944C1064.08 480.008 1061.73 481.16 1059.43 481.16C1055.06 481.16 1051.94 477.752 1051.94 473.72C1051.94 469.784 1054.82 466.28 1059.19 466.28C1061.92 466.28 1064.23 467.672 1065.62 469.496V477.944ZM1082.78 462.44H1078.36V485H1082.92V469.496C1084.27 467.864 1086.43 466.28 1089.4 466.28C1091.27 466.28 1093 467.144 1094.06 468.488C1094.87 469.496 1095.4 470.84 1095.4 473.72V485H1099.96V473.96C1099.96 470.072 1099.19 467.768 1097.75 465.944C1095.83 463.496 1092.86 461.96 1089.55 461.96C1086.28 461.96 1083.98 463.448 1082.78 464.6V462.44ZM1124.12 485H1128.54V450.92H1123.98V464.408C1121.96 462.728 1119.51 461.96 1117.07 461.96C1114.95 461.96 1113.08 462.488 1111.55 463.4C1108.14 465.416 1105.74 469.208 1105.74 473.72C1105.74 478.232 1108.09 481.976 1111.5 483.992C1113.03 484.904 1115.15 485.48 1117.16 485.48C1119.85 485.48 1122.3 484.568 1124.12 482.936V485ZM1123.98 477.944C1122.44 480.008 1120.09 481.16 1117.79 481.16C1113.42 481.16 1110.3 477.752 1110.3 473.72C1110.3 469.784 1113.18 466.28 1117.55 466.28C1120.28 466.28 1122.59 467.672 1123.98 469.496V477.944ZM1147.5 482.36C1149.99 484.376 1153.02 485.48 1156.62 485.48C1161.03 485.48 1165.02 482.84 1165.02 478.568C1165.02 473.912 1160.36 472.328 1156.81 471.416C1154.55 470.84 1152.78 470.312 1152.78 468.776C1152.78 467 1154.65 465.944 1156.86 465.944C1158.68 465.944 1160.31 466.664 1161.71 467.72L1164.06 464.456C1162.28 463.016 1159.88 461.96 1156.57 461.96C1152.54 461.96 1148.22 464.168 1148.22 469.016C1148.22 472.184 1150.67 473.912 1153.4 474.824C1156.71 475.928 1160.46 476.072 1160.46 478.664C1160.46 480.44 1158.49 481.496 1156.52 481.496C1154.27 481.496 1151.96 480.632 1149.85 479L1147.5 482.36ZM1187.97 485H1192.38V462.44H1187.97V464.504C1185.9 462.728 1183.45 461.96 1180.91 461.96C1178.8 461.96 1176.93 462.488 1175.39 463.4C1171.98 465.416 1169.58 469.208 1169.58 473.72C1169.58 478.232 1171.93 481.976 1175.34 483.992C1176.88 484.904 1178.99 485.48 1181.01 485.48C1183.69 485.48 1186.14 484.568 1187.97 482.936V485ZM1187.82 477.944C1186.29 480.008 1183.93 481.16 1181.63 481.16C1177.26 481.16 1174.14 477.752 1174.14 473.72C1174.14 469.784 1177.02 466.28 1181.39 466.28C1184.13 466.28 1186.43 467.672 1187.82 469.496V477.944ZM1214.48 450.776C1213.86 450.584 1212.76 450.44 1211.8 450.44C1208.72 450.44 1206.04 451.832 1204.4 454.184C1203.4 455.624 1202.96 457.496 1202.96 460.52V462.44H1197.68V466.52H1202.96V485H1207.52V466.52H1214.48V462.44H1207.52V460.376C1207.52 458.312 1207.76 457.16 1208.39 456.344C1209.16 455.336 1210.55 454.76 1211.84 454.76C1212.47 454.76 1213.19 454.856 1213.52 454.952L1214.48 450.776ZM1238.95 474.68C1239 474.248 1239 473.912 1239 473.72C1239 467.048 1234.44 461.96 1228.15 461.96C1221.77 461.96 1217.16 466.952 1217.16 473.72C1217.16 480.488 1222.25 485.48 1228.82 485.48C1233.43 485.48 1236.65 483.416 1238.33 481.256L1235.35 478.424C1234.06 479.864 1232.23 481.496 1228.87 481.496C1224.94 481.496 1221.82 478.472 1221.58 474.68H1238.95ZM1228.3 465.944C1230.98 465.944 1233.58 467.96 1234.25 470.84H1221.96C1222.73 467.912 1225.37 465.944 1228.3 465.944ZM932.736 535.656C931.296 537.576 929.184 539.16 926.208 539.16C921.888 539.16 918.72 536.136 918.72 531.72C918.72 527.448 921.84 524.28 925.92 524.28C928.8 524.28 930.912 525.96 932.16 527.688L935.52 524.856C933.408 521.928 929.856 519.96 925.92 519.96C919.152 519.96 914.16 525.048 914.16 531.72C914.16 538.392 919.248 543.48 926.208 543.48C930.336 543.48 934.368 541.32 936.24 538.2L932.736 535.656ZM946.093 508.92H941.533V543H946.093V527.496C947.437 525.864 949.597 524.28 952.573 524.28C954.445 524.28 956.173 525.144 957.229 526.488C958.045 527.496 958.573 528.84 958.573 531.72V543H963.133V531.96C963.133 528.072 962.365 525.768 960.925 523.944C959.005 521.496 956.029 519.96 952.717 519.96C949.597 519.96 947.341 521.352 946.093 522.408V508.92ZM987.294 543H991.71V520.44H987.294V522.504C985.23 520.728 982.782 519.96 980.238 519.96C978.126 519.96 976.254 520.488 974.718 521.4C971.31 523.416 968.91 527.208 968.91 531.72C968.91 536.232 971.262 539.976 974.67 541.992C976.206 542.904 978.318 543.48 980.334 543.48C983.022 543.48 985.47 542.568 987.294 540.936V543ZM987.15 535.944C985.614 538.008 983.262 539.16 980.958 539.16C976.59 539.16 973.47 535.752 973.47 531.72C973.47 527.784 976.35 524.28 980.718 524.28C983.454 524.28 985.758 525.672 987.15 527.496V535.944ZM1012.9 538.872C1012.23 539.064 1011.08 539.16 1010.4 539.16C1009.2 539.16 1007.91 538.728 1007.28 537.96C1006.71 537.288 1006.61 536.28 1006.61 535.08V524.52H1013.81V520.44H1006.61V514.2H1002.05V520.44H996.293V524.52H1002.05V534.84C1002.05 537.288 1002.53 539.352 1003.88 540.84C1005.32 542.472 1007.43 543.48 1010.26 543.48C1011.56 543.48 1012.95 543.288 1013.81 543L1012.9 538.872ZM1048.98 543H1053.4V520.44H1048.98V522.504C1046.92 520.728 1044.47 519.96 1041.93 519.96C1039.81 519.96 1037.94 520.488 1036.41 521.4C1033 523.416 1030.6 527.208 1030.6 531.72C1030.6 536.232 1032.95 539.976 1036.36 541.992C1037.89 542.904 1040.01 543.48 1042.02 543.48C1044.71 543.48 1047.16 542.568 1048.98 540.936V543ZM1048.84 535.944C1047.3 538.008 1044.95 539.16 1042.65 539.16C1038.28 539.16 1035.16 535.752 1035.16 531.72C1035.16 527.784 1038.04 524.28 1042.41 524.28C1045.14 524.28 1047.45 525.672 1048.84 527.496V535.944ZM1066.14 541.032C1067.96 542.616 1070.27 543.48 1072.96 543.48C1074.97 543.48 1077.08 542.904 1078.62 541.992C1082.03 539.976 1084.38 536.232 1084.38 531.72C1084.38 527.208 1081.98 523.416 1078.57 521.4C1077.04 520.488 1075.16 519.96 1073.05 519.96C1070.51 519.96 1068.06 520.728 1066 522.504V520.44H1061.58V554.52H1066.14V541.032ZM1066.14 527.496C1067.53 525.672 1069.84 524.28 1072.57 524.28C1076.94 524.28 1079.82 527.784 1079.82 531.72C1079.82 535.752 1076.7 539.16 1072.33 539.16C1070.03 539.16 1067.68 538.008 1066.14 535.944V527.496ZM1095.2 541.032C1097.03 542.616 1099.33 543.48 1102.02 543.48C1104.03 543.48 1106.15 542.904 1107.68 541.992C1111.09 539.976 1113.44 536.232 1113.44 531.72C1113.44 527.208 1111.04 523.416 1107.63 521.4C1106.1 520.488 1104.23 519.96 1102.11 519.96C1099.57 519.96 1097.12 520.728 1095.06 522.504V520.44H1090.64V554.52H1095.2V541.032ZM1095.2 527.496C1096.59 525.672 1098.9 524.28 1101.63 524.28C1106 524.28 1108.88 527.784 1108.88 531.72C1108.88 535.752 1105.76 539.16 1101.39 539.16C1099.09 539.16 1096.74 538.008 1095.2 535.944V527.496ZM1119.71 543H1124.27V508.92H1119.71V543ZM1132.41 543H1136.97V520.44H1132.41V543ZM1131.69 512.424C1131.69 514.104 1132.98 515.4 1134.66 515.4C1136.34 515.4 1137.69 514.104 1137.69 512.424C1137.69 510.744 1136.34 509.4 1134.66 509.4C1132.98 509.4 1131.69 510.744 1131.69 512.424ZM1161.77 535.656C1160.33 537.576 1158.22 539.16 1155.24 539.16C1150.92 539.16 1147.75 536.136 1147.75 531.72C1147.75 527.448 1150.87 524.28 1154.95 524.28C1157.83 524.28 1159.94 525.96 1161.19 527.688L1164.55 524.856C1162.44 521.928 1158.89 519.96 1154.95 519.96C1148.18 519.96 1143.19 525.048 1143.19 531.72C1143.19 538.392 1148.28 543.48 1155.24 543.48C1159.37 543.48 1163.4 541.32 1165.27 538.2L1161.77 535.656ZM1187.03 543H1191.44V520.44H1187.03V522.504C1184.96 520.728 1182.52 519.96 1179.97 519.96C1177.86 519.96 1175.99 520.488 1174.45 521.4C1171.04 523.416 1168.64 527.208 1168.64 531.72C1168.64 536.232 1171 539.976 1174.4 541.992C1175.94 542.904 1178.05 543.48 1180.07 543.48C1182.76 543.48 1185.2 542.568 1187.03 540.936V543ZM1186.88 535.944C1185.35 538.008 1183 539.16 1180.69 539.16C1176.32 539.16 1173.2 535.752 1173.2 531.72C1173.2 527.784 1176.08 524.28 1180.45 524.28C1183.19 524.28 1185.49 525.672 1186.88 527.496V535.944ZM1212.63 538.872C1211.96 539.064 1210.81 539.16 1210.14 539.16C1208.94 539.16 1207.64 538.728 1207.02 537.96C1206.44 537.288 1206.35 536.28 1206.35 535.08V524.52H1213.55V520.44H1206.35V514.2H1201.79V520.44H1196.03V524.52H1201.79V534.84C1201.79 537.288 1202.27 539.352 1203.61 540.84C1205.05 542.472 1207.16 543.48 1209.99 543.48C1211.29 543.48 1212.68 543.288 1213.55 543L1212.63 538.872ZM1219.78 543H1224.34V520.44H1219.78V543ZM1219.06 512.424C1219.06 514.104 1220.36 515.4 1222.04 515.4C1223.72 515.4 1225.06 514.104 1225.06 512.424C1225.06 510.744 1223.72 509.4 1222.04 509.4C1220.36 509.4 1219.06 510.744 1219.06 512.424ZM1230.57 531.72C1230.57 538.44 1235.56 543.48 1242.23 543.48C1248.9 543.48 1253.89 538.44 1253.89 531.72C1253.89 525 1248.9 519.96 1242.23 519.96C1235.56 519.96 1230.57 525 1230.57 531.72ZM1235.13 531.72C1235.13 527.592 1238.05 524.28 1242.23 524.28C1246.41 524.28 1249.33 527.592 1249.33 531.72C1249.33 535.848 1246.41 539.16 1242.23 539.16C1238.05 539.16 1235.13 535.848 1235.13 531.72ZM1264.56 520.44H1260.14V543H1264.7V527.496C1266.05 525.864 1268.21 524.28 1271.18 524.28C1273.05 524.28 1274.78 525.144 1275.84 526.488C1276.65 527.496 1277.18 528.84 1277.18 531.72V543H1281.74V531.96C1281.74 528.072 1280.97 525.768 1279.53 523.944C1277.61 521.496 1274.64 519.96 1271.33 519.96C1268.06 519.96 1265.76 521.448 1264.56 522.6V520.44ZM930 566.776C929.376 566.584 928.272 566.44 927.312 566.44C924.24 566.44 921.552 567.832 919.92 570.184C918.912 571.624 918.48 573.496 918.48 576.52V578.44H913.2V582.52H918.48V601H923.04V582.52H930V578.44H923.04V576.376C923.04 574.312 923.28 573.16 923.904 572.344C924.672 571.336 926.064 570.76 927.36 570.76C927.984 570.76 928.704 570.856 929.04 570.952L930 566.776ZM932.676 589.72C932.676 596.44 937.668 601.48 944.34 601.48C951.012 601.48 956.004 596.44 956.004 589.72C956.004 583 951.012 577.96 944.34 577.96C937.668 577.96 932.676 583 932.676 589.72ZM937.236 589.72C937.236 585.592 940.164 582.28 944.34 582.28C948.516 582.28 951.444 585.592 951.444 589.72C951.444 593.848 948.516 597.16 944.34 597.16C940.164 597.16 937.236 593.848 937.236 589.72ZM975.212 578.104C974.684 578.008 973.916 577.96 973.436 577.96C970.124 577.96 967.772 579.496 966.668 581.032V578.44H962.252V601H966.812V586.072C968.06 583.912 970.556 582.28 972.908 582.28C973.628 582.28 974.156 582.328 974.684 582.472L975.212 578.104ZM1002.31 588.616L1013.59 578.44H1007.16L997.749 587.08V566.92H993.189V601H997.749V589.96L1008.93 601H1015.03L1002.31 588.616ZM1019.58 601H1024.14V578.44H1019.58V601ZM1018.86 570.424C1018.86 572.104 1020.16 573.4 1021.84 573.4C1023.52 573.4 1024.86 572.104 1024.86 570.424C1024.86 568.744 1023.52 567.4 1021.84 567.4C1020.16 567.4 1018.86 568.744 1018.86 570.424ZM1048.75 601H1053.16V566.92H1048.6V580.408C1046.59 578.728 1044.14 577.96 1041.69 577.96C1039.58 577.96 1037.71 578.488 1036.17 579.4C1032.76 581.416 1030.36 585.208 1030.36 589.72C1030.36 594.232 1032.72 597.976 1036.12 599.992C1037.66 600.904 1039.77 601.48 1041.79 601.48C1044.48 601.48 1046.92 600.568 1048.75 598.936V601ZM1048.6 593.944C1047.07 596.008 1044.72 597.16 1042.41 597.16C1038.04 597.16 1034.92 593.752 1034.92 589.72C1034.92 585.784 1037.8 582.28 1042.17 582.28C1044.91 582.28 1047.21 583.672 1048.6 585.496V593.944ZM1059.19 598.36C1061.68 600.376 1064.71 601.48 1068.31 601.48C1072.72 601.48 1076.71 598.84 1076.71 594.568C1076.71 589.912 1072.05 588.328 1068.5 587.416C1066.24 586.84 1064.47 586.312 1064.47 584.776C1064.47 583 1066.34 581.944 1068.55 581.944C1070.37 581.944 1072 582.664 1073.39 583.72L1075.75 580.456C1073.97 579.016 1071.57 577.96 1068.26 577.96C1064.23 577.96 1059.91 580.168 1059.91 585.016C1059.91 588.184 1062.35 589.912 1065.09 590.824C1068.4 591.928 1072.15 592.072 1072.15 594.664C1072.15 596.44 1070.18 597.496 1068.21 597.496C1065.95 597.496 1063.65 596.632 1061.54 595L1059.19 598.36Z" fill="black"/>
<path d="M912.96 674.68C914.208 675.688 915.72 676.24 917.52 676.24C919.728 676.24 921.72 674.92 921.72 672.784C921.72 670.456 919.392 669.664 917.616 669.208C916.488 668.92 915.6 668.656 915.6 667.888C915.6 667 916.536 666.472 917.64 666.472C918.552 666.472 919.368 666.832 920.064 667.36L921.24 665.728C920.352 665.008 919.152 664.48 917.496 664.48C915.48 664.48 913.32 665.584 913.32 668.008C913.32 669.592 914.544 670.456 915.912 670.912C917.568 671.464 919.44 671.536 919.44 672.832C919.44 673.72 918.456 674.248 917.472 674.248C916.344 674.248 915.192 673.816 914.136 673L912.96 674.68ZM933.194 676H935.402V664.72H933.194V665.752C932.162 664.864 930.938 664.48 929.666 664.48C928.61 664.48 927.674 664.744 926.906 665.2C925.202 666.208 924.002 668.104 924.002 670.36C924.002 672.616 925.178 674.488 926.882 675.496C927.65 675.952 928.706 676.24 929.714 676.24C931.058 676.24 932.282 675.784 933.194 674.968V676ZM933.122 672.472C932.354 673.504 931.178 674.08 930.026 674.08C927.842 674.08 926.282 672.376 926.282 670.36C926.282 668.392 927.722 666.64 929.906 666.64C931.274 666.64 932.426 667.336 933.122 668.248V672.472ZM946.453 658.888C946.141 658.792 945.589 658.72 945.109 658.72C943.573 658.72 942.229 659.416 941.413 660.592C940.909 661.312 940.693 662.248 940.693 663.76V664.72H938.053V666.76H940.693V676H942.973V666.76H946.453V664.72H942.973V663.688C942.973 662.656 943.093 662.08 943.405 661.672C943.789 661.168 944.485 660.88 945.133 660.88C945.445 660.88 945.805 660.928 945.973 660.976L946.453 658.888ZM958.687 670.84C958.711 670.624 958.711 670.456 958.711 670.36C958.711 667.024 956.431 664.48 953.287 664.48C950.095 664.48 947.791 666.976 947.791 670.36C947.791 673.744 950.335 676.24 953.623 676.24C955.927 676.24 957.535 675.208 958.375 674.128L956.887 672.712C956.239 673.432 955.327 674.248 953.647 674.248C951.679 674.248 950.119 672.736 949.999 670.84H958.687ZM953.359 666.472C954.703 666.472 955.999 667.48 956.335 668.92H950.191C950.575 667.456 951.895 666.472 953.359 666.472ZM968.333 673.936C967.997 674.032 967.421 674.08 967.085 674.08C966.485 674.08 965.837 673.864 965.525 673.48C965.237 673.144 965.189 672.64 965.189 672.04V666.76H968.789V664.72H965.189V661.6H962.909V664.72H960.029V666.76H962.909V671.92C962.909 673.144 963.149 674.176 963.821 674.92C964.541 675.736 965.597 676.24 967.013 676.24C967.661 676.24 968.357 676.144 968.789 676L968.333 673.936ZM974.776 681.76L982.192 664.72H979.792L976.552 672.16L973.024 664.72H970.576L975.4 674.824L972.352 681.76H974.776ZM997.781 658.888C997.469 658.792 996.917 658.72 996.437 658.72C994.901 658.72 993.557 659.416 992.741 660.592C992.237 661.312 992.021 662.248 992.021 663.76V664.72H989.381V666.76H992.021V676H994.301V666.76H997.781V664.72H994.301V663.688C994.301 662.656 994.421 662.08 994.733 661.672C995.117 661.168 995.813 660.88 996.461 660.88C996.773 660.88 997.133 660.928 997.301 660.976L997.781 658.888ZM1010.02 670.84C1010.04 670.624 1010.04 670.456 1010.04 670.36C1010.04 667.024 1007.76 664.48 1004.62 664.48C1001.42 664.48 999.119 666.976 999.119 670.36C999.119 673.744 1001.66 676.24 1004.95 676.24C1007.26 676.24 1008.86 675.208 1009.7 674.128L1008.22 672.712C1007.57 673.432 1006.66 674.248 1004.98 674.248C1003.01 674.248 1001.45 672.736 1001.33 670.84H1010.02ZM1004.69 666.472C1006.03 666.472 1007.33 667.48 1007.66 668.92H1001.52C1001.9 667.456 1003.22 666.472 1004.69 666.472ZM1021.39 676H1023.6V664.72H1021.39V665.752C1020.36 664.864 1019.13 664.48 1017.86 664.48C1016.81 664.48 1015.87 664.744 1015.1 665.2C1013.4 666.208 1012.2 668.104 1012.2 670.36C1012.2 672.616 1013.37 674.488 1015.08 675.496C1015.85 675.952 1016.9 676.24 1017.91 676.24C1019.25 676.24 1020.48 675.784 1021.39 674.968V676ZM1021.32 672.472C1020.55 673.504 1019.37 674.08 1018.22 674.08C1016.04 674.08 1014.48 672.376 1014.48 670.36C1014.48 668.392 1015.92 666.64 1018.1 666.64C1019.47 666.64 1020.62 667.336 1021.32 668.248V672.472ZM1034.19 673.936C1033.86 674.032 1033.28 674.08 1032.94 674.08C1032.34 674.08 1031.7 673.864 1031.38 673.48C1031.1 673.144 1031.05 672.64 1031.05 672.04V666.76H1034.65V664.72H1031.05V661.6H1028.77V664.72H1025.89V666.76H1028.77V671.92C1028.77 673.144 1029.01 674.176 1029.68 674.92C1030.4 675.736 1031.46 676.24 1032.87 676.24C1033.52 676.24 1034.22 676.144 1034.65 676L1034.19 673.936ZM1042.57 676.24C1044.13 676.24 1045.37 675.448 1045.88 674.968V676H1048.09V664.72H1045.81V672.472C1045.16 673.24 1044.03 674.08 1042.64 674.08C1041.77 674.08 1040.96 673.696 1040.45 673.096C1040.05 672.616 1039.81 671.992 1039.81 670.84V664.72H1037.53V670.48C1037.53 672.376 1037.86 673.48 1038.56 674.344C1039.49 675.52 1040.96 676.24 1042.57 676.24ZM1058.64 664.552C1058.37 664.504 1057.99 664.48 1057.75 664.48C1056.09 664.48 1054.92 665.248 1054.37 666.016V664.72H1052.16V676H1054.44V668.536C1055.06 667.456 1056.31 666.64 1057.49 666.64C1057.85 666.64 1058.11 666.664 1058.37 666.736L1058.64 664.552ZM1070.86 670.84C1070.88 670.624 1070.88 670.456 1070.88 670.36C1070.88 667.024 1068.6 664.48 1065.46 664.48C1062.27 664.48 1059.96 666.976 1059.96 670.36C1059.96 673.744 1062.51 676.24 1065.79 676.24C1068.1 676.24 1069.71 675.208 1070.55 674.128L1069.06 672.712C1068.41 673.432 1067.5 674.248 1065.82 674.248C1063.85 674.248 1062.29 672.736 1062.17 670.84H1070.86ZM1065.53 666.472C1066.87 666.472 1068.17 667.48 1068.51 668.92H1062.36C1062.75 667.456 1064.07 666.472 1065.53 666.472ZM1072.92 674.68C1074.17 675.688 1075.68 676.24 1077.48 676.24C1079.69 676.24 1081.68 674.92 1081.68 672.784C1081.68 670.456 1079.35 669.664 1077.58 669.208C1076.45 668.92 1075.56 668.656 1075.56 667.888C1075.56 667 1076.5 666.472 1077.6 666.472C1078.51 666.472 1079.33 666.832 1080.02 667.36L1081.2 665.728C1080.31 665.008 1079.11 664.48 1077.46 664.48C1075.44 664.48 1073.28 665.584 1073.28 668.008C1073.28 669.592 1074.5 670.456 1075.87 670.912C1077.53 671.464 1079.4 671.536 1079.4 672.832C1079.4 673.72 1078.42 674.248 1077.43 674.248C1076.3 674.248 1075.15 673.816 1074.1 673L1072.92 674.68ZM1085.76 673.12L1083.96 679.36H1085.52L1088.4 673.12H1085.76ZM922.368 705.328C921.648 706.288 920.592 707.08 919.104 707.08C916.944 707.08 915.36 705.568 915.36 703.36C915.36 701.224 916.92 699.64 918.96 699.64C920.4 699.64 921.456 700.48 922.08 701.344L923.76 699.928C922.704 698.464 920.928 697.48 918.96 697.48C915.576 697.48 913.08 700.024 913.08 703.36C913.08 706.696 915.624 709.24 919.104 709.24C921.168 709.24 923.184 708.16 924.12 706.6L922.368 705.328ZM925.807 703.36C925.807 706.72 928.303 709.24 931.639 709.24C934.975 709.24 937.471 706.72 937.471 703.36C937.471 700 934.975 697.48 931.639 697.48C928.303 697.48 925.807 700 925.807 703.36ZM928.087 703.36C928.087 701.296 929.551 699.64 931.639 699.64C933.727 699.64 935.191 701.296 935.191 703.36C935.191 705.424 933.727 707.08 931.639 707.08C929.551 707.08 928.087 705.424 928.087 703.36ZM942.803 697.72H940.595V709H942.875V701.248C943.547 700.432 944.627 699.64 946.115 699.64C947.051 699.64 947.915 700.072 948.443 700.744C948.851 701.248 949.115 701.92 949.115 703.36V709H951.395V703.48C951.395 701.536 951.011 700.384 950.291 699.472C949.331 698.248 947.843 697.48 946.187 697.48C944.555 697.48 943.403 698.224 942.803 698.8V697.72ZM958.105 709H959.689L964.585 697.72H962.233L958.897 705.4L955.561 697.72H953.209L958.105 709ZM976.687 703.84C976.711 703.624 976.711 703.456 976.711 703.36C976.711 700.024 974.431 697.48 971.287 697.48C968.095 697.48 965.791 699.976 965.791 703.36C965.791 706.744 968.335 709.24 971.623 709.24C973.927 709.24 975.535 708.208 976.375 707.128L974.887 705.712C974.239 706.432 973.327 707.248 971.647 707.248C969.679 707.248 968.119 705.736 967.999 703.84H976.687ZM971.359 699.472C972.703 699.472 973.999 700.48 974.335 701.92H968.191C968.575 700.456 969.895 699.472 971.359 699.472ZM986.309 697.552C986.045 697.504 985.661 697.48 985.421 697.48C983.765 697.48 982.589 698.248 982.037 699.016V697.72H979.829V709H982.109V701.536C982.733 700.456 983.981 699.64 985.157 699.64C985.517 699.64 985.781 699.664 986.045 699.736L986.309 697.552ZM987.866 707.68C989.114 708.688 990.626 709.24 992.426 709.24C994.634 709.24 996.626 707.92 996.626 705.784C996.626 703.456 994.298 702.664 992.522 702.208C991.394 701.92 990.506 701.656 990.506 700.888C990.506 700 991.442 699.472 992.546 699.472C993.458 699.472 994.274 699.832 994.97 700.36L996.146 698.728C995.258 698.008 994.058 697.48 992.402 697.48C990.386 697.48 988.226 698.584 988.226 701.008C988.226 702.592 989.45 703.456 990.818 703.912C992.474 704.464 994.346 704.536 994.346 705.832C994.346 706.72 993.362 707.248 992.378 707.248C991.25 707.248 990.098 706.816 989.042 706L987.866 707.68ZM1008.1 709H1010.31V697.72H1008.1V698.752C1007.07 697.864 1005.84 697.48 1004.57 697.48C1003.52 697.48 1002.58 697.744 1001.81 698.2C1000.11 699.208 998.908 701.104 998.908 703.36C998.908 705.616 1000.08 707.488 1001.79 708.496C1002.56 708.952 1003.61 709.24 1004.62 709.24C1005.96 709.24 1007.19 708.784 1008.1 707.968V709ZM1008.03 705.472C1007.26 706.504 1006.08 707.08 1004.93 707.08C1002.75 707.08 1001.19 705.376 1001.19 703.36C1001.19 701.392 1002.63 699.64 1004.81 699.64C1006.18 699.64 1007.33 700.336 1008.03 701.248V705.472ZM1020.9 706.936C1020.57 707.032 1019.99 707.08 1019.66 707.08C1019.06 707.08 1018.41 706.864 1018.1 706.48C1017.81 706.144 1017.76 705.64 1017.76 705.04V699.76H1021.36V697.72H1017.76V694.6H1015.48V697.72H1012.6V699.76H1015.48V704.92C1015.48 706.144 1015.72 707.176 1016.39 707.92C1017.11 708.736 1018.17 709.24 1019.58 709.24C1020.23 709.24 1020.93 709.144 1021.36 709L1020.9 706.936ZM1024.48 709H1026.76V697.72H1024.48V709ZM1024.12 693.712C1024.12 694.552 1024.77 695.2 1025.61 695.2C1026.45 695.2 1027.12 694.552 1027.12 693.712C1027.12 692.872 1026.45 692.2 1025.61 692.2C1024.77 692.2 1024.12 692.872 1024.12 693.712ZM1029.87 703.36C1029.87 706.72 1032.37 709.24 1035.7 709.24C1039.04 709.24 1041.53 706.72 1041.53 703.36C1041.53 700 1039.04 697.48 1035.7 697.48C1032.37 697.48 1029.87 700 1029.87 703.36ZM1032.15 703.36C1032.15 701.296 1033.61 699.64 1035.7 699.64C1037.79 699.64 1039.25 701.296 1039.25 703.36C1039.25 705.424 1037.79 707.08 1035.7 707.08C1033.61 707.08 1032.15 705.424 1032.15 703.36ZM1046.87 697.72H1044.66V709H1046.94V701.248C1047.61 700.432 1048.69 699.64 1050.18 699.64C1051.11 699.64 1051.98 700.072 1052.51 700.744C1052.91 701.248 1053.18 701.92 1053.18 703.36V709H1055.46V703.48C1055.46 701.536 1055.07 700.384 1054.35 699.472C1053.39 698.248 1051.91 697.48 1050.25 697.48C1048.62 697.48 1047.47 698.224 1046.87 698.8V697.72ZM1064.69 707.68C1065.94 708.688 1067.45 709.24 1069.25 709.24C1071.46 709.24 1073.45 707.92 1073.45 705.784C1073.45 703.456 1071.13 702.664 1069.35 702.208C1068.22 701.92 1067.33 701.656 1067.33 700.888C1067.33 700 1068.27 699.472 1069.37 699.472C1070.29 699.472 1071.1 699.832 1071.8 700.36L1072.97 698.728C1072.09 698.008 1070.89 697.48 1069.23 697.48C1067.21 697.48 1065.05 698.584 1065.05 701.008C1065.05 702.592 1066.28 703.456 1067.65 703.912C1069.3 704.464 1071.17 704.536 1071.17 705.832C1071.17 706.72 1070.19 707.248 1069.21 707.248C1068.08 707.248 1066.93 706.816 1065.87 706L1064.69 707.68ZM1083.08 706.936C1082.75 707.032 1082.17 707.08 1081.84 707.08C1081.24 707.08 1080.59 706.864 1080.28 706.48C1079.99 706.144 1079.94 705.64 1079.94 705.04V699.76H1083.54V697.72H1079.94V694.6H1077.66V697.72H1074.78V699.76H1077.66V704.92C1077.66 706.144 1077.9 707.176 1078.57 707.92C1079.29 708.736 1080.35 709.24 1081.76 709.24C1082.41 709.24 1083.11 709.144 1083.54 709L1083.08 706.936ZM1094.54 709H1096.75V697.72H1094.54V698.752C1093.51 697.864 1092.28 697.48 1091.01 697.48C1089.95 697.48 1089.02 697.744 1088.25 698.2C1086.55 699.208 1085.35 701.104 1085.35 703.36C1085.35 705.616 1086.52 707.488 1088.23 708.496C1088.99 708.952 1090.05 709.24 1091.06 709.24C1092.4 709.24 1093.63 708.784 1094.54 707.968V709ZM1094.47 705.472C1093.7 706.504 1092.52 707.08 1091.37 707.08C1089.19 707.08 1087.63 705.376 1087.63 703.36C1087.63 701.392 1089.07 699.64 1091.25 699.64C1092.62 699.64 1093.77 700.336 1094.47 701.248V705.472ZM1107.32 697.552C1107.05 697.504 1106.67 697.48 1106.43 697.48C1104.77 697.48 1103.6 698.248 1103.04 699.016V697.72H1100.84V709H1103.12V701.536C1103.74 700.456 1104.99 699.64 1106.16 699.64C1106.52 699.64 1106.79 699.664 1107.05 699.736L1107.32 697.552ZM1117.3 706.936C1116.97 707.032 1116.39 707.08 1116.05 707.08C1115.45 707.08 1114.81 706.864 1114.49 706.48C1114.21 706.144 1114.16 705.64 1114.16 705.04V699.76H1117.76V697.72H1114.16V694.6H1111.88V697.72H1109V699.76H1111.88V704.92C1111.88 706.144 1112.12 707.176 1112.79 707.92C1113.51 708.736 1114.57 709.24 1115.98 709.24C1116.63 709.24 1117.33 709.144 1117.76 709L1117.3 706.936ZM1130.46 703.84C1130.48 703.624 1130.48 703.456 1130.48 703.36C1130.48 700.024 1128.2 697.48 1125.06 697.48C1121.87 697.48 1119.56 699.976 1119.56 703.36C1119.56 706.744 1122.11 709.24 1125.4 709.24C1127.7 709.24 1129.31 708.208 1130.15 707.128L1128.66 705.712C1128.01 706.432 1127.1 707.248 1125.42 707.248C1123.45 707.248 1121.89 705.736 1121.77 703.84H1130.46ZM1125.13 699.472C1126.48 699.472 1127.77 700.48 1128.11 701.92H1121.96C1122.35 700.456 1123.67 699.472 1125.13 699.472ZM1140.08 697.552C1139.82 697.504 1139.43 697.48 1139.19 697.48C1137.54 697.48 1136.36 698.248 1135.81 699.016V697.72H1133.6V709H1135.88V701.536C1136.51 700.456 1137.75 699.64 1138.93 699.64C1139.29 699.64 1139.55 699.664 1139.82 699.736L1140.08 697.552ZM1141.64 707.68C1142.89 708.688 1144.4 709.24 1146.2 709.24C1148.41 709.24 1150.4 707.92 1150.4 705.784C1150.4 703.456 1148.07 702.664 1146.3 702.208C1145.17 701.92 1144.28 701.656 1144.28 700.888C1144.28 700 1145.22 699.472 1146.32 699.472C1147.23 699.472 1148.05 699.832 1148.74 700.36L1149.92 698.728C1149.03 698.008 1147.83 697.48 1146.18 697.48C1144.16 697.48 1142 698.584 1142 701.008C1142 702.592 1143.22 703.456 1144.59 703.912C1146.25 704.464 1148.12 704.536 1148.12 705.832C1148.12 706.72 1147.14 707.248 1146.15 707.248C1145.02 707.248 1143.87 706.816 1142.82 706L1141.64 707.68ZM1154.48 706.12L1152.68 712.36H1154.24L1157.12 706.12H1154.48ZM922.272 743H924.48V731.72H922.272V732.752C921.24 731.864 920.016 731.48 918.744 731.48C917.688 731.48 916.752 731.744 915.984 732.2C914.28 733.208 913.08 735.104 913.08 737.36C913.08 739.616 914.256 741.488 915.96 742.496C916.728 742.952 917.784 743.24 918.792 743.24C920.136 743.24 921.36 742.784 922.272 741.968V743ZM922.2 739.472C921.432 740.504 920.256 741.08 919.104 741.08C916.92 741.08 915.36 739.376 915.36 737.36C915.36 735.392 916.8 733.64 918.984 733.64C920.352 733.64 921.504 734.336 922.2 735.248V739.472ZM930.779 731.72H928.571V743H930.851V735.248C931.523 734.432 932.603 733.64 934.091 733.64C935.027 733.64 935.891 734.072 936.419 734.744C936.827 735.248 937.091 735.92 937.091 737.36V743H939.371V737.48C939.371 735.536 938.987 734.384 938.267 733.472C937.307 732.248 935.819 731.48 934.163 731.48C932.531 731.48 931.379 732.224 930.779 732.8V731.72ZM951.452 743H953.66V725.96H951.38V732.704C950.372 731.864 949.148 731.48 947.924 731.48C946.868 731.48 945.932 731.744 945.164 732.2C943.46 733.208 942.26 735.104 942.26 737.36C942.26 739.616 943.436 741.488 945.14 742.496C945.908 742.952 946.964 743.24 947.972 743.24C949.316 743.24 950.54 742.784 951.452 741.968V743ZM951.38 739.472C950.612 740.504 949.436 741.08 948.284 741.08C946.1 741.08 944.54 739.376 944.54 737.36C944.54 735.392 945.98 733.64 948.164 733.64C949.532 733.64 950.684 734.336 951.38 735.248V739.472ZM971.18 725.888C970.868 725.792 970.316 725.72 969.836 725.72C968.3 725.72 966.956 726.416 966.14 727.592C965.636 728.312 965.42 729.248 965.42 730.76V731.72H962.78V733.76H965.42V743H967.7V733.76H971.18V731.72H967.7V730.688C967.7 729.656 967.82 729.08 968.132 728.672C968.516 728.168 969.212 727.88 969.86 727.88C970.172 727.88 970.532 727.928 970.7 727.976L971.18 725.888ZM978.278 743.24C979.838 743.24 981.086 742.448 981.59 741.968V743H983.798V731.72H981.518V739.472C980.87 740.24 979.742 741.08 978.35 741.08C977.486 741.08 976.67 740.696 976.166 740.096C975.758 739.616 975.518 738.992 975.518 737.84V731.72H973.238V737.48C973.238 739.376 973.574 740.48 974.27 741.344C975.206 742.52 976.67 743.24 978.278 743.24ZM990.076 731.72H987.868V743H990.148V735.248C990.82 734.432 991.9 733.64 993.388 733.64C994.324 733.64 995.188 734.072 995.716 734.744C996.124 735.248 996.388 735.92 996.388 737.36V743H998.668V737.48C998.668 735.536 998.284 734.384 997.564 733.472C996.604 732.248 995.116 731.48 993.46 731.48C991.828 731.48 990.676 732.224 990.076 732.8V731.72ZM1007.91 741.68C1009.15 742.688 1010.67 743.24 1012.47 743.24C1014.67 743.24 1016.67 741.92 1016.67 739.784C1016.67 737.456 1014.34 736.664 1012.56 736.208C1011.43 735.92 1010.55 735.656 1010.55 734.888C1010.55 734 1011.48 733.472 1012.59 733.472C1013.5 733.472 1014.31 733.832 1015.01 734.36L1016.19 732.728C1015.3 732.008 1014.1 731.48 1012.44 731.48C1010.43 731.48 1008.27 732.584 1008.27 735.008C1008.27 736.592 1009.49 737.456 1010.86 737.912C1012.51 738.464 1014.39 738.536 1014.39 739.832C1014.39 740.72 1013.4 741.248 1012.42 741.248C1011.29 741.248 1010.14 740.816 1009.08 740L1007.91 741.68ZM1026.29 740.936C1025.96 741.032 1025.38 741.08 1025.05 741.08C1024.45 741.08 1023.8 740.864 1023.49 740.48C1023.2 740.144 1023.15 739.64 1023.15 739.04V733.76H1026.75V731.72H1023.15V728.6H1020.87V731.72H1017.99V733.76H1020.87V738.92C1020.87 740.144 1021.11 741.176 1021.78 741.92C1022.5 742.736 1023.56 743.24 1024.97 743.24C1025.62 743.24 1026.32 743.144 1026.75 743L1026.29 740.936ZM1029.87 743H1032.15V731.72H1029.87V743ZM1029.51 727.712C1029.51 728.552 1030.16 729.2 1031 729.2C1031.84 729.2 1032.51 728.552 1032.51 727.712C1032.51 726.872 1031.84 726.2 1031 726.2C1030.16 726.2 1029.51 726.872 1029.51 727.712ZM1044.55 739.328C1043.83 740.288 1042.77 741.08 1041.28 741.08C1039.12 741.08 1037.54 739.568 1037.54 737.36C1037.54 735.224 1039.1 733.64 1041.14 733.64C1042.58 733.64 1043.64 734.48 1044.26 735.344L1045.94 733.928C1044.88 732.464 1043.11 731.48 1041.14 731.48C1037.76 731.48 1035.26 734.024 1035.26 737.36C1035.26 740.696 1037.8 743.24 1041.28 743.24C1043.35 743.24 1045.36 742.16 1046.3 740.6L1044.55 739.328ZM1053.51 736.808L1059.15 731.72H1055.93L1051.23 736.04V725.96H1048.95V743H1051.23V737.48L1056.82 743H1059.87L1053.51 736.808ZM1071.35 737.84C1071.38 737.624 1071.38 737.456 1071.38 737.36C1071.38 734.024 1069.1 731.48 1065.95 731.48C1062.76 731.48 1060.46 733.976 1060.46 737.36C1060.46 740.744 1063 743.24 1066.29 743.24C1068.59 743.24 1070.2 742.208 1071.04 741.128L1069.55 739.712C1068.9 740.432 1067.99 741.248 1066.31 741.248C1064.34 741.248 1062.78 739.736 1062.66 737.84H1071.35ZM1066.02 733.472C1067.37 733.472 1068.66 734.48 1069 735.92H1062.86C1063.24 734.456 1064.56 733.472 1066.02 733.472ZM1080.97 731.552C1080.71 731.504 1080.33 731.48 1080.09 731.48C1078.43 731.48 1077.25 732.248 1076.7 733.016V731.72H1074.49V743H1076.77V735.536C1077.4 734.456 1078.65 733.64 1079.82 733.64C1080.18 733.64 1080.45 733.664 1080.71 733.736L1080.97 731.552ZM1082.53 741.68C1083.78 742.688 1085.29 743.24 1087.09 743.24C1089.3 743.24 1091.29 741.92 1091.29 739.784C1091.29 737.456 1088.96 736.664 1087.19 736.208C1086.06 735.92 1085.17 735.656 1085.17 734.888C1085.17 734 1086.11 733.472 1087.21 733.472C1088.12 733.472 1088.94 733.832 1089.63 734.36L1090.81 732.728C1089.92 732.008 1088.72 731.48 1087.07 731.48C1085.05 731.48 1082.89 732.584 1082.89 735.008C1082.89 736.592 1084.11 737.456 1085.48 737.912C1087.14 738.464 1089.01 738.536 1089.01 739.832C1089.01 740.72 1088.03 741.248 1087.04 741.248C1085.91 741.248 1084.76 740.816 1083.71 740L1082.53 741.68Z" fill="black"/>
<path d="M927.54 847.22H934.38V869H937.98V847.22H944.82V843.8H927.54V847.22ZM956.339 851.828C955.943 851.756 955.367 851.72 955.007 851.72C952.523 851.72 950.759 852.872 949.931 854.024V852.08H946.619V869H950.039V857.804C950.975 856.184 952.847 854.96 954.611 854.96C955.151 854.96 955.547 854.996 955.943 855.104L956.339 851.828ZM965.16 877.64L976.284 852.08H972.684L967.824 863.24L962.532 852.08H958.86L966.096 867.236L961.524 877.64H965.16ZM989.228 869H992.648V852.08H989.228V869ZM988.688 846.068C988.688 847.328 989.66 848.3 990.92 848.3C992.18 848.3 993.188 847.328 993.188 846.068C993.188 844.808 992.18 843.8 990.92 843.8C989.66 843.8 988.688 844.808 988.688 846.068ZM1008.51 865.904C1008.01 866.048 1007.14 866.12 1006.64 866.12C1005.74 866.12 1004.77 865.796 1004.3 865.22C1003.87 864.716 1003.8 863.96 1003.8 863.06V855.14H1009.2V852.08H1003.8V847.4H1000.38V852.08H996.055V855.14H1000.38V862.88C1000.38 864.716 1000.74 866.264 1001.74 867.38C1002.82 868.604 1004.41 869.36 1006.53 869.36C1007.5 869.36 1008.55 869.216 1009.2 869L1008.51 865.904ZM1026.54 852.08H1023.22V869H1026.64V857.372C1027.65 856.148 1029.27 854.96 1031.5 854.96C1032.91 854.96 1034.2 855.608 1035 856.616C1035.61 857.372 1036 858.38 1036 860.54V869H1039.42V860.72C1039.42 857.804 1038.85 856.076 1037.77 854.708C1036.33 852.872 1034.1 851.72 1031.61 851.72C1029.16 851.72 1027.44 852.836 1026.54 853.7V852.08ZM1043.76 860.54C1043.76 865.58 1047.5 869.36 1052.5 869.36C1057.51 869.36 1061.25 865.58 1061.25 860.54C1061.25 855.5 1057.51 851.72 1052.5 851.72C1047.5 851.72 1043.76 855.5 1043.76 860.54ZM1047.18 860.54C1047.18 857.444 1049.37 854.96 1052.5 854.96C1055.64 854.96 1057.83 857.444 1057.83 860.54C1057.83 863.636 1055.64 866.12 1052.5 866.12C1049.37 866.12 1047.18 863.636 1047.18 860.54ZM1075.88 852.08L1071.24 863.636L1066.59 852.08H1063.06L1069.94 869H1072.32L1077.07 857.12L1081.82 869H1084.2L1091.07 852.08H1087.54L1082.9 863.636L1078.26 852.08H1075.88ZM1096.39 861.08H1098.73L1099.27 852.08V843.8H1095.85V852.08L1096.39 861.08ZM1095.03 866.84C1095.03 868.244 1096.14 869.36 1097.55 869.36C1098.95 869.36 1100.07 868.244 1100.07 866.84C1100.07 865.436 1098.95 864.32 1097.55 864.32C1096.14 864.32 1095.03 865.436 1095.03 866.84Z" fill="black"/>
<path d="M122.44 1046.86C125.416 1050.46 129.592 1052.48 134.2 1052.48C140.056 1052.48 144.616 1048.64 144.616 1042.74C144.616 1038.9 142.504 1036.54 140.248 1035.06C135.928 1032.18 128.776 1031.26 128.776 1026.99C128.776 1024.06 131.56 1022.48 134.344 1022.48C136.456 1022.48 138.52 1023.25 140.344 1024.78L143.176 1021.28C141.4 1019.79 138.424 1017.92 134.152 1017.92C128.296 1017.92 123.976 1021.95 123.976 1026.85C123.976 1030.35 125.848 1032.66 128.248 1034.24C132.712 1037.17 139.816 1037.74 139.816 1042.88C139.816 1045.9 137.08 1047.92 133.96 1047.92C130.504 1047.92 127.72 1046 125.752 1043.6L122.44 1046.86ZM150.627 1052H155.187V1029.44H150.627V1052ZM149.907 1021.42C149.907 1023.1 151.203 1024.4 152.883 1024.4C154.563 1024.4 155.907 1023.1 155.907 1021.42C155.907 1019.74 154.563 1018.4 152.883 1018.4C151.203 1018.4 149.907 1019.74 149.907 1021.42ZM179.65 1050.03V1051.28C179.65 1054.11 179.218 1055.84 178.402 1057.09C177.298 1058.77 175.378 1059.68 172.93 1059.68C169.234 1059.68 167.122 1057.81 165.49 1055.65L162.13 1058.77C163.57 1061.02 167.266 1064 173.122 1064C177.586 1064 181.042 1061.94 182.866 1058.43C183.778 1056.66 184.21 1054.4 184.21 1051.04V1029.44H179.794V1031.5C177.73 1029.73 175.282 1028.96 172.738 1028.96C170.626 1028.96 168.754 1029.49 167.218 1030.4C163.81 1032.42 161.41 1036.21 161.41 1040.72C161.41 1045.23 163.762 1048.98 167.17 1050.99C168.706 1051.9 170.818 1052.48 172.834 1052.48C175.522 1052.48 177.826 1051.62 179.65 1050.03ZM179.65 1044.94C178.114 1047.01 175.762 1048.16 173.458 1048.16C169.09 1048.16 165.97 1044.75 165.97 1040.72C165.97 1036.78 168.85 1033.28 173.218 1033.28C175.954 1033.28 178.258 1034.67 179.65 1036.5V1044.94ZM196.809 1029.44H192.393V1052H196.953V1036.5C198.297 1034.86 200.457 1033.28 203.433 1033.28C205.305 1033.28 207.033 1034.14 208.089 1035.49C208.905 1036.5 209.433 1037.84 209.433 1040.72V1052H213.993V1040.96C213.993 1037.07 213.225 1034.77 211.785 1032.94C209.865 1030.5 206.889 1028.96 203.577 1028.96C200.312 1028.96 198.009 1030.45 196.809 1031.6V1029.44ZM244.227 1052.48C247.347 1052.48 249.843 1050.9 250.851 1049.94V1052H255.267V1029.44H250.707V1044.94C249.411 1046.48 247.155 1048.16 244.371 1048.16C242.643 1048.16 241.011 1047.39 240.003 1046.19C239.187 1045.23 238.707 1043.98 238.707 1041.68V1029.44H234.147V1040.96C234.147 1044.75 234.819 1046.96 236.211 1048.69C238.083 1051.04 241.011 1052.48 244.227 1052.48ZM267.968 1050.03C269.792 1051.62 272.096 1052.48 274.784 1052.48C276.8 1052.48 278.912 1051.9 280.448 1050.99C283.856 1048.98 286.208 1045.23 286.208 1040.72C286.208 1036.21 283.808 1032.42 280.4 1030.4C278.864 1029.49 276.992 1028.96 274.88 1028.96C272.336 1028.96 269.888 1029.73 267.824 1031.5V1029.44H263.408V1063.52H267.968V1050.03ZM267.968 1036.5C269.36 1034.67 271.664 1033.28 274.4 1033.28C278.768 1033.28 281.648 1036.78 281.648 1040.72C281.648 1044.75 278.528 1048.16 274.16 1048.16C271.856 1048.16 269.504 1047.01 267.968 1044.94V1036.5ZM309.824 1029.44H305.408V1052H309.968V1036.5C311.312 1034.86 313.472 1033.28 316.448 1033.28C318.32 1033.28 320.048 1034.14 321.104 1035.49C321.92 1036.5 322.448 1037.84 322.448 1040.72V1052H327.008V1040.96C327.008 1037.07 326.24 1034.77 324.8 1032.94C322.88 1030.5 319.904 1028.96 316.592 1028.96C313.328 1028.96 311.024 1030.45 309.824 1031.6V1029.44ZM332.785 1040.72C332.785 1047.44 337.777 1052.48 344.449 1052.48C351.121 1052.48 356.113 1047.44 356.113 1040.72C356.113 1034 351.121 1028.96 344.449 1028.96C337.777 1028.96 332.785 1034 332.785 1040.72ZM337.345 1040.72C337.345 1036.59 340.273 1033.28 344.449 1033.28C348.625 1033.28 351.553 1036.59 351.553 1040.72C351.553 1044.85 348.625 1048.16 344.449 1048.16C340.273 1048.16 337.345 1044.85 337.345 1040.72ZM375.615 1029.44L369.423 1044.85L363.231 1029.44H358.527L367.695 1052H370.863L377.199 1036.16L383.535 1052H386.703L395.871 1029.44H391.167L384.975 1044.85L378.783 1029.44H375.615Z" fill="black"/>
<rect x="98" y="432" width="726" height="478" rx="40" fill="white"/>
<rect x="98" y="1121" width="478" height="539" rx="40" fill="white"/>
<path d="M171.32 1195.36C174.416 1195.36 177.224 1194.1 179.132 1192.05C180.752 1190.28 181.76 1187.94 181.76 1184.56V1169.8H178.16V1184.74C178.16 1187.12 177.584 1188.59 176.576 1189.71C175.316 1191.11 173.444 1191.94 171.32 1191.94C169.196 1191.94 167.324 1191.11 166.064 1189.71C165.056 1188.59 164.48 1187.12 164.48 1184.74V1169.8H160.88V1184.56C160.88 1187.94 161.888 1190.28 163.508 1192.05C165.416 1194.1 168.224 1195.36 171.32 1195.36ZM186.088 1193.02C187.96 1194.53 190.228 1195.36 192.928 1195.36C196.24 1195.36 199.228 1193.38 199.228 1190.18C199.228 1186.68 195.736 1185.5 193.072 1184.81C191.38 1184.38 190.048 1183.98 190.048 1182.83C190.048 1181.5 191.452 1180.71 193.108 1180.71C194.476 1180.71 195.7 1181.25 196.744 1182.04L198.508 1179.59C197.176 1178.51 195.376 1177.72 192.892 1177.72C189.868 1177.72 186.628 1179.38 186.628 1183.01C186.628 1185.39 188.464 1186.68 190.516 1187.37C193 1188.2 195.808 1188.3 195.808 1190.25C195.808 1191.58 194.332 1192.37 192.856 1192.37C191.164 1192.37 189.436 1191.72 187.852 1190.5L186.088 1193.02ZM218.995 1187.26C219.031 1186.94 219.031 1186.68 219.031 1186.54C219.031 1181.54 215.611 1177.72 210.895 1177.72C206.107 1177.72 202.651 1181.46 202.651 1186.54C202.651 1191.62 206.467 1195.36 211.399 1195.36C214.855 1195.36 217.267 1193.81 218.527 1192.19L216.295 1190.07C215.323 1191.15 213.955 1192.37 211.435 1192.37C208.483 1192.37 206.143 1190.1 205.963 1187.26H218.995ZM211.003 1180.71C213.019 1180.71 214.963 1182.22 215.467 1184.38H206.251C206.827 1182.18 208.807 1180.71 211.003 1180.71ZM233.428 1177.83C233.032 1177.76 232.456 1177.72 232.096 1177.72C229.612 1177.72 227.848 1178.87 227.02 1180.02V1178.08H223.708V1195H227.128V1183.8C228.064 1182.18 229.936 1180.96 231.7 1180.96C232.24 1180.96 232.636 1181 233.032 1181.1L233.428 1177.83ZM240.872 1178.08H237.56V1195H240.98V1183.37C241.988 1182.15 243.608 1180.96 245.84 1180.96C247.244 1180.96 248.54 1181.61 249.332 1182.62C249.944 1183.37 250.34 1184.38 250.34 1186.54V1195H253.76V1186.72C253.76 1183.8 253.184 1182.08 252.104 1180.71C250.664 1178.87 248.432 1177.72 245.948 1177.72C243.5 1177.72 241.772 1178.84 240.872 1179.7V1178.08ZM271.881 1195H275.193V1178.08H271.881V1179.63C270.333 1178.3 268.497 1177.72 266.589 1177.72C265.005 1177.72 263.601 1178.12 262.449 1178.8C259.893 1180.31 258.093 1183.16 258.093 1186.54C258.093 1189.92 259.857 1192.73 262.413 1194.24C263.565 1194.93 265.149 1195.36 266.661 1195.36C268.677 1195.36 270.513 1194.68 271.881 1193.45V1195ZM271.773 1189.71C270.621 1191.26 268.857 1192.12 267.129 1192.12C263.853 1192.12 261.513 1189.56 261.513 1186.54C261.513 1183.59 263.673 1180.96 266.949 1180.96C269.001 1180.96 270.729 1182 271.773 1183.37V1189.71ZM281.33 1178.08V1195H284.75V1183.37C285.722 1182.22 287.414 1180.96 289.502 1180.96C290.798 1180.96 292.022 1181.54 292.778 1182.44C293.39 1183.16 293.75 1184.09 293.75 1185.82V1195H297.17V1186.36C297.17 1185.17 297.062 1184.2 296.882 1183.37C297.998 1182.22 299.582 1180.96 302.03 1180.96C303.29 1180.96 304.442 1181.54 305.198 1182.44C305.81 1183.16 306.17 1184.09 306.17 1185.82V1195H309.59V1186.36C309.59 1183.52 309.086 1181.86 308.042 1180.56C306.638 1178.8 304.442 1177.72 302.03 1177.72C298.97 1177.72 297.134 1178.98 295.586 1180.53C294.182 1178.84 292.094 1177.72 289.61 1177.72C287.306 1177.72 285.326 1178.94 284.642 1179.7V1178.08H281.33ZM330.265 1187.26C330.301 1186.94 330.301 1186.68 330.301 1186.54C330.301 1181.54 326.881 1177.72 322.165 1177.72C317.377 1177.72 313.921 1181.46 313.921 1186.54C313.921 1191.62 317.737 1195.36 322.669 1195.36C326.125 1195.36 328.537 1193.81 329.797 1192.19L327.565 1190.07C326.593 1191.15 325.225 1192.37 322.705 1192.37C319.753 1192.37 317.413 1190.1 317.233 1187.26H330.265ZM322.273 1180.71C324.289 1180.71 326.233 1182.22 326.737 1184.38H317.521C318.097 1182.18 320.077 1180.71 322.273 1180.71Z" fill="black"/>
<path d="M164.84 1333.42V1326.22H170.6C172.328 1326.22 173.264 1326.65 173.912 1327.34C174.524 1327.98 174.92 1328.85 174.92 1329.82C174.92 1330.79 174.524 1331.66 173.912 1332.3C173.264 1332.99 172.328 1333.42 170.6 1333.42H164.84ZM170.78 1336.84C173.228 1336.84 174.812 1336.23 176.036 1335.18C177.548 1333.89 178.52 1331.98 178.52 1329.82C178.52 1327.66 177.548 1325.75 176.036 1324.46C174.812 1323.41 173.228 1322.8 170.78 1322.8H161.24V1348H164.84V1336.84H170.78ZM193.201 1348H196.513V1331.08H193.201V1332.63C191.653 1331.3 189.817 1330.72 187.909 1330.72C186.325 1330.72 184.921 1331.12 183.769 1331.8C181.213 1333.31 179.413 1336.16 179.413 1339.54C179.413 1342.92 181.177 1345.73 183.733 1347.24C184.885 1347.93 186.469 1348.36 187.981 1348.36C189.997 1348.36 191.833 1347.68 193.201 1346.45V1348ZM193.093 1342.71C191.941 1344.26 190.177 1345.12 188.449 1345.12C185.173 1345.12 182.833 1342.56 182.833 1339.54C182.833 1336.59 184.993 1333.96 188.269 1333.96C190.321 1333.96 192.049 1335 193.093 1336.37V1342.71ZM201.03 1346.02C202.902 1347.53 205.17 1348.36 207.87 1348.36C211.182 1348.36 214.17 1346.38 214.17 1343.18C214.17 1339.68 210.678 1338.5 208.014 1337.81C206.322 1337.38 204.99 1336.98 204.99 1335.83C204.99 1334.5 206.394 1333.71 208.05 1333.71C209.418 1333.71 210.642 1334.25 211.686 1335.04L213.45 1332.59C212.118 1331.51 210.318 1330.72 207.834 1330.72C204.81 1330.72 201.57 1332.38 201.57 1336.01C201.57 1338.39 203.406 1339.68 205.458 1340.37C207.942 1341.2 210.75 1341.3 210.75 1343.25C210.75 1344.58 209.274 1345.37 207.798 1345.37C206.106 1345.37 204.378 1344.72 202.794 1343.5L201.03 1346.02ZM217.413 1346.02C219.285 1347.53 221.553 1348.36 224.253 1348.36C227.565 1348.36 230.553 1346.38 230.553 1343.18C230.553 1339.68 227.061 1338.5 224.397 1337.81C222.705 1337.38 221.373 1336.98 221.373 1335.83C221.373 1334.5 222.777 1333.71 224.433 1333.71C225.801 1333.71 227.025 1334.25 228.069 1335.04L229.833 1332.59C228.501 1331.51 226.701 1330.72 224.217 1330.72C221.193 1330.72 217.953 1332.38 217.953 1336.01C217.953 1338.39 219.789 1339.68 221.841 1340.37C224.325 1341.2 227.133 1341.3 227.133 1343.25C227.133 1344.58 225.657 1345.37 224.181 1345.37C222.489 1345.37 220.761 1344.72 219.177 1343.5L217.413 1346.02ZM245.531 1331.08L240.887 1342.64L236.243 1331.08H232.715L239.591 1348H241.967L246.719 1336.12L251.471 1348H253.847L260.723 1331.08H257.195L252.551 1342.64L247.907 1331.08H245.531ZM262.522 1339.54C262.522 1344.58 266.266 1348.36 271.27 1348.36C276.274 1348.36 280.018 1344.58 280.018 1339.54C280.018 1334.5 276.274 1330.72 271.27 1330.72C266.266 1330.72 262.522 1334.5 262.522 1339.54ZM265.942 1339.54C265.942 1336.44 268.138 1333.96 271.27 1333.96C274.402 1333.96 276.598 1336.44 276.598 1339.54C276.598 1342.64 274.402 1345.12 271.27 1345.12C268.138 1345.12 265.942 1342.64 265.942 1339.54ZM294.425 1330.83C294.029 1330.76 293.453 1330.72 293.093 1330.72C290.609 1330.72 288.845 1331.87 288.017 1333.02V1331.08H284.705V1348H288.125V1336.8C289.061 1335.18 290.933 1333.96 292.697 1333.96C293.237 1333.96 293.633 1334 294.029 1334.1L294.425 1330.83ZM310.201 1348H313.513V1322.44H310.093V1332.56C308.581 1331.3 306.745 1330.72 304.909 1330.72C303.325 1330.72 301.921 1331.12 300.769 1331.8C298.213 1333.31 296.413 1336.16 296.413 1339.54C296.413 1342.92 298.177 1345.73 300.733 1347.24C301.885 1347.93 303.469 1348.36 304.981 1348.36C306.997 1348.36 308.833 1347.68 310.201 1346.45V1348ZM310.093 1342.71C308.941 1344.26 307.177 1345.12 305.449 1345.12C302.173 1345.12 299.833 1342.56 299.833 1339.54C299.833 1336.59 301.993 1333.96 305.269 1333.96C307.321 1333.96 309.049 1335 310.093 1336.37V1342.71Z" fill="black"/>
<rect x="121" y="462.639" width="681.089" height="425.361" rx="40" fill="#CCFFFF"/>
<rect x="154.244" y="773.775" width="462.016" height="76.7184" rx="30" fill="white"/>
<path d="M178.36 806.48H182.92V821H185.32V806.48H189.88V804.2H178.36V806.48ZM193.479 826.76L200.895 809.72H198.495L195.255 817.16L191.727 809.72H189.279L194.103 819.824L191.055 826.76H193.479ZM205.57 820.016C206.482 820.808 207.634 821.24 208.978 821.24C209.986 821.24 211.042 820.952 211.81 820.496C213.514 819.488 214.69 817.616 214.69 815.36C214.69 813.104 213.49 811.208 211.786 810.2C211.018 809.744 210.082 809.48 209.026 809.48C207.754 809.48 206.53 809.864 205.498 810.752V809.72H203.29V826.76H205.57V820.016ZM205.57 813.248C206.266 812.336 207.418 811.64 208.786 811.64C210.97 811.64 212.41 813.392 212.41 815.36C212.41 817.376 210.85 819.08 208.666 819.08C207.514 819.08 206.338 818.504 205.57 817.472V813.248ZM227.757 815.84C227.781 815.624 227.781 815.456 227.781 815.36C227.781 812.024 225.501 809.48 222.357 809.48C219.165 809.48 216.861 811.976 216.861 815.36C216.861 818.744 219.405 821.24 222.693 821.24C224.997 821.24 226.605 820.208 227.445 819.128L225.957 817.712C225.309 818.432 224.397 819.248 222.717 819.248C220.749 819.248 219.189 817.736 219.069 815.84H227.757ZM222.429 811.472C223.773 811.472 225.069 812.48 225.405 813.92H219.261C219.645 812.456 220.965 811.472 222.429 811.472ZM239.534 826.76L246.95 809.72H244.55L241.31 817.16L237.782 809.72H235.334L240.158 819.824L237.11 826.76H239.534ZM248.268 815.36C248.268 818.72 250.764 821.24 254.1 821.24C257.436 821.24 259.932 818.72 259.932 815.36C259.932 812 257.436 809.48 254.1 809.48C250.764 809.48 248.268 812 248.268 815.36ZM250.548 815.36C250.548 813.296 252.012 811.64 254.1 811.64C256.188 811.64 257.652 813.296 257.652 815.36C257.652 817.424 256.188 819.08 254.1 819.08C252.012 819.08 250.548 817.424 250.548 815.36ZM267.856 821.24C269.416 821.24 270.664 820.448 271.168 819.968V821H273.376V809.72H271.096V817.472C270.448 818.24 269.32 819.08 267.928 819.08C267.064 819.08 266.248 818.696 265.744 818.096C265.336 817.616 265.096 816.992 265.096 815.84V809.72H262.816V815.48C262.816 817.376 263.152 818.48 263.848 819.344C264.784 820.52 266.248 821.24 267.856 821.24ZM283.926 809.552C283.662 809.504 283.278 809.48 283.038 809.48C281.382 809.48 280.206 810.248 279.654 811.016V809.72H277.446V821H279.726V813.536C280.35 812.456 281.598 811.64 282.774 811.64C283.134 811.64 283.398 811.664 283.662 811.736L283.926 809.552ZM292.915 809.72V821H295.195V813.248C295.843 812.48 296.971 811.64 298.363 811.64C299.227 811.64 300.043 812.024 300.547 812.624C300.955 813.104 301.195 813.728 301.195 814.88V821H303.475V815.24C303.475 814.448 303.403 813.8 303.283 813.248C304.027 812.48 305.083 811.64 306.715 811.64C307.555 811.64 308.323 812.024 308.827 812.624C309.235 813.104 309.475 813.728 309.475 814.88V821H311.755V815.24C311.755 813.344 311.419 812.24 310.723 811.376C309.787 810.2 308.323 809.48 306.715 809.48C304.675 809.48 303.451 810.32 302.419 811.352C301.483 810.224 300.091 809.48 298.435 809.48C296.899 809.48 295.579 810.296 295.123 810.8V809.72H292.915ZM325.539 815.84C325.562 815.624 325.562 815.456 325.562 815.36C325.562 812.024 323.283 809.48 320.139 809.48C316.947 809.48 314.643 811.976 314.643 815.36C314.643 818.744 317.187 821.24 320.475 821.24C322.779 821.24 324.387 820.208 325.227 819.128L323.739 817.712C323.091 818.432 322.179 819.248 320.499 819.248C318.531 819.248 316.971 817.736 316.851 815.84H325.539ZM320.211 811.472C321.555 811.472 322.851 812.48 323.187 813.92H317.043C317.427 812.456 318.747 811.472 320.211 811.472ZM327.601 819.68C328.849 820.688 330.361 821.24 332.161 821.24C334.369 821.24 336.361 819.92 336.361 817.784C336.361 815.456 334.033 814.664 332.257 814.208C331.129 813.92 330.241 813.656 330.241 812.888C330.241 812 331.177 811.472 332.281 811.472C333.193 811.472 334.009 811.832 334.705 812.36L335.881 810.728C334.993 810.008 333.793 809.48 332.137 809.48C330.121 809.48 327.961 810.584 327.961 813.008C327.961 814.592 329.185 815.456 330.553 815.912C332.209 816.464 334.081 816.536 334.081 817.832C334.081 818.72 333.097 819.248 332.113 819.248C330.985 819.248 329.833 818.816 328.777 818L327.601 819.68ZM338.523 819.68C339.771 820.688 341.283 821.24 343.083 821.24C345.291 821.24 347.283 819.92 347.283 817.784C347.283 815.456 344.955 814.664 343.179 814.208C342.051 813.92 341.163 813.656 341.163 812.888C341.163 812 342.099 811.472 343.203 811.472C344.115 811.472 344.931 811.832 345.627 812.36L346.803 810.728C345.915 810.008 344.715 809.48 343.059 809.48C341.043 809.48 338.883 810.584 338.883 813.008C338.883 814.592 340.107 815.456 341.475 815.912C343.131 816.464 345.003 816.536 345.003 817.832C345.003 818.72 344.019 819.248 343.035 819.248C341.907 819.248 340.755 818.816 339.699 818L338.523 819.68ZM358.756 821H360.964V809.72H358.756V810.752C357.724 809.864 356.5 809.48 355.228 809.48C354.172 809.48 353.236 809.744 352.468 810.2C350.764 811.208 349.564 813.104 349.564 815.36C349.564 817.616 350.74 819.488 352.444 820.496C353.212 820.952 354.268 821.24 355.276 821.24C356.62 821.24 357.844 820.784 358.756 819.968V821ZM358.684 817.472C357.916 818.504 356.74 819.08 355.588 819.08C353.404 819.08 351.844 817.376 351.844 815.36C351.844 813.392 353.284 811.64 355.468 811.64C356.836 811.64 357.988 812.336 358.684 813.248V817.472ZM373.216 820.016V820.64C373.216 822.056 373 822.92 372.592 823.544C372.04 824.384 371.08 824.84 369.856 824.84C368.008 824.84 366.952 823.904 366.136 822.824L364.456 824.384C365.176 825.512 367.024 827 369.952 827C372.184 827 373.912 825.968 374.824 824.216C375.28 823.328 375.496 822.2 375.496 820.52V809.72H373.288V810.752C372.256 809.864 371.032 809.48 369.76 809.48C368.704 809.48 367.768 809.744 367 810.2C365.296 811.208 364.096 813.104 364.096 815.36C364.096 817.616 365.272 819.488 366.976 820.496C367.744 820.952 368.8 821.24 369.808 821.24C371.152 821.24 372.304 820.808 373.216 820.016ZM373.216 817.472C372.448 818.504 371.272 819.08 370.12 819.08C367.936 819.08 366.376 817.376 366.376 815.36C366.376 813.392 367.816 811.64 370 811.64C371.368 811.64 372.52 812.336 373.216 813.248V817.472ZM389.523 815.84C389.547 815.624 389.547 815.456 389.547 815.36C389.547 812.024 387.267 809.48 384.123 809.48C380.931 809.48 378.627 811.976 378.627 815.36C378.627 818.744 381.171 821.24 384.459 821.24C386.763 821.24 388.371 820.208 389.211 819.128L387.723 817.712C387.075 818.432 386.163 819.248 384.483 819.248C382.515 819.248 380.955 817.736 380.835 815.84H389.523ZM384.195 811.472C385.539 811.472 386.835 812.48 387.171 813.92H381.027C381.411 812.456 382.731 811.472 384.195 811.472ZM401.414 803.96H399.134V821H401.414V813.248C402.086 812.432 403.166 811.64 404.654 811.64C405.59 811.64 406.454 812.072 406.982 812.744C407.39 813.248 407.654 813.92 407.654 815.36V821H409.934V815.48C409.934 813.536 409.55 812.384 408.83 811.472C407.87 810.248 406.382 809.48 404.726 809.48C403.166 809.48 402.038 810.176 401.414 810.704V803.96ZM423.718 815.84C423.742 815.624 423.742 815.456 423.742 815.36C423.742 812.024 421.462 809.48 418.318 809.48C415.126 809.48 412.822 811.976 412.822 815.36C412.822 818.744 415.366 821.24 418.654 821.24C420.958 821.24 422.566 820.208 423.406 819.128L421.918 817.712C421.27 818.432 420.358 819.248 418.678 819.248C416.71 819.248 415.15 817.736 415.03 815.84H423.718ZM418.39 811.472C419.734 811.472 421.03 812.48 421.366 813.92H415.222C415.606 812.456 416.926 811.472 418.39 811.472ZM433.34 809.552C433.076 809.504 432.692 809.48 432.452 809.48C430.796 809.48 429.62 810.248 429.068 811.016V809.72H426.86V821H429.14V813.536C429.764 812.456 431.012 811.64 432.188 811.64C432.548 811.64 432.812 811.664 433.076 811.736L433.34 809.552ZM445.562 815.84C445.586 815.624 445.586 815.456 445.586 815.36C445.586 812.024 443.306 809.48 440.162 809.48C436.97 809.48 434.666 811.976 434.666 815.36C434.666 818.744 437.21 821.24 440.498 821.24C442.802 821.24 444.41 820.208 445.25 819.128L443.762 817.712C443.114 818.432 442.202 819.248 440.522 819.248C438.554 819.248 436.994 817.736 436.874 815.84H445.562ZM440.234 811.472C441.578 811.472 442.874 812.48 443.21 813.92H437.066C437.45 812.456 438.77 811.472 440.234 811.472ZM449.976 815.72H451.536L451.896 809.72V804.2H449.616V809.72L449.976 815.72ZM449.064 819.56C449.064 820.496 449.808 821.24 450.744 821.24C451.68 821.24 452.424 820.496 452.424 819.56C452.424 818.624 451.68 817.88 450.744 817.88C449.808 817.88 449.064 818.624 449.064 819.56Z" fill="black"/>
<rect x="644.391" y="776.332" width="126.159" height="71.6039" rx="15" fill="#FFC9E3"/>
<path d="M676.72 817.432C678.208 819.232 680.296 820.24 682.6 820.24C685.528 820.24 687.808 818.32 687.808 815.368C687.808 813.448 686.752 812.272 685.624 811.528C683.464 810.088 679.888 809.632 679.888 807.496C679.888 806.032 681.28 805.24 682.672 805.24C683.728 805.24 684.76 805.624 685.672 806.392L687.088 804.64C686.2 803.896 684.712 802.96 682.576 802.96C679.648 802.96 677.488 804.976 677.488 807.424C677.488 809.176 678.424 810.328 679.624 811.12C681.856 812.584 685.408 812.872 685.408 815.44C685.408 816.952 684.04 817.96 682.48 817.96C680.752 817.96 679.36 817 678.376 815.8L676.72 817.432ZM701.709 814.84C701.733 814.624 701.733 814.456 701.733 814.36C701.733 811.024 699.453 808.48 696.309 808.48C693.117 808.48 690.813 810.976 690.813 814.36C690.813 817.744 693.357 820.24 696.645 820.24C698.949 820.24 700.557 819.208 701.397 818.128L699.909 816.712C699.261 817.432 698.349 818.248 696.669 818.248C694.701 818.248 693.141 816.736 693.021 814.84H701.709ZM696.381 810.472C697.725 810.472 699.021 811.48 699.357 812.92H693.213C693.597 811.456 694.917 810.472 696.381 810.472ZM708.02 808.72H705.812V820H708.092V812.248C708.764 811.432 709.844 810.64 711.332 810.64C712.268 810.64 713.132 811.072 713.66 811.744C714.068 812.248 714.332 812.92 714.332 814.36V820H716.612V814.48C716.612 812.536 716.228 811.384 715.508 810.472C714.548 809.248 713.06 808.48 711.404 808.48C709.772 808.48 708.62 809.224 708.02 809.8V808.72ZM729.652 820H731.86V802.96H729.58V809.704C728.572 808.864 727.348 808.48 726.124 808.48C725.068 808.48 724.132 808.744 723.364 809.2C721.66 810.208 720.46 812.104 720.46 814.36C720.46 816.616 721.636 818.488 723.34 819.496C724.108 819.952 725.164 820.24 726.172 820.24C727.516 820.24 728.74 819.784 729.652 818.968V820ZM729.58 816.472C728.812 817.504 727.636 818.08 726.484 818.08C724.3 818.08 722.74 816.376 722.74 814.36C722.74 812.392 724.18 810.64 726.364 810.64C727.732 810.64 728.884 811.336 729.58 812.248V816.472Z" fill="black"/>
<circle cx="745.83" cy="662.959" r="24.7204" fill="#7FA3FF"/>
<circle cx="739.154" cy="659.251" r="1.73043" fill="black"/>
<circle cx="752.504" cy="659.251" r="1.73043" fill="black"/>
<path d="M741.379 668.892C742.798 670.758 746.564 673.369 750.278 668.892" stroke="black" stroke-width="2" stroke-linecap="round"/>
<rect x="548.918" y="789.118" width="47.7359" height="48.5883" rx="10" fill="#FFC9E3"/>
<rect x="493.51" y="789.118" width="47.7359" height="48.5883" rx="10" fill="#FFC9E3"/>
<path d="M512.497 804.211C512.897 802.531 514.737 801.171 516.857 801.171C519.257 801.171 520.897 802.811 520.897 804.851C520.897 809.171 513.937 809.971 513.937 814.931C513.937 816.411 514.617 817.971 516.257 819.211L518.777 816.571C518.097 815.971 517.737 815.411 517.737 814.891C517.737 812.811 524.697 811.011 524.697 804.851C524.697 800.851 521.377 797.571 516.857 797.571C512.977 797.571 509.697 799.931 508.897 803.171L512.497 804.211ZM513.897 823.571C513.897 825.131 515.137 826.371 516.697 826.371C518.257 826.371 519.497 825.131 519.497 823.571C519.497 822.011 518.257 820.771 516.697 820.771C515.137 820.771 513.897 822.011 513.897 823.571Z" fill="white"/>
<circle cx="572.361" cy="813.56" r="15.1223" stroke="white" stroke-width="3"/>
<circle cx="567.871" cy="810.067" r="1.16356" fill="white"/>
<circle cx="576.849" cy="810.067" r="1.16356" fill="white"/>
<path d="M569.369 817.402C570.323 818.656 572.855 820.412 575.353 817.402" stroke="white" stroke-width="2" stroke-linecap="round"/>
<rect x="121" y="449" width="681.089" height="115.078" rx="40" fill="#FFC9E3"/>
<rect x="121" y="514.637" width="681.089" height="92.9146" fill="#CCFFFF"/>
<rect x="218.176" y="560.668" width="208.845" height="62.2272" rx="31.1136" fill="#FFF574"/>
<rect x="491.807" y="633.124" width="208.845" height="62.2272" rx="31.1136" fill="#7FA3FF"/>
<circle cx="178.113" cy="588.798" r="24.7204" fill="#FFF574"/>
<circle cx="171.439" cy="585.09" r="1.73043" fill="black"/>
<circle cx="184.787" cy="585.09" r="1.73043" fill="black"/>
<path d="M173.662 594.731C175.081 596.596 178.847 599.208 182.561 594.731" stroke="black" stroke-width="2" stroke-linecap="round"/>
<path d="M428.246 486.094C428.246 493.339 433.636 498.694 440.951 498.694C444.731 498.694 448.371 496.839 450.471 494.144L447.986 491.904C446.621 493.549 444.241 495.369 440.951 495.369C435.736 495.369 431.746 491.624 431.746 486.094C431.746 480.809 435.631 476.819 440.636 476.819C443.261 476.819 445.816 478.009 447.251 479.584L449.596 477.274C447.461 474.929 444.136 473.494 440.636 473.494C433.566 473.494 428.246 479.024 428.246 486.094ZM457.487 473.494H454.162V498.344H457.487V487.039C458.467 485.849 460.042 484.694 462.212 484.694C463.577 484.694 464.837 485.324 465.607 486.304C466.202 487.039 466.587 488.019 466.587 490.119V498.344H469.912V490.294C469.912 487.459 469.352 485.779 468.302 484.449C466.902 482.664 464.732 481.544 462.317 481.544C460.042 481.544 458.397 482.559 457.487 483.329V473.494ZM487.529 498.344H490.749V481.894H487.529V483.399C486.024 482.104 484.239 481.544 482.384 481.544C480.844 481.544 479.479 481.929 478.359 482.594C475.874 484.064 474.124 486.829 474.124 490.119C474.124 493.409 475.839 496.139 478.324 497.609C479.444 498.274 480.984 498.694 482.454 498.694C484.414 498.694 486.199 498.029 487.529 496.839V498.344ZM487.424 493.199C486.304 494.704 484.589 495.544 482.909 495.544C479.724 495.544 477.449 493.059 477.449 490.119C477.449 487.249 479.549 484.694 482.734 484.694C484.729 484.694 486.409 485.709 487.424 487.039V493.199ZM506.2 495.334C505.71 495.474 504.87 495.544 504.38 495.544C503.505 495.544 502.56 495.229 502.105 494.669C501.685 494.179 501.615 493.444 501.615 492.569V484.869H506.865V481.894H501.615V477.344H498.29V481.894H494.09V484.869H498.29V492.394C498.29 494.179 498.64 495.684 499.62 496.769C500.67 497.959 502.21 498.694 504.275 498.694C505.22 498.694 506.235 498.554 506.865 498.344L506.2 495.334Z" fill="black"/>
<path d="M264.92 601H267.32V584.2H264.92V590.8H255.56V584.2H253.16V601H255.56V593.08H264.92V601ZM281.445 595.84C281.469 595.624 281.469 595.456 281.469 595.36C281.469 592.024 279.189 589.48 276.045 589.48C272.853 589.48 270.549 591.976 270.549 595.36C270.549 598.744 273.093 601.24 276.381 601.24C278.685 601.24 280.293 600.208 281.133 599.128L279.645 597.712C278.997 598.432 278.085 599.248 276.405 599.248C274.437 599.248 272.877 597.736 272.757 595.84H281.445ZM276.117 591.472C277.461 591.472 278.757 592.48 279.093 593.92H272.949C273.333 592.456 274.653 591.472 276.117 591.472ZM284.587 601H286.867V583.96H284.587V601ZM290.938 601H293.218V583.96H290.938V601ZM296.33 595.36C296.33 598.72 298.826 601.24 302.162 601.24C305.498 601.24 307.994 598.72 307.994 595.36C307.994 592 305.498 589.48 302.162 589.48C298.826 589.48 296.33 592 296.33 595.36ZM298.61 595.36C298.61 593.296 300.074 591.64 302.162 591.64C304.25 591.64 305.714 593.296 305.714 595.36C305.714 597.424 304.25 599.08 302.162 599.08C300.074 599.08 298.61 597.424 298.61 595.36Z" fill="black"/>
<path d="M644.672 673.173H647.072V656.373H644.672V662.973H635.312V656.373H632.912V673.173H635.312V665.253H644.672V673.173ZM651.261 673.173H653.541V661.893H651.261V673.173ZM650.901 657.885C650.901 658.725 651.549 659.373 652.389 659.373C653.229 659.373 653.901 658.725 653.901 657.885C653.901 657.045 653.229 656.373 652.389 656.373C651.549 656.373 650.901 657.045 650.901 657.885ZM658.884 667.893H660.444L660.804 661.893V656.373H658.524V661.893L658.884 667.893ZM657.972 671.733C657.972 672.669 658.716 673.413 659.652 673.413C660.588 673.413 661.332 672.669 661.332 671.733C661.332 670.797 660.588 670.053 659.652 670.053C658.716 670.053 657.972 670.797 657.972 671.733Z" fill="black"/>
<rect x="153" y="1225" width="360" height="58" rx="28" stroke="#FFC9E3" stroke-width="4"/>
<rect x="148" y="1376" width="360" height="58" rx="28" stroke="#FFC9E3" stroke-width="4"/>
<rect x="387" y="1506" width="122" height="91" rx="28" fill="#FFC9E3" stroke="white" stroke-width="4"/>
<path d="M439.12 1546.7H428.32V1550.12H435.52V1556.6C434.188 1557.93 431.992 1558.94 429.328 1558.94C423.964 1558.94 419.86 1555.09 419.86 1549.4C419.86 1543.96 423.856 1539.86 429.004 1539.86C431.704 1539.86 434.332 1541.08 435.808 1542.7L438.22 1540.33C436.024 1537.92 432.604 1536.44 429.004 1536.44C421.732 1536.44 416.26 1542.13 416.26 1549.4C416.26 1556.85 421.804 1562.36 429.328 1562.36C433.216 1562.36 436.96 1560.42 439.12 1557.68V1546.7ZM443.093 1553.54C443.093 1558.58 446.837 1562.36 451.841 1562.36C456.845 1562.36 460.589 1558.58 460.589 1553.54C460.589 1548.5 456.845 1544.72 451.841 1544.72C446.837 1544.72 443.093 1548.5 443.093 1553.54ZM446.513 1553.54C446.513 1550.44 448.709 1547.96 451.841 1547.96C454.973 1547.96 457.169 1550.44 457.169 1553.54C457.169 1556.64 454.973 1559.12 451.841 1559.12C448.709 1559.12 446.513 1556.64 446.513 1553.54ZM467.183 1554.08H469.523L470.063 1545.08V1536.8H466.643V1545.08L467.183 1554.08ZM465.815 1559.84C465.815 1561.24 466.931 1562.36 468.335 1562.36C469.739 1562.36 470.855 1561.24 470.855 1559.84C470.855 1558.44 469.739 1557.32 468.335 1557.32C466.931 1557.32 465.815 1558.44 465.815 1559.84Z" fill="black"/>
</g>
<defs>
<clipPath id="clip0">
<rect width="1440" height="1863" fill="white"/>
</clipPath>
</defs>
</svg>
