<svg width="918" height="695" viewBox="0 0 918 695" fill="none" xmlns="http://www.w3.org/2000/svg">
<rect width="918" height="695" fill="white"/>
<path d="M537.39 563.154C553.208 563.154 566.031 549.688 566.031 533.077C566.031 516.466 553.208 503 537.39 503C521.571 503 508.748 516.466 508.748 533.077C508.748 549.688 521.571 563.154 537.39 563.154Z" fill="#CCFFFF"/>
<path d="M566.029 533.234H508.746V605.356H566.029V533.234Z" fill="#CCFFFF"/>
<path d="M516.544 614.174C520.85 614.174 524.342 610.508 524.342 605.985C524.342 601.463 520.85 597.797 516.544 597.797C512.237 597.797 508.746 601.463 508.746 605.985C508.746 610.508 512.237 614.174 516.544 614.174Z" fill="#CCFFFF"/>
<path d="M530.04 615.119C534.346 615.119 537.838 611.453 537.838 606.93C537.838 602.408 534.346 598.742 530.04 598.742C525.733 598.742 522.242 602.408 522.242 606.93C522.242 611.453 525.733 615.119 530.04 615.119Z" fill="#CCFFFF"/>
<path d="M544.136 615.119C548.442 615.119 551.933 611.453 551.933 606.93C551.933 602.408 548.442 598.742 544.136 598.742C539.829 598.742 536.338 602.408 536.338 606.93C536.338 611.453 539.829 615.119 544.136 615.119Z" fill="#CCFFFF"/>
<path d="M558.231 614.489C562.538 614.489 566.029 610.823 566.029 606.3C566.029 601.778 562.538 598.112 558.231 598.112C553.925 598.112 550.434 601.778 550.434 606.3C550.434 610.823 553.925 614.489 558.231 614.489Z" fill="#CCFFFF"/>
<path fill-rule="evenodd" clip-rule="evenodd" d="M550.746 609.139C551.693 612.541 554.686 615.025 558.231 615.025C562.538 615.025 566.029 611.359 566.029 606.837C566.029 606.517 566.012 606.202 565.978 605.892H566.03V533.968C566.032 533.85 566.032 533.732 566.032 533.613C566.032 522.067 559.837 512.04 550.746 507V609.139Z" fill="#9EFFFF"/>
<path d="M536.787 547.091C539.851 547.091 542.335 544.483 542.335 541.265C542.335 538.047 539.851 535.438 536.787 535.438C533.722 535.438 531.238 538.047 531.238 541.265C531.238 544.483 533.722 547.091 536.787 547.091Z" fill="#000D5F"/>
<path d="M521.941 525.675C521.941 525.675 526.02 532.053 532.138 525.675" stroke="#000D5F" stroke-width="4" stroke-miterlimit="10" stroke-linecap="round"/>
<path d="M541.436 525.675C541.436 525.675 545.514 532.053 551.633 525.675" stroke="#000D5F" stroke-width="4" stroke-miterlimit="10" stroke-linecap="round"/>
<path d="M163.633 523.804C163.633 523.804 169.395 509.319 173.13 511.529L168.937 507.111C168.937 507.111 161.7 514.536 160.53 522.663C159.432 530.725 157.856 538.707 155.811 546.563C153.877 554.093 161.952 551.771 161.952 551.771C161.952 551.771 161.564 551.139 164.317 550.35C167.069 549.561 168.936 552.12 168.936 552.12C168.936 552.12 170.126 554.453 173.13 553.349C176.134 552.244 176.93 549.721 180.408 550.193C182.75 550.595 185 551.451 187.044 552.717C187.044 552.717 192.364 554.611 193.971 551.297C195.577 547.983 200.549 551.139 200.549 551.139C200.549 551.139 209.099 552.197 205.101 548.917C201.483 545.95 200.579 532.925 200.579 532.925L197.486 522.663C197.486 522.663 195.432 510.74 189.584 507.742C186.243 505.978 182.628 504.856 178.911 504.428C178.911 504.428 173.729 505.008 172.372 506.376L174.965 509.635C174.965 509.635 185.877 509.793 187.804 513.738C189.402 516.818 191.169 519.797 193.095 522.662L163.633 523.804Z" fill="#FFBFE8"/>
<path d="M180.408 550.662C189.84 550.662 197.487 540.762 197.487 528.549C197.487 516.336 189.84 506.435 180.408 506.435C170.976 506.435 163.33 516.336 163.33 528.549C163.33 540.762 170.976 550.662 180.408 550.662Z" fill="#BFFFF6"/>
<path d="M181.624 551.227C191.056 551.227 198.703 541.327 198.703 529.114C198.703 516.901 191.056 507 181.624 507C172.192 507 188.962 515.352 188.962 527.565C188.962 539.778 172.192 551.227 181.624 551.227Z" fill="#8FFFEF"/>
<path d="M185.052 549.849H175.781V557.442H185.052V549.849Z" fill="#BFFFF6"/>
<path d="M167.887 557.969C167.887 557.969 177.905 578.712 193.542 558.79L183.772 552.546L178.236 550.97L167.887 557.969Z" fill="#BFFFF6"/>
<path d="M172.372 528.305C173.116 528.305 173.63 527.652 173.63 526.961C173.63 526.27 173.116 525.617 172.372 525.617C171.628 525.617 171.113 526.27 171.113 526.961C171.113 527.652 171.628 528.305 172.372 528.305Z" fill="#957FFF" stroke="#957FFF"/>
<path d="M187.804 528.305C188.547 528.305 189.062 527.652 189.062 526.961C189.062 526.27 188.547 525.617 187.804 525.617C187.06 525.617 186.545 526.27 186.545 526.961C186.545 527.652 187.06 528.305 187.804 528.305Z" fill="#957FFF" stroke="#957FFF"/>
<path d="M161.917 561.476L167.887 557.969L193.543 558.79L200.528 562.408L201.03 580.581L159.625 581.378L161.917 561.476Z" fill="#764D2A"/>
<path d="M162.288 523.425L163.562 524.58C163.562 524.58 169.227 508.652 179.063 508.474C188.899 508.295 196.554 523.294 197.193 524.55C197.589 524.013 198.128 523.611 198.742 523.397C199.55 523.239 194.215 509.291 190.741 507.758C187.267 506.226 184.567 503.524 179.99 503.463C175.414 503.401 172.271 503.893 169.679 505.915C167.477 507.736 165.561 509.909 164 512.354C163.118 513.765 161.613 520.572 161.456 521.368C161.238 522.042 160.897 522.664 160.453 523.202L162.288 523.425Z" fill="#FFBFE8"/>
<path d="M162.287 523.426C162.287 523.426 154.204 520.446 159.36 531.591C164.043 541.711 163.713 532.616 163.713 532.616C163.713 532.616 164.573 527.054 164.128 525.289C163.824 524.082 162.287 523.426 162.287 523.426Z" fill="#BFFFF6"/>
<path d="M198.744 523.394C198.744 523.394 206.875 521.028 201.494 531.635C196.462 541.556 197.12 532.545 197.12 532.545C197.12 532.545 196.379 526.959 196.863 525.205C197.193 524.009 198.744 523.394 198.744 523.394Z" fill="#BFFFF6"/>
<path d="M175.782 551.261C175.782 551.261 183.658 552.552 185.053 551.261L187.375 554.289C187.375 554.289 181.804 557.916 172.676 554.05L175.782 551.261Z" fill="#957FFF"/>
<path d="M202.49 615.577H158.964L162.067 584.468L159.622 598.125L142.896 596.687C142.896 596.687 148.638 568.212 152.224 565.421C155.809 562.631 148.367 565.138 172.674 554.05C172.674 554.05 181.916 557.518 187.374 554.29C187.374 554.29 208.65 562.082 210.729 571.847L219.762 594.636L202.776 598.481L201.028 583.387" fill="#E5D7E8"/>
<path d="M159.609 598.214C159.609 598.214 151.853 602.993 146.561 601.258C139.998 599.106 118.105 566.558 118.105 566.558L122.197 563.965" fill="#957FFF"/>
<path d="M236.825 563.287L241.095 565.536C241.095 565.536 222.49 598.93 216.203 601.165C210.997 603.016 203.066 599.061 203.066 599.061" fill="#957FFF"/>
<path d="M121.182 568.614C121.182 568.614 107.892 568.676 105.775 564.959C103.657 561.241 106.552 559.009 106.552 559.009C106.552 559.009 123.058 563.251 122.512 564.149C121.965 565.047 121.182 568.614 121.182 568.614Z" fill="#BFFFF6"/>
<path d="M238.823 567.904C238.823 567.904 252.07 566.797 253.885 562.906C255.699 559.015 252.635 557.043 252.635 557.043C252.635 557.043 236.525 562.724 237.142 563.573C237.759 564.422 238.823 567.904 238.823 567.904Z" fill="#BFFFF6"/>
<path d="M180.304 536.831C181.067 536.831 181.685 534.07 181.685 530.664C181.685 527.258 181.067 524.497 180.304 524.497C179.541 524.497 178.922 527.258 178.922 530.664C178.922 534.07 179.541 536.831 180.304 536.831Z" fill="#957FFF"/>
<g clip-path="url(#clip0)">
<path d="M341.408 523.804C341.408 523.804 347.171 509.319 350.906 511.529L346.713 507.111C346.713 507.111 339.476 514.536 338.305 522.663C337.208 530.725 335.632 538.707 333.586 546.563C331.652 554.093 339.727 551.77 339.727 551.77C339.727 551.77 339.34 551.139 342.092 550.35C344.845 549.561 346.712 552.12 346.712 552.12C346.712 552.12 347.901 554.453 350.905 553.348C353.909 552.244 354.708 549.721 358.183 550.192C360.526 550.596 362.776 551.453 364.82 552.72C364.82 552.72 370.14 554.614 371.747 551.3C373.353 547.985 378.325 551.142 378.325 551.142C378.325 551.142 386.875 552.2 382.877 548.92C379.259 545.953 378.355 532.927 378.355 532.927L375.261 522.663C375.261 522.663 373.208 510.74 367.359 507.742C364.018 505.978 360.404 504.856 356.687 504.428C356.687 504.428 351.505 505.008 350.147 506.376L352.741 509.635C352.741 509.635 363.652 509.793 365.58 513.738C367.178 516.818 368.945 519.797 370.871 522.662L341.408 523.804Z" fill="#FFBFE8"/>
<path d="M358.184 550.662C367.616 550.662 375.262 540.762 375.262 528.549C375.262 516.336 367.616 506.435 358.184 506.435C348.752 506.435 341.105 516.336 341.105 528.549C341.105 540.762 348.752 550.662 358.184 550.662Z" fill="#BFFFF6"/>
<path d="M358.624 551.227C368.056 551.227 375.703 541.327 375.703 529.114C375.703 516.901 368.056 507 358.624 507C349.192 507 365.962 515.352 365.962 527.565C365.962 539.778 349.192 551.227 358.624 551.227Z" fill="#8FFFEF"/>
<path d="M362.828 549.849H353.557V557.442H362.828V549.849Z" fill="#BFFFF6"/>
<path d="M345.66 557.969C345.66 557.969 355.678 578.712 371.316 558.79L361.545 552.546L356.01 550.97L345.66 557.969Z" fill="#BFFFF6"/>
<path d="M339.689 561.476L345.659 557.969L371.315 558.79L378.3 562.408L378.801 580.581L337.396 581.378L339.689 561.476Z" fill="#764D2A"/>
<path d="M340.062 523.425L341.336 524.58C341.336 524.58 347.001 508.652 356.837 508.474C366.673 508.295 374.328 523.294 374.966 524.55C375.362 524.013 375.902 523.611 376.515 523.397C377.324 523.236 371.989 509.288 368.515 507.756C365.041 506.224 362.34 503.524 357.764 503.463C353.187 503.401 350.044 503.893 347.453 505.915C345.25 507.736 343.334 509.909 341.774 512.354C340.891 513.765 339.387 520.572 339.229 521.368C339.011 522.042 338.671 522.665 338.227 523.202L340.062 523.425Z" fill="#FFBFE8"/>
<path d="M380.266 615.576H336.739L339.843 584.468L337.397 598.124L320.672 596.686C320.672 596.686 326.413 568.211 329.999 565.421C333.585 562.63 326.142 565.137 350.449 554.05C350.449 554.05 359.691 557.518 365.149 554.289C365.149 554.289 386.429 562.081 388.505 571.847L397.537 594.635L380.551 598.48L378.8 583.39" fill="#E5D7E8"/>
<path d="M340.063 523.425C340.063 523.425 331.979 520.445 337.136 531.591C341.819 541.71 341.489 532.616 341.489 532.616C341.489 532.616 342.349 527.053 341.903 525.288C341.6 524.082 340.063 523.425 340.063 523.425Z" fill="#BFFFF6"/>
<path d="M376.517 523.394C376.517 523.394 384.649 521.027 379.269 531.635C374.236 541.556 374.894 532.545 374.894 532.545C374.894 532.545 374.153 526.958 374.637 525.205C374.966 524.009 376.517 523.394 376.517 523.394Z" fill="#BFFFF6"/>
<path d="M353.557 551.261C353.557 551.261 361.434 552.551 362.829 551.261L365.151 554.288C365.151 554.288 359.58 557.916 350.451 554.05L353.557 551.261Z" fill="#957FFF"/>
<path d="M374.155 562.666L377.809 565.924C377.809 565.924 344.145 600.269 336.489 601.709C330.149 602.901 323.271 597.11 323.271 597.11" fill="#957FFF"/>
<path d="M393.366 596.172C393.366 596.172 386.545 602.376 380.181 601.057C372.289 599.422 337.264 565.783 337.264 565.783L340.84 562.433" fill="#957FFF"/>
<path d="M373.939 563.156C373.939 563.156 382.135 552.167 386.228 552.724C390.321 553.281 390.192 557.055 390.192 557.055C390.192 557.055 376.789 568.028 376.457 567.017C376.125 566.005 373.939 563.156 373.939 563.156Z" fill="#BFFFF6"/>
<path d="M342.405 563.703C342.405 563.703 333.704 553.155 329.642 553.924C325.58 554.693 325.886 558.456 325.886 558.456C325.886 558.456 339.791 568.715 340.075 567.691C340.359 566.667 342.405 563.703 342.405 563.703Z" fill="#BFFFF6"/>
<path d="M350.448 528.305C351.192 528.305 351.707 527.652 351.707 526.961C351.707 526.271 351.192 525.618 350.448 525.618C349.704 525.618 349.189 526.271 349.189 526.961C349.189 527.652 349.704 528.305 350.448 528.305Z" fill="#957FFF" stroke="#957FFF"/>
<path d="M365.88 528.305C366.624 528.305 367.138 527.652 367.138 526.961C367.138 526.271 366.624 525.618 365.88 525.618C365.136 525.618 364.621 526.271 364.621 526.961C364.621 527.652 365.136 528.305 365.88 528.305Z" fill="#957FFF" stroke="#957FFF"/>
<path d="M358.378 536.831C359.141 536.831 359.76 534.07 359.76 530.664C359.76 527.259 359.141 524.498 358.378 524.498C357.615 524.498 356.996 527.259 356.996 530.664C356.996 534.07 357.615 536.831 358.378 536.831Z" fill="#957FFF"/>
</g>
<path d="M362.183 333.921H361.187C359.539 333.921 358.202 335.324 358.202 337.056L356.83 405.697C356.83 407.429 359.539 411.52 361.187 411.52H363.672C365.321 411.52 366.534 404.163 366.534 402.431L365.168 337.056C365.168 335.324 363.832 333.921 362.183 333.921Z" fill="#98FFA8"/>
<path d="M363.504 333H362.991C362.142 333 361.453 334.411 361.453 336.152L360.746 405.147C360.746 406.888 362.142 411 362.991 411H364.272C365.121 411 365.746 403.605 365.746 401.865L365.043 336.152C365.043 334.411 364.354 333 363.504 333Z" fill="#40FF5E"/>
<path d="M380.934 320.817C387.051 312.286 389.518 303.401 386.444 300.971C383.37 298.54 375.92 303.485 369.804 312.016C363.687 320.546 361.22 329.431 364.294 331.862C367.368 334.292 374.818 329.347 380.934 320.817Z" fill="#F9EC43"/>
<path d="M387.161 333.138C396.604 329.178 403.103 322.925 401.676 319.173C400.249 315.421 391.436 315.59 381.993 319.55C372.55 323.511 366.051 329.763 367.478 333.515C368.906 337.268 377.718 337.099 387.161 333.138Z" fill="#F9EC43"/>
<path d="M407.244 342.526C407.855 338.539 400.215 333.929 390.179 332.232C380.143 330.534 371.51 332.39 370.899 336.378C370.287 340.366 377.927 344.975 387.964 346.673C398 348.371 406.632 346.514 407.244 342.526Z" fill="#F9EC43"/>
<path d="M398.325 364.05C400.629 360.814 395.895 353.008 387.751 346.613C379.607 340.219 371.138 337.659 368.834 340.895C366.53 344.131 371.264 351.937 379.408 358.332C387.552 364.726 396.022 367.286 398.325 364.05Z" fill="#F9EC43"/>
<path d="M378.677 378.959C382.232 377.415 381.963 368.164 378.076 358.297C374.188 348.43 368.155 341.683 364.6 343.228C361.044 344.772 361.313 354.023 365.201 363.89C369.088 373.757 375.122 380.504 378.677 378.959Z" fill="#F9EC43"/>
<path d="M363.572 362.087C365.315 351.567 363.655 342.477 359.864 341.784C356.074 341.092 351.588 349.059 349.845 359.579C348.102 370.099 349.762 379.189 353.553 379.881C357.344 380.574 361.829 372.607 363.572 362.087Z" fill="#FFF574"/>
<path d="M348.786 358.593C355.976 351.043 359.599 342.606 356.879 339.749C354.158 336.892 346.123 340.697 338.933 348.247C331.743 355.798 328.12 364.235 330.84 367.092C333.561 369.949 341.595 366.144 348.786 358.593Z" fill="#FFF574"/>
<path d="M339.315 348.155C349.397 346.767 357.165 342.394 356.665 338.388C356.165 334.382 347.586 332.259 337.504 333.647C327.421 335.035 319.653 339.408 320.154 343.414C320.654 347.42 329.233 349.543 339.315 348.155Z" fill="#FFF574"/>
<path d="M356.525 335.84C358.065 332.137 351.76 325.67 342.443 321.395C333.125 317.119 324.322 316.654 322.782 320.357C321.241 324.059 327.546 330.527 336.864 334.802C346.182 339.077 354.984 339.542 356.525 335.84Z" fill="#FFF574"/>
<path d="M360.826 334.204C363.705 331.524 360.57 322.874 353.824 314.884C347.078 306.894 339.275 302.59 336.396 305.27C333.517 307.951 336.652 316.601 343.398 324.591C350.144 332.581 357.947 336.885 360.826 334.204Z" fill="#FFF574"/>
<path d="M362.791 333.585C366.638 333.585 369.758 324.929 369.758 314.251C369.758 303.573 366.638 294.916 362.791 294.916C358.943 294.916 355.824 303.573 355.824 314.251C355.824 324.929 358.943 333.585 362.791 333.585Z" fill="#FFF574"/>
<path d="M363.175 350.046C369.222 350.046 372.633 344.451 372.633 338.101C372.633 331.752 370.217 326.661 364.171 326.661C358.125 326.661 350.738 331.752 350.738 338.101C350.738 344.451 357.129 350.046 363.175 350.046Z" fill="#FFBFE8"/>
<path d="M362.747 350C368.246 350.5 373.005 344.789 373.005 338.44C373.005 332.091 370.746 327 364.246 326.5C356.746 326.5 368.617 332.091 368.617 338.44C368.617 344.789 356.7 350 362.747 350Z" fill="#FFA4DE"/>
<path fill-rule="evenodd" clip-rule="evenodd" d="M524.385 346.555H551.072C553.563 346.555 555.582 348.676 555.582 351.292V399.445C555.582 399.729 555.558 400.008 555.512 400.278C555.536 400.394 555.56 400.511 555.583 400.629C551.072 410.496 543.079 411.286 533.219 411.286C523.359 411.286 519.876 406.515 519.876 400.629C519.876 400.419 519.886 400.21 519.906 400.003C519.886 399.82 519.875 399.634 519.875 399.445V351.292C519.875 348.676 521.894 346.555 524.385 346.555Z" fill="#C9DDFF"/>
<path d="M538.482 356.818C565.572 356.818 587.532 344.801 587.532 329.978C587.532 315.155 565.572 303.139 538.482 303.139C511.392 303.139 489.432 315.155 489.432 329.978C489.432 344.801 511.392 356.818 538.482 356.818Z" fill="#FFABF6"/>
<path d="M489.432 328.794L481.539 357.607H595.426L587.533 328.794" fill="#FFABF6"/>
<path d="M547.879 375.368C579.328 375.368 595.426 367.811 595.426 358.002C595.426 348.192 569.931 338.661 538.482 338.661C507.033 338.661 481.539 347.798 481.539 357.607C481.539 367.416 516.43 375.368 547.879 375.368Z" fill="#FFABF6"/>
<path d="M550.247 375C512.747 346 570.246 309.5 570.246 309.5C591.746 318.5 595.247 342.491 595.247 357C595.247 375 558.414 374.5 550.247 375Z" fill="#FE8CF2"/>
<path d="M508.225 358.397C514.868 358.397 520.253 352.742 520.253 345.766C520.253 338.791 517.875 335.109 511.232 335.109C504.589 335.109 496.197 338.791 496.197 345.766C496.197 352.742 501.582 358.397 508.225 358.397Z" fill="#FFE0FF"/>
<path d="M530.214 329.978C534.677 329.978 538.295 326.179 538.295 321.492C538.295 316.806 534.677 313.006 530.214 313.006C525.751 313.006 518.75 317.99 518.75 322.676C518.75 327.363 525.751 329.978 530.214 329.978Z" fill="#FFE0FF"/>
<path d="M542.991 363.923C548.699 363.923 553.327 359.063 553.327 353.068C553.327 347.074 547.759 340.438 542.051 340.438C536.342 340.438 532.654 347.074 532.654 353.068C532.654 359.063 537.282 363.923 542.991 363.923Z" fill="#FFE0FF"/>
<path d="M558.404 335.109C562.037 335.109 564.981 332.017 564.981 328.202C563.666 324.058 562.037 319.519 558.404 319.519C554.771 319.519 551.826 324.387 551.826 328.202C551.826 332.017 554.771 335.109 558.404 335.109Z" fill="#FFE0FF"/>
<path d="M574.566 356.423C579.029 356.423 582.647 352.623 582.647 347.937C582.647 343.25 579.029 339.451 574.566 339.451C570.103 339.451 563.854 343.25 563.854 347.937C563.854 352.623 570.103 356.423 574.566 356.423Z" fill="#FFE0FF"/>
<path d="M542.746 410.5V375.5H555.246C555.579 382.167 557.629 396.195 555.746 400.5C552.246 408.5 545.746 410.5 542.746 410.5Z" fill="#A4C6FF"/>
<path d="M714.738 380.316C731.492 380.316 747.804 365.502 747.804 347.907C747.804 330.313 731.492 316.05 714.738 316.05C697.983 316.05 684.4 330.313 684.4 347.907C684.4 365.502 697.983 380.316 714.738 380.316Z" fill="#FFF574"/>
<path d="M717.083 380.266C733.838 380.266 750.15 365.452 750.15 347.857C750.15 330.263 733.838 316 717.083 316C700.329 316 731.746 330.263 731.746 347.857C731.746 365.452 700.329 380.266 717.083 380.266Z" fill="#F9EC43"/>
<path d="M718.096 353.088C719.198 353.088 720.091 349.14 720.091 344.27C720.091 339.399 719.198 335.451 718.096 335.451C716.995 335.451 716.102 339.399 716.102 344.27C716.102 349.14 716.995 353.088 718.096 353.088Z" fill="#FF9F66"/>
<path d="M706.548 342.065C707.534 342.065 708.333 341.226 708.333 340.191C708.333 339.156 707.534 338.317 706.548 338.317C705.563 338.317 704.764 339.156 704.764 340.191C704.764 341.226 705.563 342.065 706.548 342.065Z" fill="#FF9F66"/>
<path d="M707.492 358.159C707.492 358.159 716.73 367.198 727.227 358.159" stroke="#FF9F66" stroke-width="5" stroke-miterlimit="10"/>
<path d="M728.472 342.044C729.458 342.044 730.257 341.205 730.257 340.17C730.257 339.135 729.458 338.296 728.472 338.296C727.486 338.296 726.688 339.135 726.688 340.17C726.688 341.205 727.486 342.044 728.472 342.044Z" fill="#FF9F66"/>
<path d="M691.538 408.756C692.868 409.361 696.318 402.608 698.345 397.691C700.371 392.774 700.936 388.298 699.606 387.694C698.276 387.089 695.554 390.585 693.528 395.501C691.501 400.418 690.208 408.151 691.538 408.756Z" fill="#FFF574"/>
<path d="M668.832 385.306C669.817 386.423 674.742 385.306 677.393 380.738C680.045 376.169 683.373 373.242 682.389 372.125C681.404 371.008 677.571 373.054 673.827 376.694C670.084 380.334 667.848 384.19 668.832 385.306Z" fill="#FFF574"/>
<path d="M682.233 321.642C683.226 320.533 680.452 316.742 676.734 313.074C672.745 306.349 668.384 307.555 667.391 308.664C666.399 309.774 669.027 313.925 672.745 317.593C676.463 321.262 681.241 322.751 682.233 321.642Z" fill="#FFF574"/>
<path d="M729.551 307.163C730.833 307.872 733.8 304.604 736.177 299.863C738.553 295.123 739.441 290.705 738.158 289.996C736.876 289.287 732.965 291.578 730.588 296.318C728.211 301.059 728.268 306.454 729.551 307.163Z" fill="#F9EC43"/>
<path d="M701.74 308.958C703.167 308.694 703.606 304.202 702.719 298.926C701.832 293.651 701.151 287.896 699.724 288.161C698.296 288.426 696.663 294.608 697.55 299.884C698.437 305.16 700.313 309.223 701.74 308.958Z" fill="#FFF574"/>
<path d="M658.632 346.997C658.663 348.519 662.823 349.66 667.924 349.546C673.024 349.432 677.134 348.106 677.103 346.584C677.073 345.063 672.913 343.922 667.812 344.036C662.711 344.149 656.162 342.286 658.632 346.997Z" fill="#FFF574"/>
<path d="M777.616 344.49C777.653 342.968 769.41 343.11 764.31 342.973C759.21 342.837 755.045 343.96 755.008 345.481C754.971 347.003 759.076 348.347 764.176 348.483C769.276 348.619 777.579 346.011 777.616 344.49Z" fill="#F9EC43"/>
<path d="M767.119 310.097C766.326 308.824 759.804 311.813 755.535 314.746C751.265 317.679 748.447 321.089 749.241 322.363C750.034 323.636 753.822 324.274 758.091 321.341C762.361 318.408 767.913 311.371 767.119 310.097Z" fill="#F9EC43"/>
<path d="M729.072 409.417C730.496 409.134 730.024 402.593 729.072 397.329C728.121 392.066 726.196 388.029 724.772 388.313C723.348 388.596 722.965 393.093 723.916 398.357C724.867 403.62 727.648 409.701 729.072 409.417Z" fill="#F9EC43"/>
<path d="M760.569 388.909C761.7 387.957 760.03 383.797 756.838 379.617C753.647 375.437 750.143 374.812 749.012 375.764C747.882 376.716 749.552 380.876 752.743 385.056C755.934 389.236 759.438 389.861 760.569 388.909Z" fill="#F9EC43"/>
<path fill-rule="evenodd" clip-rule="evenodd" d="M204.2 338.133C205.341 338.398 206.571 337.925 207.261 336.843C207.951 335.762 207.899 334.387 207.231 333.379C207.576 333.46 207.914 333.608 208.225 333.827C209.567 334.77 209.926 336.677 209.028 338.086C208.129 339.494 206.313 339.872 204.972 338.928C204.66 338.709 204.402 338.438 204.2 338.133Z" fill="#B8BDE3"/>
<path d="M220.328 381.899C220.328 384.69 221.125 396.69 194.284 402.551C175.79 402.551 153.357 393.15 153.357 381.899C153.357 370.648 168.349 361.527 186.843 361.527C205.336 361.527 220.328 370.648 220.328 381.899Z" fill="#B8BDE3"/>
<path d="M163.544 295.718L160.356 295.63C156.835 295.532 153.927 297.56 153.862 300.159L152.737 344.868C152.672 347.467 155.473 349.653 158.994 349.751L162.182 349.839C165.704 349.937 168.611 347.909 168.677 345.31L169.802 300.601C169.867 298.002 167.066 295.816 163.544 295.718Z" fill="#B8BDE3"/>
<path d="M212.085 304.459L210.344 304.602C207.46 304.839 205.293 307.34 205.505 310.188L207.97 343.277C208.182 346.125 210.693 348.241 213.578 348.004L215.319 347.861C218.203 347.624 220.54 345.677 220.328 342.829L217.693 309.186C217.481 306.338 214.97 304.222 212.085 304.459Z" fill="#B8BDE3"/>
<path d="M210.755 394.457H166.425C163.101 394.457 152.824 383.271 152.824 380.364V343.369C152.829 341.969 153.467 340.627 154.6 339.637C155.733 338.647 157.267 338.089 158.869 338.084H186.763H214.281C215.883 338.089 217.418 338.647 218.551 339.637C219.683 340.627 220.322 341.969 220.326 343.369V380.364C220.326 383.271 214.08 394.457 210.755 394.457Z" fill="#B8BDE3"/>
<ellipse rx="7.97296" ry="8.3719" transform="matrix(0.999615 0.0277393 -0.0251569 0.999683 161.865 299.022)" fill="#B8BDE3"/>
<path d="M181.961 330.591H176.193C173.008 330.591 170.426 332.98 170.426 335.926L171.693 369.34C171.693 372.287 173.008 374.156 176.193 374.156H181.961C185.146 374.156 187.729 371.768 187.729 368.822V335.926C187.729 332.98 185.146 330.591 181.961 330.591Z" fill="#B899E3"/>
<ellipse cx="179.017" cy="335.481" rx="8.65141" ry="8.00172" fill="#B899E3"/>
<path d="M187.667 369.711C187.667 374.13 183.794 377.713 179.016 377.713C174.238 377.713 171.693 374.876 171.693 370.457C171.693 366.038 174.238 361.709 179.016 361.709C183.794 361.709 187.667 365.292 187.667 369.711Z" fill="#B899E3"/>
<path d="M200.809 330.591H195.041C191.856 330.591 189.273 332.98 189.273 335.926L190.031 368.377C190.031 371.323 191.856 373.712 195.041 373.712H200.809C203.994 373.712 205.179 371.323 205.179 368.377L206.576 335.926C206.576 332.98 203.994 330.591 200.809 330.591Z" fill="#B899E3"/>
<ellipse cx="197.864" cy="335.481" rx="8.65141" ry="8.00172" fill="#B899E3"/>
<path d="M204.916 369.62C204.916 374.09 201.584 376.039 197.474 376.039C193.365 376.039 190.033 372.415 190.033 367.946C190.033 363.476 193.365 359.853 197.474 359.853C201.584 359.853 204.916 365.15 204.916 369.62Z" fill="#B899E3"/>
<path d="M148.812 346.312L146.979 348.969C144.119 350.738 143.258 353.155 143.258 356.225L150.771 378.402C151.72 380.381 154.808 380.551 157.668 378.782L162.847 375.578C165.707 373.809 167.256 370.77 166.307 368.791L155.71 346.692C154.761 344.713 151.673 344.543 148.812 346.312Z" fill="#8792E3"/>
<path d="M168.237 342.547L164.429 337.433C162.326 334.609 159.393 333.499 157.878 334.954L143.791 351.759C142.276 353.214 143.161 358.305 145.264 361.129L146.448 364.038C148.551 366.863 150.869 368.001 152.384 366.546L167.709 349.247C168.506 348.131 170.34 345.372 168.237 342.547Z" fill="#8792E3"/>
<path d="M169.567 345.062C168.328 350.905 161.96 354.139 157.343 352.876C152.725 351.612 153.881 346.706 155.12 340.862C156.359 335.018 159.325 332.439 165.315 333.061C169.933 334.325 170.807 339.218 169.567 345.062Z" fill="#8792E3"/>
<ellipse rx="9.1126" ry="10.8743" transform="matrix(0.89274 -0.450572 0.364347 0.931263 158.355 372.969)" fill="#8792E3"/>
<ellipse rx="6.11429" ry="6.69584" transform="matrix(0.996643 -0.0818697 0.0742872 0.997237 211.507 308.425)" fill="#B8BDE3"/>
<path d="M230.928 145.235C230.928 166.87 206.777 185.369 181.509 185.369C156.241 185.369 140.071 152.76 140.643 139.905C141.974 109.982 154.937 84.5828 186.395 85.6608C222.998 86.915 230.928 115.277 230.928 145.235Z" fill="#FFC9E3"/>
<path d="M181.816 147.116C179.625 147.116 177.85 139.395 177.85 129.871C177.85 120.347 179.625 112.626 181.816 112.626C184.006 112.626 185.781 120.347 185.781 129.871C185.781 139.395 184.006 147.116 181.816 147.116Z" fill="#FF7497"/>
<path d="M142.895 135.809C144.717 143.729 143.632 152.511 140.028 153.387C136.424 154.264 140.638 145.791 133.927 141.472C126.711 136.832 126.943 125.462 133.067 123.055C136.527 121.694 141.073 127.888 142.895 135.809Z" fill="#FFC9E3"/>
<path d="M238.659 139.202C236.083 146.9 232.856 149.432 229.351 148.194C225.846 146.955 226.698 138.887 229.271 131.191C231.844 123.494 235.389 120.396 238.894 121.634C242.4 122.872 241.232 131.505 238.659 139.202Z" fill="#FFC9E3"/>
<path d="M193.857 155.612C193.857 155.612 184.328 168.806 172.184 155.586L193.857 155.612Z" fill="#FFC9E3"/>
<path d="M193.857 155.612C193.857 155.612 184.328 168.806 172.184 155.586" stroke="#FF7497" stroke-width="5" stroke-miterlimit="10"/>
<path d="M235.546 144.276C235.546 144.276 238.86 154.014 234.589 152.133C230.318 150.252 229.098 148.371 229.098 148.371L235.546 144.276Z" fill="#FFC9E3"/>
<path d="M173.107 175.798L172.497 196.492L195.071 197.747L196.291 173.917L173.107 175.798Z" fill="#FFC9E3"/>
<path d="M166.724 118.715C162.438 117.465 161.542 122.941 161.51 123.143C161.51 123.143 157.46 119.143 154.747 122.882C154.075 123.821 153.702 124.949 153.679 126.114C153.656 127.279 153.983 128.422 154.617 129.388C156.049 131.597 159.107 134.323 165.637 135.7L165.644 135.719L165.656 135.704H165.663V135.696C170.033 130.521 170.849 126.446 170.678 123.798C170.61 122.635 170.193 121.522 169.485 120.612C168.777 119.702 167.812 119.04 166.724 118.715Z" fill="#FF7497"/>
<path d="M232.024 144.606C232.024 166.24 209.229 182 200.229 182C197.229 177 208.342 153.461 208.902 140.605C210.205 110.683 157.643 83.9535 188.436 85.0315C224.262 86.2857 232.024 114.647 232.024 144.606Z" fill="#FFAFD5"/>
<path d="M211.069 124.817C208.96 120.784 204.509 123.933 204.347 124.051C204.347 124.051 204.323 118.278 199.823 118.878C198.7 119.035 197.651 119.545 196.821 120.338C195.991 121.132 195.42 122.169 195.186 123.309C194.637 125.903 194.864 130.058 198.446 135.837L198.437 135.854H198.456L198.46 135.86V135.853C205.117 135.477 208.532 133.243 210.264 131.276C211.03 130.416 211.518 129.334 211.662 128.178C211.807 127.021 211.599 125.848 211.069 124.817Z" fill="#FF7497"/>
<path d="M405.994 144.488C405.994 166.122 382.356 184.622 357.624 184.622C332.891 184.622 317.064 152.013 317.624 139.157C318.927 109.235 331.613 83.8355 362.406 84.9135C398.232 86.1677 405.994 114.529 405.994 144.488Z" fill="#FF9F66"/>
<path d="M357.327 146.369C359.471 146.369 361.209 138.648 361.209 129.124C361.209 119.6 359.471 111.879 357.327 111.879C355.183 111.879 353.445 119.6 353.445 129.124C353.445 138.648 355.183 146.369 357.327 146.369Z" fill="#E92E00"/>
<path d="M341.201 126.929C342.685 126.929 343.888 125.666 343.888 124.107C343.888 122.549 342.685 121.285 341.201 121.285C339.717 121.285 338.514 122.549 338.514 124.107C338.514 125.666 339.717 126.929 341.201 126.929Z" fill="#E92E00"/>
<path d="M376.435 128.183C377.919 128.183 379.123 126.92 379.123 125.361C379.123 123.802 377.919 122.539 376.435 122.539C374.951 122.539 373.748 123.802 373.748 125.361C373.748 126.92 374.951 128.183 376.435 128.183Z" fill="#E92E00"/>
<path d="M319.827 135.062C321.611 142.982 320.548 151.763 317.021 152.64C313.493 153.517 317.618 145.044 311.049 140.725C303.983 136.082 304.21 124.715 310.205 122.308C313.594 120.947 318.044 127.141 319.827 135.062Z" fill="#FF9F66"/>
<path d="M413.562 138.455C411.043 146.153 407.882 148.685 404.451 147.446C401.02 146.208 401.854 138.14 404.373 130.443C406.892 122.746 410.361 119.649 413.792 120.887C417.223 122.125 416.083 130.758 413.562 138.455Z" fill="#FF9F66"/>
<path d="M367.915 155.491C367.915 155.491 358.587 168.686 346.701 155.466" stroke="#E93B00" stroke-width="5" stroke-miterlimit="10"/>
<path d="M410.517 143.528C410.517 143.528 413.76 153.267 409.58 151.386C405.399 149.505 404.205 147.623 404.205 147.623L410.517 143.528Z" fill="#FF9F66"/>
<path d="M348.802 175.051L348.205 195.745L370.3 196.999L371.495 173.17L348.802 175.051Z" fill="#FF9F66"/>
<g clip-path="url(#clip1)">
<path d="M585.367 146.73C585.367 168.365 561.729 186.864 536.997 186.864C512.264 186.864 496.437 154.255 496.997 141.4C498.3 111.477 510.986 86.0779 541.779 87.1559C577.605 88.4101 585.367 116.772 585.367 146.73Z" fill="#B8EBE3"/>
<path d="M585.041 146.606C585.041 168.24 562.246 184 553.246 184C550.246 179 561.36 155.461 561.919 142.605C563.222 112.683 510.66 85.9535 541.453 87.0315C577.279 88.2857 585.041 116.647 585.041 146.606Z" fill="#92EBDD"/>
<path d="M536.698 148.611C538.842 148.611 540.58 140.89 540.58 131.366C540.58 121.842 538.842 114.121 536.698 114.121C534.554 114.121 532.816 121.842 532.816 131.366C532.816 140.89 534.554 148.611 536.698 148.611Z" fill="#7FA3FF"/>
<path d="M520.574 129.171C522.058 129.171 523.261 127.908 523.261 126.349C523.261 124.791 522.058 123.527 520.574 123.527C519.09 123.527 517.887 124.791 517.887 126.349C517.887 127.908 519.09 129.171 520.574 129.171Z" fill="#7FA3FF"/>
<path d="M555.806 130.426C557.291 130.426 558.494 129.162 558.494 127.604C558.494 126.045 557.291 124.782 555.806 124.782C554.322 124.782 553.119 126.045 553.119 127.604C553.119 129.162 554.322 130.426 555.806 130.426Z" fill="#7FA3FF"/>
<path d="M499.198 137.304C500.982 145.224 499.919 154.005 496.392 154.882C492.864 155.759 496.989 147.285 490.42 142.967C483.354 138.324 483.581 126.957 489.576 124.55C492.965 123.189 497.415 129.383 499.198 137.304Z" fill="#B8EBE3"/>
<path d="M592.933 140.697C590.414 148.395 587.253 150.927 583.822 149.688C580.391 148.45 581.225 140.382 583.744 132.685C586.263 124.988 589.732 121.891 593.163 123.129C596.594 124.367 595.454 133 592.933 140.697Z" fill="#B8EBE3"/>
<path d="M589.888 145.771C589.888 145.771 593.131 155.509 588.951 153.628C584.771 151.747 583.576 149.865 583.576 149.865L589.888 145.771Z" fill="#B8EBE3"/>
<path d="M528.173 177.293L527.576 197.987L549.672 199.242L550.866 175.412L528.173 177.293Z" fill="#B8EBE3"/>
<path d="M524.754 160.212H550.432" stroke="#7FA3FF" stroke-width="5" stroke-miterlimit="10"/>
</g>
<g clip-path="url(#clip2)">
<path d="M768.016 147.607C768.016 169.242 744.377 187.741 719.645 187.741C694.913 187.741 679.086 155.132 679.645 142.277C680.948 112.354 693.635 86.9551 724.428 88.0331C760.254 89.2873 768.016 117.649 768.016 147.607Z" fill="#C388FF"/>
<path d="M719.346 149.489C721.49 149.489 723.228 141.768 723.228 132.243C723.228 122.719 721.49 114.998 719.346 114.998C717.203 114.998 715.465 122.719 715.465 132.243C715.465 141.768 717.203 149.489 719.346 149.489Z" fill="#7B2BFE"/>
<path d="M703.222 130.049C704.707 130.049 705.91 128.785 705.91 127.227C705.91 125.668 704.707 124.405 703.222 124.405C701.738 124.405 700.535 125.668 700.535 127.227C700.535 128.785 701.738 130.049 703.222 130.049Z" fill="#7B2BFE"/>
<path d="M738.457 131.303C739.941 131.303 741.144 130.039 741.144 128.481C741.144 126.922 739.941 125.659 738.457 125.659C736.973 125.659 735.77 126.922 735.77 128.481C735.77 130.039 736.973 131.303 738.457 131.303Z" fill="#7B2BFE"/>
<path d="M681.847 138.181C683.63 146.102 682.568 154.883 679.04 155.76C675.513 156.636 679.637 148.163 673.069 143.845C666.003 139.202 666.23 127.834 672.225 125.427C675.614 124.067 680.063 130.261 681.847 138.181Z" fill="#C388FF"/>
<path d="M775.582 141.575C773.063 149.272 769.901 151.804 766.471 150.566C763.04 149.327 763.873 141.26 766.392 133.563C768.911 125.866 772.381 122.769 775.811 124.007C779.242 125.244 778.103 133.878 775.582 141.575Z" fill="#C388FF"/>
<path d="M772.536 146.648C772.536 146.648 775.779 156.386 771.599 154.505C767.419 152.624 766.225 150.743 766.225 150.743L772.536 146.648Z" fill="#C388FF"/>
<path d="M710.822 178.17L710.225 198.865L732.32 200.119L733.514 176.289L710.822 178.17Z" fill="#C388FF"/>
<path d="M730.959 159.025C730.959 159.025 721.632 172.22 709.746 159" stroke="#7B2BFE" stroke-width="5" stroke-miterlimit="10"/>
<path d="M768.024 147.606C768.024 169.24 745.229 185 736.229 185C733.229 180 744.342 156.461 744.902 143.605C746.205 113.683 693.643 86.9535 724.436 88.0315C760.262 89.2857 768.024 117.647 768.024 147.606Z" fill="#B66CFF"/>
</g>
<path d="M771.246 91.5C771.246 92.4768 770.609 93.8651 768.369 95.524C766.176 97.1473 762.843 98.7146 758.501 100.074C749.845 102.785 737.734 104.5 724.246 104.5C710.758 104.5 698.647 102.785 689.991 100.074C685.649 98.7146 682.316 97.1473 680.124 95.524C677.883 93.8651 677.246 92.4768 677.246 91.5C677.246 90.5232 677.883 89.1349 680.124 87.476C682.316 85.8527 685.649 84.2854 689.991 82.9256C698.647 80.2153 710.758 78.5 724.246 78.5C737.734 78.5 749.845 80.2153 758.501 82.9256C762.843 84.2854 766.176 85.8527 768.369 87.476C770.609 89.1349 771.246 90.5232 771.246 91.5Z" stroke="#FFF574" stroke-width="5"/>
<path d="M769.367 575.067C773.338 567.092 768.043 523.028 768.043 523.028L710.234 598.488C710.234 598.488 765.395 583.043 769.367 575.067Z" fill="#EDCF64" stroke="#EDCF64"/>
<path d="M697.054 521.704C689.935 525.676 639.188 594.075 638.746 599.225C638.305 604.375 707.145 601.136 710.342 599.225C713.539 597.315 772.015 523.469 768.65 521.704C765.285 519.939 704.172 517.733 697.054 521.704Z" fill="#FFF574"/>
<ellipse cx="705.494" cy="535.885" rx="9.33007" ry="4.72689" fill="#EDCF64"/>
<path d="M744.799 539.654C743.767 544.416 739.419 543.6 734.502 541.752C729.585 539.905 725.961 537.725 726.992 532.962C729 529.241 731.975 528.867 736.892 530.715C741.809 532.562 745.83 534.891 744.799 539.654Z" fill="#EDCF64"/>
<ellipse cx="718.769" cy="556.21" rx="6.81813" ry="6.14496" fill="#EDCF64"/>
<ellipse rx="8.76063" ry="6.79399" transform="matrix(0.987345 0.158586 -0.0921751 0.995743 691.504 562.858)" fill="#EDCF64"/>
<ellipse rx="5.57923" ry="4.51484" transform="matrix(0.987345 0.158586 -0.0921751 0.995743 703.401 585.193)" fill="#EDCF64"/>
<ellipse rx="6.32441" ry="7.01108" transform="matrix(0.987345 0.158586 -0.0921751 0.995743 672.782 582.825)" fill="#EDCF64"/>
<defs>
<clipPath id="clip0">
<rect width="76.8662" height="112.119" fill="white" transform="translate(320.672 503.458)"/>
</clipPath>
<clipPath id="clip1">
<rect width="110.211" height="112.119" fill="white" transform="translate(485.098 87.1228)"/>
</clipPath>
<clipPath id="clip2">
<rect width="110.211" height="112.119" fill="white" transform="translate(667.746 88)"/>
</clipPath>
</defs>
</svg>
