<svg width="677" height="546" viewBox="0 0 677 546" fill="none" xmlns="http://www.w3.org/2000/svg">
<path d="M432.644 493.154C448.462 493.154 461.286 479.688 461.286 463.077C461.286 446.466 448.462 433 432.644 433C416.826 433 404.002 446.466 404.002 463.077C404.002 479.688 416.826 493.154 432.644 493.154Z" fill="#CCFFFF"/>
<path d="M461.283 463.234H404V535.356H461.283V463.234Z" fill="#CCFFFF"/>
<path d="M411.798 544.174C416.104 544.174 419.595 540.508 419.595 535.985C419.595 531.463 416.104 527.797 411.798 527.797C407.491 527.797 404 531.463 404 535.985C404 540.508 407.491 544.174 411.798 544.174Z" fill="#CCFFFF"/>
<path d="M425.294 545.119C429.601 545.119 433.092 541.452 433.092 536.93C433.092 532.408 429.601 528.742 425.294 528.742C420.988 528.742 417.497 532.408 417.497 536.93C417.497 541.452 420.988 545.119 425.294 545.119Z" fill="#CCFFFF"/>
<path d="M439.39 545.119C443.697 545.119 447.188 541.452 447.188 536.93C447.188 532.408 443.697 528.742 439.39 528.742C435.083 528.742 431.592 532.408 431.592 536.93C431.592 541.452 435.083 545.119 439.39 545.119Z" fill="#CCFFFF"/>
<path d="M453.486 544.489C457.793 544.489 461.284 540.823 461.284 536.3C461.284 531.778 457.793 528.112 453.486 528.112C449.179 528.112 445.688 531.778 445.688 536.3C445.688 540.823 449.179 544.489 453.486 544.489Z" fill="#CCFFFF"/>
<path fill-rule="evenodd" clip-rule="evenodd" d="M446.091 539.446C447.129 542.689 450.047 545.025 453.485 545.025C457.791 545.025 461.282 541.359 461.282 536.837C461.282 536.517 461.265 536.202 461.231 535.892H461.284V463.968C461.285 463.85 461.285 463.732 461.285 463.613C461.285 455.995 458.588 449.038 454.141 443.738L446.091 539.446Z" fill="#9EFFFF"/>
<path d="M432.041 477.091C435.105 477.091 437.589 474.483 437.589 471.265C437.589 468.047 435.105 465.439 432.041 465.439C428.976 465.439 426.492 468.047 426.492 471.265C426.492 474.483 428.976 477.091 432.041 477.091Z" fill="#000D5F"/>
<path d="M417.196 455.675C417.196 455.675 421.275 462.053 427.393 455.675" stroke="#000D5F" stroke-width="4" stroke-miterlimit="10" stroke-linecap="round"/>
<path d="M436.689 455.675C436.689 455.675 440.767 462.053 446.886 455.675" stroke="#000D5F" stroke-width="4" stroke-miterlimit="10" stroke-linecap="round"/>
<path d="M58.8871 453.804C58.8871 453.804 64.6498 439.319 68.3848 441.529L64.1911 437.111C64.1911 437.111 56.9546 444.536 55.7843 452.663C54.6867 460.725 53.1107 468.707 51.0654 476.563C49.1309 484.093 57.2061 481.77 57.2061 481.77C57.2061 481.77 56.8185 481.139 59.5711 480.35C62.3236 479.561 64.1904 482.12 64.1904 482.12C64.1904 482.12 65.3801 484.453 68.3841 483.348C71.3881 482.244 72.184 479.721 75.662 480.192C78.0041 480.595 80.2546 481.451 82.2988 482.717C82.2988 482.717 87.6187 484.611 89.225 481.297C90.8313 477.983 95.8037 481.139 95.8037 481.139C95.8037 481.139 104.354 482.197 100.355 478.917C96.7378 475.95 95.8334 462.924 95.8334 462.924L92.7403 452.663C92.7403 452.663 90.6862 440.74 84.8385 437.742C81.4973 435.978 77.8828 434.856 74.1655 434.428C74.1655 434.428 68.9838 435.008 67.6262 436.376L70.2198 439.635C70.2198 439.635 81.1311 439.793 83.0587 443.738C84.6565 446.818 86.4231 449.797 88.3496 452.662L58.8871 453.804Z" fill="#FFBFE8"/>
<path d="M75.6617 480.663C85.0938 480.663 92.74 470.762 92.74 458.549C92.74 446.336 85.0938 436.435 75.6617 436.435C66.2297 436.435 58.5835 446.336 58.5835 458.549C58.5835 470.762 66.2297 480.663 75.6617 480.663Z" fill="#BFFFF6"/>
<path d="M76.8782 481.227C86.3102 481.227 93.9564 471.327 93.9564 459.114C93.9564 446.901 86.3102 437 76.8782 437C67.4461 437 84.2163 445.352 84.2163 457.565C84.2163 469.778 67.4461 481.227 76.8782 481.227Z" fill="#8FFFEF"/>
<path d="M80.3073 479.849H71.0361V487.442H80.3073V479.849Z" fill="#BFFFF6"/>
<path d="M63.1404 487.969C63.1404 487.969 73.1584 508.713 88.7961 488.79L79.0255 482.546L73.49 480.97L63.1404 487.969Z" fill="#BFFFF6"/>
<path d="M67.6265 458.305C68.3703 458.305 68.8851 457.652 68.8851 456.961C68.8851 456.27 68.3703 455.617 67.6265 455.617C66.8827 455.617 66.3679 456.27 66.3679 456.961C66.3679 457.652 66.8827 458.305 67.6265 458.305Z" fill="#957FFF" stroke="#957FFF"/>
<path d="M83.0577 458.305C83.8015 458.305 84.3163 457.652 84.3163 456.961C84.3163 456.27 83.8015 455.617 83.0577 455.617C82.3139 455.617 81.7991 456.27 81.7991 456.961C81.7991 457.652 82.3139 458.305 83.0577 458.305Z" fill="#957FFF" stroke="#957FFF"/>
<path d="M57.1701 491.476L63.1408 487.969L88.7966 488.79L95.7815 492.408L96.2831 510.581L54.8784 511.378L57.1701 491.476Z" fill="#764D2A"/>
<path d="M57.5425 453.425L58.8166 454.58C58.8166 454.58 64.4819 438.652 74.3175 438.474C84.1531 438.295 91.8089 453.294 92.4473 454.55C92.8433 454.013 93.3825 453.611 93.9963 453.397C94.8046 453.239 89.4695 439.291 85.9957 437.758C82.5219 436.226 79.8212 433.524 75.2447 433.463C70.6682 433.401 67.5253 433.893 64.9337 435.915C62.7314 437.736 60.815 439.909 59.2546 442.354C58.3723 443.765 56.8675 450.572 56.71 451.368C56.4922 452.042 56.1517 452.664 55.7075 453.202L57.5425 453.425Z" fill="#FFBFE8"/>
<path d="M57.5418 453.425C57.5418 453.425 49.4583 450.446 54.6151 461.591C59.298 471.711 58.9678 462.616 58.9678 462.616C58.9678 462.616 59.8279 457.054 59.3823 455.289C59.079 454.082 57.5418 453.425 57.5418 453.425Z" fill="#BFFFF6"/>
<path d="M93.997 453.394C93.997 453.394 102.128 451.028 96.7474 461.635C91.7149 471.556 92.3734 462.545 92.3734 462.545C92.3734 462.545 91.632 456.959 92.1163 455.205C92.4459 454.01 93.997 453.394 93.997 453.394Z" fill="#BFFFF6"/>
<path d="M71.0367 481.261C71.0367 481.261 78.9129 482.552 80.3078 481.261L82.6299 484.289C82.6299 484.289 77.0585 487.916 67.9304 484.05L71.0367 481.261Z" fill="#957FFF"/>
<path d="M97.745 545.577H54.2186L57.3221 514.468L55 528L38.1511 526.686C38.1511 526.686 43.8925 498.211 47.4782 495.421C51.064 492.631 43.6216 495.137 67.9287 484.05C67.9287 484.05 77.1702 487.518 82.6282 484.29C82.6282 484.29 103.904 492.082 105.984 501.847L115.017 524.635L98 528L96.5 513.5" fill="#E5D7E8"/>
<path d="M55 528C55 528 47.1076 532.993 41.816 531.257C35.2525 529.106 13.3601 496.557 13.3601 496.557L17.4516 493.965" fill="#957FFF"/>
<path d="M16.4356 498.613C16.4356 498.613 3.14621 498.676 1.02862 494.958C-1.08898 491.241 1.80588 489.009 1.80588 489.009C1.80588 489.009 18.3121 493.25 17.7656 494.149C17.2191 495.047 16.4356 498.613 16.4356 498.613Z" fill="#BFFFF6"/>
<path d="M75.5571 466.831C76.3202 466.831 76.9389 464.07 76.9389 460.664C76.9389 457.258 76.3202 454.497 75.5571 454.497C74.7939 454.497 74.1753 457.258 74.1753 460.664C74.1753 464.07 74.7939 466.831 75.5571 466.831Z" fill="#957FFF"/>
<path d="M50.9999 530C48.5 530 27.8332 507.5 17.4999 496C17.0999 495.2 17.6665 494.667 17.9999 494.5L55 528C54.2 528.8 51.9999 529.667 50.9999 530Z" fill="#8875E4"/>
<path d="M98 527.991C98 527.991 105.892 532.984 111.184 531.248C117.747 529.097 139.64 496.548 139.64 496.548L135.548 493.956" fill="#957FFF"/>
<path d="M136.564 498.604C136.564 498.604 149.854 498.667 151.971 494.949C154.089 491.232 151.194 489 151.194 489C151.194 489 134.688 493.241 135.234 494.14C135.781 495.038 136.564 498.604 136.564 498.604Z" fill="#BFFFF6"/>
<path d="M102 529.991C104.5 529.991 125.167 507.491 135.5 495.991C135.9 495.191 135.333 494.658 135 494.491L98 527.991C98.8 528.791 101 529.658 102 529.991Z" fill="#8875E4"/>
<path d="M98 545.5L96.5 513.5L86.5 545.5H98Z" fill="#C5B9C7"/>
<g clip-path="url(#clip0)">
<path d="M236.662 453.804C236.662 453.804 242.424 439.319 246.159 441.529L241.966 437.11C241.966 437.11 234.729 444.536 233.559 452.663C232.461 460.725 230.885 468.707 228.84 476.562C226.906 484.093 234.981 481.77 234.981 481.77C234.981 481.77 234.593 481.139 237.346 480.35C240.098 479.56 241.966 482.12 241.966 482.12C241.966 482.12 243.155 484.453 246.159 483.348C249.163 482.243 249.962 479.721 253.437 480.192C255.779 480.595 258.03 481.453 260.074 482.72C260.074 482.72 265.394 484.614 267 481.299C268.607 477.985 273.579 481.142 273.579 481.142C273.579 481.142 282.129 482.2 278.131 478.92C274.513 475.952 273.609 462.927 273.609 462.927L270.515 452.663C270.515 452.663 268.462 440.739 262.613 437.742C259.272 435.978 255.657 434.855 251.94 434.427C251.94 434.427 246.758 435.008 245.401 436.376L247.994 439.635C247.994 439.635 258.906 439.793 260.834 443.738C262.432 446.818 264.198 449.797 266.125 452.662L236.662 453.804Z" fill="#FFBFE8"/>
<path d="M253.438 480.662C262.87 480.662 270.516 470.762 270.516 458.549C270.516 446.336 262.87 436.435 253.438 436.435C244.006 436.435 236.36 446.336 236.36 458.549C236.36 470.762 244.006 480.662 253.438 480.662Z" fill="#BFFFF6"/>
<path d="M253.878 481.227C263.31 481.227 270.956 471.327 270.956 459.114C270.956 446.901 263.31 437 253.878 437C244.446 437 261.216 445.352 261.216 457.565C261.216 469.778 244.446 481.227 253.878 481.227Z" fill="#8FFFEF"/>
<path d="M258.082 479.849H248.811V487.442H258.082V479.849Z" fill="#BFFFF6"/>
<path d="M240.913 487.969C240.913 487.969 250.931 508.712 266.569 488.79L256.798 482.546L251.263 480.97L240.913 487.969Z" fill="#BFFFF6"/>
<path d="M234.944 491.475L240.914 487.969L266.569 488.79L273.554 492.408L274.056 510.58L232.651 511.378L234.944 491.475Z" fill="#764D2A"/>
<path d="M235.316 453.425L236.59 454.58C236.59 454.58 242.256 438.652 252.092 438.474C261.928 438.295 269.583 453.294 270.221 454.55C270.617 454.013 271.156 453.612 271.77 453.397C272.579 453.237 267.243 439.289 263.77 437.756C260.296 436.224 257.595 433.524 253.019 433.463C248.442 433.401 245.299 433.893 242.708 435.916C240.505 437.736 238.589 439.909 237.029 442.355C236.146 443.765 234.641 450.572 234.484 451.368C234.266 452.042 233.926 452.665 233.481 453.202L235.316 453.425Z" fill="#FFBFE8"/>
<path d="M275.52 545.576H231.993L235.097 514.468L232.651 528.124L217 527C217 527 221.667 498.211 225.253 495.421C228.839 492.63 221.396 495.137 245.703 484.05C245.703 484.05 254.945 487.518 260.403 484.289C260.403 484.289 281.682 492.081 283.759 501.847L292.5 525.5L276 528L274.054 513.39" fill="#E5D7E8"/>
<path d="M275.5 546L274 514L264 546H275.5Z" fill="#C5B9C7"/>
<path d="M235.317 453.425C235.317 453.425 227.233 450.445 232.39 461.591C237.073 471.71 236.743 462.616 236.743 462.616C236.743 462.616 237.603 457.053 237.157 455.288C236.854 454.082 235.317 453.425 235.317 453.425Z" fill="#BFFFF6"/>
<path d="M271.771 453.394C271.771 453.394 279.903 451.027 274.522 461.635C269.49 471.556 270.147 462.545 270.147 462.545C270.147 462.545 269.406 456.958 269.89 455.205C270.22 454.009 271.771 453.394 271.771 453.394Z" fill="#BFFFF6"/>
<path d="M248.812 481.261C248.812 481.261 256.689 482.552 258.083 481.261L260.406 484.289C260.406 484.289 254.835 487.916 245.706 484.05L248.812 481.261Z" fill="#957FFF"/>
<path d="M245.702 458.305C246.446 458.305 246.961 457.652 246.961 456.961C246.961 456.27 246.446 455.617 245.702 455.617C244.958 455.617 244.444 456.27 244.444 456.961C244.444 457.652 244.958 458.305 245.702 458.305Z" fill="#957FFF" stroke="#957FFF"/>
<path d="M261.133 458.305C261.877 458.305 262.392 457.652 262.392 456.961C262.392 456.27 261.877 455.617 261.133 455.617C260.389 455.617 259.875 456.27 259.875 456.961C259.875 457.652 260.389 458.305 261.133 458.305Z" fill="#957FFF" stroke="#957FFF"/>
<path d="M253.632 466.831C254.395 466.831 255.013 464.07 255.013 460.664C255.013 457.258 254.395 454.497 253.632 454.497C252.868 454.497 252.25 457.258 252.25 460.664C252.25 464.07 252.868 466.831 253.632 466.831Z" fill="#957FFF"/>
<path d="M267.5 493L271.063 495.924C271.063 495.924 237.4 530.269 229.743 531.709C223.403 532.901 217 527 217 527" fill="#957FFF"/>
<path d="M222.5 530.5C226 530 253.812 506.183 267.814 494.521C268.356 493.71 267.588 493.169 267.136 493L217 527C218.084 527.811 220 530 222.5 530.5Z" fill="#8875E4"/>
<path d="M267.194 493.156C267.194 493.156 275.389 482.167 279.482 482.724C283.575 483.281 283.446 487.055 283.446 487.055C283.446 487.055 270.043 498.028 269.711 497.017C269.38 496.006 267.194 493.156 267.194 493.156Z" fill="#BFFFF6"/>
<path d="M241.947 491.296L238.384 494.221C238.384 494.221 272.047 528.566 279.704 530.005C286.044 531.197 292.5 525.5 292.5 525.5" fill="#957FFF"/>
<path d="M286.947 528.796C283.447 528.296 255.635 504.479 241.633 492.817C241.091 492.006 241.859 491.465 242.311 491.296L292.5 525.5C291.416 526.311 289.447 528.296 286.947 528.796Z" fill="#8875E4"/>
<path d="M242.253 491.452C242.253 491.452 234.058 480.463 229.965 481.02C225.872 481.578 226.001 485.351 226.001 485.351C226.001 485.351 239.404 496.325 239.736 495.313C240.067 494.302 242.253 491.452 242.253 491.452Z" fill="#BFFFF6"/>
</g>
<path d="M257.434 263.921H256.439C254.79 263.921 253.453 265.324 253.453 267.056L252.082 335.697C252.082 337.429 254.79 341.52 256.439 341.52H258.924C260.573 341.52 261.785 334.163 261.785 332.431L260.42 267.056C260.42 265.324 259.083 263.921 257.434 263.921Z" fill="#98FFA8"/>
<path d="M258.756 263H258.243C257.394 263 256.705 264.411 256.705 266.151L255.998 335.147C255.998 336.888 257.394 341 258.243 341H259.524C260.373 341 260.998 333.605 260.998 331.864L260.295 266.151C260.295 264.411 259.606 263 258.756 263Z" fill="#40FF5E"/>
<path d="M276.187 250.816C282.303 242.286 284.77 233.401 281.697 230.97C278.623 228.54 271.173 233.485 265.056 242.015C258.939 250.545 256.473 259.431 259.546 261.861C262.62 264.292 270.07 259.347 276.187 250.816Z" fill="#F9EC43"/>
<path d="M282.412 263.138C291.855 259.178 298.354 252.925 296.927 249.173C295.5 245.421 286.687 245.59 277.244 249.55C267.801 253.511 261.302 259.763 262.729 263.515C264.156 267.267 272.969 267.098 282.412 263.138Z" fill="#F9EC43"/>
<path d="M302.495 272.526C303.107 268.538 295.467 263.929 285.43 262.231C275.394 260.533 266.762 262.39 266.15 266.378C265.538 270.366 273.178 274.975 283.215 276.673C293.251 278.37 301.883 276.514 302.495 272.526Z" fill="#F9EC43"/>
<path d="M293.577 294.05C295.881 290.814 291.147 283.007 283.003 276.613C274.859 270.219 266.39 267.659 264.086 270.894C261.782 274.13 266.516 281.937 274.66 288.331C282.804 294.725 291.273 297.286 293.577 294.05Z" fill="#F9EC43"/>
<path d="M273.928 308.959C277.484 307.415 277.214 298.164 273.327 288.297C269.44 278.43 263.406 271.683 259.851 273.228C256.295 274.772 256.565 284.023 260.452 293.89C264.34 303.757 270.373 310.504 273.928 308.959Z" fill="#F9EC43"/>
<path d="M258.824 292.086C260.567 281.566 258.907 272.477 255.116 271.784C251.326 271.092 246.84 279.059 245.097 289.579C243.354 300.099 245.014 309.188 248.805 309.881C252.595 310.573 257.081 302.606 258.824 292.086Z" fill="#FFF574"/>
<path d="M244.037 288.593C251.227 281.043 254.85 272.606 252.129 269.749C249.409 266.892 241.374 270.697 234.184 278.247C226.994 285.798 223.371 294.235 226.091 297.092C228.812 299.949 236.846 296.144 244.037 288.593Z" fill="#FFF574"/>
<path d="M234.567 278.154C244.649 276.766 252.417 272.394 251.917 268.387C251.417 264.381 242.838 262.259 232.756 263.647C222.673 265.035 214.905 269.408 215.406 273.414C215.906 277.42 224.485 279.542 234.567 278.154Z" fill="#FFF574"/>
<path d="M251.776 265.839C253.316 262.137 247.011 255.67 237.694 251.394C228.376 247.119 219.573 246.654 218.033 250.357C216.492 254.059 222.797 260.526 232.115 264.802C241.433 269.077 250.235 269.542 251.776 265.839Z" fill="#FFF574"/>
<path d="M256.078 264.204C258.957 261.524 255.822 252.874 249.076 244.884C242.33 236.894 234.527 232.59 231.648 235.27C228.769 237.951 231.904 246.601 238.65 254.591C245.396 262.58 253.199 266.885 256.078 264.204Z" fill="#FFF574"/>
<path d="M258.044 263.585C261.891 263.585 265.01 254.929 265.01 244.25C265.01 233.572 261.891 224.916 258.044 224.916C254.196 224.916 251.077 233.572 251.077 244.25C251.077 254.929 254.196 263.585 258.044 263.585Z" fill="#FFF574"/>
<path d="M258.427 280.045C264.473 280.045 267.885 274.45 267.885 268.101C267.885 261.752 265.469 256.661 259.422 256.661C253.376 256.661 245.99 261.752 245.99 268.101C245.99 274.45 252.381 280.045 258.427 280.045Z" fill="#FFBFE8"/>
<path d="M257.999 280C263.499 280.5 268.257 274.789 268.257 268.44C268.257 262.091 265.999 257 259.499 256.5C251.999 256.5 263.869 262.091 263.869 268.44C263.869 274.789 251.953 280 257.999 280Z" fill="#FFA4DE"/>
<path fill-rule="evenodd" clip-rule="evenodd" d="M419.639 276.555H446.326C448.817 276.555 450.836 278.676 450.836 281.292V329.445C450.836 329.729 450.812 330.008 450.766 330.278C450.79 330.394 450.814 330.511 450.837 330.629C446.326 340.496 438.333 341.286 428.473 341.286C418.612 341.286 415.13 336.515 415.13 330.629C415.13 330.419 415.14 330.21 415.16 330.003C415.139 329.82 415.129 329.634 415.129 329.445V281.292C415.129 278.676 417.148 276.555 419.639 276.555Z" fill="#C9DDFF"/>
<path d="M433.736 286.818C460.826 286.818 482.786 274.801 482.786 259.978C482.786 245.155 460.826 233.139 433.736 233.139C406.646 233.139 384.686 245.155 384.686 259.978C384.686 274.801 406.646 286.818 433.736 286.818Z" fill="#FFABF6"/>
<path d="M384.686 258.794L376.793 287.607H490.68L482.787 258.794" fill="#FFABF6"/>
<path d="M443.133 305.368C474.582 305.368 490.68 297.811 490.68 288.002C490.68 278.192 465.185 268.661 433.736 268.661C402.287 268.661 376.793 277.798 376.793 287.607C376.793 297.416 411.684 305.368 443.133 305.368Z" fill="#FFABF6"/>
<path d="M445.5 305C408 276 465.499 239.5 465.499 239.5C486.999 248.5 490.5 272.491 490.5 287C490.5 305 453.667 304.5 445.5 305Z" fill="#FE8CF2"/>
<path d="M403.479 288.397C410.122 288.397 415.506 282.742 415.506 275.766C415.506 268.791 413.128 265.109 406.486 265.109C399.843 265.109 391.451 268.791 391.451 275.766C391.451 282.742 396.836 288.397 403.479 288.397Z" fill="#FFE0FF"/>
<path d="M425.468 259.978C429.931 259.978 433.549 256.179 433.549 251.492C433.549 246.806 429.931 243.006 425.468 243.006C421.005 243.006 414.004 247.99 414.004 252.676C414.004 257.363 421.005 259.978 425.468 259.978Z" fill="#FFE0FF"/>
<path d="M438.244 293.923C443.953 293.923 448.581 289.063 448.581 283.068C448.581 277.074 443.013 270.438 437.305 270.438C431.596 270.438 427.908 277.074 427.908 283.068C427.908 289.063 432.536 293.923 438.244 293.923Z" fill="#FFE0FF"/>
<path d="M453.658 265.109C457.29 265.109 460.235 262.017 460.235 258.202C458.92 254.058 457.29 249.519 453.658 249.519C450.025 249.519 447.08 254.387 447.08 258.202C447.08 262.017 450.025 265.109 453.658 265.109Z" fill="#FFE0FF"/>
<path d="M469.82 286.423C474.283 286.423 477.901 282.623 477.901 277.937C477.901 273.25 474.283 269.451 469.82 269.451C465.356 269.451 459.107 273.25 459.107 277.937C459.107 282.623 465.356 286.423 469.82 286.423Z" fill="#FFE0FF"/>
<path d="M438 340.5V305.5H450.5C450.833 312.167 452.883 326.195 451 330.5C447.5 338.5 441 340.5 438 340.5Z" fill="#A4C6FF"/>
<path d="M609.994 310.316C626.749 310.316 643.061 295.502 643.061 277.907C643.061 260.313 626.749 246.05 609.994 246.05C593.239 246.05 579.657 260.313 579.657 277.907C579.657 295.502 593.239 310.316 609.994 310.316Z" fill="#FFF574"/>
<path d="M612.339 310.266C629.094 310.266 645.406 295.452 645.406 277.857C645.406 260.263 629.094 246 612.339 246C595.585 246 627.002 260.263 627.002 277.857C627.002 295.452 595.585 310.266 612.339 310.266Z" fill="#F9EC43"/>
<path d="M613.352 283.089C614.454 283.089 615.347 279.14 615.347 274.27C615.347 269.399 614.454 265.451 613.352 265.451C612.251 265.451 611.358 269.399 611.358 274.27C611.358 279.14 612.251 283.089 613.352 283.089Z" fill="#FF9F66"/>
<path d="M601.805 272.065C602.79 272.065 603.589 271.226 603.589 270.191C603.589 269.156 602.79 268.317 601.805 268.317C600.819 268.317 600.02 269.156 600.02 270.191C600.02 271.226 600.819 272.065 601.805 272.065Z" fill="#FF9F66"/>
<path d="M602.749 288.159C602.749 288.159 611.986 297.198 622.483 288.159" stroke="#FF9F66" stroke-width="5" stroke-miterlimit="10"/>
<path d="M623.727 272.044C624.713 272.044 625.512 271.205 625.512 270.17C625.512 269.135 624.713 268.296 623.727 268.296C622.742 268.296 621.943 269.135 621.943 270.17C621.943 271.205 622.742 272.044 623.727 272.044Z" fill="#FF9F66"/>
<path d="M586.794 338.756C588.124 339.361 591.574 332.608 593.6 327.691C595.627 322.774 596.192 318.299 594.862 317.694C593.531 317.089 590.81 320.585 588.784 325.502C586.757 330.418 585.464 338.152 586.794 338.756Z" fill="#FFF574"/>
<path d="M564.089 315.306C565.074 316.423 569.999 315.306 572.65 310.738C575.301 306.169 578.63 303.242 577.645 302.125C576.66 301.008 572.827 303.054 569.084 306.694C565.341 310.334 563.104 314.19 564.089 315.306Z" fill="#FFF574"/>
<path d="M577.49 251.642C578.482 250.533 575.709 246.742 571.99 243.074C568.001 236.349 563.64 237.555 562.648 238.664C561.655 239.773 564.283 243.925 568.001 247.593C571.72 251.261 576.497 252.751 577.49 251.642Z" fill="#FFF574"/>
<path d="M624.807 237.163C626.09 237.872 629.056 234.604 631.433 229.863C633.81 225.123 634.697 220.705 633.415 219.996C632.132 219.287 628.221 221.578 625.844 226.318C623.468 231.059 623.525 236.454 624.807 237.163Z" fill="#F9EC43"/>
<path d="M596.996 238.958C598.423 238.694 598.861 234.202 597.975 228.926C597.088 223.651 596.407 217.896 594.98 218.161C593.552 218.426 591.919 224.608 592.806 229.884C593.693 235.16 595.569 239.223 596.996 238.958Z" fill="#FFF574"/>
<path d="M553.888 276.997C553.919 278.519 558.079 279.66 563.18 279.546C568.28 279.432 572.39 278.106 572.36 276.584C572.329 275.063 568.169 273.922 563.068 274.036C557.967 274.149 551.418 272.286 553.888 276.997Z" fill="#FFF574"/>
<path d="M672.872 274.49C672.909 272.969 664.667 273.11 659.567 272.973C654.466 272.837 650.302 273.96 650.265 275.481C650.228 277.003 654.333 278.347 659.433 278.483C664.533 278.62 672.836 276.012 672.872 274.49Z" fill="#F9EC43"/>
<path d="M662.374 240.097C661.581 238.824 655.059 241.813 650.789 244.746C646.52 247.679 643.702 251.089 644.495 252.363C645.289 253.636 649.077 254.274 653.346 251.341C657.616 248.408 663.167 241.371 662.374 240.097Z" fill="#F9EC43"/>
<path d="M624.329 339.417C625.753 339.134 625.28 332.593 624.329 327.329C623.377 322.066 621.452 318.029 620.028 318.313C618.604 318.596 618.221 323.093 619.172 328.357C620.123 333.62 622.905 339.701 624.329 339.417Z" fill="#F9EC43"/>
<path d="M655.824 318.91C656.955 317.958 655.285 313.797 652.094 309.617C648.902 305.437 645.399 304.812 644.268 305.764C643.137 306.716 644.807 310.876 647.998 315.056C651.19 319.236 654.693 319.862 655.824 318.91Z" fill="#F9EC43"/>
<path fill-rule="evenodd" clip-rule="evenodd" d="M99.4547 268.133C100.596 268.398 101.826 267.925 102.516 266.843C103.206 265.762 103.154 264.387 102.486 263.38C102.831 263.46 103.169 263.608 103.48 263.827C104.822 264.77 105.181 266.677 104.283 268.086C103.384 269.495 101.569 269.872 100.227 268.928C99.9155 268.709 99.6568 268.438 99.4547 268.133Z" fill="#B8BDE3"/>
<path d="M115.584 311.899C115.584 314.69 114.842 326.64 88.0002 332.5C69.5069 332.5 48.6135 323.151 48.6135 311.899C48.6135 300.648 63.6054 291.527 82.0988 291.527C100.592 291.527 115.584 300.648 115.584 311.899Z" fill="#B8BDE3"/>
<path d="M58.7992 225.718L55.6113 225.63C52.0899 225.532 49.1823 227.56 49.1169 230.159L47.9918 274.868C47.9264 277.467 50.728 279.653 54.2493 279.751L57.4373 279.84C60.9586 279.937 63.8662 277.909 63.9316 275.31L65.0567 230.602C65.1221 228.002 62.3205 225.816 58.7992 225.718Z" fill="#B8BDE3"/>
<path d="M107.342 234.459L105.6 234.602C102.716 234.839 100.549 237.34 100.761 240.188L103.226 273.277C103.438 276.125 105.949 278.242 108.834 278.005L110.575 277.862C113.459 277.625 115.796 275.677 115.584 272.829L112.949 239.187C112.737 236.339 110.226 234.222 107.342 234.459Z" fill="#B8BDE3"/>
<path d="M106.01 324.457H61.6805C58.3558 324.457 48.0793 313.271 48.0793 310.364V273.37C48.084 271.969 48.7224 270.627 49.855 269.637C50.9877 268.647 52.5225 268.089 54.1243 268.085H82.0178H109.536C111.138 268.089 112.673 268.647 113.806 269.637C114.938 270.627 115.577 271.969 115.581 273.37V310.364C115.581 313.271 109.335 324.457 106.01 324.457Z" fill="#B8BDE3"/>
<ellipse rx="7.97296" ry="8.3719" transform="matrix(0.999615 0.0277393 -0.0251569 0.999683 57.1199 229.022)" fill="#B8BDE3"/>
<path d="M77.2176 260.592H71.45C68.2646 260.592 65.6824 262.98 65.6824 265.926L66.9496 299.341C66.9496 302.287 68.2646 304.156 71.45 304.156H77.2176C80.403 304.156 82.9852 301.768 82.9852 298.822V265.926C82.9852 262.98 80.403 260.592 77.2176 260.592Z" fill="#B899E3"/>
<ellipse cx="74.2723" cy="265.482" rx="8.65141" ry="8.00172" fill="#B899E3"/>
<path d="M82.9225 299.711C82.9225 304.131 79.0492 307.713 74.2711 307.713C69.4931 307.713 66.9485 304.876 66.9485 300.457C66.9485 296.038 69.4931 291.71 74.2711 291.71C79.0492 291.71 82.9225 295.292 82.9225 299.711Z" fill="#B899E3"/>
<path d="M96.0638 260.592H90.2962C87.1108 260.592 84.5286 262.98 84.5286 265.926L85.2865 298.377C85.2865 301.324 87.1108 303.712 90.2962 303.712H96.0638C99.2491 303.712 100.435 301.324 100.435 298.377L101.831 265.926C101.831 262.98 99.2491 260.592 96.0638 260.592Z" fill="#B899E3"/>
<ellipse cx="93.1192" cy="265.482" rx="8.65141" ry="8.00172" fill="#B899E3"/>
<path d="M100.171 299.62C100.171 304.09 96.8394 306.039 92.7297 306.039C88.6201 306.039 85.2886 302.416 85.2886 297.946C85.2886 293.476 88.6201 289.853 92.7297 289.853C96.8394 289.853 100.171 295.151 100.171 299.62Z" fill="#B899E3"/>
<path d="M44.0683 276.312L42.2346 278.969C39.3745 280.738 38.514 283.155 38.514 286.225L46.0266 308.402C46.9757 310.381 50.0636 310.551 52.9237 308.782L58.1024 305.578C60.9625 303.809 62.5117 300.77 61.5627 298.791L50.9655 276.692C50.0164 274.713 46.9284 274.543 44.0683 276.312Z" fill="#8792E3"/>
<path d="M63.4919 272.548L59.6841 267.434C57.581 264.609 54.648 263.499 53.1329 264.954L39.0459 281.759C37.5308 283.215 38.416 288.305 40.5191 291.129L41.7034 294.039C43.8065 296.863 46.1239 298.001 47.639 296.546L62.9639 279.248C63.7612 278.132 65.5949 275.372 63.4919 272.548Z" fill="#8792E3"/>
<path d="M64.8233 275.062C63.5841 280.906 57.2159 284.139 52.5985 282.876C47.981 281.613 49.1367 276.706 50.3759 270.862C51.6151 265.018 54.5809 262.439 60.571 263.062C65.1885 264.325 66.0625 269.218 64.8233 275.062Z" fill="#8792E3"/>
<ellipse rx="9.1126" ry="10.8743" transform="matrix(0.89274 -0.450572 0.364347 0.931263 53.6106 302.969)" fill="#8792E3"/>
<ellipse rx="6.11429" ry="6.69584" transform="matrix(0.996643 -0.0818697 0.0742872 0.997237 106.763 238.425)" fill="#B8BDE3"/>
<path d="M107 325.5L106 232C110.8 230.8 112.667 235.834 113 238.5L115.5 272.5V311C115.5 321.4 109.833 325 107 325.5Z" fill="#A5ABDE"/>
<path d="M126.182 75.2349C126.182 96.8697 102.032 115.369 76.7636 115.369C51.4954 115.369 35.3257 82.76 35.8974 69.9046C37.2287 39.9821 50.1916 14.5828 81.65 15.6608C118.252 16.915 126.182 45.2766 126.182 75.2349Z" fill="#FFC9E3"/>
<path d="M77.0697 77.1162C74.8795 77.1162 73.104 69.3953 73.104 59.8711C73.104 50.3469 74.8795 42.626 77.0697 42.626C79.2599 42.626 81.0354 50.3469 81.0354 59.8711C81.0354 69.3953 79.2599 77.1162 77.0697 77.1162Z" fill="#FF7497"/>
<path d="M38.148 65.8091C39.9698 73.7293 38.8844 82.5106 35.2805 83.3872C31.6766 84.2639 35.8906 75.7906 29.1795 71.4724C21.9637 66.8319 22.1955 55.462 28.3204 53.0546C31.7797 51.6945 36.3256 57.8883 38.148 65.8091Z" fill="#FFC9E3"/>
<path d="M133.913 69.2023C131.337 76.8999 128.11 79.4321 124.605 78.1936C121.1 76.9551 121.951 68.8875 124.525 61.1905C127.098 53.4936 130.642 50.3963 134.148 51.6342C137.654 52.8721 136.486 61.5053 133.913 69.2023Z" fill="#FFC9E3"/>
<path d="M89.1106 85.6114C89.1106 85.6114 79.5807 98.8061 67.4371 85.5863L89.1106 85.6114Z" fill="#FFC9E3"/>
<path d="M89.1106 85.6114C89.1106 85.6114 79.5807 98.8061 67.4371 85.5863" stroke="#FF7497" stroke-width="5" stroke-miterlimit="10"/>
<path d="M130.801 74.2755C130.801 74.2755 134.114 84.0143 129.843 82.133C125.573 80.2518 124.352 78.3705 124.352 78.3705L130.801 74.2755Z" fill="#FFC9E3"/>
<path d="M68.3598 105.798L67.7497 126.493L90.3237 127.747L91.5439 103.917L68.3598 105.798Z" fill="#FFC9E3"/>
<path d="M61.9782 48.7151C57.6921 47.4653 56.7959 52.9411 56.7642 53.1431C56.7642 53.1431 52.7143 49.1428 50.0011 52.8822C49.3297 53.8206 48.9568 54.9494 48.9335 56.1141C48.9102 57.2787 49.2377 58.4223 49.8712 59.3883C51.3031 61.5976 54.3616 64.3229 60.8916 65.7L60.8983 65.7188L60.9105 65.7038H60.9178V65.6963C65.2874 60.5215 66.1037 56.446 65.9329 53.7977C65.8639 52.6348 65.4469 51.5223 64.739 50.6124C64.031 49.7025 63.0667 49.0399 61.9782 48.7151Z" fill="#FF7497"/>
<path d="M127.278 74.6055C127.278 96.2403 104.482 112 95.4824 112C92.4824 107 103.596 83.4609 104.156 70.6055C105.459 40.683 52.8964 13.9535 83.6896 15.0315C119.516 16.2857 127.278 44.6473 127.278 74.6055Z" fill="#FFAFD5"/>
<path d="M106.322 54.8173C104.213 50.7844 99.7626 53.9331 99.5997 54.0509C99.5997 54.0509 99.5765 48.2779 95.0758 48.878C93.9527 49.0351 92.9044 49.5452 92.0743 50.3384C91.2443 51.1317 90.6731 52.1693 90.439 53.3091C89.8899 55.9034 90.1168 60.0579 93.6988 65.8366L93.6902 65.8541H93.7091L93.7134 65.8604V65.8535C100.37 65.4773 103.785 63.2435 105.517 61.2757C106.283 60.416 106.772 59.3339 106.916 58.1776C107.06 57.0214 106.852 55.8476 106.322 54.8173Z" fill="#FF7497"/>
<path d="M301.248 74.4876C301.248 96.1224 277.61 114.622 252.877 114.622C228.145 114.622 212.318 82.0127 212.878 69.1572C214.181 39.2347 226.867 13.8355 257.66 14.9135C293.486 16.1677 301.248 44.5293 301.248 74.4876Z" fill="#FF9F66"/>
<path d="M252.581 76.3689C254.724 76.3689 256.462 68.648 256.462 59.1238C256.462 49.5996 254.724 41.8787 252.581 41.8787C250.437 41.8787 248.699 49.5996 248.699 59.1238C248.699 68.648 250.437 76.3689 252.581 76.3689Z" fill="#E92E00"/>
<path d="M236.456 56.9289C237.94 56.9289 239.143 55.6655 239.143 54.107C239.143 52.5485 237.94 51.2851 236.456 51.2851C234.971 51.2851 233.768 52.5485 233.768 54.107C233.768 55.6655 234.971 56.9289 236.456 56.9289Z" fill="#E92E00"/>
<path d="M271.69 58.183C273.174 58.183 274.377 56.9195 274.377 55.361C274.377 53.8025 273.174 52.5391 271.69 52.5391C270.206 52.5391 269.002 53.8025 269.002 55.361C269.002 56.9195 270.206 58.183 271.69 58.183Z" fill="#E92E00"/>
<path d="M215.081 65.0621C216.864 72.9823 215.802 81.7635 212.275 82.6402C208.747 83.5169 212.872 75.0435 206.303 70.7254C199.237 66.0823 199.464 54.715 205.459 52.3076C208.848 50.9474 213.298 57.1412 215.081 65.0621Z" fill="#FF9F66"/>
<path d="M308.816 68.455C306.297 76.1526 303.136 78.6848 299.705 77.4463C296.274 76.2078 297.108 68.1402 299.627 60.4432C302.146 52.7462 305.615 49.649 309.046 50.8869C312.477 52.1248 311.337 60.758 308.816 68.455Z" fill="#FF9F66"/>
<path d="M263.169 85.4914C263.169 85.4914 253.841 98.6861 241.955 85.4663" stroke="#E93B00" stroke-width="5" stroke-miterlimit="10"/>
<path d="M305.771 73.5282C305.771 73.5282 309.014 83.267 304.834 81.3857C300.654 79.5044 299.46 77.6232 299.46 77.6232L305.771 73.5282Z" fill="#FF9F66"/>
<path d="M244.056 105.051L243.459 125.745L265.554 126.999L266.748 103.17L244.056 105.051Z" fill="#FF9F66"/>
<path d="M302.278 74.6055C302.278 96.2403 279.482 112 270.482 112C267.482 107 278.596 83.4609 279.156 70.6055C280.459 40.683 227.896 13.9535 258.69 15.0315C294.516 16.2857 302.278 44.6473 302.278 74.6055Z" fill="#F99458"/>
<path d="M88 332.5L107 292C111.667 300 118.8 317.6 110 324C101.2 330.4 91.6667 332.333 88 332.5Z" fill="#A4ABDE"/>
<g clip-path="url(#clip1)">
<path d="M480.621 76.7303C480.621 98.3651 456.983 116.864 432.25 116.864C407.518 116.864 391.691 84.2554 392.251 71.4C393.554 41.4775 406.24 16.0783 437.033 17.1563C472.859 18.4105 480.621 46.7721 480.621 76.7303Z" fill="#B8EBE3"/>
<path d="M480.296 76.6059C480.296 98.2407 457.5 114 448.5 114C445.5 109 456.614 85.4613 457.173 72.6058C458.476 42.6834 405.914 15.9539 436.707 17.0319C472.533 18.2861 480.296 46.6477 480.296 76.6059Z" fill="#92EBDD"/>
<path d="M431.952 78.6116C434.096 78.6116 435.834 70.8907 435.834 61.3665C435.834 51.8423 434.096 44.1214 431.952 44.1214C429.808 44.1214 428.071 51.8423 428.071 61.3665C428.071 70.8907 429.808 78.6116 431.952 78.6116Z" fill="#7FA3FF"/>
<path d="M415.829 59.1717C417.313 59.1717 418.516 57.9082 418.516 56.3497C418.516 54.7912 417.313 53.5278 415.829 53.5278C414.344 53.5278 413.141 54.7912 413.141 56.3497C413.141 57.9082 414.344 59.1717 415.829 59.1717Z" fill="#7FA3FF"/>
<path d="M451.062 60.4258C452.546 60.4258 453.749 59.1624 453.749 57.6039C453.749 56.0454 452.546 54.782 451.062 54.782C449.577 54.782 448.374 56.0454 448.374 57.6039C448.374 59.1624 449.577 60.4258 451.062 60.4258Z" fill="#7FA3FF"/>
<path d="M394.453 67.3044C396.236 75.2246 395.173 84.0059 391.646 84.8825C388.118 85.7592 392.243 77.2859 385.674 72.9677C378.608 68.3247 378.835 56.9574 384.83 54.55C388.219 53.1898 392.669 59.3836 394.453 67.3044Z" fill="#B8EBE3"/>
<path d="M488.188 70.6976C485.669 78.3952 482.507 80.9274 479.076 79.6889C475.646 78.4504 476.479 70.3828 478.998 62.6858C481.517 54.9889 484.987 51.8917 488.417 53.1295C491.848 54.3674 490.709 63.0006 488.188 70.6976Z" fill="#B8EBE3"/>
<path d="M485.141 75.7708C485.141 75.7708 488.385 85.5096 484.204 83.6283C480.024 81.747 478.83 79.8657 478.83 79.8657L485.141 75.7708Z" fill="#B8EBE3"/>
<path d="M423.427 107.294L422.83 127.988L444.925 129.242L446.119 105.412L423.427 107.294Z" fill="#B8EBE3"/>
<path d="M420.009 90.2127H445.687" stroke="#7FA3FF" stroke-width="5" stroke-miterlimit="10"/>
</g>
<g clip-path="url(#clip2)">
<path d="M666.27 71.6072C666.27 93.242 642.632 111.741 617.899 111.741C593.167 111.741 577.34 79.1324 577.899 66.2769C579.202 36.3545 591.889 10.9552 622.682 12.0332C658.508 13.2874 666.27 41.649 666.27 71.6072Z" fill="#C388FF"/>
<path d="M617.601 73.4885C619.744 73.4885 621.482 65.7676 621.482 56.2434C621.482 46.7192 619.744 38.9983 617.601 38.9983C615.457 38.9983 613.719 46.7192 613.719 56.2434C613.719 65.7676 615.457 73.4885 617.601 73.4885Z" fill="#7B2BFE"/>
<path d="M601.477 54.0486C602.961 54.0486 604.164 52.7852 604.164 51.2267C604.164 49.6682 602.961 48.4048 601.477 48.4048C599.993 48.4048 598.79 49.6682 598.79 51.2267C598.79 52.7852 599.993 54.0486 601.477 54.0486Z" fill="#7B2BFE"/>
<path d="M636.71 55.3028C638.194 55.3028 639.397 54.0394 639.397 52.4809C639.397 50.9224 638.194 49.6589 636.71 49.6589C635.226 49.6589 634.023 50.9224 634.023 52.4809C634.023 54.0394 635.226 55.3028 636.71 55.3028Z" fill="#7B2BFE"/>
<path d="M580.101 62.1814C581.884 70.1016 580.822 78.8828 577.294 79.7595C573.767 80.6362 577.892 72.1629 571.323 67.8447C564.257 63.2017 564.484 51.8343 570.479 49.4269C573.868 48.0667 578.317 54.2606 580.101 62.1814Z" fill="#C388FF"/>
<path d="M673.836 65.5746C671.317 73.2721 668.156 75.8043 664.725 74.5658C661.294 73.3273 662.128 65.2598 664.647 57.5628C667.166 49.8658 670.635 46.7686 674.066 48.0065C677.497 49.2444 676.357 57.8776 673.836 65.5746Z" fill="#C388FF"/>
<path d="M670.79 70.6478C670.79 70.6478 674.033 80.3865 669.853 78.5053C665.673 76.624 664.478 74.7427 664.478 74.7427L670.79 70.6478Z" fill="#C388FF"/>
<path d="M609.075 102.17L608.478 122.865L630.574 124.119L631.768 100.289L609.075 102.17Z" fill="#C388FF"/>
<path d="M629.213 83.0251C629.213 83.0251 619.886 96.2198 608 83" stroke="#7B2BFE" stroke-width="5" stroke-miterlimit="10"/>
<path d="M666.278 71.6055C666.278 93.2403 643.482 109 634.482 109C631.482 104 642.596 80.4609 643.156 67.6055C644.459 37.683 591.896 10.9535 622.69 12.0315C658.516 13.2857 666.278 41.6473 666.278 71.6055Z" fill="#B66CFF"/>
</g>
<path d="M669.5 15.5C669.5 16.4768 668.863 17.8651 666.623 19.524C664.43 21.1473 661.097 22.7146 656.755 24.0744C648.099 26.7847 635.988 28.5 622.5 28.5C609.012 28.5 596.901 26.7847 588.245 24.0744C583.903 22.7146 580.57 21.1473 578.377 19.524C576.137 17.8651 575.5 16.4768 575.5 15.5C575.5 14.5232 576.137 13.1349 578.377 11.476C580.57 9.85272 583.903 8.28544 588.245 6.92562C596.901 4.21526 609.012 2.5 622.5 2.5C635.988 2.5 648.099 4.21526 656.755 6.92562C661.097 8.28544 664.43 9.85272 666.623 11.476C668.863 13.1349 669.5 14.5232 669.5 15.5Z" stroke="#FFF574" stroke-width="5"/>
<path d="M667.622 499.067C671.594 491.092 666.299 447.028 666.299 447.028L608.49 522.488C608.49 522.488 663.651 507.043 667.622 499.067Z" fill="#EDCF64" stroke="#EDCF64"/>
<path d="M595.309 445.704C588.191 449.676 537.443 518.075 537.002 523.225C536.561 528.375 605.401 525.136 608.598 523.225C611.795 521.315 670.27 447.469 666.905 445.704C663.54 443.939 602.428 441.733 595.309 445.704Z" fill="#FFF574"/>
<ellipse cx="603.749" cy="459.885" rx="9.33007" ry="4.72689" fill="#EDCF64"/>
<path d="M643.054 463.654C642.023 468.416 637.675 467.6 632.757 465.752C627.84 463.904 624.217 461.725 625.248 456.962C627.255 453.24 630.231 452.867 635.148 454.715C640.065 456.562 644.086 458.891 643.054 463.654Z" fill="#EDCF64"/>
<ellipse cx="617.025" cy="480.21" rx="6.81813" ry="6.14496" fill="#EDCF64"/>
<ellipse rx="8.76063" ry="6.79399" transform="matrix(0.987345 0.158586 -0.0921751 0.995743 589.761 486.858)" fill="#EDCF64"/>
<ellipse rx="5.57923" ry="4.51484" transform="matrix(0.987345 0.158586 -0.0921751 0.995743 601.658 509.193)" fill="#EDCF64"/>
<ellipse rx="6.32441" ry="7.01108" transform="matrix(0.987345 0.158586 -0.0921751 0.995743 571.037 506.825)" fill="#EDCF64"/>
<defs>
<clipPath id="clip0">
<rect width="76.8662" height="112.119" fill="white" transform="translate(215.926 433.458)"/>
</clipPath>
<clipPath id="clip1">
<rect width="110.211" height="112.119" fill="white" transform="translate(380.352 17.123)"/>
</clipPath>
<clipPath id="clip2">
<rect width="110.211" height="112.119" fill="white" transform="translate(566 12)"/>
</clipPath>
</defs>
</svg>
