<svg xmlns="http://www.w3.org/2000/svg" viewBox="0 0 527.77 143.44"><defs><style>.cls-1{fill:#39ff14;}.cls-2{fill:#231f20;}</style></defs><title>Asset 1brscheneain</title><g id="Layer_2" data-name="Layer 2"><g id="Layer_1-2" data-name="Layer 1"><path class="cls-1" d="M51.75,30.17c-8.77-2.84-18.63-3-27,.79S9.66,42.85,8.8,52,13.61,71,22.43,73.67c4.55,1.4,9.5,1,14.09,2.24,8.36,2.31,14.65,12.55,10.27,20-4.58,7.83-16.19,7.21-24.62,3.84a22.28,22.28,0,0,0-6.11-1.88,11,11,0,0,0-5.5,1C3,102.41.73,112.81,4,120.43s10.55,12.77,18.07,16.29c5.47,2.55,11.36,4.48,17.41,4.51,16.91.08,31.21-13.18,40.84-27.08,3.11-4.48,2.2-2.62,2.86-3.9a19.55,19.55,0,0,0,1.48-10.6c-2.58-17.8-3.8-25-14.53-32.52-5.7-4-13.62-5.46-19.65-8.57a4.4,4.4,0,0,1,1.31-8.27,11.56,11.56,0,0,0,8.33-5c3.71-5.18-.3-13.36-8.36-15.12"/><path class="cls-2" d="M52.41,27.76c-14.6-4.42-31.67-2.05-41.08,11-7.78,10.81-6.49,26.77,5,34.62,6.89,4.72,15.7,2.09,22.57,6.19C46.28,84,48.94,95.78,39,98.93c-8.2,2.6-14.54-2.49-22.27-3.44-5.71-.7-11.13,2.61-14,7.44-6.94,11.74.34,24.63,10.35,31.58,13,9,29.09,12.13,43.6,5C68.2,133.82,78.46,122.9,85.06,112c3-4.89,2.33-10.87,1.53-16.23-.91-6.11-1.75-12.41-4.25-18.12A29.92,29.92,0,0,0,71.38,65a48.63,48.63,0,0,0-11-5.13C58,59,55.16,58.36,53.05,57.05c-1.07-.66-1.35-.38-1.87-1.78-.84-2.3.86-2.14,2.55-2.82C59,50.34,64.2,47,64,40.48s-5.7-11.14-11.58-12.72c-3.11-.83-4.43,4-1.33,4.83,6.44,1.72,11.51,9.59,4.12,14-3.89,2.31-8.78,1.48-9.54,7.18-.62,4.71,3,6.89,6.83,8.47C59.07,65,66,66.59,71.54,71.37c8,6.95,9.51,18.31,10.6,28.34.53,4.92-.33,8.17-2.77,11.47-4.21,5.7-8.37,11.26-13.67,16S54.07,136,47,137.8c-8.42,2.11-16.7.1-24.37-3.56-6.11-2.91-12.26-7-15.54-13.12-3-5.63-3-13.93,2.17-18.42,5.92-5.14,13.49.6,20,1.57,4.79.72,10.15.54,14.45-1.94C53,97,52.13,84.92,45,78.07c-5.36-5.16-11.89-5-18.77-6.14a18,18,0,0,1-15-17.13c-.38-8.41,5.07-16.24,12.15-20.35,8.46-4.89,18.6-4.62,27.7-1.86,3.09.93,4.41-3.89,1.33-4.83Z"/><path class="cls-1" d="M138.77,31.25c-6.29-6.93-15.58-6.35-22-2.5a30.41,30.41,0,0,0-13.37,18.14,67.76,67.76,0,0,0-2,22c.32,3.86,1.68,8.3,2,12.16.3,3.58,3.17,7.34,5.23,10.27,2.38,3.37,6.51,5,10.41,6.32,8.4,2.94,18.63,5.41,25.44-.31,3.1-2.61,4.82-6.47,6.41-10.21a9.84,9.84,0,0,0,1-3.73c0-3.66-3.06-7.24-6.72-7.05s-5.8,3.76-9.21,5.1a15.28,15.28,0,0,1-5.18,0c-1.65-.37-4.36-3.47-4.92-5.06a45.35,45.35,0,0,1-2.88-12,24.11,24.11,0,0,1,2.19-11.43c1.47-2.7,5.55-4.12,7.67-1.89.65.69,2.82,2.54,3.49,3.22,1.8,1.79,5.13-.36,6.73-2.33S145,47.55,144.75,45c-.72-8.93-2.66-10.29-6-13.77"/><path class="cls-2" d="M140.54,29.48c-14.33-14.45-34.75-.21-39.33,16a69.87,69.87,0,0,0-2.46,16C98.47,68.22,99.9,74.45,100.9,81c1.24,8.19,7.32,15.06,14.87,18,7.93,3.13,18,6.25,26.3,2.61,4.16-1.82,7-5.18,9.07-9.13,1.72-3.29,3.9-7.38,3-11.21a9.69,9.69,0,0,0-7-7.33c-4.32-1-6.81,1.87-10.11,3.92C126.35,84.58,124.56,63,126.29,57.05c2.67-9.22,6.42-.47,11.07.26,3.71.59,7.52-2.84,8.94-6,3.41-7.52-.53-16.42-5.76-21.86-2.23-2.32-5.76,1.21-3.53,3.54a16.7,16.7,0,0,1,4,5.31c1.38,3.49,3,12.08-2,13.19-2.69.6-3.87-2.55-6.33-3.59A7.54,7.54,0,0,0,125.45,49c-8.76,6.33-5.55,26.5,1.56,32.88,4.09,3.68,9.61,2.5,13.68-.45,2.42-1.76,3-2.86,5.88-1.59,4.06,1.81,2.71,4.86,1.24,8.1-2,4.47-4.66,8.5-9.67,9.82-7.27,1.92-17.89-1.21-24.21-5.05-8-4.83-9.4-16.36-10.1-24.76-.86-10.45.73-23.25,7.76-31.48C118.14,28.8,129.09,25,137,33c2.27,2.28,5.8-1.25,3.53-3.54Z"/><path class="cls-1" d="M176.75,26.5c-1.76,12.84-1.21,47.28-2.38,71.58-.58,12.18-1.15,24.57,2,36.38a6.16,6.16,0,0,0,2,3.16c2.23,1.84,4.11.64,5.54-.62a17.62,17.62,0,0,0,5.3-8.52,100.1,100.1,0,0,0,3.47-29.83,56.3,56.3,0,0,1,14.5,0l.59,22.21c.09,3.57.22,7.28,2.47,10.28a6.55,6.55,0,0,0,4.51,2.7c4.76.49,7.37-4.57,8.48-8.93,2.71-10.69,2.58-21.88,2.36-32.92q-.63-31.15-2-62.31a9.11,9.11,0,0,0-2.33-5.84c-3.46-3.7-7.7-1.41-9.43,1.8a18.85,18.85,0,0,0-1.67,7.26l-3.37,35.53a6.31,6.31,0,0,1-7.06,5.67c-.74-.1-1.47-.22-2.19-.37a4.7,4.7,0,0,1-2.21-.9c-1-.87-1.14-2.31-1.23-3.61l-2.52-34.68c-.25-3.4.2-7.26-1.33-10.31s-2.68-6.21-6.08-6-6.86,4.65-7.46,8.25"/><path class="cls-2" d="M174.25,26.5c-1.54,11.92-1.29,24.14-1.49,36.13-.25,15.19-.93,30.35-1.29,45.53-.14,5.93-1.48,38.1,11.78,32.29,5.64-2.47,8-9.5,9.29-15a105.82,105.82,0,0,0,2.64-26.84l-2.5,2.5a63.92,63.92,0,0,1,14.5,0l-2.5-2.5q.27,10.17.54,20.36c.14,5.08.08,11.17,4.16,14.91,8.22,7.54,15-2.83,16.68-10.13,3.1-13.55,2.14-27.76,1.81-41.54q-.52-22.4-1.42-44.78c-.2-5.15.5-11.35-3.38-15.4a7.77,7.77,0,0,0-10.52-.92c-5,3.68-4.75,10.63-5.28,16.23l-2,21-.76,8a9.79,9.79,0,0,1-.18,2c-1.14,3.55-6,5-7.71.94-.6-1.43-.31-4.22-.42-5.78l-.49-6.74-.91-12.52c-.47-6.44.34-14.58-2.12-20.61-1.62-4-4.21-8.37-9.16-7.71s-8.13,5.64-9.2,10c-.77,3.12,4,4.45,4.82,1.33.6-2.42,3.12-7.78,6.62-5.87,1.81,1,2.87,5.33,3.1,7.18.72,5.77.66,11.79,1.08,17.6l1.19,16.38c.25,3.47-.43,9.41,2.46,12.12,4.72,4.42,13.56,1.69,15.38-4.23.9-2.92.77-6.45,1-9.45.89-9.32,1.61-18.68,2.65-28,.25-2.19.24-5.12,1.89-6.76,5.59-5.55,6.59,4.32,6.71,7.39q.39,9.26.71,18.5.62,18,1,36c.27,12.18,1.83,27-2.94,38.56-1.54,3.73-5.78,6.84-8.5,1.89-1.53-2.78-1.25-6.48-1.34-9.54q-.28-10.18-.54-20.36a2.57,2.57,0,0,0-2.5-2.5,63.92,63.92,0,0,0-14.5,0,2.56,2.56,0,0,0-2.5,2.5,100.39,100.39,0,0,1-1.86,22.75c-.67,3.27-1.26,6.9-2.93,9.84-.57,1-2,3.72-3.25,4-3.58.76-3.75-2.94-4.18-5-2.79-13.43-1.18-27.34-.75-40.92.66-20.8-.63-42.14,2-62.81.41-3.18-4.59-3.15-5,0Z"/><path class="cls-1" d="M329.34,128.1c4.94-16.78,9.28-28.46,14-44.26,7.32-24.57,8.17-51,18.14-74.59l25.11,33.12A348.61,348.61,0,0,0,404.11,2.48C413.23,19.8,418.86,38.71,424,57.59Q432.64,89,439.82,120.7a3.48,3.48,0,0,1-5.6,3.46s-.71-.25-.73-.27a22.54,22.54,0,0,1-3.28-5.85c-11.52-25.2-15.57-53.2-25.88-78.92A126,126,0,0,1,388.8,61.94L370,42.42c-10.1,30.74-20.2,61.49-28.88,92.66a10.07,10.07,0,0,1-1.83,4.11c-2.19,2.5-6.61,2.09-8.78-.43s-2.69-7.72-1.16-10.66"/><path class="cls-2" d="M331.75,128.76c5.75-19.38,13.19-38.35,17.5-58.13,4.43-20.37,6.61-41.3,14.62-60.72l-4.57.6,25.11,33.12c1,1.38,3.37,1.85,4.31,0a367,367,0,0,0,17.8-40.48l-4.57.6c8.39,16.15,13.83,33.49,18.7,51q7.49,26.93,13.88,54.16c.52,2.23,1.05,4.47,1.56,6.72.22,1,2.09,7.62-1.21,6.15-1.5-.67-3.68-7.56-4.42-9.34a236.84,236.84,0,0,1-8.24-23.87c-5-16.76-9-33.79-15.48-50.09-.73-1.85-3.46-2.65-4.57-.59A129.78,129.78,0,0,1,387,60.17h3.54L371.76,40.65a2.53,2.53,0,0,0-4.18,1.11c-5.86,17.83-11.72,35.65-17.3,53.57q-4,13-7.85,26c-1.19,4.07-1.77,9.33-3.73,13.07-4.47,8.52-9.22-.12-6.95-5.65,1.23-3-3.61-4.27-4.82-1.33-2.66,6.48.43,16.13,8.57,15.91,3.57-.1,6-2.23,7.3-5.43,2.48-6,3.71-12.75,5.54-19,7.49-25.45,15.78-50.66,24.06-75.86l-4.18,1.1L387,63.71a2.53,2.53,0,0,0,3.54,0,136.74,136.74,0,0,0,15.92-23.33l-4.57-.6c6,15.17,9.94,31,14.46,46.62,2.26,7.8,4.67,15.57,7.59,23.15,2,5.15,4,13.71,8.86,16.75,3.05,1.93,7.19,1.28,8.93-2.13,1.17-2.28.34-4.7-.19-7q-1.53-6.74-3.13-13.44Q432.31,78,425.22,52.5c-4.91-17.59-10.51-35-19-51.28-1.07-2.06-3.88-1.27-4.57.6a360.4,360.4,0,0,1-17.29,39.29h4.31L363.62,8a2.54,2.54,0,0,0-4.57.59C351,28,348.86,48.93,344.43,69.3c-4.31,19.78-11.75,38.75-17.5,58.13-.91,3.1,3.91,4.42,4.82,1.33Z"/><path class="cls-1" d="M499.23,12.29c-9.55-.87-19.3-1.73-28.64.45s-18.37,8-21.92,16.88c-2.2,5.53-2.12,11.65-2,17.6l.57,30.66c.17,8.94.74,18.87,7.14,25.11a26.16,26.16,0,0,0,9.6,5.52c9.79,3.54,20.37,4.19,30.77,4.46,9.77.25,20.42-.08,27.22-8.1a13,13,0,0,0,1.79-14.55c-2.84-5.17-8.29-5.87-13.34-6.41L479,80.57a3.49,3.49,0,0,1-3.11-3.77l.13-1.39a5.52,5.52,0,0,1,6.52-4.93,14.54,14.54,0,0,0,5.18,0c4.06-.69,8-3.34,8.76-7.69a6.6,6.6,0,0,0-2-6.06c-3.38-3-8.26-1-12.45-1.91-5.29-1.11-8.77-5.34-6.6-11.67A9.57,9.57,0,0,1,477.27,40a3.92,3.92,0,0,1,3.53-1.19c7.25.6,13.21,1.85,20.48,1.7,4.63-.1,9.36-.37,13.6-2.21s8-5.56,8.52-10.14a12.87,12.87,0,0,0-7.69-13c-9.6-3.78-11.16-2.21-16.48-2.85"/><path class="cls-2" d="M499.23,9.79c-15.71-1.42-33.16-2.33-45.77,8.9s-9.26,30.52-9,45.77c.25,13.36-2.14,32.37,9.81,41.74,6.47,5.08,15.31,7,23.26,8.06a133.23,133.23,0,0,0,24.61,1.18c11.66-.59,27.87-7.21,25.35-21.76-1-5.81-5.16-9.77-10.75-11.27-7.94-2.13-16.82-2.11-25-3-2.29-.25-13-.15-13.31-3-.48-4.85,7.68-3,10.62-3.66,5.53-1.3,10.47-5.91,10-12-.56-6.45-6.28-8.36-11.91-8.26-3.71.06-8.34-.06-9.55-4.33-.46-1.61-.22-4.68,1.13-6,1.63-1.63,4.47-.66,6.47-.44,12.27,1.38,38.88,4.84,40.72-13.59.68-6.7-3.5-12.87-9.53-15.46-5.8-2.49-11.09-2.33-17.14-2.94-3.2-.32-3.18,4.68,0,5,4.08.41,7.88.14,11.88,1.37,3.84,1.18,7,2.69,8.85,6.45a9.16,9.16,0,0,1-2.18,10.91c-5.6,5.34-15.43,4.85-22.59,4.34-3.35-.24-6.67-.7-10-1.08-2.43-.27-5.18-1-7.53,0-8.59,3.62-6,16.63,1.44,19.72a18,18,0,0,0,7.31,1.05c1.37,0,3.77-.45,5,.25,3.78,2.19,2.84,6.47-.12,8.59-5.09,3.65-11.95-.85-16.13,4.71-1.8,2.4-2.45,6.66-.69,9.26,3,4.45,11.74,3.43,16.35,3.92,7.86.84,16.32.92,24,2.75,8.81,2.1,10,11.85,3.77,17.7-5.2,4.85-12.6,5.68-19.41,5.75a136.37,136.37,0,0,1-23-1.49c-7.22-1.17-16-3.11-21-8.88-4.64-5.37-5.12-13.27-5.33-20-.28-8.73-.34-17.47-.5-26.21-.16-8.58-1.46-18.51,3.13-26.22,9.45-15.9,31.05-14.34,46.81-12.91,3.2.29,3.18-4.71,0-5Z"/><path class="cls-1" d="M284,18.4c-10-.65-20.23.28-30.24,1.31-4.36.45-9.18,1.33-11.81,4.84-1.87,2.5-2.19,5.8-2.42,8.92a656.17,656.17,0,0,0-1.11,76.81,8.88,8.88,0,0,0,1.11,4.73,8.09,8.09,0,0,0,3.12,2.37c6.9,3.5,14.65,5,22.31,6a197.9,197.9,0,0,0,35.92,1.57c4.49-.22,9-.7,13.1-2.54,4.45-2,8.31-5.91,9-10.73.73-5.1-2.29-10.24-6.6-13.05s-9.68-3.6-14.82-3.34c-6.85.33-13.68,2.37-20.46,1.36s-13.71-6.74-12.58-13.51a4.36,4.36,0,0,1,2.06-3.32,5.22,5.22,0,0,1,2.42-.36c3.3,0,6.62.44,9.87-.1l.1,0a6.73,6.73,0,0,0,4.63-9.89c-1-1.89-2.1-3.71-3.93-4.73-4.91-2.75-11.79,2.12-16.36-1.62a6.82,6.82,0,0,1-1.6-8.15c2.05-4.52,7.05-6.25,11.74-6.36,4-.09,7.89.79,11.85,1.08,10.06.74,22.25-4.35,21.86-15.48a15,15,0,0,0-10.47-13.57c-7.32-2.41-8.16-2.36-16.7-2.19"/><path class="cls-2" d="M284,15.9a181.64,181.64,0,0,0-29.3,1.22c-6.2.65-13.07,1.81-16,8.08-1.48,3.19-1.59,6.78-1.84,10.24q-.56,7.86-.91,15.74-.7,15.26-.7,30.53c0,10-.45,20.34.75,30.23.87,7.12,8.2,9.3,14.24,11.07,8.67,2.54,18,3.45,26.94,4.11,9.46.69,19.28,1.06,28.71-.11,6.5-.81,13.18-3.19,17-8.82a14.67,14.67,0,0,0-.54-17.23c-4.13-5.63-11-7.94-17.75-8.22-9.1-.38-19.74,4.48-28.21-.38-3.76-2.15-9-9.41-1.8-10.38,3.16-.44,6.4.47,9.57-.42a9.31,9.31,0,0,0,6.28-11.69c-2-6.4-7.21-9-13.46-8.35-1.61.17-3.37.76-5,.53-3.77-.53-5.63-3.66-3.57-7,2.47-4,8.25-4.15,12.35-3.83,7.67.59,14.55,1.88,21.88-1.31,5.54-2.42,10-7,10.8-13.17,2.22-17-16.73-21-29.53-20.81-3.22.06-3.23,5.06,0,5,5.62-.11,10.71.09,16,2.1,7.17,2.71,11.55,11.64,6.35,18.23-8.74,11.07-23.64,2.2-34.68,5.74-4.47,1.44-8.43,4.93-9.06,9.79a9,9,0,0,0,6.26,9.9,16,16,0,0,0,6.46.1c4.38-.54,10.77-.16,10.58,6.07-.22,7.33-12.22,2.76-16.32,4.68-4.27,2-4.31,7.94-2.72,11.69,2,4.7,6.7,8,11.5,9.37,11.8,3.35,36.89-8.46,41.79,8.94,2.81,10-9.23,14.08-16.79,14.75a161.7,161.7,0,0,1-24.31,0,141.18,141.18,0,0,1-24.91-3.37c-3.31-.82-8.24-1.73-10.86-4-3.65-3.13-2.67-10.9-2.8-15.45q-.78-28.56.91-57.13c.27-4.38,0-9.4,1.3-13.62,1.75-5.74,7.88-6.15,12.9-6.68A176.8,176.8,0,0,1,284,20.9c3.21.18,3.2-4.82,0-5Z"/></g></g></svg>