<svg width="1413" height="356" viewBox="0 0 1413 356" fill="none" xmlns="http://www.w3.org/2000/svg">
<path d="M36.8177 69.8759C25.6955 72.3366 3.9592 83.2466 5.99173 107.201C8.02426 131.156 35.1219 139.639 48.4167 140.887C65.7559 145.498 91.3829 165.467 55.1775 208.455" stroke="#FF0000" stroke-width="8" stroke-linecap="round"/>
<path d="M335.511 97.3035C333.15 92.433 325.715 83.5858 314.866 87.1611C304.016 90.7363 303.076 104.196 303.963 110.478C303.739 119.001 297.328 133.044 273.473 121.038" stroke="#FF0000" stroke-width="8" stroke-linecap="round"/>
<path d="M220.495 225.353C213.713 234.506 204.461 256.998 221.707 273.747C238.953 290.496 264.972 279.127 275.826 271.348C291.939 263.457 324.382 261.722 325.247 317.918" stroke="#FF0000" stroke-width="8" stroke-linecap="round"/>
<path d="M173.482 92.4318L223.765 145.174L125.936 147.654L173.482 92.4318Z" fill="#FFF500"/>
<path d="M394.527 258.921L434.604 239.701L417.592 296.915L394.527 258.921Z" fill="#0047FF"/>
<path d="M382.357 58.1968L354.851 23.2825L414.399 27.3933L382.357 58.1968Z" fill="#0047FF"/>
<circle cx="130.076" cy="273.086" r="43" transform="rotate(-1.45211 130.076 273.086)" fill="#0047FF"/>
<circle cx="325.972" cy="184.861" r="20" transform="rotate(-1.45211 325.972 184.861)" fill="#14FF00"/>
<circle cx="119.669" cy="52.6685" r="10.4081" transform="rotate(-1.45211 119.669 52.6685)" fill="#14FF00"/>
<path d="M1016.08 23.493C1005.11 26.5671 984.012 38.6663 987.371 62.4711C990.729 86.2759 1018.26 93.243 1031.6 93.7509C1049.17 97.393 1075.86 115.91 1042.1 160.84" stroke="#FF0000" stroke-width="8" stroke-linecap="round"/>
<path d="M1388.39 39.6038C1386.03 34.7333 1378.59 25.8861 1367.74 29.4613C1356.89 33.0366 1355.95 46.4959 1356.84 52.7787C1356.61 61.3012 1350.2 75.3445 1326.35 63.3384" stroke="#FF0000" stroke-width="8" stroke-linecap="round"/>
<path d="M1399 319.813C1401.4 317.348 1404.68 308.854 1398.6 294.593C1392.51 280.332 1383.32 277.609 1379.48 278.029C1373.78 276.779 1362.32 267.002 1362.05 237.894" stroke="#FF0000" stroke-width="8" stroke-linecap="round"/>
<path d="M1025.74 226.141L1076.03 278.884L978.197 281.364L1025.74 226.141Z" fill="#FFF500"/>
<path d="M1310.03 119.217L1297.75 152.157L1276.04 110.229L1310.03 119.217Z" fill="#0047FF"/>
<circle cx="1141.37" cy="190.199" r="31" transform="rotate(-1.45211 1141.37 190.199)" fill="#0047FF"/>
<circle cx="1323.94" cy="210.579" r="20" transform="rotate(-1.45211 1323.94 210.579)" fill="#14FF00"/>
<circle cx="1244.5" cy="32.5103" r="20" transform="rotate(-1.45211 1244.5 32.5103)" fill="#14FF00"/>
<circle cx="1196.08" cy="316.353" r="13.5" transform="rotate(-1.45211 1196.08 316.353)" fill="#14FF00"/>
<circle cx="1375.84" cy="131.848" r="13.5" transform="rotate(-1.45211 1375.84 131.848)" fill="#FFF500"/>
<circle cx="518.838" cy="57.8378" r="13.5" transform="rotate(-1.45211 518.838 57.8378)" fill="#FFF500"/>
<circle cx="1058.51" cy="58.7569" r="13.5" transform="rotate(-1.45211 1058.51 58.7569)" fill="#14FF00"/>
<circle cx="645.838" cy="49.8476" r="13.5" transform="rotate(-1.45211 645.838 49.8476)" fill="#14FF00"/>
<path d="M433.973 92.1344C422.85 94.5951 406.523 87.2791 408.556 111.234C410.588 135.188 432.678 126.387 445.973 127.634C463.312 132.246 491.473 138.634 474.973 176.134" stroke="#FF0000" stroke-width="8" stroke-linecap="round"/>
<path d="M699.199 136.864C704.204 138.926 715.642 140.575 721.355 130.683C727.069 120.791 718.807 110.124 713.962 106.027C708.454 99.52 703.886 84.7739 729.677 77.8459" stroke="#FF0000" stroke-width="8" stroke-linecap="round"/>
<path d="M900.9 319.812C905.905 321.873 917.343 323.522 923.056 313.631C928.77 303.739 920.508 293.072 915.663 288.974C910.155 282.467 905.587 267.721 931.378 260.793" stroke="#FF0000" stroke-width="8" stroke-linecap="round"/>
<path d="M667.554 222.023C660.773 231.175 651.521 253.668 668.766 270.417C686.012 287.166 712.031 275.797 722.885 268.018C738.998 260.126 771.441 258.392 772.306 314.588" stroke="#FF0000" stroke-width="8" stroke-linecap="round"/>
<path d="M645.149 110.51L628.332 181.414L572.936 100.741L645.149 110.51Z" fill="#FFF500"/>
<path d="M1318.1 282.779L1304.83 338.753L1261.1 275.067L1318.1 282.779Z" fill="#0047FF"/>
<path d="M933.797 163.151L981.717 176.592L925.13 212.16L933.797 163.151Z" fill="#0047FF"/>
<path d="M819.517 253.149L859.594 233.929L842.582 291.143L819.517 253.149Z" fill="#FFF500"/>
<path d="M1217.25 198.052L1257.33 178.832L1240.31 236.047L1217.25 198.052Z" fill="#FFF500"/>
<circle cx="554.363" cy="207.373" r="34.5" transform="rotate(-1.45211 554.363 207.373)" fill="#0047FF"/>
<circle cx="840.052" cy="122.313" r="34.5" transform="rotate(-1.45211 840.052 122.313)" fill="#FFF500"/>
<circle cx="244.445" cy="48.4454" r="21.8975" transform="rotate(-1.45211 244.445 48.4454)" fill="#FFF500"/>
<circle cx="763.414" cy="196.779" r="20" transform="rotate(-1.45211 763.414 196.779)" fill="#14FF00"/>
<circle cx="897.316" cy="33.3337" r="20" transform="rotate(-1.45211 897.316 33.3337)" fill="#0047FF"/>
<circle cx="500.319" cy="294.978" r="12.5" transform="rotate(-1.45211 500.319 294.978)" fill="#14FF00"/>
<path d="M1096.72 322.902C1106.9 303.637 1137.67 265.145 1179.28 265.291" stroke="#FF0000" stroke-width="10" stroke-linecap="round"/>
<path d="M1086.17 25.0961C1124.11 37.7718 1203.03 81.9558 1215.14 157.287" stroke="#FF0000" stroke-width="10" stroke-linecap="round"/>
</svg>
