<svg width="1398" height="365" viewBox="0 0 1398 365" fill="none" xmlns="http://www.w3.org/2000/svg">
<path d="M45.8998 130.459C40.4257 134.046 31.0988 146.999 37.5844 170.117C44.0701 193.236 60.6614 198.603 68.1464 198.396C78.5791 201.034 96.9551 217.747 86.9973 263.497" stroke="#FF0000" stroke-width="8" stroke-linecap="round"/>
<path d="M336.572 173.452C334.017 168.68 326.234 160.138 315.537 164.145C304.839 168.152 304.439 181.639 305.577 187.881C305.695 196.405 299.852 210.694 275.535 199.654" stroke="#FF0000" stroke-width="8" stroke-linecap="round"/>
<path d="M832.68 85.7228C837.17 82.7003 844.884 74.0956 839.819 63.8566C834.754 53.6176 821.296 54.579 815.201 56.3396C806.731 57.3162 791.926 52.9429 800.46 27.6372" stroke="#FF0000" stroke-width="8" stroke-linecap="round"/>
<path d="M234.267 315.361C235.347 321.794 243.683 335.642 268.381 339.566C293.079 343.49 305.216 330.842 308.197 324.027C315.13 315.764 338.795 306.298 377.995 334.549" stroke="#FF0000" stroke-width="8" stroke-linecap="round"/>
<path d="M180.379 167.694L232.736 218.379L135.084 224.778L180.379 167.694Z" fill="#FFF500"/>
<path d="M379.184 88.8228L442.667 97.7579L376.53 152.877L379.184 88.8228Z" fill="#FFF500"/>
<path d="M46.1946 305.98L88.047 311.87L44.4452 348.208L46.1946 305.98Z" fill="#FFF500"/>
<path d="M226.044 113.624L270.491 113.457L230.578 157.84L226.044 113.624Z" fill="#0047FF"/>
<path d="M28.458 60.4363L71.6797 70.8028L22.3889 104.467L28.458 60.4363Z" fill="#0047FF"/>
<circle cx="152.27" cy="294.27" r="33.1718" transform="rotate(-3.74909 152.27 294.27)" fill="#0047FF"/>
<circle cx="362.265" cy="242.265" r="20" transform="rotate(-3.74909 362.265 242.265)" fill="#14FF00"/>
<circle cx="155.522" cy="118.522" r="18.3605" transform="rotate(-3.74909 155.522 118.522)" fill="#14FF00"/>
<path d="M1019.24 46.8877C1008.4 50.3988 987.805 63.334 992.115 86.9851C996.425 110.636 1024.21 116.494 1037.56 116.467C1055.26 119.402 1082.68 136.834 1050.74 183.081" stroke="#FF0000" stroke-width="8" stroke-linecap="round"/>
<path d="M1345.16 58.8975C1342.83 54.0558 1336.12 45.1825 1327.91 48.4222C1319.7 51.6619 1320.25 64.855 1321.55 71.0466C1322.2 79.4096 1318.49 93.0394 1298.53 80.654" stroke="#FF0000" stroke-width="8" stroke-linecap="round"/>
<path d="M1037.02 248.985L1089.37 299.67L991.721 306.069L1037.02 248.985Z" fill="#FFF500"/>
<path d="M418.493 313.472L431.396 265.744L466.892 323.573L418.493 313.472Z" fill="#FFF500"/>
<path d="M1316.79 130.753L1305.84 164.159L1282.47 123.135L1316.79 130.753Z" fill="#0047FF"/>
<path d="M760.674 60.6851L749.72 94.0911L726.353 53.0672L760.674 60.6851Z" fill="#0047FF"/>
<circle cx="1151.11" cy="208.439" r="31" transform="rotate(-3.74909 1151.11 208.439)" fill="#0047FF"/>
<circle cx="1334.35" cy="221.484" r="20" transform="rotate(-3.74909 1334.35 221.484)" fill="#14FF00"/>
<circle cx="1247.84" cy="46.7427" r="20" transform="rotate(-3.74909 1247.84 46.7427)" fill="#14FF00"/>
<circle cx="1219.84" cy="332.298" r="13.5" transform="rotate(-3.74909 1219.84 332.298)" fill="#14FF00"/>
<circle cx="1383.05" cy="140.736" r="13.5" transform="rotate(-3.74909 1383.05 140.736)" fill="#FFF500"/>
<circle cx="282.354" cy="277.354" r="13.5" transform="rotate(-3.74909 282.354 277.354)" fill="#FFF500"/>
<circle cx="41.3538" cy="21.3538" r="13.5" transform="rotate(-3.74909 41.3538 21.3538)" fill="#FFF500"/>
<circle cx="1063.05" cy="80.4225" r="13.5" transform="rotate(-3.74909 1063.05 80.4225)" fill="#14FF00"/>
<circle cx="682.934" cy="102.354" r="10.2833" transform="rotate(-3.74909 682.934 102.354)" fill="#14FF00"/>
<circle cx="25.3538" cy="247.354" r="13.5" transform="rotate(-3.74909 25.3538 247.354)" fill="#14FF00"/>
<path d="M430.081 168.221C419.066 171.125 402.459 164.469 405.45 188.323C408.441 212.177 430.16 202.498 443.494 203.211C461.004 207.124 489.398 212.379 474.414 250.51" stroke="#FF0000" stroke-width="8" stroke-linecap="round"/>
<path d="M702.44 173.253C705.866 177.56 716.28 184.451 730.536 177.554C744.791 170.657 745.275 156.538 743.734 150.34C743.546 141.51 751.287 125.166 783.767 130.432" stroke="#FF0000" stroke-width="8" stroke-linecap="round"/>
<path d="M917.855 342.57C923.045 344.106 934.592 344.571 939.259 334.145C943.925 323.718 934.611 313.956 929.371 310.379C923.223 304.472 917.164 290.274 942.107 280.732" stroke="#FF0000" stroke-width="8" stroke-linecap="round"/>
<path d="M583.917 102.409C589.166 101.09 599.344 95.6155 598.055 84.2651C596.767 72.9147 583.782 69.2502 577.451 68.8367C569.153 66.88 556.712 57.7403 573.33 36.8345" stroke="#FF0000" stroke-width="8" stroke-linecap="round"/>
<path d="M679.677 240.614C675.095 246.302 667.673 259.108 674.649 264.834C681.624 270.56 696.431 260.716 702.962 255.079C712.231 248.554 729.238 242.556 723.118 270.767" stroke="#FF0000" stroke-width="8" stroke-linecap="round"/>
<path d="M656.011 146.542L642.048 218.063L583.464 139.676L656.011 146.542Z" fill="#FFF500"/>
<path d="M1331.41 293.86L1320.39 350.322L1274.14 288.44L1331.41 293.86Z" fill="#0047FF"/>
<path d="M942.62 189.732L991.04 201.241L935.924 239.048L942.62 189.732Z" fill="#0047FF"/>
<path d="M833.49 265.4L872.764 244.589L858.059 302.439L833.49 265.4Z" fill="#FFF500"/>
<path d="M1227.24 213.244L1266.52 192.433L1251.81 250.283L1227.24 213.244Z" fill="#FFF500"/>
<path d="M1119.8 104.364L1154.85 121.554L1119.09 143.392L1119.8 104.364Z" fill="#FFF500"/>
<path d="M637.644 28.6081L672.69 45.7986L636.933 67.6365L637.644 28.6081Z" fill="#FFF500"/>
<path d="M108.614 98.948L104.016 127.506L80.316 92.955L108.614 98.948Z" fill="#FFF500"/>
<circle cx="565.263" cy="249.125" r="34.5" transform="rotate(-3.74909 565.263 249.125)" fill="#0047FF"/>
<circle cx="857.682" cy="167.682" r="34.5" transform="rotate(-3.74909 857.682 167.682)" fill="#FFF500"/>
<circle cx="773.722" cy="230.161" r="20" transform="rotate(-3.74909 773.722 230.161)" fill="#14FF00"/>
<circle cx="510.265" cy="137.265" r="20" transform="rotate(-3.74909 510.265 137.265)" fill="#14FF00"/>
<circle cx="322.178" cy="99.1785" r="11.454" transform="rotate(-3.74909 322.178 99.1785)" fill="#14FF00"/>
<circle cx="950.407" cy="130.407" r="19.1927" transform="rotate(-3.74909 950.407 130.407)" fill="#14FF00"/>
<circle cx="900.965" cy="61.4803" r="20" transform="rotate(-3.74909 900.965 61.4803)" fill="#0047FF"/>
<circle cx="109.3" cy="171.3" r="13.4497" transform="rotate(-3.74909 109.3 171.3)" fill="#0047FF"/>
<path d="M1111.81 342.824C1121.21 323.167 1150.41 283.472 1192 281.95" stroke="#FF0000" stroke-width="10" stroke-linecap="round"/>
<path d="M1088.65 28.694C1127.08 39.8387 1207.7 80.8242 1222.83 155.609" stroke="#FF0000" stroke-width="8" stroke-linecap="round"/>
</svg>
