<svg width="1413" height="356" viewBox="0 0 1413 356" fill="none" xmlns="http://www.w3.org/2000/svg">
<path d="M36.8177 73.866C25.6955 76.3267 3.9592 87.2367 5.99173 111.191C8.02426 135.146 35.1219 143.629 48.4167 144.877C65.7559 149.488 91.3829 169.457 55.1775 212.445" stroke="#FF0000" stroke-width="8" stroke-linecap="round"/>
<path d="M335.511 97.2937C333.15 92.4231 325.715 83.576 314.866 87.1512C304.016 90.7264 303.076 104.186 303.963 110.469C303.739 118.991 297.328 133.034 273.473 121.028" stroke="#FF0000" stroke-width="8" stroke-linecap="round"/>
<path d="M220.495 225.343C213.713 234.496 204.461 256.988 221.707 273.737C238.953 290.486 264.972 279.117 275.826 271.339C291.939 263.447 324.382 261.712 325.247 317.909" stroke="#FF0000" stroke-width="8" stroke-linecap="round"/>
<path d="M173.935 86.6723L224.218 139.415L126.389 141.895L173.935 86.6723Z" fill="#FFF500"/>
<path d="M394.527 258.911L434.604 239.691L417.592 296.905L394.527 258.911Z" fill="#0047FF"/>
<circle cx="130.076" cy="273.076" r="43" transform="rotate(-1.45211 130.076 273.076)" fill="#0047FF"/>
<circle cx="325.972" cy="184.851" r="20" transform="rotate(-1.45211 325.972 184.851)" fill="#14FF00"/>
<path d="M1016.08 23.4831C1005.11 26.5571 984.012 38.6564 987.37 62.4612C990.729 86.266 1018.26 93.2331 1031.6 93.741C1049.17 97.3831 1075.86 115.9 1042.1 160.83" stroke="#FF0000" stroke-width="8" stroke-linecap="round"/>
<path d="M1388.39 39.5938C1386.03 34.7233 1378.59 25.8761 1367.74 29.4514C1356.89 33.0266 1355.95 46.486 1356.84 52.7688C1356.61 61.2912 1350.2 75.3346 1326.35 63.3285" stroke="#FF0000" stroke-width="8" stroke-linecap="round"/>
<path d="M1399 319.803C1401.4 317.339 1404.68 308.844 1398.6 294.583C1392.51 280.322 1383.32 277.599 1379.48 278.019C1373.78 276.769 1362.32 266.992 1362.05 237.884" stroke="#FF0000" stroke-width="8" stroke-linecap="round"/>
<path d="M1025.74 226.131L1076.03 278.874L978.197 281.354L1025.74 226.131Z" fill="#FFF500"/>
<path d="M1310.03 119.207L1297.75 152.147L1276.04 110.219L1310.03 119.207Z" fill="#0047FF"/>
<circle cx="1141.37" cy="190.189" r="31" transform="rotate(-1.45211 1141.37 190.189)" fill="#0047FF"/>
<circle cx="1323.94" cy="210.569" r="20" transform="rotate(-1.45211 1323.94 210.569)" fill="#14FF00"/>
<circle cx="1244.5" cy="32.5004" r="20" transform="rotate(-1.45211 1244.5 32.5004)" fill="#14FF00"/>
<circle cx="1196.08" cy="316.343" r="13.5" transform="rotate(-1.45211 1196.08 316.343)" fill="#14FF00"/>
<circle cx="1375.84" cy="131.838" r="13.5" transform="rotate(-1.45211 1375.84 131.838)" fill="#FFF500"/>
<circle cx="1058.51" cy="58.747" r="13.5" transform="rotate(-1.45211 1058.51 58.747)" fill="#14FF00"/>
<circle cx="645.838" cy="49.8378" r="13.5" transform="rotate(-1.45211 645.838 49.8378)" fill="#14FF00"/>
<path d="M433.973 92.1245C422.85 94.5852 406.523 87.2692 408.556 111.224C410.588 135.178 432.678 126.377 445.973 127.624C463.312 132.236 491.473 138.624 474.973 176.124" stroke="#FF0000" stroke-width="8" stroke-linecap="round"/>
<path d="M699.199 136.855C704.204 138.916 715.642 140.565 721.355 130.673C727.069 120.781 718.807 110.114 713.962 106.017C708.454 99.5101 703.886 84.7641 729.677 77.836" stroke="#FF0000" stroke-width="8" stroke-linecap="round"/>
<path d="M900.9 319.802C905.905 321.863 917.343 323.513 923.056 313.621C928.77 303.729 920.508 293.062 915.663 288.965C910.155 282.458 905.586 267.711 931.378 260.783" stroke="#FF0000" stroke-width="8" stroke-linecap="round"/>
<path d="M667.554 222.013C660.773 231.166 651.521 253.658 668.766 270.407C686.012 287.156 712.031 275.787 722.885 268.008C738.998 260.117 771.441 258.382 772.306 314.578" stroke="#FF0000" stroke-width="8" stroke-linecap="round"/>
<path d="M645.149 110.5L628.332 181.404L572.936 100.731L645.149 110.5Z" fill="#FFF500"/>
<path d="M1318.1 282.769L1304.83 338.744L1261.1 275.057L1318.1 282.769Z" fill="#0047FF"/>
<path d="M933.797 163.142L981.717 176.582L925.13 212.15L933.797 163.142Z" fill="#0047FF"/>
<path d="M819.517 253.139L859.594 233.919L842.582 291.133L819.517 253.139Z" fill="#FFF500"/>
<path d="M1217.25 198.042L1257.33 178.822L1240.31 236.037L1217.25 198.042Z" fill="#FFF500"/>
<circle cx="554.363" cy="207.363" r="34.5" transform="rotate(-1.45211 554.363 207.363)" fill="#0047FF"/>
<circle cx="840.052" cy="122.303" r="34.5" transform="rotate(-1.45211 840.052 122.303)" fill="#FFF500"/>
<circle cx="763.415" cy="196.769" r="20" transform="rotate(-1.45211 763.415 196.769)" fill="#14FF00"/>
<circle cx="897.316" cy="33.3238" r="20" transform="rotate(-1.45211 897.316 33.3238)" fill="#0047FF"/>
<circle cx="500.319" cy="294.968" r="12.5" transform="rotate(-1.45211 500.319 294.968)" fill="#14FF00"/>
<path d="M1096.72 322.892C1106.9 303.627 1137.67 265.135 1179.28 265.281" stroke="#FF0000" stroke-width="10" stroke-linecap="round"/>
<path d="M1086.17 25.0862C1124.11 37.7619 1203.03 81.9459 1215.14 157.277" stroke="#FF0000" stroke-width="10" stroke-linecap="round"/>
</svg>
