<svg width="1387" height="365" viewBox="0 0 1387 365" fill="none" xmlns="http://www.w3.org/2000/svg">
<path d="M34.8998 130.459C29.4257 134.046 20.0988 146.999 26.5844 170.117C33.0701 193.236 49.6614 198.603 57.1464 198.396C67.5791 201.034 85.9551 217.747 75.9973 263.497" stroke="#FF0000" stroke-width="8" stroke-linecap="round"/>
<path d="M325.572 173.452C323.017 168.68 315.234 160.138 304.537 164.145C293.839 168.152 293.439 181.639 294.577 187.881C294.695 196.405 288.852 210.694 264.535 199.654" stroke="#FF0000" stroke-width="8" stroke-linecap="round"/>
<path d="M821.68 85.7228C826.17 82.7003 833.884 74.0956 828.819 63.8566C823.754 53.6176 810.296 54.579 804.201 56.3396C795.731 57.3162 780.926 52.9429 789.46 27.6372" stroke="#FF0000" stroke-width="8" stroke-linecap="round"/>
<path d="M223.267 315.361C224.347 321.794 232.683 335.642 257.381 339.566C282.079 343.49 294.216 330.842 297.197 324.027C304.13 315.764 327.795 306.298 366.995 334.549" stroke="#FF0000" stroke-width="8" stroke-linecap="round"/>
<path d="M169.379 167.694L221.736 218.379L124.084 224.778L169.379 167.694Z" fill="#FFF500"/>
<path d="M368.184 88.8228L431.667 97.7579L365.53 152.877L368.184 88.8228Z" fill="#FFF500"/>
<path d="M35.1946 305.98L77.047 311.87L33.4452 348.208L35.1946 305.98Z" fill="#FFF500"/>
<path d="M215.044 113.624L259.491 113.457L219.578 157.84L215.044 113.624Z" fill="#0047FF"/>
<path d="M37.8431 69.1776L74.3761 79.4077L19.2223 102.232L37.8431 69.1776Z" fill="#0047FF"/>
<circle cx="141.27" cy="294.27" r="33.1718" transform="rotate(-3.74909 141.27 294.27)" fill="#0047FF"/>
<circle cx="351.265" cy="242.265" r="20" transform="rotate(-3.74909 351.265 242.265)" fill="#14FF00"/>
<circle cx="144.522" cy="118.522" r="18.3605" transform="rotate(-3.74909 144.522 118.522)" fill="#14FF00"/>
<path d="M1008.24 46.8877C997.401 50.3988 976.805 63.334 981.115 86.9851C985.425 110.636 1013.21 116.494 1026.56 116.467C1044.26 119.402 1071.68 136.834 1039.74 183.081" stroke="#FF0000" stroke-width="8" stroke-linecap="round"/>
<path d="M1334.16 58.8975C1331.83 54.0558 1325.12 45.1825 1316.91 48.4222C1308.7 51.6619 1309.25 64.855 1310.55 71.0466C1311.2 79.4096 1307.49 93.0394 1287.53 80.654" stroke="#FF0000" stroke-width="8" stroke-linecap="round"/>
<path d="M1026.02 248.985L1078.37 299.67L980.721 306.069L1026.02 248.985Z" fill="#FFF500"/>
<path d="M407.493 313.472L420.396 265.744L455.892 323.573L407.493 313.472Z" fill="#FFF500"/>
<path d="M1305.79 130.753L1294.84 164.159L1271.47 123.135L1305.79 130.753Z" fill="#0047FF"/>
<path d="M749.674 60.6851L738.72 94.0911L715.353 53.0672L749.674 60.6851Z" fill="#0047FF"/>
<circle cx="1140.11" cy="208.439" r="31" transform="rotate(-3.74909 1140.11 208.439)" fill="#0047FF"/>
<circle cx="1323.35" cy="221.484" r="20" transform="rotate(-3.74909 1323.35 221.484)" fill="#14FF00"/>
<circle cx="1236.84" cy="46.7427" r="20" transform="rotate(-3.74909 1236.84 46.7427)" fill="#14FF00"/>
<circle cx="1208.84" cy="332.298" r="13.5" transform="rotate(-3.74909 1208.84 332.298)" fill="#14FF00"/>
<circle cx="1372.05" cy="140.736" r="13.5" transform="rotate(-3.74909 1372.05 140.736)" fill="#FFF500"/>
<circle cx="271.354" cy="277.354" r="13.5" transform="rotate(-3.74909 271.354 277.354)" fill="#FFF500"/>
<circle cx="60.7668" cy="39.7668" r="8.24529" transform="rotate(-3.74909 60.7668 39.7668)" fill="#FFF500"/>
<circle cx="1052.05" cy="80.4225" r="13.5" transform="rotate(-3.74909 1052.05 80.4225)" fill="#14FF00"/>
<circle cx="671.934" cy="102.354" r="10.2833" transform="rotate(-3.74909 671.934 102.354)" fill="#14FF00"/>
<circle cx="14.3538" cy="247.354" r="13.5" transform="rotate(-3.74909 14.3538 247.354)" fill="#14FF00"/>
<path d="M419.081 168.221C408.066 171.125 391.459 164.469 394.45 188.323C397.441 212.177 419.16 202.498 432.494 203.211C450.004 207.124 478.398 212.379 463.414 250.51" stroke="#FF0000" stroke-width="8" stroke-linecap="round"/>
<path d="M691.44 173.253C694.866 177.56 705.28 184.451 719.536 177.554C733.791 170.657 734.275 156.538 732.734 150.34C732.546 141.51 740.287 125.166 772.767 130.432" stroke="#FF0000" stroke-width="8" stroke-linecap="round"/>
<path d="M906.855 342.57C912.045 344.106 923.592 344.571 928.259 334.145C932.925 323.718 923.611 313.956 918.371 310.379C912.223 304.472 906.164 290.274 931.107 280.732" stroke="#FF0000" stroke-width="8" stroke-linecap="round"/>
<path d="M572.917 102.409C578.166 101.09 588.344 95.6155 587.055 84.2651C585.767 72.9147 572.782 69.2502 566.451 68.8367C558.153 66.88 545.712 57.7403 562.33 36.8345" stroke="#FF0000" stroke-width="8" stroke-linecap="round"/>
<path d="M668.677 240.614C664.095 246.302 656.673 259.108 663.649 264.834C670.624 270.56 685.431 260.716 691.962 255.079C701.231 248.554 718.238 242.556 712.118 270.767" stroke="#FF0000" stroke-width="8" stroke-linecap="round"/>
<path d="M645.011 146.542L631.048 218.063L572.464 139.676L645.011 146.542Z" fill="#FFF500"/>
<path d="M1320.41 293.86L1309.39 350.322L1263.14 288.44L1320.41 293.86Z" fill="#0047FF"/>
<path d="M931.62 189.732L980.04 201.241L924.924 239.048L931.62 189.732Z" fill="#0047FF"/>
<path d="M822.49 265.4L861.764 244.589L847.059 302.439L822.49 265.4Z" fill="#FFF500"/>
<path d="M1216.24 213.244L1255.52 192.433L1240.81 250.283L1216.24 213.244Z" fill="#FFF500"/>
<path d="M1108.8 104.364L1143.85 121.554L1108.09 143.392L1108.8 104.364Z" fill="#FFF500"/>
<path d="M626.644 28.6081L661.69 45.7986L625.933 67.6365L626.644 28.6081Z" fill="#FFF500"/>
<path d="M98.6165 123.042L73.3139 137.059L85.8565 97.0826L98.6165 123.042Z" fill="#FFF500"/>
<circle cx="554.263" cy="249.125" r="34.5" transform="rotate(-3.74909 554.263 249.125)" fill="#0047FF"/>
<circle cx="846.682" cy="167.682" r="34.5" transform="rotate(-3.74909 846.682 167.682)" fill="#FFF500"/>
<circle cx="762.722" cy="230.161" r="20" transform="rotate(-3.74909 762.722 230.161)" fill="#14FF00"/>
<circle cx="499.265" cy="137.265" r="20" transform="rotate(-3.74909 499.265 137.265)" fill="#14FF00"/>
<circle cx="311.178" cy="99.1785" r="11.454" transform="rotate(-3.74909 311.178 99.1785)" fill="#14FF00"/>
<circle cx="939.407" cy="130.407" r="19.1927" transform="rotate(-3.74909 939.407 130.407)" fill="#14FF00"/>
<circle cx="889.965" cy="61.4803" r="20" transform="rotate(-3.74909 889.965 61.4803)" fill="#0047FF"/>
<circle cx="98.3004" cy="171.3" r="13.4497" transform="rotate(-3.74909 98.3004 171.3)" fill="#0047FF"/>
<path d="M1100.81 342.824C1110.21 323.167 1139.41 283.472 1181 281.95" stroke="#FF0000" stroke-width="10" stroke-linecap="round"/>
<path d="M1077.65 28.694C1116.08 39.8387 1196.7 80.8242 1211.83 155.609" stroke="#FF0000" stroke-width="8" stroke-linecap="round"/>
</svg>
